<svg xmlns="http://www.w3.org/2000/svg" xmlns:xlink="http://www.w3.org/1999/xlink" width="500" zoomAndPan="magnify" viewBox="0 0 375 374.999991" height="500" preserveAspectRatio="xMidYMid meet" version="1.0"><defs><g/><clipPath id="c5742bbc40"><path d="M 9.808594 9.808594 L 365.191406 9.808594 L 365.191406 365.191406 L 9.808594 365.191406 Z M 9.808594 9.808594 " clip-rule="nonzero"/></clipPath><clipPath id="10b868a68c"><path d="M 152.449219 200.132812 L 222.550781 200.132812 L 222.550781 270.234375 L 152.449219 270.234375 Z M 152.449219 200.132812 " clip-rule="nonzero"/></clipPath><clipPath id="0c4b3065ad"><path d="M 187.5 200.132812 C 168.140625 200.132812 152.449219 215.828125 152.449219 235.183594 C 152.449219 254.542969 168.140625 270.234375 187.5 270.234375 C 206.859375 270.234375 222.550781 254.542969 222.550781 235.183594 C 222.550781 215.828125 206.859375 200.132812 187.5 200.132812 Z M 187.5 200.132812 " clip-rule="nonzero"/></clipPath><clipPath id="f4c3b3e8fe"><path d="M 34.960938 200.132812 L 188.257812 200.132812 L 188.257812 207.976562 L 34.960938 207.976562 Z M 34.960938 200.132812 " clip-rule="nonzero"/></clipPath><clipPath id="f24e32406c"><path d="M 38.882812 200.132812 L 184.328125 200.132812 C 186.496094 200.132812 188.25 201.890625 188.25 204.054688 C 188.25 206.21875 186.496094 207.976562 184.328125 207.976562 L 38.882812 207.976562 C 36.71875 207.976562 34.960938 206.21875 34.960938 204.054688 C 34.960938 201.890625 36.71875 200.132812 38.882812 200.132812 Z M 38.882812 200.132812 " clip-rule="nonzero"/></clipPath><clipPath id="d411d5d7cd"><path d="M 110.855469 212.703125 L 187.519531 212.703125 L 187.519531 220.542969 L 110.855469 220.542969 Z M 110.855469 212.703125 " clip-rule="nonzero"/></clipPath><clipPath id="7d8a55d5aa"><path d="M 114.777344 212.703125 L 183.578125 212.703125 C 185.746094 212.703125 187.5 214.457031 187.5 216.621094 C 187.5 218.789062 185.746094 220.542969 183.578125 220.542969 L 114.777344 220.542969 C 112.613281 220.542969 110.855469 218.789062 110.855469 216.621094 C 110.855469 214.457031 112.613281 212.703125 114.777344 212.703125 Z M 114.777344 212.703125 " clip-rule="nonzero"/></clipPath></defs><rect x="-37.5" width="450" fill="#ffffff" y="-37.499999" height="449.999989" fill-opacity="1"/><rect x="-37.5" width="450" fill="#f6f4f0" y="-37.499999" height="449.999989" fill-opacity="1"/><g clip-path="url(#c5742bbc40)"><path fill="#222222" d="M 12.808594 8.308594 L 14.308594 8.308594 L 14.308594 11.308594 L 12.808594 11.308594 Z M 15.808594 8.308594 L 17.308594 8.308594 L 17.308594 11.308594 L 15.808594 11.308594 Z M 18.808594 8.308594 L 20.308594 8.308594 L 20.308594 11.308594 L 18.808594 11.308594 Z M 21.808594 8.308594 L 23.308594 8.308594 L 23.308594 11.308594 L 21.808594 11.308594 Z M 24.808594 8.308594 L 26.308594 8.308594 L 26.308594 11.308594 L 24.808594 11.308594 Z M 27.808594 8.308594 L 29.308594 8.308594 L 29.308594 11.308594 L 27.808594 11.308594 Z M 30.808594 8.308594 L 32.308594 8.308594 L 32.308594 11.308594 L 30.808594 11.308594 Z M 33.808594 8.308594 L 35.308594 8.308594 L 35.308594 11.308594 L 33.808594 11.308594 Z M 36.808594 8.308594 L 38.308594 8.308594 L 38.308594 11.308594 L 36.808594 11.308594 Z M 39.808594 8.308594 L 41.308594 8.308594 L 41.308594 11.308594 L 39.808594 11.308594 Z M 42.808594 8.308594 L 44.308594 8.308594 L 44.308594 11.308594 L 42.808594 11.308594 Z M 45.808594 8.308594 L 47.308594 8.308594 L 47.308594 11.308594 L 45.808594 11.308594 Z M 48.808594 8.308594 L 50.308594 8.308594 L 50.308594 11.308594 L 48.808594 11.308594 Z M 51.808594 8.308594 L 53.308594 8.308594 L 53.308594 11.308594 L 51.808594 11.308594 Z M 54.808594 8.308594 L 56.308594 8.308594 L 56.308594 11.308594 L 54.808594 11.308594 Z M 57.808594 8.308594 L 59.308594 8.308594 L 59.308594 11.308594 L 57.808594 11.308594 Z M 60.808594 8.308594 L 62.308594 8.308594 L 62.308594 11.308594 L 60.808594 11.308594 Z M 63.808594 8.308594 L 65.308594 8.308594 L 65.308594 11.308594 L 63.808594 11.308594 Z M 66.808594 8.308594 L 68.308594 8.308594 L 68.308594 11.308594 L 66.808594 11.308594 Z M 69.808594 8.308594 L 71.308594 8.308594 L 71.308594 11.308594 L 69.808594 11.308594 Z M 72.808594 8.308594 L 74.308594 8.308594 L 74.308594 11.308594 L 72.808594 11.308594 Z M 75.808594 8.308594 L 77.308594 8.308594 L 77.308594 11.308594 L 75.808594 11.308594 Z M 78.808594 8.308594 L 80.308594 8.308594 L 80.308594 11.308594 L 78.808594 11.308594 Z M 81.808594 8.308594 L 83.308594 8.308594 L 83.308594 11.308594 L 81.808594 11.308594 Z M 84.808594 8.308594 L 86.308594 8.308594 L 86.308594 11.308594 L 84.808594 11.308594 Z M 87.808594 8.308594 L 89.308594 8.308594 L 89.308594 11.308594 L 87.808594 11.308594 Z M 90.808594 8.308594 L 92.308594 8.308594 L 92.308594 11.308594 L 90.808594 11.308594 Z M 93.808594 8.308594 L 95.308594 8.308594 L 95.308594 11.308594 L 93.808594 11.308594 Z M 96.808594 8.308594 L 98.308594 8.308594 L 98.308594 11.308594 L 96.808594 11.308594 Z M 99.808594 8.308594 L 101.308594 8.308594 L 101.308594 11.308594 L 99.808594 11.308594 Z M 102.808594 8.308594 L 104.308594 8.308594 L 104.308594 11.308594 L 102.808594 11.308594 Z M 105.808594 8.308594 L 107.308594 8.308594 L 107.308594 11.308594 L 105.808594 11.308594 Z M 108.808594 8.308594 L 110.308594 8.308594 L 110.308594 11.308594 L 108.808594 11.308594 Z M 111.808594 8.308594 L 113.308594 8.308594 L 113.308594 11.308594 L 111.808594 11.308594 Z M 114.808594 8.308594 L 116.308594 8.308594 L 116.308594 11.308594 L 114.808594 11.308594 Z M 117.808594 8.308594 L 119.308594 8.308594 L 119.308594 11.308594 L 117.808594 11.308594 Z M 120.808594 8.308594 L 122.308594 8.308594 L 122.308594 11.308594 L 120.808594 11.308594 Z M 123.808594 8.308594 L 125.308594 8.308594 L 125.308594 11.308594 L 123.808594 11.308594 Z M 126.808594 8.308594 L 128.308594 8.308594 L 128.308594 11.308594 L 126.808594 11.308594 Z M 129.808594 8.308594 L 131.308594 8.308594 L 131.308594 11.308594 L 129.808594 11.308594 Z M 132.808594 8.308594 L 134.308594 8.308594 L 134.308594 11.308594 L 132.808594 11.308594 Z M 135.808594 8.308594 L 137.308594 8.308594 L 137.308594 11.308594 L 135.808594 11.308594 Z M 138.808594 8.308594 L 140.308594 8.308594 L 140.308594 11.308594 L 138.808594 11.308594 Z M 141.808594 8.308594 L 143.308594 8.308594 L 143.308594 11.308594 L 141.808594 11.308594 Z M 144.808594 8.308594 L 146.308594 8.308594 L 146.308594 11.308594 L 144.808594 11.308594 Z M 147.808594 8.308594 L 149.308594 8.308594 L 149.308594 11.308594 L 147.808594 11.308594 Z M 150.808594 8.308594 L 152.308594 8.308594 L 152.308594 11.308594 L 150.808594 11.308594 Z M 153.808594 8.308594 L 155.308594 8.308594 L 155.308594 11.308594 L 153.808594 11.308594 Z M 156.808594 8.308594 L 158.308594 8.308594 L 158.308594 11.308594 L 156.808594 11.308594 Z M 159.808594 8.308594 L 161.308594 8.308594 L 161.308594 11.308594 L 159.808594 11.308594 Z M 162.808594 8.308594 L 164.308594 8.308594 L 164.308594 11.308594 L 162.808594 11.308594 Z M 165.808594 8.308594 L 167.308594 8.308594 L 167.308594 11.308594 L 165.808594 11.308594 Z M 168.808594 8.308594 L 170.308594 8.308594 L 170.308594 11.308594 L 168.808594 11.308594 Z M 171.808594 8.308594 L 173.308594 8.308594 L 173.308594 11.308594 L 171.808594 11.308594 Z M 174.808594 8.308594 L 176.308594 8.308594 L 176.308594 11.308594 L 174.808594 11.308594 Z M 177.808594 8.308594 L 179.308594 8.308594 L 179.308594 11.308594 L 177.808594 11.308594 Z M 180.808594 8.308594 L 182.308594 8.308594 L 182.308594 11.308594 L 180.808594 11.308594 Z M 183.808594 8.308594 L 185.308594 8.308594 L 185.308594 11.308594 L 183.808594 11.308594 Z M 186.808594 8.308594 L 188.308594 8.308594 L 188.308594 11.308594 L 186.808594 11.308594 Z M 189.808594 8.308594 L 191.308594 8.308594 L 191.308594 11.308594 L 189.808594 11.308594 Z M 192.808594 8.308594 L 194.308594 8.308594 L 194.308594 11.308594 L 192.808594 11.308594 Z M 195.808594 8.308594 L 197.308594 8.308594 L 197.308594 11.308594 L 195.808594 11.308594 Z M 198.808594 8.308594 L 200.308594 8.308594 L 200.308594 11.308594 L 198.808594 11.308594 Z M 201.808594 8.308594 L 203.308594 8.308594 L 203.308594 11.308594 L 201.808594 11.308594 Z M 204.808594 8.308594 L 206.308594 8.308594 L 206.308594 11.308594 L 204.808594 11.308594 Z M 207.808594 8.308594 L 209.308594 8.308594 L 209.308594 11.308594 L 207.808594 11.308594 Z M 210.808594 8.308594 L 212.308594 8.308594 L 212.308594 11.308594 L 210.808594 11.308594 Z M 213.808594 8.308594 L 215.308594 8.308594 L 215.308594 11.308594 L 213.808594 11.308594 Z M 216.808594 8.308594 L 218.308594 8.308594 L 218.308594 11.308594 L 216.808594 11.308594 Z M 219.808594 8.308594 L 221.308594 8.308594 L 221.308594 11.308594 L 219.808594 11.308594 Z M 222.808594 8.308594 L 224.308594 8.308594 L 224.308594 11.308594 L 222.808594 11.308594 Z M 225.808594 8.308594 L 227.308594 8.308594 L 227.308594 11.308594 L 225.808594 11.308594 Z M 228.808594 8.308594 L 230.308594 8.308594 L 230.308594 11.308594 L 228.808594 11.308594 Z M 231.808594 8.308594 L 233.308594 8.308594 L 233.308594 11.308594 L 231.808594 11.308594 Z M 234.808594 8.308594 L 236.308594 8.308594 L 236.308594 11.308594 L 234.808594 11.308594 Z M 237.808594 8.308594 L 239.308594 8.308594 L 239.308594 11.308594 L 237.808594 11.308594 Z M 240.808594 8.308594 L 242.308594 8.308594 L 242.308594 11.308594 L 240.808594 11.308594 Z M 243.808594 8.308594 L 245.308594 8.308594 L 245.308594 11.308594 L 243.808594 11.308594 Z M 246.808594 8.308594 L 248.308594 8.308594 L 248.308594 11.308594 L 246.808594 11.308594 Z M 249.808594 8.308594 L 251.308594 8.308594 L 251.308594 11.308594 L 249.808594 11.308594 Z M 252.808594 8.308594 L 254.308594 8.308594 L 254.308594 11.308594 L 252.808594 11.308594 Z M 255.808594 8.308594 L 257.308594 8.308594 L 257.308594 11.308594 L 255.808594 11.308594 Z M 258.808594 8.308594 L 260.308594 8.308594 L 260.308594 11.308594 L 258.808594 11.308594 Z M 261.808594 8.308594 L 263.308594 8.308594 L 263.308594 11.308594 L 261.808594 11.308594 Z M 264.808594 8.308594 L 266.308594 8.308594 L 266.308594 11.308594 L 264.808594 11.308594 Z M 267.808594 8.308594 L 269.308594 8.308594 L 269.308594 11.308594 L 267.808594 11.308594 Z M 270.808594 8.308594 L 272.308594 8.308594 L 272.308594 11.308594 L 270.808594 11.308594 Z M 273.808594 8.308594 L 275.308594 8.308594 L 275.308594 11.308594 L 273.808594 11.308594 Z M 276.808594 8.308594 L 278.308594 8.308594 L 278.308594 11.308594 L 276.808594 11.308594 Z M 279.808594 8.308594 L 281.308594 8.308594 L 281.308594 11.308594 L 279.808594 11.308594 Z M 282.808594 8.308594 L 284.308594 8.308594 L 284.308594 11.308594 L 282.808594 11.308594 Z M 285.808594 8.308594 L 287.308594 8.308594 L 287.308594 11.308594 L 285.808594 11.308594 Z M 288.808594 8.308594 L 290.308594 8.308594 L 290.308594 11.308594 L 288.808594 11.308594 Z M 291.808594 8.308594 L 293.308594 8.308594 L 293.308594 11.308594 L 291.808594 11.308594 Z M 294.808594 8.308594 L 296.308594 8.308594 L 296.308594 11.308594 L 294.808594 11.308594 Z M 297.808594 8.308594 L 299.308594 8.308594 L 299.308594 11.308594 L 297.808594 11.308594 Z M 300.808594 8.308594 L 302.308594 8.308594 L 302.308594 11.308594 L 300.808594 11.308594 Z M 303.808594 8.308594 L 305.308594 8.308594 L 305.308594 11.308594 L 303.808594 11.308594 Z M 306.808594 8.308594 L 308.308594 8.308594 L 308.308594 11.308594 L 306.808594 11.308594 Z M 309.808594 8.308594 L 311.308594 8.308594 L 311.308594 11.308594 L 309.808594 11.308594 Z M 312.808594 8.308594 L 314.308594 8.308594 L 314.308594 11.308594 L 312.808594 11.308594 Z M 315.808594 8.308594 L 317.308594 8.308594 L 317.308594 11.308594 L 315.808594 11.308594 Z M 318.808594 8.308594 L 320.308594 8.308594 L 320.308594 11.308594 L 318.808594 11.308594 Z M 321.808594 8.308594 L 323.308594 8.308594 L 323.308594 11.308594 L 321.808594 11.308594 Z M 324.808594 8.308594 L 326.308594 8.308594 L 326.308594 11.308594 L 324.808594 11.308594 Z M 327.808594 8.308594 L 329.308594 8.308594 L 329.308594 11.308594 L 327.808594 11.308594 Z M 330.808594 8.308594 L 332.308594 8.308594 L 332.308594 11.308594 L 330.808594 11.308594 Z M 333.808594 8.308594 L 335.308594 8.308594 L 335.308594 11.308594 L 333.808594 11.308594 Z M 336.808594 8.308594 L 338.308594 8.308594 L 338.308594 11.308594 L 336.808594 11.308594 Z M 339.808594 8.308594 L 341.308594 8.308594 L 341.308594 11.308594 L 339.808594 11.308594 Z M 342.808594 8.308594 L 344.308594 8.308594 L 344.308594 11.308594 L 342.808594 11.308594 Z M 345.808594 8.308594 L 347.308594 8.308594 L 347.308594 11.308594 L 345.808594 11.308594 Z M 348.808594 8.308594 L 350.308594 8.308594 L 350.308594 11.308594 L 348.808594 11.308594 Z M 351.808594 8.308594 L 353.308594 8.308594 L 353.308594 11.308594 L 351.808594 11.308594 Z M 354.808594 8.308594 L 356.308594 8.308594 L 356.308594 11.308594 L 354.808594 11.308594 Z M 357.808594 8.308594 L 359.308594 8.308594 L 359.308594 11.308594 L 357.808594 11.308594 Z M 360.808594 8.308594 L 362.308594 8.308594 L 362.308594 11.308594 L 360.808594 11.308594 Z M 363.808594 8.308594 L 366.691406 8.308594 L 366.691406 9.925781 L 363.691406 9.925781 L 363.691406 9.808594 L 365.191406 9.808594 L 365.191406 11.308594 L 363.808594 11.308594 Z M 366.691406 11.425781 L 366.691406 12.925781 L 363.691406 12.925781 L 363.691406 11.425781 Z M 366.691406 14.425781 L 366.691406 15.925781 L 363.691406 15.925781 L 363.691406 14.425781 Z M 366.691406 17.425781 L 366.691406 18.925781 L 363.691406 18.925781 L 363.691406 17.425781 Z M 366.691406 20.425781 L 366.691406 21.925781 L 363.691406 21.925781 L 363.691406 20.425781 Z M 366.691406 23.425781 L 366.691406 24.925781 L 363.691406 24.925781 L 363.691406 23.425781 Z M 366.691406 26.425781 L 366.691406 27.925781 L 363.691406 27.925781 L 363.691406 26.425781 Z M 366.691406 29.425781 L 366.691406 30.925781 L 363.691406 30.925781 L 363.691406 29.425781 Z M 366.691406 32.425781 L 366.691406 33.925781 L 363.691406 33.925781 L 363.691406 32.425781 Z M 366.691406 35.425781 L 366.691406 36.925781 L 363.691406 36.925781 L 363.691406 35.425781 Z M 366.691406 38.425781 L 366.691406 39.925781 L 363.691406 39.925781 L 363.691406 38.425781 Z M 366.691406 41.425781 L 366.691406 42.925781 L 363.691406 42.925781 L 363.691406 41.425781 Z M 366.691406 44.425781 L 366.691406 45.925781 L 363.691406 45.925781 L 363.691406 44.425781 Z M 366.691406 47.425781 L 366.691406 48.925781 L 363.691406 48.925781 L 363.691406 47.425781 Z M 366.691406 50.425781 L 366.691406 51.925781 L 363.691406 51.925781 L 363.691406 50.425781 Z M 366.691406 53.425781 L 366.691406 54.925781 L 363.691406 54.925781 L 363.691406 53.425781 Z M 366.691406 56.425781 L 366.691406 57.925781 L 363.691406 57.925781 L 363.691406 56.425781 Z M 366.691406 59.425781 L 366.691406 60.925781 L 363.691406 60.925781 L 363.691406 59.425781 Z M 366.691406 62.425781 L 366.691406 63.925781 L 363.691406 63.925781 L 363.691406 62.425781 Z M 366.691406 65.425781 L 366.691406 66.925781 L 363.691406 66.925781 L 363.691406 65.425781 Z M 366.691406 68.425781 L 366.691406 69.925781 L 363.691406 69.925781 L 363.691406 68.425781 Z M 366.691406 71.425781 L 366.691406 72.925781 L 363.691406 72.925781 L 363.691406 71.425781 Z M 366.691406 74.425781 L 366.691406 75.925781 L 363.691406 75.925781 L 363.691406 74.425781 Z M 366.691406 77.425781 L 366.691406 78.925781 L 363.691406 78.925781 L 363.691406 77.425781 Z M 366.691406 80.425781 L 366.691406 81.925781 L 363.691406 81.925781 L 363.691406 80.425781 Z M 366.691406 83.425781 L 366.691406 84.925781 L 363.691406 84.925781 L 363.691406 83.425781 Z M 366.691406 86.425781 L 366.691406 87.925781 L 363.691406 87.925781 L 363.691406 86.425781 Z M 366.691406 89.425781 L 366.691406 90.925781 L 363.691406 90.925781 L 363.691406 89.425781 Z M 366.691406 92.425781 L 366.691406 93.925781 L 363.691406 93.925781 L 363.691406 92.425781 Z M 366.691406 95.425781 L 366.691406 96.925781 L 363.691406 96.925781 L 363.691406 95.425781 Z M 366.691406 98.425781 L 366.691406 99.925781 L 363.691406 99.925781 L 363.691406 98.425781 Z M 366.691406 101.425781 L 366.691406 102.925781 L 363.691406 102.925781 L 363.691406 101.425781 Z M 366.691406 104.425781 L 366.691406 105.925781 L 363.691406 105.925781 L 363.691406 104.425781 Z M 366.691406 107.425781 L 366.691406 108.925781 L 363.691406 108.925781 L 363.691406 107.425781 Z M 366.691406 110.425781 L 366.691406 111.925781 L 363.691406 111.925781 L 363.691406 110.425781 Z M 366.691406 113.425781 L 366.691406 114.925781 L 363.691406 114.925781 L 363.691406 113.425781 Z M 366.691406 116.425781 L 366.691406 117.925781 L 363.691406 117.925781 L 363.691406 116.425781 Z M 366.691406 119.425781 L 366.691406 120.925781 L 363.691406 120.925781 L 363.691406 119.425781 Z M 366.691406 122.425781 L 366.691406 123.925781 L 363.691406 123.925781 L 363.691406 122.425781 Z M 366.691406 125.425781 L 366.691406 126.925781 L 363.691406 126.925781 L 363.691406 125.425781 Z M 366.691406 128.425781 L 366.691406 129.925781 L 363.691406 129.925781 L 363.691406 128.425781 Z M 366.691406 131.425781 L 366.691406 132.925781 L 363.691406 132.925781 L 363.691406 131.425781 Z M 366.691406 134.425781 L 366.691406 135.925781 L 363.691406 135.925781 L 363.691406 134.425781 Z M 366.691406 137.425781 L 366.691406 138.925781 L 363.691406 138.925781 L 363.691406 137.425781 Z M 366.691406 140.425781 L 366.691406 141.925781 L 363.691406 141.925781 L 363.691406 140.425781 Z M 366.691406 143.425781 L 366.691406 144.925781 L 363.691406 144.925781 L 363.691406 143.425781 Z M 366.691406 146.425781 L 366.691406 147.925781 L 363.691406 147.925781 L 363.691406 146.425781 Z M 366.691406 149.425781 L 366.691406 150.925781 L 363.691406 150.925781 L 363.691406 149.425781 Z M 366.691406 152.425781 L 366.691406 153.925781 L 363.691406 153.925781 L 363.691406 152.425781 Z M 366.691406 155.425781 L 366.691406 156.925781 L 363.691406 156.925781 L 363.691406 155.425781 Z M 366.691406 158.425781 L 366.691406 159.925781 L 363.691406 159.925781 L 363.691406 158.425781 Z M 366.691406 161.425781 L 366.691406 162.925781 L 363.691406 162.925781 L 363.691406 161.425781 Z M 366.691406 164.425781 L 366.691406 165.925781 L 363.691406 165.925781 L 363.691406 164.425781 Z M 366.691406 167.425781 L 366.691406 168.925781 L 363.691406 168.925781 L 363.691406 167.425781 Z M 366.691406 170.425781 L 366.691406 171.925781 L 363.691406 171.925781 L 363.691406 170.425781 Z M 366.691406 173.425781 L 366.691406 174.925781 L 363.691406 174.925781 L 363.691406 173.425781 Z M 366.691406 176.425781 L 366.691406 177.925781 L 363.691406 177.925781 L 363.691406 176.425781 Z M 366.691406 179.425781 L 366.691406 180.925781 L 363.691406 180.925781 L 363.691406 179.425781 Z M 366.691406 182.425781 L 366.691406 183.925781 L 363.691406 183.925781 L 363.691406 182.425781 Z M 366.691406 185.425781 L 366.691406 186.925781 L 363.691406 186.925781 L 363.691406 185.425781 Z M 366.691406 188.425781 L 366.691406 189.925781 L 363.691406 189.925781 L 363.691406 188.425781 Z M 366.691406 191.425781 L 366.691406 192.925781 L 363.691406 192.925781 L 363.691406 191.425781 Z M 366.691406 194.425781 L 366.691406 195.925781 L 363.691406 195.925781 L 363.691406 194.425781 Z M 366.691406 197.425781 L 366.691406 198.925781 L 363.691406 198.925781 L 363.691406 197.425781 Z M 366.691406 200.425781 L 366.691406 201.925781 L 363.691406 201.925781 L 363.691406 200.425781 Z M 366.691406 203.425781 L 366.691406 204.925781 L 363.691406 204.925781 L 363.691406 203.425781 Z M 366.691406 206.425781 L 366.691406 207.925781 L 363.691406 207.925781 L 363.691406 206.425781 Z M 366.691406 209.425781 L 366.691406 210.925781 L 363.691406 210.925781 L 363.691406 209.425781 Z M 366.691406 212.425781 L 366.691406 213.925781 L 363.691406 213.925781 L 363.691406 212.425781 Z M 366.691406 215.425781 L 366.691406 216.925781 L 363.691406 216.925781 L 363.691406 215.425781 Z M 366.691406 218.425781 L 366.691406 219.925781 L 363.691406 219.925781 L 363.691406 218.425781 Z M 366.691406 221.425781 L 366.691406 222.925781 L 363.691406 222.925781 L 363.691406 221.425781 Z M 366.691406 224.425781 L 366.691406 225.925781 L 363.691406 225.925781 L 363.691406 224.425781 Z M 366.691406 227.425781 L 366.691406 228.925781 L 363.691406 228.925781 L 363.691406 227.425781 Z M 366.691406 230.425781 L 366.691406 231.925781 L 363.691406 231.925781 L 363.691406 230.425781 Z M 366.691406 233.425781 L 366.691406 234.925781 L 363.691406 234.925781 L 363.691406 233.425781 Z M 366.691406 236.425781 L 366.691406 237.925781 L 363.691406 237.925781 L 363.691406 236.425781 Z M 366.691406 239.425781 L 366.691406 240.925781 L 363.691406 240.925781 L 363.691406 239.425781 Z M 366.691406 242.425781 L 366.691406 243.925781 L 363.691406 243.925781 L 363.691406 242.425781 Z M 366.691406 245.425781 L 366.691406 246.925781 L 363.691406 246.925781 L 363.691406 245.425781 Z M 366.691406 248.425781 L 366.691406 249.925781 L 363.691406 249.925781 L 363.691406 248.425781 Z M 366.691406 251.425781 L 366.691406 252.925781 L 363.691406 252.925781 L 363.691406 251.425781 Z M 366.691406 254.425781 L 366.691406 255.925781 L 363.691406 255.925781 L 363.691406 254.425781 Z M 366.691406 257.425781 L 366.691406 258.925781 L 363.691406 258.925781 L 363.691406 257.425781 Z M 366.691406 260.425781 L 366.691406 261.925781 L 363.691406 261.925781 L 363.691406 260.425781 Z M 366.691406 263.425781 L 366.691406 264.925781 L 363.691406 264.925781 L 363.691406 263.425781 Z M 366.691406 266.425781 L 366.691406 267.925781 L 363.691406 267.925781 L 363.691406 266.425781 Z M 366.691406 269.425781 L 366.691406 270.925781 L 363.691406 270.925781 L 363.691406 269.425781 Z M 366.691406 272.425781 L 366.691406 273.925781 L 363.691406 273.925781 L 363.691406 272.425781 Z M 366.691406 275.425781 L 366.691406 276.925781 L 363.691406 276.925781 L 363.691406 275.425781 Z M 366.691406 278.425781 L 366.691406 279.925781 L 363.691406 279.925781 L 363.691406 278.425781 Z M 366.691406 281.425781 L 366.691406 282.925781 L 363.691406 282.925781 L 363.691406 281.425781 Z M 366.691406 284.425781 L 366.691406 285.925781 L 363.691406 285.925781 L 363.691406 284.425781 Z M 366.691406 287.425781 L 366.691406 288.925781 L 363.691406 288.925781 L 363.691406 287.425781 Z M 366.691406 290.425781 L 366.691406 291.925781 L 363.691406 291.925781 L 363.691406 290.425781 Z M 366.691406 293.425781 L 366.691406 294.925781 L 363.691406 294.925781 L 363.691406 293.425781 Z M 366.691406 296.425781 L 366.691406 297.925781 L 363.691406 297.925781 L 363.691406 296.425781 Z M 366.691406 299.425781 L 366.691406 300.925781 L 363.691406 300.925781 L 363.691406 299.425781 Z M 366.691406 302.425781 L 366.691406 303.925781 L 363.691406 303.925781 L 363.691406 302.425781 Z M 366.691406 305.425781 L 366.691406 306.925781 L 363.691406 306.925781 L 363.691406 305.425781 Z M 366.691406 308.425781 L 366.691406 309.925781 L 363.691406 309.925781 L 363.691406 308.425781 Z M 366.691406 311.425781 L 366.691406 312.925781 L 363.691406 312.925781 L 363.691406 311.425781 Z M 366.691406 314.425781 L 366.691406 315.925781 L 363.691406 315.925781 L 363.691406 314.425781 Z M 366.691406 317.425781 L 366.691406 318.925781 L 363.691406 318.925781 L 363.691406 317.425781 Z M 366.691406 320.425781 L 366.691406 321.925781 L 363.691406 321.925781 L 363.691406 320.425781 Z M 366.691406 323.425781 L 366.691406 324.925781 L 363.691406 324.925781 L 363.691406 323.425781 Z M 366.691406 326.425781 L 366.691406 327.925781 L 363.691406 327.925781 L 363.691406 326.425781 Z M 366.691406 329.425781 L 366.691406 330.925781 L 363.691406 330.925781 L 363.691406 329.425781 Z M 366.691406 332.425781 L 366.691406 333.925781 L 363.691406 333.925781 L 363.691406 332.425781 Z M 366.691406 335.425781 L 366.691406 336.925781 L 363.691406 336.925781 L 363.691406 335.425781 Z M 366.691406 338.425781 L 366.691406 339.925781 L 363.691406 339.925781 L 363.691406 338.425781 Z M 366.691406 341.425781 L 366.691406 342.925781 L 363.691406 342.925781 L 363.691406 341.425781 Z M 366.691406 344.425781 L 366.691406 345.925781 L 363.691406 345.925781 L 363.691406 344.425781 Z M 366.691406 347.425781 L 366.691406 348.925781 L 363.691406 348.925781 L 363.691406 347.425781 Z M 366.691406 350.425781 L 366.691406 351.925781 L 363.691406 351.925781 L 363.691406 350.425781 Z M 366.691406 353.425781 L 366.691406 354.925781 L 363.691406 354.925781 L 363.691406 353.425781 Z M 366.691406 356.425781 L 366.691406 357.925781 L 363.691406 357.925781 L 363.691406 356.425781 Z M 366.691406 359.425781 L 366.691406 360.925781 L 363.691406 360.925781 L 363.691406 359.425781 Z M 366.691406 362.425781 L 366.691406 363.925781 L 363.691406 363.925781 L 363.691406 362.425781 Z M 364.957031 366.691406 L 363.457031 366.691406 L 363.457031 363.691406 L 364.957031 363.691406 Z M 361.957031 366.691406 L 360.457031 366.691406 L 360.457031 363.691406 L 361.957031 363.691406 Z M 358.957031 366.691406 L 357.457031 366.691406 L 357.457031 363.691406 L 358.957031 363.691406 Z M 355.957031 366.691406 L 354.457031 366.691406 L 354.457031 363.691406 L 355.957031 363.691406 Z M 352.957031 366.691406 L 351.457031 366.691406 L 351.457031 363.691406 L 352.957031 363.691406 Z M 349.957031 366.691406 L 348.457031 366.691406 L 348.457031 363.691406 L 349.957031 363.691406 Z M 346.957031 366.691406 L 345.457031 366.691406 L 345.457031 363.691406 L 346.957031 363.691406 Z M 343.957031 366.691406 L 342.457031 366.691406 L 342.457031 363.691406 L 343.957031 363.691406 Z M 340.957031 366.691406 L 339.457031 366.691406 L 339.457031 363.691406 L 340.957031 363.691406 Z M 337.957031 366.691406 L 336.457031 366.691406 L 336.457031 363.691406 L 337.957031 363.691406 Z M 334.957031 366.691406 L 333.457031 366.691406 L 333.457031 363.691406 L 334.957031 363.691406 Z M 331.957031 366.691406 L 330.457031 366.691406 L 330.457031 363.691406 L 331.957031 363.691406 Z M 328.957031 366.691406 L 327.457031 366.691406 L 327.457031 363.691406 L 328.957031 363.691406 Z M 325.957031 366.691406 L 324.457031 366.691406 L 324.457031 363.691406 L 325.957031 363.691406 Z M 322.957031 366.691406 L 321.457031 366.691406 L 321.457031 363.691406 L 322.957031 363.691406 Z M 319.957031 366.691406 L 318.457031 366.691406 L 318.457031 363.691406 L 319.957031 363.691406 Z M 316.957031 366.691406 L 315.457031 366.691406 L 315.457031 363.691406 L 316.957031 363.691406 Z M 313.957031 366.691406 L 312.457031 366.691406 L 312.457031 363.691406 L 313.957031 363.691406 Z M 310.957031 366.691406 L 309.457031 366.691406 L 309.457031 363.691406 L 310.957031 363.691406 Z M 307.957031 366.691406 L 306.457031 366.691406 L 306.457031 363.691406 L 307.957031 363.691406 Z M 304.957031 366.691406 L 303.457031 366.691406 L 303.457031 363.691406 L 304.957031 363.691406 Z M 301.957031 366.691406 L 300.457031 366.691406 L 300.457031 363.691406 L 301.957031 363.691406 Z M 298.957031 366.691406 L 297.457031 366.691406 L 297.457031 363.691406 L 298.957031 363.691406 Z M 295.957031 366.691406 L 294.457031 366.691406 L 294.457031 363.691406 L 295.957031 363.691406 Z M 292.957031 366.691406 L 291.457031 366.691406 L 291.457031 363.691406 L 292.957031 363.691406 Z M 289.957031 366.691406 L 288.457031 366.691406 L 288.457031 363.691406 L 289.957031 363.691406 Z M 286.957031 366.691406 L 285.457031 366.691406 L 285.457031 363.691406 L 286.957031 363.691406 Z M 283.957031 366.691406 L 282.457031 366.691406 L 282.457031 363.691406 L 283.957031 363.691406 Z M 280.957031 366.691406 L 279.457031 366.691406 L 279.457031 363.691406 L 280.957031 363.691406 Z M 277.957031 366.691406 L 276.457031 366.691406 L 276.457031 363.691406 L 277.957031 363.691406 Z M 274.957031 366.691406 L 273.457031 366.691406 L 273.457031 363.691406 L 274.957031 363.691406 Z M 271.957031 366.691406 L 270.457031 366.691406 L 270.457031 363.691406 L 271.957031 363.691406 Z M 268.957031 366.691406 L 267.457031 366.691406 L 267.457031 363.691406 L 268.957031 363.691406 Z M 265.957031 366.691406 L 264.457031 366.691406 L 264.457031 363.691406 L 265.957031 363.691406 Z M 262.957031 366.691406 L 261.457031 366.691406 L 261.457031 363.691406 L 262.957031 363.691406 Z M 259.957031 366.691406 L 258.457031 366.691406 L 258.457031 363.691406 L 259.957031 363.691406 Z M 256.957031 366.691406 L 255.457031 366.691406 L 255.457031 363.691406 L 256.957031 363.691406 Z M 253.957031 366.691406 L 252.457031 366.691406 L 252.457031 363.691406 L 253.957031 363.691406 Z M 250.957031 366.691406 L 249.457031 366.691406 L 249.457031 363.691406 L 250.957031 363.691406 Z M 247.957031 366.691406 L 246.457031 366.691406 L 246.457031 363.691406 L 247.957031 363.691406 Z M 244.957031 366.691406 L 243.457031 366.691406 L 243.457031 363.691406 L 244.957031 363.691406 Z M 241.957031 366.691406 L 240.457031 366.691406 L 240.457031 363.691406 L 241.957031 363.691406 Z M 238.957031 366.691406 L 237.457031 366.691406 L 237.457031 363.691406 L 238.957031 363.691406 Z M 235.957031 366.691406 L 234.457031 366.691406 L 234.457031 363.691406 L 235.957031 363.691406 Z M 232.957031 366.691406 L 231.457031 366.691406 L 231.457031 363.691406 L 232.957031 363.691406 Z M 229.957031 366.691406 L 228.457031 366.691406 L 228.457031 363.691406 L 229.957031 363.691406 Z M 226.957031 366.691406 L 225.457031 366.691406 L 225.457031 363.691406 L 226.957031 363.691406 Z M 223.957031 366.691406 L 222.457031 366.691406 L 222.457031 363.691406 L 223.957031 363.691406 Z M 220.957031 366.691406 L 219.457031 366.691406 L 219.457031 363.691406 L 220.957031 363.691406 Z M 217.957031 366.691406 L 216.457031 366.691406 L 216.457031 363.691406 L 217.957031 363.691406 Z M 214.957031 366.691406 L 213.457031 366.691406 L 213.457031 363.691406 L 214.957031 363.691406 Z M 211.957031 366.691406 L 210.457031 366.691406 L 210.457031 363.691406 L 211.957031 363.691406 Z M 208.957031 366.691406 L 207.457031 366.691406 L 207.457031 363.691406 L 208.957031 363.691406 Z M 205.957031 366.691406 L 204.457031 366.691406 L 204.457031 363.691406 L 205.957031 363.691406 Z M 202.957031 366.691406 L 201.457031 366.691406 L 201.457031 363.691406 L 202.957031 363.691406 Z M 199.957031 366.691406 L 198.457031 366.691406 L 198.457031 363.691406 L 199.957031 363.691406 Z M 196.957031 366.691406 L 195.457031 366.691406 L 195.457031 363.691406 L 196.957031 363.691406 Z M 193.957031 366.691406 L 192.457031 366.691406 L 192.457031 363.691406 L 193.957031 363.691406 Z M 190.957031 366.691406 L 189.457031 366.691406 L 189.457031 363.691406 L 190.957031 363.691406 Z M 187.957031 366.691406 L 186.457031 366.691406 L 186.457031 363.691406 L 187.957031 363.691406 Z M 184.957031 366.691406 L 183.457031 366.691406 L 183.457031 363.691406 L 184.957031 363.691406 Z M 181.957031 366.691406 L 180.457031 366.691406 L 180.457031 363.691406 L 181.957031 363.691406 Z M 178.957031 366.691406 L 177.457031 366.691406 L 177.457031 363.691406 L 178.957031 363.691406 Z M 175.957031 366.691406 L 174.457031 366.691406 L 174.457031 363.691406 L 175.957031 363.691406 Z M 172.957031 366.691406 L 171.457031 366.691406 L 171.457031 363.691406 L 172.957031 363.691406 Z M 169.957031 366.691406 L 168.457031 366.691406 L 168.457031 363.691406 L 169.957031 363.691406 Z M 166.957031 366.691406 L 165.457031 366.691406 L 165.457031 363.691406 L 166.957031 363.691406 Z M 163.957031 366.691406 L 162.457031 366.691406 L 162.457031 363.691406 L 163.957031 363.691406 Z M 160.957031 366.691406 L 159.457031 366.691406 L 159.457031 363.691406 L 160.957031 363.691406 Z M 157.957031 366.691406 L 156.457031 366.691406 L 156.457031 363.691406 L 157.957031 363.691406 Z M 154.957031 366.691406 L 153.457031 366.691406 L 153.457031 363.691406 L 154.957031 363.691406 Z M 151.957031 366.691406 L 150.457031 366.691406 L 150.457031 363.691406 L 151.957031 363.691406 Z M 148.957031 366.691406 L 147.457031 366.691406 L 147.457031 363.691406 L 148.957031 363.691406 Z M 145.957031 366.691406 L 144.457031 366.691406 L 144.457031 363.691406 L 145.957031 363.691406 Z M 142.957031 366.691406 L 141.457031 366.691406 L 141.457031 363.691406 L 142.957031 363.691406 Z M 139.957031 366.691406 L 138.457031 366.691406 L 138.457031 363.691406 L 139.957031 363.691406 Z M 136.957031 366.691406 L 135.457031 366.691406 L 135.457031 363.691406 L 136.957031 363.691406 Z M 133.957031 366.691406 L 132.457031 366.691406 L 132.457031 363.691406 L 133.957031 363.691406 Z M 130.957031 366.691406 L 129.457031 366.691406 L 129.457031 363.691406 L 130.957031 363.691406 Z M 127.957031 366.691406 L 126.457031 366.691406 L 126.457031 363.691406 L 127.957031 363.691406 Z M 124.957031 366.691406 L 123.457031 366.691406 L 123.457031 363.691406 L 124.957031 363.691406 Z M 121.957031 366.691406 L 120.457031 366.691406 L 120.457031 363.691406 L 121.957031 363.691406 Z M 118.957031 366.691406 L 117.457031 366.691406 L 117.457031 363.691406 L 118.957031 363.691406 Z M 115.957031 366.691406 L 114.457031 366.691406 L 114.457031 363.691406 L 115.957031 363.691406 Z M 112.957031 366.691406 L 111.457031 366.691406 L 111.457031 363.691406 L 112.957031 363.691406 Z M 109.957031 366.691406 L 108.457031 366.691406 L 108.457031 363.691406 L 109.957031 363.691406 Z M 106.957031 366.691406 L 105.457031 366.691406 L 105.457031 363.691406 L 106.957031 363.691406 Z M 103.957031 366.691406 L 102.457031 366.691406 L 102.457031 363.691406 L 103.957031 363.691406 Z M 100.957031 366.691406 L 99.457031 366.691406 L 99.457031 363.691406 L 100.957031 363.691406 Z M 97.957031 366.691406 L 96.457031 366.691406 L 96.457031 363.691406 L 97.957031 363.691406 Z M 94.957031 366.691406 L 93.457031 366.691406 L 93.457031 363.691406 L 94.957031 363.691406 Z M 91.957031 366.691406 L 90.457031 366.691406 L 90.457031 363.691406 L 91.957031 363.691406 Z M 88.957031 366.691406 L 87.457031 366.691406 L 87.457031 363.691406 L 88.957031 363.691406 Z M 85.957031 366.691406 L 84.457031 366.691406 L 84.457031 363.691406 L 85.957031 363.691406 Z M 82.957031 366.691406 L 81.457031 366.691406 L 81.457031 363.691406 L 82.957031 363.691406 Z M 79.957031 366.691406 L 78.457031 366.691406 L 78.457031 363.691406 L 79.957031 363.691406 Z M 76.957031 366.691406 L 75.457031 366.691406 L 75.457031 363.691406 L 76.957031 363.691406 Z M 73.957031 366.691406 L 72.457031 366.691406 L 72.457031 363.691406 L 73.957031 363.691406 Z M 70.957031 366.691406 L 69.457031 366.691406 L 69.457031 363.691406 L 70.957031 363.691406 Z M 67.957031 366.691406 L 66.457031 366.691406 L 66.457031 363.691406 L 67.957031 363.691406 Z M 64.957031 366.691406 L 63.457031 366.691406 L 63.457031 363.691406 L 64.957031 363.691406 Z M 61.957031 366.691406 L 60.457031 366.691406 L 60.457031 363.691406 L 61.957031 363.691406 Z M 58.957031 366.691406 L 57.457031 366.691406 L 57.457031 363.691406 L 58.957031 363.691406 Z M 55.957031 366.691406 L 54.457031 366.691406 L 54.457031 363.691406 L 55.957031 363.691406 Z M 52.957031 366.691406 L 51.457031 366.691406 L 51.457031 363.691406 L 52.957031 363.691406 Z M 49.957031 366.691406 L 48.457031 366.691406 L 48.457031 363.691406 L 49.957031 363.691406 Z M 46.957031 366.691406 L 45.457031 366.691406 L 45.457031 363.691406 L 46.957031 363.691406 Z M 43.957031 366.691406 L 42.457031 366.691406 L 42.457031 363.691406 L 43.957031 363.691406 Z M 40.957031 366.691406 L 39.457031 366.691406 L 39.457031 363.691406 L 40.957031 363.691406 Z M 37.957031 366.691406 L 36.457031 366.691406 L 36.457031 363.691406 L 37.957031 363.691406 Z M 34.957031 366.691406 L 33.457031 366.691406 L 33.457031 363.691406 L 34.957031 363.691406 Z M 31.957031 366.691406 L 30.457031 366.691406 L 30.457031 363.691406 L 31.957031 363.691406 Z M 28.957031 366.691406 L 27.457031 366.691406 L 27.457031 363.691406 L 28.957031 363.691406 Z M 25.957031 366.691406 L 24.457031 366.691406 L 24.457031 363.691406 L 25.957031 363.691406 Z M 22.957031 366.691406 L 21.457031 366.691406 L 21.457031 363.691406 L 22.957031 363.691406 Z M 19.957031 366.691406 L 18.457031 366.691406 L 18.457031 363.691406 L 19.957031 363.691406 Z M 16.957031 366.691406 L 15.457031 366.691406 L 15.457031 363.691406 L 16.957031 363.691406 Z M 13.957031 366.691406 L 12.457031 366.691406 L 12.457031 363.691406 L 13.957031 363.691406 Z M 10.957031 366.691406 L 8.308594 366.691406 L 8.308594 364.839844 L 11.308594 364.839844 L 11.308594 365.191406 L 9.808594 365.191406 L 9.808594 363.691406 L 10.957031 363.691406 Z M 8.308594 363.339844 L 8.308594 361.839844 L 11.308594 361.839844 L 11.308594 363.339844 Z M 8.308594 360.339844 L 8.308594 358.839844 L 11.308594 358.839844 L 11.308594 360.339844 Z M 8.308594 357.339844 L 8.308594 355.839844 L 11.308594 355.839844 L 11.308594 357.339844 Z M 8.308594 354.339844 L 8.308594 352.839844 L 11.308594 352.839844 L 11.308594 354.339844 Z M 8.308594 351.339844 L 8.308594 349.839844 L 11.308594 349.839844 L 11.308594 351.339844 Z M 8.308594 348.339844 L 8.308594 346.839844 L 11.308594 346.839844 L 11.308594 348.339844 Z M 8.308594 345.339844 L 8.308594 343.839844 L 11.308594 343.839844 L 11.308594 345.339844 Z M 8.308594 342.339844 L 8.308594 340.839844 L 11.308594 340.839844 L 11.308594 342.339844 Z M 8.308594 339.339844 L 8.308594 337.839844 L 11.308594 337.839844 L 11.308594 339.339844 Z M 8.308594 336.339844 L 8.308594 334.839844 L 11.308594 334.839844 L 11.308594 336.339844 Z M 8.308594 333.339844 L 8.308594 331.839844 L 11.308594 331.839844 L 11.308594 333.339844 Z M 8.308594 330.339844 L 8.308594 328.839844 L 11.308594 328.839844 L 11.308594 330.339844 Z M 8.308594 327.339844 L 8.308594 325.839844 L 11.308594 325.839844 L 11.308594 327.339844 Z M 8.308594 324.339844 L 8.308594 322.839844 L 11.308594 322.839844 L 11.308594 324.339844 Z M 8.308594 321.339844 L 8.308594 319.839844 L 11.308594 319.839844 L 11.308594 321.339844 Z M 8.308594 318.339844 L 8.308594 316.839844 L 11.308594 316.839844 L 11.308594 318.339844 Z M 8.308594 315.339844 L 8.308594 313.839844 L 11.308594 313.839844 L 11.308594 315.339844 Z M 8.308594 312.339844 L 8.308594 310.839844 L 11.308594 310.839844 L 11.308594 312.339844 Z M 8.308594 309.339844 L 8.308594 307.839844 L 11.308594 307.839844 L 11.308594 309.339844 Z M 8.308594 306.339844 L 8.308594 304.839844 L 11.308594 304.839844 L 11.308594 306.339844 Z M 8.308594 303.339844 L 8.308594 301.839844 L 11.308594 301.839844 L 11.308594 303.339844 Z M 8.308594 300.339844 L 8.308594 298.839844 L 11.308594 298.839844 L 11.308594 300.339844 Z M 8.308594 297.339844 L 8.308594 295.839844 L 11.308594 295.839844 L 11.308594 297.339844 Z M 8.308594 294.339844 L 8.308594 292.839844 L 11.308594 292.839844 L 11.308594 294.339844 Z M 8.308594 291.339844 L 8.308594 289.839844 L 11.308594 289.839844 L 11.308594 291.339844 Z M 8.308594 288.339844 L 8.308594 286.839844 L 11.308594 286.839844 L 11.308594 288.339844 Z M 8.308594 285.339844 L 8.308594 283.839844 L 11.308594 283.839844 L 11.308594 285.339844 Z M 8.308594 282.339844 L 8.308594 280.839844 L 11.308594 280.839844 L 11.308594 282.339844 Z M 8.308594 279.339844 L 8.308594 277.839844 L 11.308594 277.839844 L 11.308594 279.339844 Z M 8.308594 276.339844 L 8.308594 274.839844 L 11.308594 274.839844 L 11.308594 276.339844 Z M 8.308594 273.339844 L 8.308594 271.839844 L 11.308594 271.839844 L 11.308594 273.339844 Z M 8.308594 270.339844 L 8.308594 268.839844 L 11.308594 268.839844 L 11.308594 270.339844 Z M 8.308594 267.339844 L 8.308594 265.839844 L 11.308594 265.839844 L 11.308594 267.339844 Z M 8.308594 264.339844 L 8.308594 262.839844 L 11.308594 262.839844 L 11.308594 264.339844 Z M 8.308594 261.339844 L 8.308594 259.839844 L 11.308594 259.839844 L 11.308594 261.339844 Z M 8.308594 258.339844 L 8.308594 256.839844 L 11.308594 256.839844 L 11.308594 258.339844 Z M 8.308594 255.339844 L 8.308594 253.839844 L 11.308594 253.839844 L 11.308594 255.339844 Z M 8.308594 252.339844 L 8.308594 250.839844 L 11.308594 250.839844 L 11.308594 252.339844 Z M 8.308594 249.339844 L 8.308594 247.839844 L 11.308594 247.839844 L 11.308594 249.339844 Z M 8.308594 246.339844 L 8.308594 244.839844 L 11.308594 244.839844 L 11.308594 246.339844 Z M 8.308594 243.339844 L 8.308594 241.839844 L 11.308594 241.839844 L 11.308594 243.339844 Z M 8.308594 240.339844 L 8.308594 238.839844 L 11.308594 238.839844 L 11.308594 240.339844 Z M 8.308594 237.339844 L 8.308594 235.839844 L 11.308594 235.839844 L 11.308594 237.339844 Z M 8.308594 234.339844 L 8.308594 232.839844 L 11.308594 232.839844 L 11.308594 234.339844 Z M 8.308594 231.339844 L 8.308594 229.839844 L 11.308594 229.839844 L 11.308594 231.339844 Z M 8.308594 228.339844 L 8.308594 226.839844 L 11.308594 226.839844 L 11.308594 228.339844 Z M 8.308594 225.339844 L 8.308594 223.839844 L 11.308594 223.839844 L 11.308594 225.339844 Z M 8.308594 222.339844 L 8.308594 220.839844 L 11.308594 220.839844 L 11.308594 222.339844 Z M 8.308594 219.339844 L 8.308594 217.839844 L 11.308594 217.839844 L 11.308594 219.339844 Z M 8.308594 216.339844 L 8.308594 214.839844 L 11.308594 214.839844 L 11.308594 216.339844 Z M 8.308594 213.339844 L 8.308594 211.839844 L 11.308594 211.839844 L 11.308594 213.339844 Z M 8.308594 210.339844 L 8.308594 208.839844 L 11.308594 208.839844 L 11.308594 210.339844 Z M 8.308594 207.339844 L 8.308594 205.839844 L 11.308594 205.839844 L 11.308594 207.339844 Z M 8.308594 204.339844 L 8.308594 202.839844 L 11.308594 202.839844 L 11.308594 204.339844 Z M 8.308594 201.339844 L 8.308594 199.839844 L 11.308594 199.839844 L 11.308594 201.339844 Z M 8.308594 198.339844 L 8.308594 196.839844 L 11.308594 196.839844 L 11.308594 198.339844 Z M 8.308594 195.339844 L 8.308594 193.839844 L 11.308594 193.839844 L 11.308594 195.339844 Z M 8.308594 192.339844 L 8.308594 190.839844 L 11.308594 190.839844 L 11.308594 192.339844 Z M 8.308594 189.339844 L 8.308594 187.839844 L 11.308594 187.839844 L 11.308594 189.339844 Z M 8.308594 186.339844 L 8.308594 184.839844 L 11.308594 184.839844 L 11.308594 186.339844 Z M 8.308594 183.339844 L 8.308594 181.839844 L 11.308594 181.839844 L 11.308594 183.339844 Z M 8.308594 180.339844 L 8.308594 178.839844 L 11.308594 178.839844 L 11.308594 180.339844 Z M 8.308594 177.339844 L 8.308594 175.839844 L 11.308594 175.839844 L 11.308594 177.339844 Z M 8.308594 174.339844 L 8.308594 172.839844 L 11.308594 172.839844 L 11.308594 174.339844 Z M 8.308594 171.339844 L 8.308594 169.839844 L 11.308594 169.839844 L 11.308594 171.339844 Z M 8.308594 168.339844 L 8.308594 166.839844 L 11.308594 166.839844 L 11.308594 168.339844 Z M 8.308594 165.339844 L 8.308594 163.839844 L 11.308594 163.839844 L 11.308594 165.339844 Z M 8.308594 162.339844 L 8.308594 160.839844 L 11.308594 160.839844 L 11.308594 162.339844 Z M 8.308594 159.339844 L 8.308594 157.839844 L 11.308594 157.839844 L 11.308594 159.339844 Z M 8.308594 156.339844 L 8.308594 154.839844 L 11.308594 154.839844 L 11.308594 156.339844 Z M 8.308594 153.339844 L 8.308594 151.839844 L 11.308594 151.839844 L 11.308594 153.339844 Z M 8.308594 150.339844 L 8.308594 148.839844 L 11.308594 148.839844 L 11.308594 150.339844 Z M 8.308594 147.339844 L 8.308594 145.839844 L 11.308594 145.839844 L 11.308594 147.339844 Z M 8.308594 144.339844 L 8.308594 142.839844 L 11.308594 142.839844 L 11.308594 144.339844 Z M 8.308594 141.339844 L 8.308594 139.839844 L 11.308594 139.839844 L 11.308594 141.339844 Z M 8.308594 138.339844 L 8.308594 136.839844 L 11.308594 136.839844 L 11.308594 138.339844 Z M 8.308594 135.339844 L 8.308594 133.839844 L 11.308594 133.839844 L 11.308594 135.339844 Z M 8.308594 132.339844 L 8.308594 130.839844 L 11.308594 130.839844 L 11.308594 132.339844 Z M 8.308594 129.339844 L 8.308594 127.839844 L 11.308594 127.839844 L 11.308594 129.339844 Z M 8.308594 126.339844 L 8.308594 124.839844 L 11.308594 124.839844 L 11.308594 126.339844 Z M 8.308594 123.339844 L 8.308594 121.839844 L 11.308594 121.839844 L 11.308594 123.339844 Z M 8.308594 120.339844 L 8.308594 118.839844 L 11.308594 118.839844 L 11.308594 120.339844 Z M 8.308594 117.339844 L 8.308594 115.839844 L 11.308594 115.839844 L 11.308594 117.339844 Z M 8.308594 114.339844 L 8.308594 112.839844 L 11.308594 112.839844 L 11.308594 114.339844 Z M 8.308594 111.339844 L 8.308594 109.839844 L 11.308594 109.839844 L 11.308594 111.339844 Z M 8.308594 108.339844 L 8.308594 106.839844 L 11.308594 106.839844 L 11.308594 108.339844 Z M 8.308594 105.339844 L 8.308594 103.839844 L 11.308594 103.839844 L 11.308594 105.339844 Z M 8.308594 102.339844 L 8.308594 100.839844 L 11.308594 100.839844 L 11.308594 102.339844 Z M 8.308594 99.339844 L 8.308594 97.839844 L 11.308594 97.839844 L 11.308594 99.339844 Z M 8.308594 96.339844 L 8.308594 94.839844 L 11.308594 94.839844 L 11.308594 96.339844 Z M 8.308594 93.339844 L 8.308594 91.839844 L 11.308594 91.839844 L 11.308594 93.339844 Z M 8.308594 90.339844 L 8.308594 88.839844 L 11.308594 88.839844 L 11.308594 90.339844 Z M 8.308594 87.339844 L 8.308594 85.839844 L 11.308594 85.839844 L 11.308594 87.339844 Z M 8.308594 84.339844 L 8.308594 82.839844 L 11.308594 82.839844 L 11.308594 84.339844 Z M 8.308594 81.339844 L 8.308594 79.839844 L 11.308594 79.839844 L 11.308594 81.339844 Z M 8.308594 78.339844 L 8.308594 76.839844 L 11.308594 76.839844 L 11.308594 78.339844 Z M 8.308594 75.339844 L 8.308594 73.839844 L 11.308594 73.839844 L 11.308594 75.339844 Z M 8.308594 72.339844 L 8.308594 70.839844 L 11.308594 70.839844 L 11.308594 72.339844 Z M 8.308594 69.339844 L 8.308594 67.839844 L 11.308594 67.839844 L 11.308594 69.339844 Z M 8.308594 66.339844 L 8.308594 64.839844 L 11.308594 64.839844 L 11.308594 66.339844 Z M 8.308594 63.339844 L 8.308594 61.839844 L 11.308594 61.839844 L 11.308594 63.339844 Z M 8.308594 60.339844 L 8.308594 58.839844 L 11.308594 58.839844 L 11.308594 60.339844 Z M 8.308594 57.339844 L 8.308594 55.839844 L 11.308594 55.839844 L 11.308594 57.339844 Z M 8.308594 54.339844 L 8.308594 52.839844 L 11.308594 52.839844 L 11.308594 54.339844 Z M 8.308594 51.339844 L 8.308594 49.839844 L 11.308594 49.839844 L 11.308594 51.339844 Z M 8.308594 48.339844 L 8.308594 46.839844 L 11.308594 46.839844 L 11.308594 48.339844 Z M 8.308594 45.339844 L 8.308594 43.839844 L 11.308594 43.839844 L 11.308594 45.339844 Z M 8.308594 42.339844 L 8.308594 40.839844 L 11.308594 40.839844 L 11.308594 42.339844 Z M 8.308594 39.339844 L 8.308594 37.839844 L 11.308594 37.839844 L 11.308594 39.339844 Z M 8.308594 36.339844 L 8.308594 34.839844 L 11.308594 34.839844 L 11.308594 36.339844 Z M 8.308594 33.339844 L 8.308594 31.839844 L 11.308594 31.839844 L 11.308594 33.339844 Z M 8.308594 30.339844 L 8.308594 28.839844 L 11.308594 28.839844 L 11.308594 30.339844 Z M 8.308594 27.339844 L 8.308594 25.839844 L 11.308594 25.839844 L 11.308594 27.339844 Z M 8.308594 24.339844 L 8.308594 22.839844 L 11.308594 22.839844 L 11.308594 24.339844 Z M 8.308594 21.339844 L 8.308594 19.839844 L 11.308594 19.839844 L 11.308594 21.339844 Z M 8.308594 18.339844 L 8.308594 16.839844 L 11.308594 16.839844 L 11.308594 18.339844 Z M 8.308594 15.339844 L 8.308594 13.839844 L 11.308594 13.839844 L 11.308594 15.339844 Z M 8.308594 12.339844 L 8.308594 10.839844 L 11.308594 10.839844 L 11.308594 12.339844 Z M 9.808594 8.308594 L 11.308594 8.308594 L 11.308594 11.308594 L 9.808594 11.308594 Z M 9.808594 8.308594 " fill-opacity="1" fill-rule="nonzero"/></g><g clip-path="url(#10b868a68c)"><g clip-path="url(#0c4b3065ad)"><path fill="#0071e3" d="M 152.449219 200.132812 L 222.550781 200.132812 L 222.550781 270.234375 L 152.449219 270.234375 Z M 152.449219 200.132812 " fill-opacity="1" fill-rule="nonzero"/></g></g><g fill="#222222" fill-opacity="1"><g transform="translate(19.687503, 187.134129)"><g><path d="M 19.296875 -4.34375 C 20.566406 -4.34375 21.847656 -5.078125 23.140625 -6.546875 C 24.441406 -8.015625 25.660156 -10.515625 26.796875 -14.046875 L 29.75 -32.296875 C 30.019531 -34.035156 30.09375 -35.253906 29.96875 -35.953125 C 29.851562 -36.648438 29.796875 -37 29.796875 -37 C 29.796875 -37 30.007812 -37.082031 30.4375 -37.25 C 30.875 -37.414062 31.613281 -37.5 32.65625 -37.5 C 34.519531 -37.5 35.691406 -37.070312 36.171875 -36.21875 C 36.660156 -35.375 36.738281 -33.984375 36.40625 -32.046875 L 34.046875 -18.75 C 33.453125 -15.3125 33.15625 -12.5625 33.15625 -10.5 C 33.15625 -8.195312 33.488281 -6.59375 34.15625 -5.6875 C 34.820312 -4.789062 35.738281 -4.34375 36.90625 -4.34375 C 38.738281 -4.34375 40.519531 -5.8125 42.25 -8.75 C 42.945312 -9.945312 43.613281 -11.40625 44.25 -13.125 C 44.882812 -14.84375 45.441406 -16.679688 45.921875 -18.640625 C 46.410156 -20.609375 46.785156 -22.566406 47.046875 -24.515625 C 47.316406 -26.472656 47.453125 -28.285156 47.453125 -29.953125 C 47.453125 -32.210938 47.300781 -34.035156 47 -35.421875 C 46.695312 -36.804688 46.546875 -37.5 46.546875 -37.5 C 46.546875 -37.5 46.71875 -37.570312 47.0625 -37.71875 C 47.414062 -37.875 47.960938 -37.953125 48.703125 -37.953125 C 50.171875 -37.953125 51.132812 -37.457031 51.59375 -36.46875 C 52.0625 -35.488281 52.296875 -34.21875 52.296875 -32.65625 C 52.296875 -31.15625 52.0625 -29.335938 51.59375 -27.203125 C 51.132812 -25.066406 50.546875 -22.847656 49.828125 -20.546875 C 49.109375 -18.242188 48.398438 -16.09375 47.703125 -14.09375 C 46.171875 -9.726562 44.421875 -6.285156 42.453125 -3.765625 C 40.484375 -1.253906 38.03125 0 35.09375 0 C 32.863281 0 31.046875 -0.613281 29.640625 -1.84375 C 28.242188 -3.082031 27.3125 -4.769531 26.84375 -6.90625 C 25.550781 -4.769531 24.085938 -3.082031 22.453125 -1.84375 C 20.816406 -0.613281 19.082031 0 17.25 0 C 14.476562 0 12.4375 -0.914062 11.125 -2.75 C 9.8125 -4.582031 9.15625 -7.265625 9.15625 -10.796875 C 9.15625 -11.898438 9.21875 -13.09375 9.34375 -14.375 C 9.476562 -15.65625 9.664062 -17.015625 9.90625 -18.453125 L 12.15625 -32.296875 C 12.25 -32.960938 12.3125 -33.535156 12.34375 -34.015625 C 12.382812 -34.503906 12.40625 -34.75 12.40625 -34.75 L 11.953125 -34.75 C 9.679688 -34.75 7.976562 -34.207031 6.84375 -33.125 C 5.71875 -32.039062 5.15625 -30.78125 5.15625 -29.34375 C 5.15625 -28.644531 5.328125 -28.085938 5.671875 -27.671875 C 6.023438 -27.253906 6.519531 -27.046875 7.15625 -27.046875 C 7.414062 -27.046875 7.617188 -27.070312 7.765625 -27.125 C 7.921875 -27.175781 8 -27.203125 8 -27.203125 C 8 -27.203125 8.003906 -27.164062 8.015625 -27.09375 C 8.035156 -27.03125 8.046875 -26.914062 8.046875 -26.75 C 8.046875 -26.144531 7.726562 -25.523438 7.09375 -24.890625 C 6.46875 -24.265625 5.519531 -23.953125 4.25 -23.953125 C 2.613281 -23.953125 1.328125 -24.410156 0.390625 -25.328125 C -0.535156 -26.242188 -1 -27.453125 -1 -28.953125 C -1 -31.421875 0.0859375 -33.460938 2.265625 -35.078125 C 4.453125 -36.691406 7.5625 -37.5 11.59375 -37.5 L 15.046875 -37.5 C 16.910156 -37.5 18.082031 -37.070312 18.5625 -36.21875 C 19.050781 -35.375 19.128906 -33.984375 18.796875 -32.046875 L 16 -16.15625 C 15.800781 -14.945312 15.660156 -13.851562 15.578125 -12.875 C 15.492188 -11.894531 15.453125 -11.019531 15.453125 -10.25 C 15.453125 -8.019531 15.816406 -6.476562 16.546875 -5.625 C 17.285156 -4.769531 18.203125 -4.34375 19.296875 -4.34375 Z M 19.296875 -4.34375 "/></g></g></g><g fill="#222222" fill-opacity="1"><g transform="translate(73.479171, 187.134129)"><g><path d="M -0.546875 -11 L 1.046875 -20.25 C 1.316406 -21.851562 1.390625 -22.96875 1.265625 -23.59375 C 1.148438 -24.226562 1.09375 -24.546875 1.09375 -24.546875 C 1.09375 -24.546875 1.289062 -24.617188 1.6875 -24.765625 C 2.09375 -24.921875 2.765625 -25 3.703125 -25 C 5.628906 -25 6.800781 -24.613281 7.21875 -23.84375 C 7.632812 -23.082031 7.695312 -21.816406 7.40625 -20.046875 L 5.453125 -8.75 C 5.210938 -7.25 5.285156 -6.140625 5.671875 -5.421875 C 6.054688 -4.703125 6.695312 -4.34375 7.59375 -4.34375 C 8.46875 -4.34375 9.40625 -4.734375 10.40625 -5.515625 C 11.40625 -6.304688 12.21875 -7.367188 12.84375 -8.703125 C 13.175781 -8.703125 13.4375 -8.597656 13.625 -8.390625 C 13.8125 -8.191406 13.867188 -7.863281 13.796875 -7.40625 C 13.660156 -6.738281 13.351562 -5.988281 12.875 -5.15625 C 12.394531 -4.320312 11.753906 -3.507812 10.953125 -2.71875 C 10.148438 -1.9375 9.234375 -1.285156 8.203125 -0.765625 C 7.171875 -0.253906 6.050781 0 4.84375 0 C 3.113281 0 1.707031 -0.539062 0.625 -1.625 C -0.457031 -2.707031 -1 -4.25 -1 -6.25 C -1 -6.75 -0.960938 -7.414062 -0.890625 -8.25 C -0.828125 -9.082031 -0.710938 -10 -0.546875 -11 Z M 2.796875 -32.5 C 2.796875 -33.53125 3.144531 -34.382812 3.84375 -35.0625 C 4.550781 -35.75 5.367188 -36.09375 6.296875 -36.09375 C 7.265625 -36.09375 8.023438 -35.789062 8.578125 -35.1875 C 9.128906 -34.59375 9.40625 -33.847656 9.40625 -32.953125 C 9.40625 -32.085938 9.078125 -31.296875 8.421875 -30.578125 C 7.773438 -29.859375 6.898438 -29.5 5.796875 -29.5 C 4.898438 -29.5 4.175781 -29.78125 3.625 -30.34375 C 3.070312 -30.914062 2.796875 -31.632812 2.796875 -32.5 Z M 2.796875 -32.5 "/></g></g></g><g fill="#222222" fill-opacity="1"><g transform="translate(86.827101, 187.134129)"><g><path d="M -0.546875 -11 L 4 -36.75 C 4.269531 -38.3125 4.34375 -39.414062 4.21875 -40.0625 C 4.101562 -40.71875 4.046875 -41.046875 4.046875 -41.046875 C 4.046875 -41.046875 4.242188 -41.117188 4.640625 -41.265625 C 5.046875 -41.421875 5.71875 -41.5 6.65625 -41.5 C 8.582031 -41.5 9.753906 -41.113281 10.171875 -40.34375 C 10.585938 -39.582031 10.644531 -38.316406 10.34375 -36.546875 L 5.453125 -8.75 C 5.210938 -7.28125 5.285156 -6.175781 5.671875 -5.4375 C 6.054688 -4.707031 6.695312 -4.34375 7.59375 -4.34375 C 8.59375 -4.34375 9.609375 -4.734375 10.640625 -5.515625 C 11.679688 -6.304688 12.519531 -7.367188 13.15625 -8.703125 C 13.488281 -8.703125 13.742188 -8.597656 13.921875 -8.390625 C 14.109375 -8.191406 14.164062 -7.863281 14.09375 -7.40625 C 13.96875 -6.738281 13.644531 -5.988281 13.125 -5.15625 C 12.601562 -4.320312 11.925781 -3.507812 11.09375 -2.71875 C 10.257812 -1.9375 9.3125 -1.285156 8.25 -0.765625 C 7.1875 -0.253906 6.050781 0 4.84375 0 C 3.113281 0 1.707031 -0.539062 0.625 -1.625 C -0.457031 -2.707031 -1 -4.25 -1 -6.25 C -1 -6.75 -0.960938 -7.414062 -0.890625 -8.25 C -0.828125 -9.082031 -0.710938 -10 -0.546875 -11 Z M -0.546875 -11 "/></g></g></g><g fill="#222222" fill-opacity="1"><g transform="translate(100.474992, 187.134129)"><g><path d="M -0.546875 -11 L 4 -36.75 C 4.269531 -38.3125 4.34375 -39.414062 4.21875 -40.0625 C 4.101562 -40.71875 4.046875 -41.046875 4.046875 -41.046875 C 4.046875 -41.046875 4.242188 -41.117188 4.640625 -41.265625 C 5.046875 -41.421875 5.71875 -41.5 6.65625 -41.5 C 8.582031 -41.5 9.753906 -41.113281 10.171875 -40.34375 C 10.585938 -39.582031 10.644531 -38.316406 10.34375 -36.546875 L 5.453125 -8.75 C 5.210938 -7.28125 5.285156 -6.175781 5.671875 -5.4375 C 6.054688 -4.707031 6.695312 -4.34375 7.59375 -4.34375 C 8.59375 -4.34375 9.609375 -4.734375 10.640625 -5.515625 C 11.679688 -6.304688 12.519531 -7.367188 13.15625 -8.703125 C 13.488281 -8.703125 13.742188 -8.597656 13.921875 -8.390625 C 14.109375 -8.191406 14.164062 -7.863281 14.09375 -7.40625 C 13.96875 -6.738281 13.644531 -5.988281 13.125 -5.15625 C 12.601562 -4.320312 11.925781 -3.507812 11.09375 -2.71875 C 10.257812 -1.9375 9.3125 -1.285156 8.25 -0.765625 C 7.1875 -0.253906 6.050781 0 4.84375 0 C 3.113281 0 1.707031 -0.539062 0.625 -1.625 C -0.457031 -2.707031 -1 -4.25 -1 -6.25 C -1 -6.75 -0.960938 -7.414062 -0.890625 -8.25 C -0.828125 -9.082031 -0.710938 -10 -0.546875 -11 Z M -0.546875 -11 "/></g></g></g><g fill="#222222" fill-opacity="1"><g transform="translate(114.122883, 187.134129)"><g><path d="M -0.546875 -11 L 1.046875 -20.25 C 1.316406 -21.851562 1.390625 -22.96875 1.265625 -23.59375 C 1.148438 -24.226562 1.09375 -24.546875 1.09375 -24.546875 C 1.09375 -24.546875 1.289062 -24.617188 1.6875 -24.765625 C 2.09375 -24.921875 2.765625 -25 3.703125 -25 C 5.628906 -25 6.800781 -24.613281 7.21875 -23.84375 C 7.632812 -23.082031 7.695312 -21.816406 7.40625 -20.046875 L 5.453125 -8.75 C 5.210938 -7.25 5.285156 -6.140625 5.671875 -5.421875 C 6.054688 -4.703125 6.695312 -4.34375 7.59375 -4.34375 C 8.46875 -4.34375 9.40625 -4.734375 10.40625 -5.515625 C 11.40625 -6.304688 12.21875 -7.367188 12.84375 -8.703125 C 13.175781 -8.703125 13.4375 -8.597656 13.625 -8.390625 C 13.8125 -8.191406 13.867188 -7.863281 13.796875 -7.40625 C 13.660156 -6.738281 13.351562 -5.988281 12.875 -5.15625 C 12.394531 -4.320312 11.753906 -3.507812 10.953125 -2.71875 C 10.148438 -1.9375 9.234375 -1.285156 8.203125 -0.765625 C 7.171875 -0.253906 6.050781 0 4.84375 0 C 3.113281 0 1.707031 -0.539062 0.625 -1.625 C -0.457031 -2.707031 -1 -4.25 -1 -6.25 C -1 -6.75 -0.960938 -7.414062 -0.890625 -8.25 C -0.828125 -9.082031 -0.710938 -10 -0.546875 -11 Z M 2.796875 -32.5 C 2.796875 -33.53125 3.144531 -34.382812 3.84375 -35.0625 C 4.550781 -35.75 5.367188 -36.09375 6.296875 -36.09375 C 7.265625 -36.09375 8.023438 -35.789062 8.578125 -35.1875 C 9.128906 -34.59375 9.40625 -33.847656 9.40625 -32.953125 C 9.40625 -32.085938 9.078125 -31.296875 8.421875 -30.578125 C 7.773438 -29.859375 6.898438 -29.5 5.796875 -29.5 C 4.898438 -29.5 4.175781 -29.78125 3.625 -30.34375 C 3.070312 -30.914062 2.796875 -31.632812 2.796875 -32.5 Z M 2.796875 -32.5 "/></g></g></g><g fill="#222222" fill-opacity="1"><g transform="translate(127.470813, 187.134129)"><g><path d="M 22.09375 -20.90625 L 19.953125 -8.75 C 19.679688 -7.25 19.742188 -6.140625 20.140625 -5.421875 C 20.546875 -4.703125 21.195312 -4.34375 22.09375 -4.34375 C 22.96875 -4.34375 23.90625 -4.734375 24.90625 -5.515625 C 25.90625 -6.304688 26.71875 -7.367188 27.34375 -8.703125 C 27.675781 -8.703125 27.9375 -8.597656 28.125 -8.390625 C 28.3125 -8.191406 28.367188 -7.863281 28.296875 -7.40625 C 28.160156 -6.738281 27.851562 -5.988281 27.375 -5.15625 C 26.894531 -4.320312 26.253906 -3.507812 25.453125 -2.71875 C 24.648438 -1.9375 23.734375 -1.285156 22.703125 -0.765625 C 21.671875 -0.253906 20.550781 0 19.34375 0 C 17.71875 0 16.367188 -0.488281 15.296875 -1.46875 C 14.234375 -2.457031 13.632812 -3.851562 13.5 -5.65625 C 12.46875 -3.820312 11.289062 -2.421875 9.96875 -1.453125 C 8.65625 -0.484375 7.28125 0 5.84375 0 C 3.8125 0 2.078125 -0.695312 0.640625 -2.09375 C -0.785156 -3.5 -1.5 -5.664062 -1.5 -8.59375 C -1.5 -11.394531 -1.128906 -13.820312 -0.390625 -15.875 C 0.335938 -17.925781 1.300781 -19.625 2.5 -20.96875 C 3.695312 -22.320312 5.019531 -23.332031 6.46875 -24 C 7.925781 -24.664062 9.382812 -25 10.84375 -25 C 12.113281 -25 13.191406 -24.773438 14.078125 -24.328125 C 14.960938 -23.878906 15.6875 -23.285156 16.25 -22.546875 C 16.644531 -23.453125 17.1875 -24.085938 17.875 -24.453125 C 18.5625 -24.816406 19.519531 -25 20.75 -25 C 21.613281 -25 22.242188 -24.914062 22.640625 -24.75 C 23.046875 -24.582031 23.25 -24.5 23.25 -24.5 C 23.25 -24.5 23.125 -24.238281 22.875 -23.71875 C 22.625 -23.207031 22.363281 -22.269531 22.09375 -20.90625 Z M 7.84375 -4.34375 C 8.75 -4.34375 9.582031 -4.75 10.34375 -5.5625 C 11.113281 -6.382812 11.796875 -7.4375 12.390625 -8.71875 C 12.992188 -10.007812 13.519531 -11.378906 13.96875 -12.828125 C 14.425781 -14.273438 14.769531 -15.613281 15 -16.84375 L 15.453125 -19.203125 C 15.210938 -19.703125 14.84375 -20.222656 14.34375 -20.765625 C 13.84375 -21.316406 13.113281 -21.59375 12.15625 -21.59375 C 11.019531 -21.59375 9.890625 -21.0625 8.765625 -20 C 7.648438 -18.9375 6.726562 -17.425781 6 -15.46875 C 5.269531 -13.519531 4.90625 -11.195312 4.90625 -8.5 C 4.90625 -7.101562 5.160156 -6.0625 5.671875 -5.375 C 6.191406 -4.6875 6.914062 -4.34375 7.84375 -4.34375 Z M 7.84375 -4.34375 "/></g></g></g><g fill="#222222" fill-opacity="1"><g transform="translate(155.316507, 187.134129)"><g><path d="M 34.5 -4.34375 C 35.5 -4.34375 36.460938 -4.734375 37.390625 -5.515625 C 38.328125 -6.304688 39.113281 -7.367188 39.75 -8.703125 C 40.082031 -8.703125 40.335938 -8.597656 40.515625 -8.390625 C 40.703125 -8.191406 40.765625 -7.863281 40.703125 -7.40625 C 40.597656 -6.769531 40.296875 -6.035156 39.796875 -5.203125 C 39.296875 -4.367188 38.65625 -3.550781 37.875 -2.75 C 37.09375 -1.945312 36.191406 -1.285156 35.171875 -0.765625 C 34.160156 -0.253906 33.070312 0 31.90625 0 C 30.03125 0 28.550781 -0.570312 27.46875 -1.71875 C 26.382812 -2.875 25.84375 -4.382812 25.84375 -6.25 C 25.84375 -6.914062 25.9375 -7.816406 26.125 -8.953125 C 26.3125 -10.085938 26.46875 -11.085938 26.59375 -11.953125 L 27.546875 -17.453125 C 27.742188 -18.617188 27.734375 -19.429688 27.515625 -19.890625 C 27.304688 -20.359375 26.914062 -20.59375 26.34375 -20.59375 C 25.71875 -20.59375 25.03125 -20.175781 24.28125 -19.34375 C 23.53125 -18.507812 22.78125 -17.359375 22.03125 -15.890625 C 21.28125 -14.429688 20.585938 -12.742188 19.953125 -10.828125 C 19.316406 -8.910156 18.800781 -6.882812 18.40625 -4.75 C 18.132812 -3.1875 18.054688 -2.078125 18.171875 -1.421875 C 18.285156 -0.773438 18.34375 -0.453125 18.34375 -0.453125 C 18.34375 -0.453125 18.144531 -0.375 17.75 -0.21875 C 17.351562 -0.0703125 16.6875 0 15.75 0 C 13.8125 0 12.632812 -0.390625 12.21875 -1.171875 C 11.800781 -1.953125 11.742188 -3.210938 12.046875 -4.953125 L 14.25 -17.453125 C 14.644531 -19.546875 14.257812 -20.59375 13.09375 -20.59375 C 12.300781 -20.59375 11.378906 -19.914062 10.328125 -18.5625 C 9.273438 -17.21875 8.28125 -15.351562 7.34375 -12.96875 C 6.414062 -10.59375 5.664062 -7.851562 5.09375 -4.75 C 4.832031 -3.1875 4.757812 -2.078125 4.875 -1.421875 C 4.988281 -0.773438 5.046875 -0.453125 5.046875 -0.453125 C 5.046875 -0.453125 4.84375 -0.375 4.4375 -0.21875 C 4.039062 -0.0703125 3.378906 0 2.453125 0 C 0.515625 0 -0.660156 -0.390625 -1.078125 -1.171875 C -1.492188 -1.953125 -1.550781 -3.210938 -1.25 -4.953125 L 1.40625 -20.25 C 1.664062 -21.8125 1.738281 -22.914062 1.625 -23.5625 C 1.507812 -24.21875 1.453125 -24.546875 1.453125 -24.546875 C 1.453125 -24.546875 1.648438 -24.617188 2.046875 -24.765625 C 2.453125 -24.921875 3.117188 -25 4.046875 -25 C 5.984375 -25 7.160156 -24.613281 7.578125 -23.84375 C 7.992188 -23.082031 8.050781 -21.816406 7.75 -20.046875 L 7.546875 -18.84375 C 8.117188 -19.78125 8.8125 -20.710938 9.625 -21.640625 C 10.4375 -22.578125 11.351562 -23.367188 12.375 -24.015625 C 13.394531 -24.671875 14.46875 -25 15.59375 -25 C 17.164062 -25 18.425781 -24.539062 19.375 -23.625 C 20.320312 -22.707031 20.796875 -21.429688 20.796875 -19.796875 C 20.796875 -19.628906 20.785156 -19.453125 20.765625 -19.265625 C 20.753906 -19.085938 20.75 -18.898438 20.75 -18.703125 C 21.28125 -19.671875 21.960938 -20.632812 22.796875 -21.59375 C 23.628906 -22.5625 24.570312 -23.367188 25.625 -24.015625 C 26.675781 -24.671875 27.785156 -25 28.953125 -25 C 30.515625 -25 31.757812 -24.53125 32.6875 -23.59375 C 33.625 -22.664062 34.09375 -21.414062 34.09375 -19.84375 C 34.09375 -19.3125 34.050781 -18.695312 33.96875 -18 C 33.882812 -17.300781 33.78125 -16.566406 33.65625 -15.796875 L 32.453125 -8.75 C 31.953125 -5.8125 32.632812 -4.34375 34.5 -4.34375 Z M 34.5 -4.34375 "/></g></g></g><g fill="#222222" fill-opacity="1"><g transform="translate(195.560271, 187.134129)"><g/></g></g><g fill="#222222" fill-opacity="1"><g transform="translate(206.566401, 187.134129)"><g><path d="M 13.703125 -37.5 L 17.203125 -37.5 C 19.066406 -37.5 20.25 -37.070312 20.75 -36.21875 C 21.25 -35.375 21.316406 -33.984375 20.953125 -32.046875 L 15.90625 -3.296875 C 15.269531 0.296875 13.972656 2.910156 12.015625 4.546875 C 10.066406 6.179688 7.546875 7 4.453125 7 C 2.015625 7 0.164062 6.445312 -1.09375 5.34375 C -2.363281 4.25 -3 2.882812 -3 1.25 C -3 0.0507812 -2.640625 -0.867188 -1.921875 -1.515625 C -1.203125 -2.171875 -0.226562 -2.5 1 -2.5 C 1.664062 -2.5 2.140625 -2.445312 2.421875 -2.34375 C 2.703125 -2.25 2.84375 -2.203125 2.84375 -2.203125 C 2.84375 -2.203125 2.703125 -1.847656 2.421875 -1.140625 C 2.140625 -0.441406 2 0.382812 2 1.34375 C 2 3.28125 2.847656 4.25 4.546875 4.25 C 5.617188 4.25 6.519531 3.773438 7.25 2.828125 C 7.976562 1.878906 8.5625 0.21875 9 -2.15625 L 14.296875 -32.296875 C 14.367188 -32.765625 14.425781 -33.207031 14.46875 -33.625 C 14.519531 -34.039062 14.546875 -34.414062 14.546875 -34.75 L 14.046875 -34.75 C 11.785156 -34.75 10.085938 -34.207031 8.953125 -33.125 C 7.816406 -32.039062 7.25 -30.78125 7.25 -29.34375 C 7.25 -28.644531 7.421875 -28.085938 7.765625 -27.671875 C 8.117188 -27.253906 8.613281 -27.046875 9.25 -27.046875 C 9.519531 -27.046875 9.726562 -27.070312 9.875 -27.125 C 10.019531 -27.175781 10.09375 -27.203125 10.09375 -27.203125 C 10.09375 -27.203125 10.101562 -27.164062 10.125 -27.09375 C 10.144531 -27.03125 10.15625 -26.914062 10.15625 -26.75 C 10.15625 -26.144531 9.835938 -25.523438 9.203125 -24.890625 C 8.566406 -24.265625 7.613281 -23.953125 6.34375 -23.953125 C 4.71875 -23.953125 3.4375 -24.410156 2.5 -25.328125 C 1.5625 -26.242188 1.09375 -27.453125 1.09375 -28.953125 C 1.09375 -31.421875 2.1875 -33.460938 4.375 -35.078125 C 6.5625 -36.691406 9.671875 -37.5 13.703125 -37.5 Z M 13.703125 -37.5 "/></g></g></g><g fill="#222222" fill-opacity="1"><g transform="translate(230.762654, 187.134129)"><g><path d="M 22.09375 -20.90625 L 19.953125 -8.75 C 19.679688 -7.25 19.742188 -6.140625 20.140625 -5.421875 C 20.546875 -4.703125 21.195312 -4.34375 22.09375 -4.34375 C 22.96875 -4.34375 23.90625 -4.734375 24.90625 -5.515625 C 25.90625 -6.304688 26.71875 -7.367188 27.34375 -8.703125 C 27.675781 -8.703125 27.9375 -8.597656 28.125 -8.390625 C 28.3125 -8.191406 28.367188 -7.863281 28.296875 -7.40625 C 28.160156 -6.738281 27.851562 -5.988281 27.375 -5.15625 C 26.894531 -4.320312 26.253906 -3.507812 25.453125 -2.71875 C 24.648438 -1.9375 23.734375 -1.285156 22.703125 -0.765625 C 21.671875 -0.253906 20.550781 0 19.34375 0 C 17.71875 0 16.367188 -0.488281 15.296875 -1.46875 C 14.234375 -2.457031 13.632812 -3.851562 13.5 -5.65625 C 12.46875 -3.820312 11.289062 -2.421875 9.96875 -1.453125 C 8.65625 -0.484375 7.28125 0 5.84375 0 C 3.8125 0 2.078125 -0.695312 0.640625 -2.09375 C -0.785156 -3.5 -1.5 -5.664062 -1.5 -8.59375 C -1.5 -11.394531 -1.128906 -13.820312 -0.390625 -15.875 C 0.335938 -17.925781 1.300781 -19.625 2.5 -20.96875 C 3.695312 -22.320312 5.019531 -23.332031 6.46875 -24 C 7.925781 -24.664062 9.382812 -25 10.84375 -25 C 12.113281 -25 13.191406 -24.773438 14.078125 -24.328125 C 14.960938 -23.878906 15.6875 -23.285156 16.25 -22.546875 C 16.644531 -23.453125 17.1875 -24.085938 17.875 -24.453125 C 18.5625 -24.816406 19.519531 -25 20.75 -25 C 21.613281 -25 22.242188 -24.914062 22.640625 -24.75 C 23.046875 -24.582031 23.25 -24.5 23.25 -24.5 C 23.25 -24.5 23.125 -24.238281 22.875 -23.71875 C 22.625 -23.207031 22.363281 -22.269531 22.09375 -20.90625 Z M 7.84375 -4.34375 C 8.75 -4.34375 9.582031 -4.75 10.34375 -5.5625 C 11.113281 -6.382812 11.796875 -7.4375 12.390625 -8.71875 C 12.992188 -10.007812 13.519531 -11.378906 13.96875 -12.828125 C 14.425781 -14.273438 14.769531 -15.613281 15 -16.84375 L 15.453125 -19.203125 C 15.210938 -19.703125 14.84375 -20.222656 14.34375 -20.765625 C 13.84375 -21.316406 13.113281 -21.59375 12.15625 -21.59375 C 11.019531 -21.59375 9.890625 -21.0625 8.765625 -20 C 7.648438 -18.9375 6.726562 -17.425781 6 -15.46875 C 5.269531 -13.519531 4.90625 -11.195312 4.90625 -8.5 C 4.90625 -7.101562 5.160156 -6.0625 5.671875 -5.375 C 6.191406 -4.6875 6.914062 -4.34375 7.84375 -4.34375 Z M 7.84375 -4.34375 "/></g></g></g><g fill="#222222" fill-opacity="1"><g transform="translate(258.608348, 187.134129)"><g><path d="M 34.5 -4.34375 C 35.5 -4.34375 36.460938 -4.734375 37.390625 -5.515625 C 38.328125 -6.304688 39.113281 -7.367188 39.75 -8.703125 C 40.082031 -8.703125 40.335938 -8.597656 40.515625 -8.390625 C 40.703125 -8.191406 40.765625 -7.863281 40.703125 -7.40625 C 40.597656 -6.769531 40.296875 -6.035156 39.796875 -5.203125 C 39.296875 -4.367188 38.65625 -3.550781 37.875 -2.75 C 37.09375 -1.945312 36.191406 -1.285156 35.171875 -0.765625 C 34.160156 -0.253906 33.070312 0 31.90625 0 C 30.03125 0 28.550781 -0.570312 27.46875 -1.71875 C 26.382812 -2.875 25.84375 -4.382812 25.84375 -6.25 C 25.84375 -6.914062 25.9375 -7.816406 26.125 -8.953125 C 26.3125 -10.085938 26.46875 -11.085938 26.59375 -11.953125 L 27.546875 -17.453125 C 27.742188 -18.617188 27.734375 -19.429688 27.515625 -19.890625 C 27.304688 -20.359375 26.914062 -20.59375 26.34375 -20.59375 C 25.71875 -20.59375 25.03125 -20.175781 24.28125 -19.34375 C 23.53125 -18.507812 22.78125 -17.359375 22.03125 -15.890625 C 21.28125 -14.429688 20.585938 -12.742188 19.953125 -10.828125 C 19.316406 -8.910156 18.800781 -6.882812 18.40625 -4.75 C 18.132812 -3.1875 18.054688 -2.078125 18.171875 -1.421875 C 18.285156 -0.773438 18.34375 -0.453125 18.34375 -0.453125 C 18.34375 -0.453125 18.144531 -0.375 17.75 -0.21875 C 17.351562 -0.0703125 16.6875 0 15.75 0 C 13.8125 0 12.632812 -0.390625 12.21875 -1.171875 C 11.800781 -1.953125 11.742188 -3.210938 12.046875 -4.953125 L 14.25 -17.453125 C 14.644531 -19.546875 14.257812 -20.59375 13.09375 -20.59375 C 12.300781 -20.59375 11.378906 -19.914062 10.328125 -18.5625 C 9.273438 -17.21875 8.28125 -15.351562 7.34375 -12.96875 C 6.414062 -10.59375 5.664062 -7.851562 5.09375 -4.75 C 4.832031 -3.1875 4.757812 -2.078125 4.875 -1.421875 C 4.988281 -0.773438 5.046875 -0.453125 5.046875 -0.453125 C 5.046875 -0.453125 4.84375 -0.375 4.4375 -0.21875 C 4.039062 -0.0703125 3.378906 0 2.453125 0 C 0.515625 0 -0.660156 -0.390625 -1.078125 -1.171875 C -1.492188 -1.953125 -1.550781 -3.210938 -1.25 -4.953125 L 1.40625 -20.25 C 1.664062 -21.8125 1.738281 -22.914062 1.625 -23.5625 C 1.507812 -24.21875 1.453125 -24.546875 1.453125 -24.546875 C 1.453125 -24.546875 1.648438 -24.617188 2.046875 -24.765625 C 2.453125 -24.921875 3.117188 -25 4.046875 -25 C 5.984375 -25 7.160156 -24.613281 7.578125 -23.84375 C 7.992188 -23.082031 8.050781 -21.816406 7.75 -20.046875 L 7.546875 -18.84375 C 8.117188 -19.78125 8.8125 -20.710938 9.625 -21.640625 C 10.4375 -22.578125 11.351562 -23.367188 12.375 -24.015625 C 13.394531 -24.671875 14.46875 -25 15.59375 -25 C 17.164062 -25 18.425781 -24.539062 19.375 -23.625 C 20.320312 -22.707031 20.796875 -21.429688 20.796875 -19.796875 C 20.796875 -19.628906 20.785156 -19.453125 20.765625 -19.265625 C 20.753906 -19.085938 20.75 -18.898438 20.75 -18.703125 C 21.28125 -19.671875 21.960938 -20.632812 22.796875 -21.59375 C 23.628906 -22.5625 24.570312 -23.367188 25.625 -24.015625 C 26.675781 -24.671875 27.785156 -25 28.953125 -25 C 30.515625 -25 31.757812 -24.53125 32.6875 -23.59375 C 33.625 -22.664062 34.09375 -21.414062 34.09375 -19.84375 C 34.09375 -19.3125 34.050781 -18.695312 33.96875 -18 C 33.882812 -17.300781 33.78125 -16.566406 33.65625 -15.796875 L 32.453125 -8.75 C 31.953125 -5.8125 32.632812 -4.34375 34.5 -4.34375 Z M 34.5 -4.34375 "/></g></g></g><g fill="#222222" fill-opacity="1"><g transform="translate(298.852112, 187.134129)"><g><path d="M 9.796875 0 C 7.628906 0 5.6875 -0.429688 3.96875 -1.296875 C 2.257812 -2.160156 0.921875 -3.398438 -0.046875 -5.015625 C -1.015625 -6.640625 -1.5 -8.566406 -1.5 -10.796875 C -1.5 -12.992188 -1.113281 -14.976562 -0.34375 -16.75 C 0.414062 -18.519531 1.4375 -20.007812 2.71875 -21.21875 C 4.007812 -22.4375 5.445312 -23.367188 7.03125 -24.015625 C 8.613281 -24.671875 10.238281 -25 11.90625 -25 C 13.601562 -25 14.972656 -24.738281 16.015625 -24.21875 C 17.066406 -23.707031 17.832031 -23.054688 18.3125 -22.265625 C 18.800781 -21.484375 19.046875 -20.660156 19.046875 -19.796875 C 19.046875 -17.535156 17.800781 -15.644531 15.3125 -14.125 C 12.832031 -12.601562 9.394531 -11.425781 5 -10.59375 C 5.164062 -8.726562 5.863281 -7.15625 7.09375 -5.875 C 8.332031 -4.59375 10.019531 -3.953125 12.15625 -3.953125 C 13.945312 -3.953125 15.484375 -4.203125 16.765625 -4.703125 C 18.054688 -5.203125 19.125 -5.816406 19.96875 -6.546875 C 20.820312 -7.285156 21.46875 -8.003906 21.90625 -8.703125 C 22.632812 -8.703125 22.898438 -8.269531 22.703125 -7.40625 C 22.597656 -6.863281 22.21875 -6.175781 21.5625 -5.34375 C 20.914062 -4.507812 20.039062 -3.6875 18.9375 -2.875 C 17.84375 -2.0625 16.519531 -1.378906 14.96875 -0.828125 C 13.425781 -0.273438 11.703125 0 9.796875 0 Z M 11.953125 -22.5 C 11.015625 -22.5 10.046875 -22.140625 9.046875 -21.421875 C 8.046875 -20.703125 7.175781 -19.632812 6.4375 -18.21875 C 5.707031 -16.800781 5.242188 -15.046875 5.046875 -12.953125 C 8.117188 -13.679688 10.328125 -14.753906 11.671875 -16.171875 C 13.023438 -17.585938 13.703125 -19.113281 13.703125 -20.75 C 13.703125 -21.28125 13.539062 -21.703125 13.21875 -22.015625 C 12.90625 -22.335938 12.484375 -22.5 11.953125 -22.5 Z M 11.953125 -22.5 "/></g></g></g><g fill="#222222" fill-opacity="1"><g transform="translate(321.39862, 187.134129)"><g><path d="M 7.953125 -16.203125 L 12.25 -13.953125 C 14.082031 -13.015625 15.363281 -12.007812 16.09375 -10.9375 C 16.832031 -9.875 17.203125 -8.675781 17.203125 -7.34375 C 17.203125 -6.050781 16.816406 -4.84375 16.046875 -3.71875 C 15.285156 -2.601562 14.128906 -1.703125 12.578125 -1.015625 C 11.023438 -0.335938 9.03125 0 6.59375 0 C 4.46875 0 2.738281 -0.304688 1.40625 -0.921875 C 0.0703125 -1.535156 -0.910156 -2.300781 -1.546875 -3.21875 C -2.179688 -4.132812 -2.5 -5.03125 -2.5 -5.90625 C -2.5 -6.863281 -2.164062 -7.601562 -1.5 -8.125 C -0.832031 -8.644531 -0.0664062 -8.90625 0.796875 -8.90625 C 1.660156 -8.90625 2.273438 -8.785156 2.640625 -8.546875 C 3.015625 -8.316406 3.203125 -8.203125 3.203125 -8.203125 C 3.203125 -8.203125 3.160156 -8.078125 3.078125 -7.828125 C 2.992188 -7.578125 2.953125 -7.21875 2.953125 -6.75 C 2.953125 -5.519531 3.285156 -4.507812 3.953125 -3.71875 C 4.617188 -2.9375 5.664062 -2.53125 7.09375 -2.5 C 8.53125 -2.5 9.585938 -2.816406 10.265625 -3.453125 C 10.953125 -4.085938 11.296875 -4.820312 11.296875 -5.65625 C 11.296875 -6.25 11.113281 -6.800781 10.75 -7.3125 C 10.382812 -7.832031 9.75 -8.328125 8.84375 -8.796875 L 3.953125 -11.40625 C 2.753906 -12.070312 1.726562 -12.863281 0.875 -13.78125 C 0.0195312 -14.695312 -0.40625 -15.988281 -0.40625 -17.65625 C -0.40625 -19.6875 0.476562 -21.414062 2.25 -22.84375 C 4.019531 -24.28125 6.671875 -25 10.203125 -25 C 12.265625 -25 13.96875 -24.691406 15.3125 -24.078125 C 16.664062 -23.460938 17.664062 -22.695312 18.3125 -21.78125 C 18.96875 -20.863281 19.296875 -19.96875 19.296875 -19.09375 C 19.296875 -18.164062 18.960938 -17.429688 18.296875 -16.890625 C 17.628906 -16.359375 16.863281 -16.09375 16 -16.09375 C 15.164062 -16.09375 14.554688 -16.207031 14.171875 -16.4375 C 13.785156 -16.675781 13.59375 -16.796875 13.59375 -16.796875 C 13.59375 -16.796875 13.632812 -16.925781 13.71875 -17.1875 C 13.800781 -17.457031 13.84375 -17.8125 13.84375 -18.25 C 13.84375 -19.414062 13.484375 -20.414062 12.765625 -21.25 C 12.054688 -22.082031 11 -22.5 9.59375 -22.5 C 8.226562 -22.5 7.203125 -22.191406 6.515625 -21.578125 C 5.835938 -20.960938 5.5 -20.21875 5.5 -19.34375 C 5.5 -18.613281 5.695312 -18.015625 6.09375 -17.546875 C 6.5 -17.078125 7.117188 -16.628906 7.953125 -16.203125 Z M 7.953125 -16.203125 "/></g></g></g><g fill="#0071e3" fill-opacity="1"><g transform="translate(344.203107, 187.134129)"><g><path d="M 1 -2.5 C 1 -3.53125 1.347656 -4.382812 2.046875 -5.0625 C 2.742188 -5.75 3.5625 -6.09375 4.5 -6.09375 C 5.46875 -6.09375 6.222656 -5.789062 6.765625 -5.1875 C 7.316406 -4.59375 7.59375 -3.847656 7.59375 -2.953125 C 7.59375 -2.085938 7.269531 -1.296875 6.625 -0.578125 C 5.976562 0.140625 5.101562 0.5 4 0.5 C 3.101562 0.5 2.378906 0.21875 1.828125 -0.34375 C 1.273438 -0.914062 1 -1.632812 1 -2.5 Z M 1 -2.5 "/></g></g></g><g clip-path="url(#f4c3b3e8fe)"><g clip-path="url(#f24e32406c)"><path fill="#0071e3" d="M 34.960938 200.132812 L 188.257812 200.132812 L 188.257812 207.976562 L 34.960938 207.976562 Z M 34.960938 200.132812 " fill-opacity="1" fill-rule="nonzero"/></g></g><g fill="#222222" fill-opacity="1"><g transform="translate(218.972934, 216.793229)"><g><path d="M 9.453125 -2.515625 C 11.566406 -2.515625 13.039062 -3.578125 13.875 -5.703125 L 16.921875 -4.5625 C 16.265625 -2.9375 15.300781 -1.726562 14.03125 -0.9375 C 12.757812 -0.15625 11.234375 0.234375 9.453125 0.234375 C 6.753906 0.234375 4.671875 -0.523438 3.203125 -2.046875 C 1.734375 -3.578125 1 -5.710938 1 -8.453125 C 1 -11.203125 1.707031 -13.316406 3.125 -14.796875 C 4.539062 -16.273438 6.597656 -17.015625 9.296875 -17.015625 C 11.265625 -17.015625 12.867188 -16.617188 14.109375 -15.828125 C 15.347656 -15.035156 16.21875 -13.875 16.71875 -12.34375 L 13.625 -11.5 C 13.351562 -12.34375 12.835938 -13.007812 12.078125 -13.5 C 11.316406 -14 10.414062 -14.25 9.375 -14.25 C 7.789062 -14.25 6.585938 -13.753906 5.765625 -12.765625 C 4.941406 -11.785156 4.53125 -10.347656 4.53125 -8.453125 C 4.53125 -6.523438 4.953125 -5.050781 5.796875 -4.03125 C 6.640625 -3.019531 7.859375 -2.515625 9.453125 -2.515625 Z M 9.453125 -2.515625 "/></g></g></g><g fill="#222222" fill-opacity="1"><g transform="translate(235.901036, 216.793229)"><g><path d="M 13.140625 0 L 9.25 -6.359375 L 5.140625 -6.359375 L 5.140625 0 L 1.625 0 L 1.625 -16.765625 L 10 -16.765625 C 12 -16.765625 13.539062 -16.332031 14.625 -15.46875 C 15.71875 -14.601562 16.265625 -13.367188 16.265625 -11.765625 C 16.265625 -10.585938 15.929688 -9.570312 15.265625 -8.71875 C 14.597656 -7.875 13.695312 -7.316406 12.5625 -7.046875 L 17.09375 0 Z M 12.734375 -11.625 C 12.734375 -13.226562 11.703125 -14.03125 9.640625 -14.03125 L 5.140625 -14.03125 L 5.140625 -9.09375 L 9.734375 -9.09375 C 10.710938 -9.09375 11.457031 -9.3125 11.96875 -9.75 C 12.476562 -10.195312 12.734375 -10.820312 12.734375 -11.625 Z M 12.734375 -11.625 "/></g></g></g><g fill="#222222" fill-opacity="1"><g transform="translate(252.829139, 216.793229)"><g><path d="M 1.625 0 L 1.625 -16.765625 L 14.8125 -16.765625 L 14.8125 -14.046875 L 5.140625 -14.046875 L 5.140625 -9.84375 L 14.078125 -9.84375 L 14.078125 -7.125 L 5.140625 -7.125 L 5.140625 -2.71875 L 15.296875 -2.71875 L 15.296875 0 Z M 1.625 0 "/></g></g></g><g fill="#222222" fill-opacity="1"><g transform="translate(268.413628, 216.793229)"><g><path d="M 13.46875 0 L 11.984375 -4.28125 L 5.609375 -4.28125 L 4.109375 0 L 0.609375 0 L 6.71875 -16.765625 L 10.859375 -16.765625 L 16.953125 0 Z M 8.796875 -14.171875 L 8.71875 -13.921875 C 8.632812 -13.628906 8.535156 -13.300781 8.421875 -12.9375 C 8.316406 -12.570312 7.640625 -10.566406 6.390625 -6.921875 L 11.203125 -6.921875 L 9.546875 -11.734375 Z M 8.796875 -14.171875 "/></g></g></g><g fill="#222222" fill-opacity="1"><g transform="translate(285.341727, 216.793229)"><g><path d="M 9.1875 -14.046875 L 9.1875 0 L 5.6875 0 L 5.6875 -14.046875 L 0.28125 -14.046875 L 0.28125 -16.765625 L 14.625 -16.765625 L 14.625 -14.046875 Z M 9.1875 -14.046875 "/></g></g></g><g fill="#222222" fill-opacity="1"><g transform="translate(299.558814, 216.793229)"><g><path d="M 1.625 0 L 1.625 -16.765625 L 5.140625 -16.765625 L 5.140625 0 Z M 1.625 0 "/></g></g></g><g fill="#222222" fill-opacity="1"><g transform="translate(305.666639, 216.793229)"><g><path d="M 9.921875 0 L 6.359375 0 L 0.171875 -16.765625 L 3.828125 -16.765625 L 7.28125 -6 C 7.488281 -5.300781 7.78125 -4.242188 8.15625 -2.828125 L 8.40625 -3.859375 L 9.015625 -6 L 12.453125 -16.765625 L 16.078125 -16.765625 Z M 9.921875 0 "/></g></g></g><g fill="#222222" fill-opacity="1"><g transform="translate(321.251122, 216.793229)"><g><path d="M 1.625 0 L 1.625 -16.765625 L 14.8125 -16.765625 L 14.8125 -14.046875 L 5.140625 -14.046875 L 5.140625 -9.84375 L 14.078125 -9.84375 L 14.078125 -7.125 L 5.140625 -7.125 L 5.140625 -2.71875 L 15.296875 -2.71875 L 15.296875 0 Z M 1.625 0 "/></g></g></g><g fill="#222222" fill-opacity="1"><g transform="translate(244.039338, 241.543227)"><g><path d="M 16.5625 -8.5 C 16.5625 -6.769531 16.222656 -5.257812 15.546875 -3.96875 C 14.867188 -2.6875 13.910156 -1.703125 12.671875 -1.015625 C 11.429688 -0.335938 10.007812 0 8.40625 0 L 1.625 0 L 1.625 -16.765625 L 7.703125 -16.765625 C 10.523438 -16.765625 12.707031 -16.050781 14.25 -14.625 C 15.789062 -13.195312 16.5625 -11.15625 16.5625 -8.5 Z M 13.03125 -8.5 C 13.03125 -10.300781 12.5625 -11.675781 11.625 -12.625 C 10.695312 -13.570312 9.363281 -14.046875 7.625 -14.046875 L 5.140625 -14.046875 L 5.140625 -2.71875 L 8.109375 -2.71875 C 9.617188 -2.71875 10.816406 -3.234375 11.703125 -4.265625 C 12.585938 -5.304688 13.03125 -6.71875 13.03125 -8.5 Z M 13.03125 -8.5 "/></g></g></g><g fill="#222222" fill-opacity="1"><g transform="translate(260.967441, 241.543227)"><g><path d="M 1.625 0 L 1.625 -16.765625 L 5.140625 -16.765625 L 5.140625 0 Z M 1.625 0 "/></g></g></g><g fill="#222222" fill-opacity="1"><g transform="translate(267.075269, 241.543227)"><g><path d="M 9.59375 -2.515625 C 10.5 -2.515625 11.378906 -2.644531 12.234375 -2.90625 C 13.097656 -3.175781 13.757812 -3.515625 14.21875 -3.921875 L 14.21875 -6.25 L 10.140625 -6.25 L 10.140625 -8.84375 L 17.4375 -8.84375 L 17.4375 -2.671875 C 16.550781 -1.765625 15.394531 -1.050781 13.96875 -0.53125 C 12.539062 -0.0195312 11.046875 0.234375 9.484375 0.234375 C 6.765625 0.234375 4.671875 -0.519531 3.203125 -2.03125 C 1.734375 -3.539062 1 -5.679688 1 -8.453125 C 1 -11.210938 1.734375 -13.328125 3.203125 -14.796875 C 4.679688 -16.273438 6.804688 -17.015625 9.578125 -17.015625 C 13.503906 -17.015625 16.003906 -15.554688 17.078125 -12.640625 L 13.84375 -11.671875 C 13.5 -12.515625 12.953125 -13.15625 12.203125 -13.59375 C 11.453125 -14.03125 10.578125 -14.25 9.578125 -14.25 C 7.921875 -14.25 6.664062 -13.75 5.8125 -12.75 C 4.957031 -11.75 4.53125 -10.316406 4.53125 -8.453125 C 4.53125 -6.554688 4.972656 -5.09375 5.859375 -4.0625 C 6.742188 -3.03125 7.988281 -2.515625 9.59375 -2.515625 Z M 9.59375 -2.515625 "/></g></g></g><g fill="#222222" fill-opacity="1"><g transform="translate(285.358879, 241.543227)"><g><path d="M 1.625 0 L 1.625 -16.765625 L 5.140625 -16.765625 L 5.140625 0 Z M 1.625 0 "/></g></g></g><g fill="#222222" fill-opacity="1"><g transform="translate(291.466707, 241.543227)"><g><path d="M 9.1875 -14.046875 L 9.1875 0 L 5.6875 0 L 5.6875 -14.046875 L 0.28125 -14.046875 L 0.28125 -16.765625 L 14.625 -16.765625 L 14.625 -14.046875 Z M 9.1875 -14.046875 "/></g></g></g><g fill="#222222" fill-opacity="1"><g transform="translate(305.683793, 241.543227)"><g><path d="M 13.46875 0 L 11.984375 -4.28125 L 5.609375 -4.28125 L 4.109375 0 L 0.609375 0 L 6.71875 -16.765625 L 10.859375 -16.765625 L 16.953125 0 Z M 8.796875 -14.171875 L 8.71875 -13.921875 C 8.632812 -13.628906 8.535156 -13.300781 8.421875 -12.9375 C 8.316406 -12.570312 7.640625 -10.566406 6.390625 -6.921875 L 11.203125 -6.921875 L 9.546875 -11.734375 Z M 8.796875 -14.171875 "/></g></g></g><g fill="#222222" fill-opacity="1"><g transform="translate(322.611893, 241.543227)"><g><path d="M 1.625 0 L 1.625 -16.765625 L 5.140625 -16.765625 L 5.140625 -2.71875 L 14.125 -2.71875 L 14.125 0 Z M 1.625 0 "/></g></g></g><g clip-path="url(#d411d5d7cd)"><g clip-path="url(#7d8a55d5aa)"><path fill="#0071e3" d="M 110.855469 212.703125 L 187.488281 212.703125 L 187.488281 220.542969 L 110.855469 220.542969 Z M 110.855469 212.703125 " fill-opacity="1" fill-rule="nonzero"/></g></g></svg>