<svg xmlns="http://www.w3.org/2000/svg" xmlns:xlink="http://www.w3.org/1999/xlink" width="500" zoomAndPan="magnify" viewBox="0 0 375 374.999991" height="500" preserveAspectRatio="xMidYMid meet" version="1.0"><path fill="#caddff" d="M 363.238281 297.378906 C 353.007812 323.332031 328.472656 335.824219 312.789062 343.804688 C 250.980469 375.273438 156.429688 372.6875 87.667969 317.261719 C 71.574219 304.292969 18.242188 237.480469 9.265625 142.855469 C -0.0078125 45.109375 40.15625 8.144531 165.472656 3.300781 C 222.351562 1.101562 304.195312 18.578125 331.007812 68.574219 C 347.871094 100.015625 328.238281 110.273438 342.621094 181.769531 C 355.074219 243.652344 375.75 265.632812 363.238281 297.378906 " fill-opacity="1" fill-rule="nonzero"/><path fill="#99b9ff" d="M 120.257812 321.085938 C 126.28125 316.15625 132.605469 311.558594 139.082031 307.175781 C 152.226562 298.277344 166.082031 290.324219 180.085938 282.617188 C 187.449219 278.5625 195.097656 274.894531 202.644531 271.121094 C 210.238281 267.328125 217.855469 263.566406 225.472656 259.804688 C 232.433594 256.371094 239.394531 252.933594 246.339844 249.484375 C 262.136719 196.003906 279.289062 135.378906 275.882812 135.378906 L 16.933594 128.054688 C 10.839844 128.054688 6.75 133.023438 7.816406 139.128906 L 39.199219 318.34375 C 40.265625 324.449219 46.09375 329.417969 52.191406 329.417969 L 109.816406 329.417969 C 113.214844 326.546875 116.816406 323.902344 120.257812 321.085938 " fill-opacity="1" fill-rule="nonzero"/><path fill="#5479f7" d="M 283.269531 128.683594 L 22.300781 128.683594 C 16.542969 128.683594 12.691406 133.359375 13.703125 139.128906 L 45.082031 318.34375 C 46.089844 324.113281 51.578125 328.792969 57.339844 328.792969 L 318.308594 328.792969 C 324.070312 328.792969 327.917969 324.113281 326.90625 318.34375 L 295.527344 139.128906 C 294.519531 133.359375 289.03125 128.683594 283.269531 128.683594 " fill-opacity="1" fill-rule="nonzero"/><path fill="#99b9ff" d="M 359.496094 328.894531 L 55.996094 328.894531 C 51.953125 328.894531 48.660156 332.246094 48.660156 336.546875 C 48.660156 340.847656 51.953125 344.195312 55.996094 344.195312 L 359.496094 344.195312 C 363.546875 344.195312 366.828125 340.855469 366.828125 336.546875 C 366.828125 332.238281 363.546875 328.894531 359.496094 328.894531 " fill-opacity="1" fill-rule="nonzero"/><path fill="#99b9ff" d="M 276.839844 135.589844 L 30.199219 135.589844 C 24.757812 135.589844 21.117188 139.945312 22.070312 145.316406 L 51.730469 312.15625 C 52.683594 317.527344 57.871094 321.878906 63.316406 321.878906 L 309.953125 321.878906 C 315.398438 321.878906 319.035156 317.527344 318.082031 312.15625 L 288.425781 145.316406 C 287.472656 139.945312 282.285156 135.589844 276.839844 135.589844 " fill-opacity="1" fill-rule="nonzero"/><path fill="#000000" d="M 359.496094 344.847656 L 55.996094 344.847656 C 51.519531 344.847656 48.011719 341.203125 48.011719 336.542969 C 48.011719 331.890625 51.519531 328.242188 55.996094 328.242188 L 62.585938 328.242188 C 62.949219 328.242188 63.238281 328.535156 63.238281 328.894531 C 63.238281 329.253906 62.949219 329.546875 62.585938 329.546875 L 55.996094 329.546875 C 52.25 329.546875 49.3125 332.621094 49.3125 336.542969 C 49.3125 340.46875 52.25 343.542969 55.996094 343.542969 L 359.496094 343.542969 C 363.246094 343.542969 366.179688 340.46875 366.179688 336.542969 C 366.179688 332.621094 363.246094 329.546875 359.496094 329.546875 L 117.011719 329.546875 C 116.652344 329.546875 116.363281 329.253906 116.363281 328.894531 C 116.363281 328.535156 116.652344 328.242188 117.011719 328.242188 L 359.496094 328.242188 C 363.972656 328.242188 367.480469 331.890625 367.480469 336.542969 C 367.480469 341.203125 363.972656 344.847656 359.496094 344.847656 " fill-opacity="1" fill-rule="nonzero"/><path fill="#ffffff" d="M 59.039062 321.238281 L 273.164062 321.238281 L 231.042969 82.128906 L 24.488281 82.128906 C 20.539062 82.128906 17.546875 85.699219 18.234375 89.59375 L 59.039062 321.238281 " fill-opacity="1" fill-rule="nonzero"/><path fill="#caddff" d="M 158.179688 238.648438 L 244.953125 238.648438 C 246.71875 238.648438 248.050781 237.054688 247.746094 235.316406 L 236.925781 173.898438 C 236.6875 172.542969 235.511719 171.554688 234.136719 171.554688 L 147.363281 171.554688 C 145.601562 171.554688 144.265625 173.148438 144.570312 174.886719 L 155.390625 236.304688 C 155.628906 237.660156 156.808594 238.648438 158.179688 238.648438 " fill-opacity="1" fill-rule="nonzero"/><path fill="#caddff" d="M 145.367188 164.707031 L 230.925781 164.707031 C 233.058594 164.707031 234.675781 162.777344 234.304688 160.675781 L 223.695312 100.453125 C 223.40625 98.8125 221.980469 97.613281 220.316406 97.613281 L 134.757812 97.613281 C 132.625 97.613281 131.007812 99.542969 131.378906 101.648438 L 141.988281 161.867188 C 142.277344 163.511719 143.699219 164.707031 145.367188 164.707031 " fill-opacity="1" fill-rule="nonzero"/><path fill="#caddff" d="M 59.457031 238.515625 L 144.703125 238.515625 C 146.933594 238.515625 148.621094 236.496094 148.234375 234.296875 L 137.679688 174.386719 C 137.378906 172.671875 135.890625 171.417969 134.148438 171.417969 L 48.902344 171.417969 C 46.675781 171.417969 44.984375 173.4375 45.371094 175.636719 L 55.925781 235.546875 C 56.230469 237.261719 57.71875 238.515625 59.457031 238.515625 " fill-opacity="1" fill-rule="nonzero"/><path fill="#5479f7" d="M 44.664062 164.574219 L 133.488281 164.574219 C 134.621094 164.574219 135.480469 163.546875 135.28125 162.429688 L 124.109375 98.988281 C 123.953125 98.113281 123.195312 97.480469 122.3125 97.480469 L 33.484375 97.480469 C 32.351562 97.480469 31.492188 98.503906 31.691406 99.621094 L 42.867188 163.0625 C 43.019531 163.933594 43.777344 164.574219 44.664062 164.574219 " fill-opacity="1" fill-rule="nonzero"/><path fill="#caddff" d="M 72.058594 312.65625 L 257.707031 312.65625 C 259.617188 312.65625 261.066406 310.925781 260.734375 309.042969 L 250 248.105469 C 249.738281 246.632812 248.464844 245.5625 246.972656 245.5625 L 61.324219 245.5625 C 59.414062 245.5625 57.964844 247.289062 58.296875 249.175781 L 69.03125 310.109375 C 69.289062 311.582031 70.566406 312.65625 72.058594 312.65625 " fill-opacity="1" fill-rule="nonzero"/><path fill="#000000" d="M 36.214844 193.160156 C 35.90625 193.160156 35.632812 192.9375 35.574219 192.621094 L 17.628906 89.917969 C 17.261719 87.816406 17.832031 85.675781 19.199219 84.042969 C 20.570312 82.410156 22.574219 81.476562 24.703125 81.476562 L 208.203125 81.273438 C 208.203125 81.273438 208.203125 81.273438 208.207031 81.273438 C 208.5625 81.273438 208.855469 81.566406 208.855469 81.925781 C 208.855469 82.285156 208.5625 82.582031 208.207031 82.582031 L 24.703125 82.78125 C 22.960938 82.78125 21.320312 83.546875 20.199219 84.882812 C 19.078125 86.21875 18.609375 87.972656 18.914062 89.691406 L 36.859375 192.394531 C 36.921875 192.75 36.683594 193.089844 36.328125 193.152344 C 36.292969 193.15625 36.253906 193.160156 36.214844 193.160156 " fill-opacity="1" fill-rule="nonzero"/><path fill="#000000" d="M 273.164062 321.890625 C 272.851562 321.890625 272.578125 321.667969 272.523438 321.351562 L 241.25 143.835938 C 241.191406 143.480469 241.425781 143.144531 241.78125 143.078125 C 242.132812 143.019531 242.472656 143.253906 242.535156 143.609375 L 273.804688 321.125 C 273.867188 321.480469 273.628906 321.816406 273.277344 321.878906 C 273.238281 321.886719 273.199219 321.890625 273.164062 321.890625 " fill-opacity="1" fill-rule="nonzero"/><path fill="#ffffff" d="M 62.671875 136.722656 L 71.300781 136.722656 L 63.855469 122.789062 Z M 75.289062 144.195312 L 62.03125 144.195312 L 61.394531 151.699219 L 51.0625 151.699219 L 56.789062 111.53125 L 65.882812 111.53125 L 89.699219 151.699219 L 79.308594 151.699219 L 75.289062 144.195312 " fill-opacity="1" fill-rule="nonzero"/><path fill="#ffffff" d="M 94.980469 119.011719 L 100.628906 144.25 L 103.992188 144.25 C 106.765625 144.25 108.675781 143.265625 109.71875 141.285156 C 110.765625 139.3125 110.851562 136.371094 109.980469 132.472656 L 109.589844 130.734375 C 108.722656 126.851562 107.324219 123.929688 105.394531 121.960938 C 103.464844 119.992188 101.078125 119.011719 98.230469 119.011719 Z M 92.621094 151.699219 L 83.632812 111.53125 L 96.558594 111.53125 C 100.101562 111.53125 103.472656 112.335938 106.660156 113.945312 C 109.851562 115.558594 112.566406 117.828125 114.8125 120.761719 C 117.058594 123.695312 118.597656 126.980469 119.433594 130.625 L 119.847656 132.472656 C 120.667969 136.148438 120.632812 139.445312 119.730469 142.363281 C 118.832031 145.277344 117.15625 147.558594 114.703125 149.203125 C 112.25 150.851562 109.292969 151.683594 105.824219 151.699219 L 92.621094 151.699219 " fill-opacity="1" fill-rule="nonzero"/><path fill="#caddff" d="M 42.269531 140.074219 C 41.960938 140.074219 41.6875 139.851562 41.628906 139.535156 L 35.417969 104.386719 C 35.238281 103.363281 35.515625 102.316406 36.179688 101.515625 C 36.84375 100.71875 37.820312 100.253906 38.859375 100.246094 L 96.976562 99.859375 C 96.976562 99.859375 96.980469 99.859375 96.980469 99.859375 C 97.339844 99.859375 97.628906 100.148438 97.632812 100.507812 C 97.632812 100.867188 97.34375 101.160156 96.984375 101.164062 L 38.871094 101.550781 C 38.214844 101.554688 37.597656 101.847656 37.179688 102.351562 C 36.761719 102.855469 36.585938 103.511719 36.699219 104.160156 L 42.914062 139.308594 C 42.976562 139.664062 42.738281 140.003906 42.386719 140.066406 C 42.347656 140.070312 42.308594 140.074219 42.269531 140.074219 " fill-opacity="1" fill-rule="nonzero"/><path fill="#caddff" d="M 129.882812 162.175781 L 73.101562 162.175781 C 72.742188 162.175781 72.449219 161.886719 72.449219 161.527344 C 72.449219 161.164062 72.742188 160.871094 73.101562 160.871094 L 129.882812 160.871094 C 130.542969 160.871094 131.164062 160.582031 131.585938 160.074219 C 132.007812 159.570312 132.183594 158.90625 132.066406 158.257812 L 123.921875 112.960938 C 123.859375 112.609375 124.09375 112.269531 124.449219 112.203125 C 124.800781 112.140625 125.140625 112.375 125.203125 112.730469 L 133.347656 158.027344 C 133.535156 159.054688 133.253906 160.109375 132.585938 160.914062 C 131.914062 161.71875 130.929688 162.175781 129.882812 162.175781 " fill-opacity="1" fill-rule="nonzero"/><path fill="#99b9ff" d="M 51.214844 326.582031 C 51.214844 326.582031 27.910156 275.425781 41.277344 209.101562 C 41.277344 209.101562 77.394531 239.414062 64.375 326.582031 L 51.214844 326.582031 " fill-opacity="1" fill-rule="nonzero"/><path fill="#000000" d="M 51.640625 325.929688 L 63.8125 325.929688 C 70.367188 281.425781 63.816406 252.199219 57.144531 235.496094 C 51.183594 220.578125 44.078125 212.738281 41.6875 210.378906 C 35.101562 244.058594 38.136719 273.625 41.871094 292.585938 C 45.574219 311.363281 50.65625 323.65625 51.640625 325.929688 Z M 64.375 327.234375 L 51.214844 327.234375 C 50.957031 327.234375 50.726562 327.085938 50.621094 326.851562 C 50.5625 326.726562 44.714844 313.75 40.59375 292.839844 C 36.792969 273.546875 33.714844 243.339844 40.640625 208.972656 C 40.683594 208.746094 40.847656 208.5625 41.0625 208.484375 C 41.28125 208.410156 41.519531 208.453125 41.695312 208.601562 C 42.070312 208.914062 50.933594 216.496094 58.3125 234.910156 C 65.09375 251.839844 71.765625 281.507812 65.015625 326.679688 C 64.96875 326.996094 64.695312 327.234375 64.375 327.234375 " fill-opacity="1" fill-rule="nonzero"/><path fill="#ffffff" d="M 56.914062 321.898438 C 56.902344 321.898438 56.886719 321.898438 56.875 321.898438 C 56.515625 321.878906 56.242188 321.574219 56.261719 321.210938 C 58.046875 288.5 43.320312 218.683594 43.171875 217.980469 C 43.097656 217.628906 43.320312 217.28125 43.675781 217.207031 C 44.023438 217.128906 44.371094 217.355469 44.445312 217.710938 C 44.597656 218.414062 59.355469 288.398438 57.5625 321.285156 C 57.542969 321.632812 57.257812 321.898438 56.914062 321.898438 " fill-opacity="1" fill-rule="nonzero"/><path fill="#ffffff" d="M 74.65625 243.40625 C 74.65625 243.40625 44.632812 297.738281 62.691406 321.25 L 72.351562 321.25 C 72.351562 321.25 91.660156 278.777344 74.65625 243.40625 " fill-opacity="1" fill-rule="nonzero"/><path fill="#000000" d="M 63.015625 320.59375 L 71.925781 320.59375 C 72.800781 318.566406 76.875 308.664062 79.246094 295.441406 C 81.636719 282.117188 82.722656 262.652344 74.617188 244.863281 C 72.726562 248.464844 66.824219 260.167969 62.515625 273.730469 C 57.8125 288.542969 54.105469 308.644531 63.015625 320.59375 Z M 72.351562 321.898438 L 62.691406 321.898438 C 62.492188 321.898438 62.300781 321.804688 62.175781 321.644531 C 54.550781 311.714844 54.25 295.453125 61.28125 273.3125 C 66.488281 256.921875 74.011719 243.226562 74.085938 243.09375 C 74.203125 242.878906 74.429688 242.742188 74.675781 242.753906 C 74.917969 242.761719 75.136719 242.902344 75.242188 243.125 C 84.101562 261.554688 83.003906 281.890625 80.523438 295.707031 C 77.835938 310.652344 72.996094 321.410156 72.945312 321.515625 C 72.839844 321.75 72.609375 321.898438 72.351562 321.898438 " fill-opacity="1" fill-rule="nonzero"/><path fill="#000000" d="M 67.203125 323.339844 C 66.855469 323.339844 66.566406 323.0625 66.554688 322.710938 C 65.683594 300.289062 73.929688 243.878906 74.011719 243.3125 C 74.0625 242.957031 74.394531 242.707031 74.75 242.761719 C 75.105469 242.8125 75.351562 243.144531 75.300781 243.503906 C 75.21875 244.066406 66.992188 300.359375 67.855469 322.660156 C 67.867188 323.023438 67.589844 323.324219 67.230469 323.339844 C 67.222656 323.339844 67.210938 323.339844 67.203125 323.339844 " fill-opacity="1" fill-rule="nonzero"/><path fill="#ffffff" d="M 17.335938 263.660156 C 17.335938 263.660156 42.914062 272.402344 52.171875 324.144531 L 42.113281 324.144531 C 42.113281 324.144531 21.121094 295.726562 17.335938 263.660156 " fill-opacity="1" fill-rule="nonzero"/><path fill="#000000" d="M 42.445312 323.492188 L 51.394531 323.492188 C 46.597656 297.390625 37.5625 282.6875 30.792969 274.929688 C 25.164062 268.476562 20.175781 265.675781 18.121094 264.703125 C 21.980469 294.148438 40.363281 320.578125 42.445312 323.492188 Z M 52.171875 324.796875 L 42.113281 324.796875 C 41.90625 324.796875 41.710938 324.699219 41.589844 324.535156 C 41.378906 324.246094 20.449219 295.609375 16.691406 263.738281 C 16.664062 263.515625 16.753906 263.292969 16.929688 263.152344 C 17.101562 263.011719 17.335938 262.972656 17.546875 263.042969 C 17.816406 263.136719 24.191406 265.382812 31.773438 274.070312 C 38.71875 282.027344 48.003906 297.152344 52.8125 324.03125 C 52.847656 324.21875 52.796875 324.414062 52.671875 324.5625 C 52.546875 324.710938 52.367188 324.796875 52.171875 324.796875 " fill-opacity="1" fill-rule="nonzero"/><path fill="#000000" d="M 46.675781 323.339844 C 46.359375 323.339844 46.085938 323.113281 46.03125 322.792969 C 42.226562 299.75 25.746094 276.535156 25.582031 276.304688 C 25.371094 276.007812 25.441406 275.601562 25.730469 275.390625 C 26.023438 275.179688 26.429688 275.25 26.640625 275.542969 C 26.808594 275.773438 43.460938 299.234375 47.316406 322.582031 C 47.375 322.9375 47.136719 323.273438 46.78125 323.332031 C 46.746094 323.335938 46.710938 323.339844 46.675781 323.339844 " fill-opacity="1" fill-rule="nonzero"/><path fill="#5479f7" d="M 27.203125 320.039062 L 90.300781 320.039062 L 91.714844 349.929688 C 92.0625 357.261719 86.222656 363.394531 78.898438 363.394531 L 42.863281 363.394531 C 34.195312 363.394531 27.171875 356.351562 27.179688 347.667969 L 27.203125 320.039062 " fill-opacity="1" fill-rule="nonzero"/><path fill="#000000" d="M 361.757812 113.257812 C 361.589844 113.257812 361.425781 113.195312 361.296875 113.070312 C 361.042969 112.8125 361.042969 112.398438 361.296875 112.144531 L 362.960938 110.480469 C 363.214844 110.226562 363.628906 110.226562 363.882812 110.480469 C 364.136719 110.738281 364.136719 111.152344 363.882812 111.40625 L 362.21875 113.070312 C 362.09375 113.195312 361.925781 113.257812 361.757812 113.257812 " fill-opacity="1" fill-rule="nonzero"/><path fill="#000000" d="M 355.941406 119.078125 C 355.777344 119.078125 355.609375 119.015625 355.480469 118.886719 C 355.230469 118.632812 355.230469 118.21875 355.484375 117.964844 L 357.144531 116.300781 C 357.398438 116.046875 357.8125 116.046875 358.0625 116.304688 C 358.320312 116.558594 358.320312 116.972656 358.0625 117.226562 L 356.40625 118.886719 C 356.277344 119.015625 356.113281 119.078125 355.941406 119.078125 " fill-opacity="1" fill-rule="nonzero"/><path fill="#000000" d="M 363.421875 119.078125 C 363.253906 119.078125 363.089844 119.015625 362.960938 118.890625 L 361.296875 117.226562 C 361.042969 116.972656 361.042969 116.558594 361.296875 116.304688 C 361.550781 116.046875 361.964844 116.050781 362.21875 116.300781 L 363.882812 117.964844 C 364.136719 118.21875 364.136719 118.632812 363.882812 118.886719 C 363.753906 119.015625 363.585938 119.078125 363.421875 119.078125 " fill-opacity="1" fill-rule="nonzero"/><path fill="#000000" d="M 357.605469 113.257812 C 357.4375 113.257812 357.273438 113.195312 357.144531 113.066406 L 355.484375 111.40625 C 355.230469 111.148438 355.230469 110.738281 355.480469 110.480469 C 355.734375 110.226562 356.148438 110.226562 356.40625 110.480469 L 358.0625 112.144531 C 358.320312 112.398438 358.320312 112.8125 358.0625 113.066406 C 357.9375 113.195312 357.773438 113.257812 357.605469 113.257812 " fill-opacity="1" fill-rule="nonzero"/><path fill="#000000" d="M 133.027344 54.5 C 132.859375 54.5 132.691406 54.4375 132.566406 54.308594 C 132.3125 54.054688 132.3125 53.640625 132.566406 53.390625 L 134.226562 51.726562 C 134.480469 51.46875 134.894531 51.46875 135.148438 51.726562 C 135.402344 51.980469 135.402344 52.394531 135.148438 52.648438 L 133.488281 54.308594 C 133.359375 54.4375 133.191406 54.5 133.027344 54.5 " fill-opacity="1" fill-rule="nonzero"/><path fill="#000000" d="M 127.210938 60.324219 C 127.042969 60.324219 126.875 60.261719 126.75 60.132812 C 126.496094 59.878906 126.496094 59.464844 126.75 59.210938 L 128.410156 57.546875 C 128.664062 57.292969 129.078125 57.292969 129.332031 57.546875 C 129.585938 57.800781 129.585938 58.214844 129.332031 58.46875 L 127.671875 60.132812 C 127.542969 60.261719 127.375 60.324219 127.210938 60.324219 " fill-opacity="1" fill-rule="nonzero"/><path fill="#000000" d="M 134.6875 60.324219 C 134.519531 60.324219 134.355469 60.261719 134.226562 60.132812 L 132.566406 58.46875 C 132.3125 58.214844 132.308594 57.800781 132.566406 57.546875 C 132.820312 57.292969 133.230469 57.292969 133.484375 57.546875 L 135.148438 59.210938 C 135.402344 59.464844 135.402344 59.878906 135.148438 60.132812 C 135.019531 60.261719 134.855469 60.324219 134.6875 60.324219 " fill-opacity="1" fill-rule="nonzero"/><path fill="#000000" d="M 128.871094 54.5 C 128.707031 54.5 128.539062 54.4375 128.410156 54.308594 L 126.75 52.648438 C 126.496094 52.394531 126.496094 51.980469 126.75 51.726562 C 127.003906 51.46875 127.417969 51.46875 127.671875 51.722656 L 129.332031 53.386719 C 129.585938 53.640625 129.585938 54.054688 129.332031 54.308594 C 129.207031 54.4375 129.039062 54.5 128.871094 54.5 " fill-opacity="1" fill-rule="nonzero"/><path fill="#000000" d="M 43.375 47.96875 C 43.191406 47.96875 43.007812 47.886719 42.878906 47.738281 C 42.648438 47.460938 42.679688 47.050781 42.953125 46.816406 C 64.957031 28.089844 97.878906 15.6875 135.652344 11.890625 C 136.015625 11.84375 136.332031 12.113281 136.367188 12.472656 C 136.402344 12.828125 136.144531 13.152344 135.785156 13.1875 C 98.269531 16.957031 65.601562 29.253906 43.796875 47.8125 C 43.675781 47.917969 43.527344 47.96875 43.375 47.96875 " fill-opacity="1" fill-rule="nonzero"/><path fill="#000000" d="M 191.574219 13.851562 C 191.546875 13.851562 191.519531 13.847656 191.492188 13.847656 C 176.382812 12.011719 161.132812 11.515625 146.164062 12.371094 C 145.808594 12.382812 145.5 12.117188 145.476562 11.757812 C 145.457031 11.398438 145.730469 11.089844 146.089844 11.070312 C 161.132812 10.207031 176.460938 10.703125 191.652344 12.550781 C 192.007812 12.59375 192.261719 12.921875 192.21875 13.277344 C 192.179688 13.609375 191.898438 13.851562 191.574219 13.851562 " fill-opacity="1" fill-rule="nonzero"/><path fill="#000000" d="M 61.949219 45.484375 C 61.746094 45.484375 61.550781 45.390625 61.421875 45.21875 C 61.210938 44.925781 61.273438 44.515625 61.5625 44.304688 C 67.378906 40.027344 73.941406 36.203125 81.066406 32.941406 C 81.394531 32.789062 81.78125 32.933594 81.929688 33.261719 C 82.082031 33.589844 81.9375 33.976562 81.609375 34.128906 C 74.5625 37.355469 68.078125 41.132812 62.332031 45.355469 C 62.214844 45.441406 62.082031 45.484375 61.949219 45.484375 " fill-opacity="1" fill-rule="nonzero"/><path fill="#000000" d="M 91.945312 29.875 C 91.679688 29.875 91.425781 29.710938 91.332031 29.445312 C 91.210938 29.105469 91.386719 28.734375 91.726562 28.609375 C 115.789062 19.984375 146.25 16.472656 179.816406 18.453125 C 180.175781 18.472656 180.453125 18.78125 180.429688 19.140625 C 180.410156 19.503906 180.101562 19.78125 179.742188 19.753906 C 146.347656 17.785156 116.0625 21.273438 92.164062 29.835938 C 92.09375 29.867188 92.019531 29.875 91.945312 29.875 " fill-opacity="1" fill-rule="nonzero"/><path fill="#000000" d="M 37.890625 51.160156 L 36.925781 55.476562 L 40.710938 53.433594 C 40.058594 52.878906 39.027344 52.023438 37.890625 51.160156 Z M 35.980469 57.382812 C 35.839844 57.382812 35.703125 57.339844 35.585938 57.25 C 35.382812 57.097656 35.289062 56.839844 35.34375 56.585938 L 36.835938 49.894531 C 36.882812 49.683594 37.035156 49.503906 37.242188 49.429688 C 37.445312 49.351562 37.675781 49.382812 37.851562 49.507812 C 40.132812 51.160156 42.261719 53.050781 42.28125 53.070312 C 42.441406 53.214844 42.519531 53.421875 42.496094 53.632812 C 42.472656 53.847656 42.34375 54.03125 42.160156 54.132812 L 36.289062 57.304688 C 36.191406 57.359375 36.085938 57.382812 35.980469 57.382812 " fill-opacity="1" fill-rule="nonzero"/><path fill="#000000" d="M 366.867188 93.417969 C 366.765625 93.417969 366.664062 93.394531 366.570312 93.34375 L 351.585938 85.515625 C 351.269531 85.347656 351.144531 84.953125 351.3125 84.636719 C 351.480469 84.316406 351.875 84.191406 352.191406 84.355469 L 367.171875 92.1875 C 367.488281 92.355469 367.613281 92.746094 367.449219 93.070312 C 367.332031 93.292969 367.105469 93.417969 366.867188 93.417969 " fill-opacity="1" fill-rule="nonzero"/><path fill="#000000" d="M 354.492188 49.707031 C 354.230469 49.707031 353.984375 49.546875 353.886719 49.289062 C 353.757812 48.953125 353.925781 48.574219 354.261719 48.449219 L 367.941406 43.226562 C 368.273438 43.097656 368.652344 43.265625 368.78125 43.601562 C 368.910156 43.941406 368.738281 44.316406 368.402344 44.445312 L 354.726562 49.664062 C 354.648438 49.695312 354.570312 49.707031 354.492188 49.707031 " fill-opacity="1" fill-rule="nonzero"/><path fill="#000000" d="M 366.871094 67.320312 C 366.851562 67.320312 366.828125 67.320312 366.804688 67.320312 L 354.429688 66.011719 C 354.070312 65.976562 353.8125 65.65625 353.847656 65.296875 C 353.886719 64.9375 354.207031 64.6875 354.5625 64.714844 L 366.9375 66.019531 C 367.296875 66.058594 367.554688 66.378906 367.519531 66.738281 C 367.484375 67.074219 367.199219 67.320312 366.871094 67.320312 " fill-opacity="1" fill-rule="nonzero"/><path fill="#000000" d="M 339.433594 319.917969 C 339.222656 319.917969 339.011719 319.8125 338.886719 319.617188 C 338.691406 319.3125 338.78125 318.910156 339.082031 318.71875 C 358.949219 305.953125 365.449219 281.628906 356.476562 253.644531 C 356.363281 253.300781 356.554688 252.933594 356.894531 252.824219 C 357.238281 252.710938 357.605469 252.902344 357.714844 253.242188 C 362.003906 266.617188 362.820312 279.695312 360.078125 291.070312 C 357.144531 303.234375 350.125 313.171875 339.785156 319.816406 C 339.679688 319.886719 339.554688 319.917969 339.433594 319.917969 " fill-opacity="1" fill-rule="nonzero"/><path fill="#000000" d="M 339.699219 310.335938 C 339.535156 310.335938 339.375 310.273438 339.246094 310.152344 C 338.988281 309.902344 338.980469 309.488281 339.230469 309.230469 C 348.386719 299.691406 352.8125 286.535156 352.03125 271.183594 C 352.011719 270.820312 352.289062 270.515625 352.648438 270.496094 C 353 270.484375 353.3125 270.753906 353.332031 271.113281 C 354.128906 286.835938 349.578125 300.328125 340.167969 310.132812 C 340.042969 310.269531 339.871094 310.335938 339.699219 310.335938 " fill-opacity="1" fill-rule="nonzero"/><path fill="#5479f7" d="M 341.140625 134.753906 C 340.859375 134.753906 340.601562 134.574219 340.515625 134.289062 C 340.410156 133.9375 340.300781 133.585938 340.1875 133.230469 C 340.082031 132.886719 340.273438 132.519531 340.617188 132.414062 C 340.960938 132.300781 341.324219 132.496094 341.433594 132.839844 C 341.542969 133.199219 341.652344 133.554688 341.761719 133.910156 C 341.867188 134.257812 341.671875 134.621094 341.328125 134.726562 C 341.265625 134.746094 341.199219 134.753906 341.140625 134.753906 Z M 343.738281 144.855469 C 343.433594 144.855469 343.164062 144.644531 343.097656 144.339844 C 342.75 142.675781 342.355469 140.976562 341.917969 139.285156 C 341.832031 138.9375 342.039062 138.582031 342.386719 138.492188 C 342.738281 138.402344 343.089844 138.613281 343.179688 138.960938 C 343.621094 140.671875 344.023438 142.390625 344.375 144.070312 C 344.449219 144.421875 344.222656 144.769531 343.871094 144.84375 C 343.824219 144.851562 343.78125 144.855469 343.738281 144.855469 Z M 345.359375 155.164062 C 345.03125 155.164062 344.746094 154.914062 344.710938 154.578125 C 344.539062 152.890625 344.3125 151.160156 344.039062 149.441406 C 343.980469 149.085938 344.222656 148.75 344.582031 148.695312 C 344.933594 148.636719 345.269531 148.878906 345.324219 149.234375 C 345.601562 150.980469 345.828125 152.734375 346.007812 154.441406 C 346.042969 154.804688 345.785156 155.125 345.425781 155.160156 C 345.40625 155.160156 345.382812 155.164062 345.359375 155.164062 Z M 345.828125 165.585938 C 345.828125 165.585938 345.824219 165.585938 345.820312 165.585938 C 345.460938 165.582031 345.171875 165.285156 345.179688 164.921875 C 345.1875 164.496094 345.1875 164.070312 345.1875 163.640625 C 345.1875 162.359375 345.160156 161.046875 345.097656 159.746094 C 345.082031 159.386719 345.359375 159.078125 345.71875 159.066406 C 346.085938 159.046875 346.382812 159.324219 346.398438 159.6875 C 346.460938 161.007812 346.492188 162.339844 346.492188 163.640625 C 346.492188 164.074219 346.488281 164.511719 346.480469 164.941406 C 346.476562 165.300781 346.183594 165.585938 345.828125 165.585938 Z M 344.992188 175.976562 C 344.960938 175.976562 344.925781 175.972656 344.898438 175.96875 C 344.539062 175.914062 344.292969 175.585938 344.347656 175.226562 C 344.597656 173.542969 344.796875 171.8125 344.933594 170.089844 C 344.964844 169.730469 345.28125 169.464844 345.636719 169.492188 C 345.992188 169.519531 346.261719 169.835938 346.230469 170.195312 C 346.09375 171.945312 345.890625 173.703125 345.636719 175.417969 C 345.585938 175.742188 345.308594 175.976562 344.992188 175.976562 Z M 342.746094 186.152344 C 342.683594 186.152344 342.621094 186.144531 342.558594 186.125 C 342.214844 186.023438 342.015625 185.660156 342.121094 185.3125 C 342.609375 183.671875 343.039062 181.984375 343.410156 180.308594 C 343.488281 179.957031 343.835938 179.734375 344.1875 179.8125 C 344.539062 179.890625 344.761719 180.238281 344.683594 180.589844 C 344.304688 182.296875 343.863281 184.011719 343.371094 185.683594 C 343.285156 185.96875 343.023438 186.152344 342.746094 186.152344 Z M 82.148438 187.933594 C 81.816406 187.933594 81.53125 187.683594 81.5 187.34375 C 81.46875 186.984375 81.730469 186.667969 82.089844 186.632812 C 83.796875 186.476562 85.574219 186.410156 87.359375 186.429688 C 87.71875 186.433594 88.007812 186.730469 88.003906 187.089844 C 88 187.453125 87.695312 187.746094 87.34375 187.738281 C 85.605469 187.714844 83.871094 187.78125 82.207031 187.933594 C 82.1875 187.933594 82.167969 187.933594 82.148438 187.933594 Z M 97.699219 188.785156 C 97.660156 188.785156 97.621094 188.785156 97.582031 188.777344 C 95.859375 188.457031 94.144531 188.210938 92.480469 188.039062 C 92.121094 188.003906 91.863281 187.679688 91.898438 187.324219 C 91.9375 186.960938 92.257812 186.710938 92.613281 186.738281 C 94.3125 186.914062 96.0625 187.167969 97.816406 187.492188 C 98.171875 187.558594 98.40625 187.898438 98.339844 188.253906 C 98.28125 188.566406 98.007812 188.785156 97.699219 188.785156 Z M 71.980469 190.089844 C 71.707031 190.089844 71.457031 189.921875 71.363281 189.648438 C 71.246094 189.308594 71.425781 188.9375 71.765625 188.820312 C 73.40625 188.25 75.121094 187.777344 76.867188 187.414062 C 77.214844 187.339844 77.5625 187.566406 77.636719 187.917969 C 77.710938 188.269531 77.484375 188.613281 77.132812 188.691406 C 75.445312 189.042969 73.78125 189.503906 72.191406 190.050781 C 72.121094 190.078125 72.050781 190.089844 71.980469 190.089844 Z M 107.785156 191.375 C 107.71875 191.375 107.648438 191.367188 107.582031 191.34375 C 105.914062 190.800781 104.246094 190.3125 102.621094 189.894531 C 102.273438 189.804688 102.0625 189.449219 102.152344 189.101562 C 102.242188 188.75 102.597656 188.539062 102.945312 188.628906 C 104.597656 189.058594 106.292969 189.550781 107.988281 190.105469 C 108.328125 190.214844 108.515625 190.582031 108.402344 190.925781 C 108.316406 191.203125 108.058594 191.375 107.785156 191.375 Z M 62.699219 194.773438 C 62.492188 194.773438 62.289062 194.671875 62.164062 194.488281 C 61.960938 194.191406 62.035156 193.785156 62.332031 193.582031 C 63.789062 192.582031 65.320312 191.671875 66.890625 190.882812 C 67.210938 190.71875 67.601562 190.847656 67.765625 191.171875 C 67.925781 191.492188 67.796875 191.886719 67.476562 192.046875 C 65.957031 192.8125 64.476562 193.691406 63.066406 194.65625 C 62.957031 194.734375 62.828125 194.773438 62.699219 194.773438 Z M 117.503906 195.148438 C 117.414062 195.148438 117.324219 195.128906 117.234375 195.089844 C 115.644531 194.375 114.035156 193.703125 112.457031 193.089844 C 112.121094 192.957031 111.957031 192.578125 112.085938 192.242188 C 112.214844 191.90625 112.59375 191.742188 112.929688 191.871094 C 114.527344 192.496094 116.15625 193.175781 117.769531 193.898438 C 118.097656 194.046875 118.246094 194.433594 118.097656 194.761719 C 117.988281 195.003906 117.75 195.148438 117.503906 195.148438 Z M 339.089844 195.914062 C 339 195.914062 338.90625 195.894531 338.820312 195.855469 C 338.492188 195.703125 338.347656 195.316406 338.5 194.988281 C 339.210938 193.421875 339.878906 191.816406 340.480469 190.214844 C 340.605469 189.875 340.980469 189.707031 341.316406 189.832031 C 341.652344 189.960938 341.824219 190.335938 341.699219 190.671875 C 341.085938 192.300781 340.410156 193.933594 339.679688 195.53125 C 339.570312 195.773438 339.335938 195.914062 339.089844 195.914062 Z M 126.804688 199.859375 C 126.695312 199.859375 126.585938 199.832031 126.484375 199.777344 C 124.984375 198.925781 123.445312 198.101562 121.914062 197.328125 C 121.59375 197.164062 121.464844 196.769531 121.628906 196.453125 C 121.792969 196.128906 122.183594 196 122.503906 196.164062 C 124.050781 196.945312 125.605469 197.78125 127.125 198.640625 C 127.4375 198.820312 127.550781 199.21875 127.371094 199.527344 C 127.253906 199.742188 127.03125 199.859375 126.804688 199.859375 Z M 334.140625 205.089844 C 334.023438 205.089844 333.902344 205.058594 333.796875 204.988281 C 333.488281 204.796875 333.398438 204.394531 333.589844 204.089844 C 334.507812 202.621094 335.386719 201.121094 336.195312 199.621094 C 336.363281 199.300781 336.757812 199.183594 337.074219 199.359375 C 337.394531 199.527344 337.511719 199.925781 337.339844 200.242188 C 336.515625 201.765625 335.625 203.292969 334.695312 204.785156 C 334.570312 204.980469 334.359375 205.089844 334.140625 205.089844 Z M 135.648438 205.382812 C 135.523438 205.382812 135.394531 205.34375 135.28125 205.265625 C 133.867188 204.296875 132.410156 203.339844 130.945312 202.425781 C 130.636719 202.234375 130.546875 201.832031 130.734375 201.527344 C 130.925781 201.222656 131.328125 201.128906 131.632812 201.320312 C 133.113281 202.242188 134.589844 203.210938 136.019531 204.191406 C 136.316406 204.394531 136.390625 204.800781 136.1875 205.097656 C 136.0625 205.28125 135.859375 205.382812 135.648438 205.382812 Z M 143.953125 211.6875 C 143.808594 211.6875 143.660156 211.636719 143.535156 211.53125 C 142.386719 210.5625 141.257812 209.648438 140.175781 208.816406 C 139.945312 208.644531 139.71875 208.472656 139.488281 208.296875 C 139.203125 208.078125 139.148438 207.671875 139.363281 207.382812 C 139.582031 207.09375 139.988281 207.039062 140.277344 207.253906 C 140.507812 207.429688 140.738281 207.605469 140.96875 207.785156 C 142.066406 208.625 143.214844 209.554688 144.375 210.535156 C 144.652344 210.769531 144.6875 211.179688 144.453125 211.457031 C 144.324219 211.609375 144.140625 211.6875 143.953125 211.6875 Z M 234.703125 212.183594 C 234.628906 212.183594 234.554688 212.171875 234.480469 212.144531 C 233.304688 211.714844 232.113281 211.496094 230.945312 211.496094 C 230.941406 211.496094 230.941406 211.496094 230.941406 211.496094 C 230.515625 211.496094 230.089844 211.523438 229.667969 211.582031 C 229.3125 211.632812 228.984375 211.382812 228.9375 211.023438 C 228.890625 210.664062 229.140625 210.335938 229.496094 210.289062 C 229.972656 210.226562 230.460938 210.191406 230.941406 210.191406 C 230.941406 210.191406 230.941406 210.191406 230.945312 210.191406 C 232.265625 210.191406 233.605469 210.4375 234.925781 210.917969 C 235.265625 211.039062 235.441406 211.414062 235.316406 211.753906 C 235.222656 212.019531 234.972656 212.183594 234.703125 212.183594 Z M 328.09375 213.585938 C 327.953125 213.585938 327.808594 213.539062 327.6875 213.441406 C 327.40625 213.214844 327.363281 212.804688 327.589844 212.523438 C 328.679688 211.160156 329.730469 209.769531 330.710938 208.394531 C 330.921875 208.097656 331.324219 208.03125 331.621094 208.242188 C 331.914062 208.449219 331.980469 208.859375 331.769531 209.148438 C 330.773438 210.550781 329.710938 211.957031 328.605469 213.339844 C 328.476562 213.5 328.285156 213.585938 328.09375 213.585938 Z M 221.648438 217.640625 C 221.558594 217.640625 221.464844 217.621094 221.371094 217.578125 C 221.046875 217.421875 220.910156 217.03125 221.066406 216.707031 C 221.90625 214.933594 223.035156 213.484375 224.429688 212.398438 C 224.710938 212.175781 225.121094 212.226562 225.339844 212.511719 C 225.566406 212.796875 225.511719 213.203125 225.230469 213.425781 C 224 214.386719 222.992188 215.679688 222.242188 217.265625 C 222.128906 217.503906 221.898438 217.640625 221.648438 217.640625 Z M 242.765625 218.582031 C 242.570312 218.582031 242.375 218.492188 242.25 218.324219 C 241.171875 216.910156 240 215.679688 238.761719 214.664062 C 238.484375 214.433594 238.445312 214.023438 238.675781 213.742188 C 238.902344 213.464844 239.308594 213.421875 239.589844 213.652344 C 240.90625 214.734375 242.144531 216.042969 243.285156 217.53125 C 243.503906 217.820312 243.449219 218.230469 243.164062 218.449219 C 243.042969 218.539062 242.90625 218.582031 242.765625 218.582031 Z M 151.667969 218.710938 C 151.503906 218.710938 151.34375 218.648438 151.21875 218.527344 C 149.863281 217.222656 148.621094 216.054688 147.429688 214.964844 C 147.167969 214.722656 147.144531 214.308594 147.390625 214.042969 C 147.632812 213.777344 148.042969 213.757812 148.308594 214 C 149.511719 215.101562 150.757812 216.273438 152.121094 217.589844 C 152.378906 217.839844 152.386719 218.253906 152.136719 218.511719 C 152.011719 218.644531 151.839844 218.710938 151.667969 218.710938 Z M 321.183594 221.398438 C 321.019531 221.398438 320.855469 221.335938 320.730469 221.210938 C 320.472656 220.960938 320.464844 220.546875 320.714844 220.289062 C 321.941406 219.023438 323.128906 217.746094 324.246094 216.488281 C 324.484375 216.21875 324.894531 216.191406 325.164062 216.433594 C 325.433594 216.671875 325.460938 217.082031 325.21875 217.355469 C 324.089844 218.628906 322.890625 219.917969 321.648438 221.199219 C 321.523438 221.328125 321.351562 221.398438 321.183594 221.398438 Z M 159.070312 226.070312 C 158.902344 226.070312 158.734375 226.003906 158.605469 225.878906 C 157.375 224.632812 156.152344 223.398438 154.929688 222.179688 C 154.675781 221.925781 154.675781 221.511719 154.929688 221.257812 C 155.183594 221 155.59375 221 155.851562 221.253906 C 157.074219 222.476562 158.300781 223.710938 159.535156 224.957031 C 159.785156 225.214844 159.785156 225.625 159.527344 225.882812 C 159.402344 226.007812 159.238281 226.070312 159.070312 226.070312 Z M 220.390625 227.847656 C 220.078125 227.847656 219.800781 227.625 219.75 227.304688 C 219.578125 226.261719 219.488281 225.195312 219.488281 224.132812 C 219.488281 223.386719 219.53125 222.644531 219.617188 221.921875 C 219.65625 221.5625 219.980469 221.304688 220.335938 221.347656 C 220.695312 221.390625 220.949219 221.710938 220.910156 222.070312 C 220.832031 222.746094 220.792969 223.4375 220.792969 224.132812 C 220.792969 225.125 220.871094 226.121094 221.035156 227.089844 C 221.089844 227.445312 220.855469 227.78125 220.5 227.839844 C 220.460938 227.847656 220.421875 227.847656 220.390625 227.847656 Z M 247.289062 227.914062 C 246.996094 227.914062 246.726562 227.707031 246.65625 227.410156 C 246.300781 225.882812 245.699219 224.238281 244.917969 222.652344 C 244.761719 222.328125 244.894531 221.9375 245.214844 221.777344 C 245.539062 221.621094 245.929688 221.753906 246.089844 222.074219 C 246.921875 223.773438 247.539062 225.46875 247.925781 227.109375 C 248.007812 227.460938 247.789062 227.8125 247.441406 227.894531 C 247.390625 227.90625 247.339844 227.914062 247.289062 227.914062 Z M 313.640625 228.605469 C 313.464844 228.605469 313.285156 228.53125 313.15625 228.386719 C 312.917969 228.117188 312.941406 227.707031 313.207031 227.464844 C 314.566406 226.25 315.816406 225.09375 317.023438 223.941406 C 317.285156 223.691406 317.699219 223.703125 317.945312 223.960938 C 318.195312 224.222656 318.183594 224.636719 317.921875 224.886719 C 316.703125 226.050781 315.445312 227.214844 314.078125 228.4375 C 313.953125 228.550781 313.796875 228.605469 313.640625 228.605469 Z M 166.425781 233.46875 C 166.261719 233.46875 166.097656 233.40625 165.96875 233.28125 C 164.730469 232.054688 163.5 230.820312 162.277344 229.585938 C 162.023438 229.328125 162.023438 228.914062 162.28125 228.664062 C 162.535156 228.410156 162.945312 228.410156 163.203125 228.667969 C 164.421875 229.898438 165.648438 231.128906 166.886719 232.351562 C 167.140625 232.605469 167.140625 233.019531 166.890625 233.273438 C 166.761719 233.402344 166.59375 233.46875 166.425781 233.46875 Z M 305.738281 235.417969 C 305.554688 235.417969 305.371094 235.339844 305.242188 235.1875 C 305.007812 234.914062 305.042969 234.503906 305.320312 234.269531 L 306.007812 233.683594 C 307.058594 232.796875 308.15625 231.867188 309.292969 230.894531 C 309.5625 230.65625 309.976562 230.691406 310.210938 230.964844 C 310.441406 231.238281 310.414062 231.648438 310.140625 231.886719 C 309 232.859375 307.898438 233.792969 306.851562 234.679688 L 306.160156 235.265625 C 306.035156 235.367188 305.886719 235.417969 305.738281 235.417969 Z M 224.941406 237.082031 C 224.761719 237.082031 224.578125 237.007812 224.453125 236.859375 C 223.234375 235.464844 222.21875 233.976562 221.433594 232.433594 C 221.269531 232.109375 221.394531 231.714844 221.714844 231.554688 C 222.035156 231.390625 222.425781 231.515625 222.59375 231.835938 C 223.328125 233.285156 224.285156 234.6875 225.429688 236 C 225.667969 236.273438 225.640625 236.683594 225.371094 236.921875 C 225.246094 237.027344 225.09375 237.082031 224.941406 237.082031 Z M 247.28125 238.265625 C 247.234375 238.265625 247.1875 238.261719 247.140625 238.25 C 246.789062 238.171875 246.566406 237.824219 246.644531 237.472656 C 247.003906 235.859375 247.183594 234.167969 247.183594 232.457031 C 247.183594 232.09375 247.476562 231.796875 247.835938 231.796875 C 248.199219 231.796875 248.488281 232.078125 248.488281 232.441406 C 248.488281 234.261719 248.296875 236.046875 247.917969 237.757812 C 247.847656 238.058594 247.578125 238.265625 247.28125 238.265625 Z M 173.976562 240.675781 C 173.820312 240.675781 173.664062 240.621094 173.539062 240.507812 C 172.304688 239.382812 171.054688 238.214844 169.714844 236.929688 C 169.453125 236.679688 169.445312 236.269531 169.691406 236.007812 C 169.941406 235.746094 170.351562 235.738281 170.613281 235.988281 C 171.945312 237.265625 173.191406 238.425781 174.414062 239.542969 C 174.683594 239.785156 174.703125 240.195312 174.460938 240.460938 C 174.332031 240.605469 174.152344 240.675781 173.976562 240.675781 Z M 297.519531 241.824219 C 297.3125 241.824219 297.109375 241.730469 296.984375 241.546875 C 296.78125 241.25 296.855469 240.84375 297.148438 240.636719 C 298.496094 239.703125 299.898438 238.667969 301.308594 237.5625 C 301.59375 237.339844 302 237.386719 302.222656 237.671875 C 302.445312 237.957031 302.394531 238.367188 302.109375 238.585938 C 300.679688 239.710938 299.257812 240.761719 297.890625 241.710938 C 297.777344 241.789062 297.648438 241.824219 297.519531 241.824219 Z M 233.085938 243.515625 C 232.980469 243.515625 232.867188 243.488281 232.769531 243.429688 C 231.160156 242.519531 229.671875 241.535156 228.34375 240.503906 C 228.058594 240.28125 228.007812 239.871094 228.226562 239.585938 C 228.449219 239.300781 228.859375 239.25 229.140625 239.46875 C 230.421875 240.464844 231.855469 241.414062 233.410156 242.296875 C 233.722656 242.472656 233.832031 242.871094 233.65625 243.183594 C 233.535156 243.394531 233.3125 243.515625 233.085938 243.515625 Z M 288.515625 247.046875 C 288.269531 247.046875 288.035156 246.910156 287.925781 246.671875 C 287.777344 246.34375 287.917969 245.957031 288.242188 245.804688 C 289.75 245.109375 291.28125 244.308594 292.804688 243.417969 C 293.113281 243.234375 293.511719 243.339844 293.691406 243.652344 C 293.875 243.960938 293.769531 244.363281 293.457031 244.542969 C 291.902344 245.453125 290.332031 246.277344 288.789062 246.988281 C 288.699219 247.03125 288.609375 247.046875 288.515625 247.046875 Z M 181.9375 247.414062 C 181.800781 247.414062 181.660156 247.367188 181.542969 247.277344 C 180.222656 246.257812 178.855469 245.144531 177.472656 243.96875 C 177.195312 243.734375 177.164062 243.324219 177.394531 243.050781 C 177.625 242.773438 178.039062 242.742188 178.3125 242.972656 C 179.683594 244.136719 181.035156 245.234375 182.339844 246.246094 C 182.621094 246.464844 182.671875 246.875 182.453125 247.160156 C 182.328125 247.328125 182.132812 247.414062 181.9375 247.414062 Z M 242.640625 247.65625 C 242.574219 247.65625 242.503906 247.644531 242.4375 247.625 C 240.71875 247.058594 239.058594 246.433594 237.503906 245.765625 C 237.175781 245.625 237.023438 245.242188 237.160156 244.910156 C 237.304688 244.578125 237.6875 244.425781 238.019531 244.566406 C 239.4375 245.179688 240.949219 245.75 242.511719 246.273438 C 243.484375 245 244.316406 243.644531 244.988281 242.246094 C 245.144531 241.921875 245.535156 241.785156 245.859375 241.941406 C 246.183594 242.097656 246.320312 242.488281 246.164062 242.8125 C 245.402344 244.394531 244.449219 245.917969 243.332031 247.34375 C 243.230469 247.476562 243.089844 247.554688 242.9375 247.585938 C 242.84375 247.632812 242.746094 247.65625 242.640625 247.65625 Z M 252.753906 250.171875 C 252.71875 250.171875 252.679688 250.167969 252.644531 250.160156 C 250.910156 249.855469 249.179688 249.488281 247.496094 249.074219 C 247.148438 248.988281 246.9375 248.632812 247.023438 248.285156 C 247.109375 247.933594 247.460938 247.722656 247.808594 247.808594 C 249.460938 248.214844 251.164062 248.574219 252.867188 248.875 C 253.222656 248.9375 253.457031 249.277344 253.394531 249.628906 C 253.339844 249.945312 253.066406 250.171875 252.753906 250.171875 Z M 278.65625 250.34375 C 278.355469 250.34375 278.085938 250.136719 278.019531 249.828125 C 277.945312 249.476562 278.171875 249.128906 278.519531 249.054688 C 280.195312 248.699219 281.859375 248.242188 283.472656 247.703125 C 283.8125 247.589844 284.183594 247.777344 284.296875 248.117188 C 284.410156 248.457031 284.226562 248.828125 283.886719 248.941406 C 282.226562 249.496094 280.511719 249.964844 278.796875 250.332031 C 278.746094 250.339844 278.699219 250.34375 278.65625 250.34375 Z M 263.105469 251.339844 C 263.09375 251.339844 263.085938 251.339844 263.074219 251.339844 C 261.414062 251.246094 259.65625 251.097656 257.84375 250.894531 C 257.488281 250.855469 257.226562 250.535156 257.269531 250.175781 C 257.308594 249.816406 257.636719 249.558594 257.988281 249.597656 C 259.777344 249.796875 261.511719 249.945312 263.144531 250.035156 C 263.503906 250.054688 263.777344 250.363281 263.757812 250.722656 C 263.738281 251.070312 263.449219 251.339844 263.105469 251.339844 Z M 268.316406 251.453125 C 267.960938 251.453125 267.667969 251.171875 267.664062 250.8125 C 267.660156 250.453125 267.945312 250.15625 268.304688 250.148438 C 270.074219 250.125 271.804688 250.023438 273.449219 249.851562 C 273.804688 249.816406 274.125 250.074219 274.164062 250.433594 C 274.199219 250.789062 273.9375 251.113281 273.582031 251.148438 C 271.898438 251.328125 270.132812 251.429688 268.324219 251.453125 C 268.324219 251.453125 268.320312 251.453125 268.316406 251.453125 Z M 190.535156 253.300781 C 190.425781 253.300781 190.308594 253.273438 190.207031 253.210938 C 188.753906 252.355469 187.261719 251.402344 185.777344 250.378906 C 185.480469 250.175781 185.40625 249.769531 185.609375 249.472656 C 185.8125 249.175781 186.21875 249.101562 186.515625 249.304688 C 187.976562 250.3125 189.441406 251.246094 190.871094 252.085938 C 191.179688 252.269531 191.28125 252.667969 191.101562 252.980469 C 190.976562 253.183594 190.761719 253.300781 190.535156 253.300781 Z M 235.027344 254.449219 C 234.808594 254.449219 234.597656 254.335938 234.472656 254.136719 C 234.285156 253.832031 234.378906 253.429688 234.683594 253.238281 C 236.164062 252.324219 237.550781 251.304688 238.796875 250.21875 C 239.070312 249.980469 239.480469 250.011719 239.714844 250.28125 C 239.953125 250.554688 239.921875 250.964844 239.652344 251.203125 C 238.351562 252.335938 236.910156 253.398438 235.367188 254.347656 C 235.261719 254.417969 235.144531 254.449219 235.027344 254.449219 Z M 199.933594 257.773438 C 199.859375 257.773438 199.785156 257.757812 199.710938 257.734375 C 198.105469 257.15625 196.46875 256.46875 194.847656 255.695312 C 194.523438 255.539062 194.386719 255.148438 194.542969 254.824219 C 194.699219 254.5 195.085938 254.359375 195.410156 254.515625 C 196.992188 255.273438 198.585938 255.941406 200.152344 256.507812 C 200.488281 256.625 200.664062 257 200.546875 257.339844 C 200.449219 257.605469 200.199219 257.773438 199.933594 257.773438 Z M 225.511719 258.636719 C 225.230469 258.636719 224.972656 258.453125 224.886719 258.167969 C 224.789062 257.820312 224.984375 257.460938 225.328125 257.359375 C 226.984375 256.878906 228.605469 256.289062 230.148438 255.613281 C 230.480469 255.46875 230.863281 255.621094 231.007812 255.949219 C 231.152344 256.277344 231 256.664062 230.671875 256.808594 C 229.078125 257.507812 227.402344 258.113281 225.695312 258.613281 C 225.632812 258.628906 225.574219 258.636719 225.511719 258.636719 Z M 210.050781 260.105469 C 210.027344 260.105469 210.007812 260.105469 209.980469 260.101562 C 208.253906 259.925781 206.5 259.632812 204.773438 259.230469 C 204.421875 259.152344 204.203125 258.800781 204.285156 258.449219 C 204.367188 258.097656 204.714844 257.878906 205.066406 257.960938 C 206.742188 258.347656 208.441406 258.632812 210.117188 258.804688 C 210.472656 258.839844 210.730469 259.160156 210.695312 259.515625 C 210.664062 259.855469 210.378906 260.105469 210.050781 260.105469 Z M 215.25 260.285156 C 214.898438 260.285156 214.609375 260.007812 214.597656 259.652344 C 214.585938 259.292969 214.867188 258.992188 215.230469 258.980469 C 216.914062 258.925781 218.628906 258.761719 220.328125 258.488281 C 220.683594 258.425781 221.015625 258.671875 221.074219 259.027344 C 221.132812 259.382812 220.890625 259.71875 220.535156 259.777344 C 218.78125 260.058594 217.011719 260.230469 215.265625 260.285156 C 215.261719 260.285156 215.253906 260.285156 215.25 260.285156 " fill-opacity="1" fill-rule="nonzero"/><path fill="#000000" d="M 267.769531 50.863281 C 264.511719 47.105469 259.523438 46.183594 255.722656 47.101562 C 250.917969 48.257812 248.386719 52.316406 246.601562 55.175781 C 243.449219 60.234375 244.839844 62.144531 242.390625 65.0625 C 238.058594 70.234375 231.621094 66.722656 226.417969 70.4375 C 218.480469 76.101562 216.816406 96.109375 227.078125 104.058594 C 233.917969 109.359375 243.527344 106.710938 246.144531 105.988281 C 254.078125 103.800781 264.070312 97.320312 265.753906 88.167969 C 267.144531 80.601562 262.335938 74.125 266.71875 67.882812 C 267.832031 66.292969 268.726562 65.882812 269.582031 63.875 C 270.96875 60.621094 271.425781 55.082031 267.769531 50.863281 " fill-opacity="1" fill-rule="nonzero"/><path fill="#ffffff" d="M 295.351562 87.359375 C 295.023438 85.886719 294.738281 84.441406 295.472656 83.160156 L 296.5625 81.226562 C 296.734375 80.929688 297.113281 79.71875 297.90625 80.28125 C 298.503906 80.707031 298.550781 81.402344 297.898438 84.121094 C 297.570312 85.480469 297.839844 86.28125 298.488281 87.164062 C 298.53125 86.964844 298.605469 86.738281 298.714844 86.5 C 299.207031 85.417969 300.214844 84.65625 301.375 84.414062 C 302.824219 84.117188 305.152344 83.875 305.773438 85.613281 C 306.203125 86.820312 305.703125 88.945312 303.53125 90.335938 C 303.023438 90.660156 300.410156 91.910156 300.410156 91.910156 C 292.410156 102.136719 280.539062 109.839844 265.199219 93.621094 L 261.429688 79.5625 C 278.617188 100.78125 295.730469 89.054688 295.351562 87.359375 " fill-opacity="1" fill-rule="nonzero"/><path fill="#000000" d="M 265.785156 93.292969 C 271.734375 99.542969 277.601562 102.582031 283.222656 102.3125 C 288.886719 102.046875 294.496094 98.414062 299.898438 91.507812 C 299.957031 91.429688 300.035156 91.367188 300.128906 91.320312 C 301.164062 90.828125 302.828125 90.011719 303.179688 89.785156 C 305.082031 88.570312 305.480469 86.738281 305.160156 85.832031 C 304.820312 84.882812 303.589844 84.621094 301.507812 85.054688 C 300.527344 85.257812 299.703125 85.898438 299.304688 86.769531 C 299.222656 86.953125 299.160156 87.132812 299.128906 87.300781 C 299.074219 87.550781 298.878906 87.746094 298.628906 87.800781 C 298.375 87.855469 298.117188 87.757812 297.964844 87.550781 C 297.257812 86.59375 296.871094 85.617188 297.265625 83.96875 C 297.839844 81.566406 297.800781 81.007812 297.527344 80.8125 C 297.425781 80.929688 297.296875 81.203125 297.246094 81.3125 C 297.199219 81.414062 297.15625 81.5 297.121094 81.558594 L 296.039062 83.484375 C 295.449219 84.511719 295.644531 85.679688 295.988281 87.214844 C 296.265625 88.460938 293.707031 90.066406 292.15625 90.820312 C 288.539062 92.570312 276.125 96.871094 262.804688 82.167969 Z M 282.546875 103.632812 C 276.722656 103.632812 270.734375 100.417969 264.726562 94.070312 C 264.652344 93.992188 264.597656 93.894531 264.570312 93.789062 L 260.804688 79.730469 C 260.722656 79.433594 260.859375 79.125 261.132812 78.980469 C 261.410156 78.84375 261.742188 78.914062 261.9375 79.152344 C 272.136719 91.742188 282.023438 92.058594 287.007812 91.128906 C 291.636719 90.265625 294.382812 88.050781 294.695312 87.402344 C 294.390625 86.027344 294.042969 84.34375 294.910156 82.835938 L 295.996094 80.90625 C 296.019531 80.867188 296.039062 80.816406 296.066406 80.757812 C 296.253906 80.359375 296.566406 79.691406 297.21875 79.519531 C 297.464844 79.453125 297.847656 79.441406 298.28125 79.75 C 299.3125 80.484375 299.148438 81.691406 298.53125 84.269531 C 298.398438 84.828125 298.378906 85.257812 298.453125 85.628906 C 299.085938 84.691406 300.089844 84.015625 301.246094 83.777344 C 304.757812 83.050781 305.980469 84.253906 306.386719 85.390625 C 306.933594 86.929688 306.242188 89.375 303.878906 90.886719 C 303.40625 91.191406 301.414062 92.152344 300.828125 92.433594 C 295.210938 99.574219 289.308594 103.335938 283.285156 103.617188 C 283.039062 103.628906 282.792969 103.632812 282.546875 103.632812 " fill-opacity="1" fill-rule="nonzero"/><path fill="#5479f7" d="M 299.765625 73.6875 L 295.589844 96.757812 C 295.285156 98.445312 295.886719 99.953125 296.9375 100.121094 L 298.671875 100.398438 C 299.71875 100.566406 300.820312 99.332031 301.128906 97.640625 L 305.304688 74.574219 L 299.765625 73.6875 " fill-opacity="1" fill-rule="nonzero"/><path fill="#000000" d="M 300.292969 74.433594 L 296.230469 96.871094 C 296.070312 97.757812 296.191406 98.617188 296.550781 99.125 C 296.695312 99.328125 296.859375 99.445312 297.042969 99.476562 L 298.773438 99.75 C 299.371094 99.851562 300.234375 98.917969 300.488281 97.523438 L 304.542969 75.109375 Z M 298.863281 101.0625 C 298.765625 101.0625 298.667969 101.058594 298.570312 101.042969 L 296.835938 100.761719 C 296.304688 100.679688 295.839844 100.371094 295.488281 99.878906 C 294.929688 99.085938 294.726562 97.875 294.949219 96.640625 L 299.125 73.570312 C 299.1875 73.222656 299.519531 72.984375 299.867188 73.042969 L 305.40625 73.925781 C 305.578125 73.953125 305.734375 74.050781 305.832031 74.191406 C 305.933594 74.335938 305.976562 74.515625 305.941406 74.6875 L 301.769531 97.757812 C 301.421875 99.683594 300.179688 101.0625 298.863281 101.0625 " fill-opacity="1" fill-rule="nonzero"/><path fill="#5479f7" d="M 304.9375 76.609375 L 301.128906 97.636719 C 300.820312 99.328125 299.722656 100.5625 298.671875 100.394531 L 296.941406 100.117188 C 295.890625 99.949219 295.285156 98.445312 295.589844 96.753906 L 299.496094 75.140625 L 304.9375 76.609375 " fill-opacity="1" fill-rule="nonzero"/><path fill="#000000" d="M 300.011719 75.957031 L 296.230469 96.875 C 296.070312 97.757812 296.191406 98.621094 296.550781 99.125 C 296.695312 99.328125 296.859375 99.449219 297.039062 99.476562 L 298.773438 99.753906 C 299.367188 99.851562 300.234375 98.917969 300.488281 97.523438 L 304.1875 77.085938 Z M 298.859375 101.066406 C 298.765625 101.066406 298.667969 101.058594 298.566406 101.042969 L 296.835938 100.765625 C 296.300781 100.679688 295.835938 100.375 295.488281 99.878906 C 294.925781 99.085938 294.726562 97.875 294.949219 96.640625 L 298.855469 75.023438 C 298.886719 74.847656 298.992188 74.6875 299.148438 74.589844 C 299.300781 74.492188 299.492188 74.464844 299.664062 74.511719 L 305.101562 75.984375 C 305.429688 76.074219 305.632812 76.394531 305.574219 76.730469 L 301.765625 97.757812 C 301.417969 99.683594 300.175781 101.066406 298.859375 101.066406 " fill-opacity="1" fill-rule="nonzero"/><path fill="#ffffff" d="M 299.679688 89.238281 C 300.4375 89.640625 301.753906 89.96875 303.464844 89.601562 C 305.257812 89.210938 306.203125 86.820312 305.773438 85.613281 C 305.15625 83.882812 302.847656 84.113281 301.398438 84.410156 C 300.222656 84.652344 298.855469 85.519531 298.53125 86.378906 C 298.039062 87.691406 298.261719 88.488281 299.679688 89.238281 " fill-opacity="1" fill-rule="nonzero"/><path fill="#000000" d="M 302.5625 89.070312 C 302.902344 89.070312 303.183594 89.332031 303.210938 89.671875 C 303.214844 89.703125 303.214844 89.734375 303.210938 89.765625 C 305.191406 88.46875 305.457031 86.667969 305.160156 85.828125 C 305.132812 85.753906 305.054688 85.597656 305.054688 85.597656 C 304.535156 84.65625 302.851562 84.78125 301.527344 85.046875 C 300.523438 85.253906 299.367188 86.011719 299.144531 86.605469 C 298.769531 87.597656 298.84375 88.058594 299.980469 88.660156 C 300.222656 88.785156 301.101562 89.183594 302.511719 89.074219 C 302.53125 89.074219 302.546875 89.070312 302.5625 89.070312 Z M 302.347656 91.640625 C 302.117188 91.640625 301.890625 91.515625 301.773438 91.296875 C 301.605469 90.980469 301.726562 90.585938 302.042969 90.414062 C 302.054688 90.40625 302.0625 90.402344 302.070312 90.398438 C 302.058594 90.398438 302.046875 90.398438 302.03125 90.398438 C 301.039062 90.398438 300.09375 90.195312 299.378906 89.816406 C 297.722656 88.941406 297.285156 87.84375 297.925781 86.148438 C 298.351562 85 299.960938 84.039062 301.265625 83.773438 C 303.8125 83.25 305.476562 83.660156 306.210938 84.996094 C 306.222656 85.023438 306.34375 85.277344 306.386719 85.390625 C 306.945312 86.957031 306.265625 89.347656 303.882812 90.882812 C 303.832031 90.917969 303.589844 91.066406 302.65625 91.566406 C 302.558594 91.617188 302.453125 91.640625 302.347656 91.640625 " fill-opacity="1" fill-rule="nonzero"/><path fill="#000000" d="M 249.496094 132.324219 C 249.496094 132.324219 240.867188 135.546875 237.480469 132.835938 C 234.097656 130.121094 242.726562 125.546875 244.757812 125.886719 C 246.785156 126.226562 249.496094 132.324219 249.496094 132.324219 " fill-opacity="1" fill-rule="nonzero"/><path fill="#ffffff" d="M 292.859375 201.425781 L 284.738281 215.664062 L 280.335938 209.558594 L 287.445312 195.664062 L 292.859375 201.425781 " fill-opacity="1" fill-rule="nonzero"/><path fill="#000000" d="M 281.101562 209.503906 L 284.675781 214.457031 L 292.054688 201.519531 L 287.605469 196.785156 Z M 284.738281 216.3125 C 284.53125 216.3125 284.335938 216.214844 284.210938 216.042969 L 279.808594 209.941406 C 279.671875 209.742188 279.648438 209.480469 279.761719 209.261719 L 286.867188 195.367188 C 286.964844 195.175781 287.148438 195.046875 287.355469 195.015625 C 287.5625 194.984375 287.773438 195.058594 287.921875 195.214844 L 293.335938 200.976562 C 293.535156 201.1875 293.566406 201.5 293.429688 201.75 L 285.304688 215.984375 C 285.195312 216.175781 284.996094 216.300781 284.777344 216.3125 C 284.761719 216.3125 284.753906 216.3125 284.738281 216.3125 " fill-opacity="1" fill-rule="nonzero"/><path fill="#ffffff" d="M 287.554688 213.488281 C 285.410156 217.910156 279.988281 228.640625 274.765625 233.78125 C 273.492188 235.03125 271.335938 234.449219 270.882812 232.71875 C 269.246094 226.53125 268.160156 213.625 274.25 203.457031 C 274.25 203.457031 277.144531 203.117188 282.5625 204.136719 L 281.355469 209.222656 L 282.019531 208.746094 C 283.023438 208.03125 284.382812 208.089844 285.316406 208.890625 L 286.875 210.230469 C 287.8125 211.035156 288.09375 212.375 287.554688 213.488281 " fill-opacity="1" fill-rule="nonzero"/><path fill="#000000" d="M 287.550781 213.488281 L 287.554688 213.488281 Z M 274.636719 204.082031 C 268.863281 213.996094 269.941406 226.617188 271.511719 232.554688 C 271.667969 233.136719 272.101562 233.578125 272.683594 233.738281 C 273.269531 233.898438 273.875 233.738281 274.308594 233.3125 C 279.164062 228.539062 284.320312 218.664062 286.96875 213.207031 C 287.378906 212.359375 287.164062 211.339844 286.449219 210.726562 L 284.890625 209.386719 C 284.179688 208.78125 283.160156 208.734375 282.398438 209.277344 L 281.734375 209.753906 C 281.515625 209.910156 281.21875 209.914062 280.992188 209.761719 C 280.765625 209.609375 280.660156 209.335938 280.722656 209.070312 L 281.769531 204.65625 C 277.910156 203.988281 275.460938 204.039062 274.636719 204.082031 Z M 273.140625 235.105469 C 272.875 235.105469 272.605469 235.070312 272.339844 234.996094 C 271.304688 234.710938 270.527344 233.921875 270.25 232.886719 C 268.617188 226.691406 267.5 213.453125 273.691406 203.121094 C 273.792969 202.949219 273.972656 202.835938 274.175781 202.808594 C 274.296875 202.796875 277.230469 202.472656 282.679688 203.496094 C 282.855469 203.527344 283.007812 203.632812 283.105469 203.78125 C 283.203125 203.929688 283.234375 204.113281 283.195312 204.289062 L 282.355469 207.824219 C 283.480469 207.378906 284.785156 207.578125 285.738281 208.394531 L 287.300781 209.734375 C 288.460938 210.730469 288.808594 212.394531 288.136719 213.777344 C 285.457031 219.3125 280.214844 229.332031 275.222656 234.246094 C 274.652344 234.804688 273.910156 235.105469 273.140625 235.105469 " fill-opacity="1" fill-rule="nonzero"/><path fill="#000000" d="M 273.910156 232.585938 C 273.648438 232.585938 273.398438 232.421875 273.300781 232.160156 C 268.523438 219.515625 274.738281 205.15625 275.007812 204.550781 C 275.152344 204.222656 275.535156 204.074219 275.863281 204.21875 C 276.191406 204.363281 276.34375 204.75 276.195312 205.078125 C 276.132812 205.222656 269.933594 219.5625 274.519531 231.699219 C 274.648438 232.039062 274.476562 232.414062 274.140625 232.542969 C 274.066406 232.570312 273.984375 232.585938 273.910156 232.585938 " fill-opacity="1" fill-rule="nonzero"/><path fill="#000000" d="M 284.398438 220.308594 C 284.277344 220.308594 284.15625 220.273438 284.046875 220.203125 L 279.984375 217.5625 C 279.683594 217.371094 279.597656 216.964844 279.792969 216.664062 C 279.988281 216.359375 280.390625 216.273438 280.695312 216.46875 L 284.757812 219.109375 C 285.058594 219.304688 285.140625 219.707031 284.945312 220.011719 C 284.820312 220.203125 284.613281 220.308594 284.398438 220.308594 " fill-opacity="1" fill-rule="nonzero"/><path fill="#000000" d="M 282.371094 223.921875 C 282.230469 223.921875 282.09375 223.878906 281.976562 223.785156 L 278.25 220.925781 C 277.964844 220.707031 277.910156 220.296875 278.132812 220.007812 C 278.351562 219.722656 278.761719 219.667969 279.042969 219.890625 L 282.765625 222.75 C 283.050781 222.972656 283.105469 223.378906 282.886719 223.667969 C 282.757812 223.832031 282.566406 223.921875 282.371094 223.921875 " fill-opacity="1" fill-rule="nonzero"/><path fill="#ffffff" d="M 318.582031 201.761719 C 318.582031 202.101562 326.027344 218.371094 326.027344 218.371094 L 317.566406 219.050781 L 311.8125 205.152344 L 318.582031 201.761719 " fill-opacity="1" fill-rule="nonzero"/><path fill="#000000" d="M 319.234375 201.765625 Z M 312.644531 205.464844 L 317.984375 218.363281 L 325.042969 217.796875 C 320.4375 207.730469 318.8125 204.054688 318.238281 202.664062 Z M 317.5625 219.703125 C 317.300781 219.703125 317.0625 219.546875 316.960938 219.300781 L 311.210938 205.402344 C 311.078125 205.085938 311.214844 204.722656 311.519531 204.570312 L 318.289062 201.179688 C 318.492188 201.082031 318.730469 201.089844 318.921875 201.210938 C 319.074219 201.304688 319.179688 201.457031 319.21875 201.632812 C 319.484375 202.4375 323.773438 211.890625 326.613281 218.101562 C 326.703125 218.296875 326.695312 218.519531 326.585938 218.703125 C 326.476562 218.886719 326.289062 219.007812 326.078125 219.023438 L 317.617188 219.703125 C 317.597656 219.703125 317.582031 219.703125 317.5625 219.703125 " fill-opacity="1" fill-rule="nonzero"/><path fill="#ffffff" d="M 318.242188 214.984375 C 318.242188 214.984375 319.933594 210.917969 324.332031 212.949219 C 324.332031 212.949219 332.40625 224.632812 335.410156 234.28125 C 336.257812 237.007812 333.460938 239.46875 330.859375 238.292969 C 324.777344 235.539062 315.238281 229.761719 309.78125 219.050781 C 309.78125 219.050781 311.472656 214.644531 314.179688 212.613281 L 318.242188 214.984375 " fill-opacity="1" fill-rule="nonzero"/><path fill="#000000" d="M 310.5 219.019531 C 315.742188 229.109375 324.597656 234.742188 331.128906 237.695312 C 332.101562 238.136719 333.203125 237.964844 334.003906 237.253906 C 334.800781 236.550781 335.101562 235.484375 334.789062 234.476562 C 332.035156 225.617188 324.839844 214.855469 323.898438 213.46875 C 322.765625 212.980469 321.75 212.902344 320.871094 213.238281 C 319.476562 213.777344 318.847656 215.222656 318.84375 215.238281 C 318.769531 215.410156 318.625 215.542969 318.449219 215.601562 C 318.269531 215.660156 318.074219 215.640625 317.914062 215.546875 L 314.238281 213.398438 C 312.261719 215.089844 310.882812 218.113281 310.5 219.019531 Z M 332.238281 239.246094 C 331.683594 239.246094 331.125 239.128906 330.59375 238.886719 C 323.8125 235.820312 314.597656 229.9375 309.203125 219.347656 C 309.117188 219.183594 309.109375 218.988281 309.171875 218.816406 C 309.246094 218.628906 310.96875 214.210938 313.789062 212.085938 C 314 211.929688 314.285156 211.914062 314.507812 212.046875 L 317.992188 214.082031 C 318.398438 213.445312 319.164062 212.507812 320.386719 212.027344 C 321.648438 211.535156 323.066406 211.648438 324.605469 212.355469 C 324.710938 212.40625 324.800781 212.484375 324.871094 212.578125 C 324.949219 212.695312 333.035156 224.453125 336.03125 234.085938 C 336.5 235.59375 336.054688 237.179688 334.871094 238.230469 C 334.117188 238.898438 333.183594 239.246094 332.238281 239.246094 " fill-opacity="1" fill-rule="nonzero"/><path fill="#000000" d="M 332.945312 236 C 330.636719 236 322.207031 234.851562 311.285156 219.773438 C 311.074219 219.480469 311.140625 219.074219 311.429688 218.863281 C 311.71875 218.648438 312.128906 218.714844 312.335938 219.007812 C 324.417969 235.679688 333.292969 234.6875 333.378906 234.671875 C 333.730469 234.628906 334.0625 234.875 334.113281 235.230469 C 334.164062 235.585938 333.917969 235.914062 333.566406 235.964844 C 333.515625 235.972656 333.304688 236 332.945312 236 " fill-opacity="1" fill-rule="nonzero"/><path fill="#000000" d="M 326.023438 226.820312 C 325.800781 226.820312 325.582031 226.707031 325.460938 226.496094 C 325.28125 226.1875 325.386719 225.785156 325.699219 225.605469 L 329.757812 223.230469 C 330.066406 223.050781 330.464844 223.15625 330.648438 223.46875 C 330.828125 223.78125 330.722656 224.179688 330.414062 224.359375 L 326.351562 226.734375 C 326.25 226.792969 326.136719 226.820312 326.023438 226.820312 " fill-opacity="1" fill-rule="nonzero"/><path fill="#000000" d="M 323.996094 223.769531 C 323.761719 223.769531 323.539062 223.644531 323.421875 223.425781 C 323.25 223.109375 323.367188 222.714844 323.6875 222.542969 L 328.085938 220.171875 C 328.402344 220 328.796875 220.117188 328.96875 220.4375 C 329.136719 220.753906 329.019531 221.148438 328.703125 221.320312 L 324.304688 223.691406 C 324.203125 223.746094 324.101562 223.769531 323.996094 223.769531 " fill-opacity="1" fill-rule="nonzero"/><path fill="#000000" d="M 275.265625 119.734375 C 275.265625 119.734375 297.320312 123.679688 313.214844 140.375 C 317.230469 144.589844 318.644531 150.65625 316.921875 156.214844 C 313.390625 167.625 305.707031 188.464844 292.863281 204.136719 L 283.046875 195.664062 C 283.046875 195.664062 285.417969 176.003906 291.847656 163.800781 C 298.277344 151.601562 260.710938 125.160156 260.710938 125.160156 L 275.265625 119.734375 " fill-opacity="1" fill-rule="nonzero"/><path fill="#000000" d="M 321.289062 204.816406 L 309.78125 208.203125 C 309.78125 208.203125 288.800781 163.800781 282.707031 157.359375 C 276.617188 150.921875 264.773438 140.414062 252.253906 136.683594 C 239.730469 132.957031 239.730469 123.464844 239.730469 123.464844 L 261.050781 117.367188 C 261.050781 117.367188 290.832031 130.246094 300.644531 144.820312 C 310.457031 159.394531 321.289062 204.816406 321.289062 204.816406 " fill-opacity="1" fill-rule="nonzero"/><path fill="#ffffff" d="M 321.171875 204.992188 C 320.878906 204.992188 320.613281 204.792969 320.539062 204.492188 C 319.414062 199.855469 309.273438 158.800781 300.105469 145.183594 C 296.148438 139.304688 288.101562 132.738281 276.84375 126.191406 C 276.53125 126.007812 276.425781 125.609375 276.605469 125.296875 C 276.785156 124.984375 277.183594 124.882812 277.496094 125.0625 C 289.089844 131.800781 297.0625 138.328125 301.1875 144.457031 C 310.480469 158.261719 320.675781 199.523438 321.808594 204.1875 C 321.890625 204.535156 321.675781 204.886719 321.328125 204.972656 C 321.277344 204.984375 321.222656 204.992188 321.171875 204.992188 " fill-opacity="1" fill-rule="nonzero"/><path fill="#ffffff" d="M 309.78125 208.855469 C 309.539062 208.855469 309.304688 208.71875 309.191406 208.484375 C 308.984375 208.039062 288.1875 164.101562 282.238281 157.808594 C 278.675781 154.046875 265.988281 141.457031 252.066406 137.3125 C 239.226562 133.488281 239.082031 123.566406 239.082031 123.464844 C 239.082031 123.175781 239.273438 122.917969 239.550781 122.839844 L 260.871094 116.738281 C 261.015625 116.695312 261.171875 116.707031 261.308594 116.765625 C 261.382812 116.796875 268.886719 120.058594 277.492188 125.0625 C 277.804688 125.242188 277.910156 125.640625 277.730469 125.953125 C 277.546875 126.265625 277.152344 126.371094 276.839844 126.191406 C 269.109375 121.695312 262.277344 118.617188 261.003906 118.054688 L 240.414062 123.949219 C 240.601562 125.882812 242.019531 132.957031 252.4375 136.058594 C 266.671875 140.296875 279.570312 153.09375 283.179688 156.914062 C 289.273438 163.355469 309.511719 206.109375 310.371094 207.925781 C 310.523438 208.25 310.386719 208.640625 310.058594 208.796875 C 309.96875 208.835938 309.875 208.855469 309.78125 208.855469 " fill-opacity="1" fill-rule="nonzero"/><path fill="#5479f7" d="M 230.921875 86.621094 C 237.269531 75.597656 252.292969 74.75 252.292969 74.75 L 262.707031 76.425781 C 267.777344 76.90625 272.753906 84.742188 273.980469 89.691406 C 271.097656 102.707031 273.894531 110.1875 282.234375 119.996094 C 282.234375 119.996094 278.648438 130.199219 265.066406 129.355469 C 251.488281 128.515625 242.441406 126.179688 237.226562 130.820312 C 233.789062 133.882812 237.710938 110.363281 242.386719 92.015625 L 230.921875 86.621094 " fill-opacity="1" fill-rule="nonzero"/><path fill="#ffffff" d="M 275.253906 116.425781 L 267.484375 113.863281 L 262.023438 116.847656 C 262.023438 116.847656 230.917969 116.304688 242.242188 92.820312 C 242.289062 92.71875 231.210938 91.707031 231.210938 91.707031 C 231.210938 91.707031 221.960938 122.929688 261.605469 119.277344 C 261.605469 119.277344 263.699219 119.730469 266.242188 118.09375 C 268.789062 116.449219 273.792969 118.628906 275.253906 116.425781 " fill-opacity="1" fill-rule="nonzero"/><path fill="#000000" d="M 231.703125 92.40625 C 231.144531 94.757812 229.234375 104.628906 234.917969 111.5625 C 239.734375 117.4375 248.691406 119.8125 261.546875 118.628906 C 261.613281 118.625 261.679688 118.628906 261.746094 118.640625 C 261.816406 118.65625 263.628906 119 265.890625 117.542969 C 267.25 116.664062 269.070312 116.734375 270.835938 116.804688 C 271.980469 116.847656 273.078125 116.890625 273.851562 116.648438 L 267.546875 114.570312 L 262.335938 117.417969 C 262.238281 117.472656 262.125 117.503906 262.011719 117.5 C 261.367188 117.488281 246.136719 117.125 240.855469 108.53125 C 238.394531 104.527344 238.535156 99.417969 241.28125 93.339844 C 239.457031 93.132812 234.9375 92.707031 231.703125 92.40625 Z M 255.46875 120.230469 C 245.414062 120.230469 238.175781 117.601562 233.90625 112.382812 C 227.011719 103.960938 230.441406 92.027344 230.585938 91.523438 C 230.675781 91.222656 230.964844 91.03125 231.273438 91.058594 C 242.578125 92.089844 242.578125 92.089844 242.808594 92.5 C 242.914062 92.683594 242.921875 92.910156 242.832031 93.105469 C 239.933594 99.109375 239.640625 104.070312 241.96875 107.847656 C 246.59375 115.378906 260.195312 116.125 261.867188 116.1875 L 267.171875 113.292969 C 267.328125 113.203125 267.515625 113.1875 267.691406 113.242188 L 275.457031 115.804688 C 275.648438 115.867188 275.800781 116.019531 275.867188 116.210938 C 275.933594 116.402344 275.90625 116.617188 275.796875 116.785156 C 274.816406 118.265625 272.765625 118.183594 270.78125 118.105469 C 269.222656 118.046875 267.613281 117.980469 266.597656 118.640625 C 264.160156 120.210938 262.082031 120.015625 261.582031 119.9375 C 259.4375 120.132812 257.402344 120.230469 255.46875 120.230469 " fill-opacity="1" fill-rule="nonzero"/><path fill="#5479f7" d="M 243.945312 94.785156 L 228.453125 92.175781 C 227.867188 91.859375 232.550781 82.824219 233.671875 83.4375 C 233.960938 83.597656 239.566406 87.980469 239.566406 87.980469 L 244.972656 89.042969 L 243.945312 94.785156 " fill-opacity="1" fill-rule="nonzero"/><path fill="#ffffff" d="M 310.976562 49.90625 L 288.753906 54.957031 L 279.195312 59.085938 L 274.644531 62.625 L 274.609375 62.652344 C 273.761719 63.238281 273.28125 65.214844 273.464844 67.5 C 273.652344 69.761719 274.449219 71.617188 275.371094 72.089844 L 275.335938 72.089844 L 280.136719 74.742188 L 290.175781 77.1875 L 313.136719 78.410156 L 336.171875 93.085938 L 336.34375 93.164062 C 330.570312 89.394531 325.648438 77.515625 324.480469 63.140625 C 323.3125 48.777344 326.246094 36.300781 331.328125 31.675781 L 331.320312 31.667969 L 311.234375 49.675781 L 310.976562 49.90625 " fill-opacity="1" fill-rule="nonzero"/><path fill="#5479f7" d="M 351.410156 61.042969 C 352.855469 78.820312 347.988281 93.703125 340.546875 94.28125 C 333.097656 94.863281 325.894531 80.917969 324.449219 63.140625 C 323.003906 45.359375 327.867188 30.480469 335.3125 29.898438 C 342.753906 29.320312 349.964844 43.261719 351.410156 61.042969 " fill-opacity="1" fill-rule="nonzero"/><path fill="#000000" d="M 335.742188 30.535156 C 335.613281 30.535156 335.488281 30.539062 335.359375 30.550781 C 333.734375 30.675781 332.199219 31.574219 330.796875 33.21875 C 326.289062 38.515625 324.050781 50.242188 325.09375 63.085938 C 325.789062 71.601562 327.820312 79.488281 330.820312 85.296875 C 333.695312 90.847656 337.21875 93.875 340.492188 93.632812 C 342.121094 93.503906 343.652344 92.609375 345.054688 90.960938 C 349.5625 85.664062 351.800781 73.941406 350.761719 61.09375 C 350.066406 52.582031 348.03125 44.695312 345.03125 38.886719 C 342.273438 33.546875 338.90625 30.535156 335.742188 30.535156 Z M 340.089844 94.953125 C 332.359375 94.953125 325.257812 81.21875 323.796875 63.195312 C 322.726562 50.019531 325.082031 37.921875 329.808594 32.371094 C 331.441406 30.457031 333.273438 29.402344 335.257812 29.25 C 343.171875 28.636719 350.558594 42.574219 352.058594 60.988281 C 353.128906 74.164062 350.769531 86.261719 346.046875 91.808594 C 344.414062 93.730469 342.582031 94.777344 340.597656 94.933594 C 340.425781 94.945312 340.253906 94.953125 340.089844 94.953125 " fill-opacity="1" fill-rule="nonzero"/><path fill="#000000" d="M 339.808594 89.652344 C 333.296875 89.652344 327.320312 78.132812 326.089844 63.015625 C 325.195312 51.976562 327.171875 41.839844 331.140625 37.183594 C 332.519531 35.5625 334.074219 34.667969 335.765625 34.539062 C 340.207031 34.175781 344.574219 39.238281 347.394531 48.035156 C 347.503906 48.378906 347.316406 48.746094 346.976562 48.855469 C 346.632812 48.96875 346.265625 48.777344 346.15625 48.4375 C 343.570312 40.375 339.632812 35.554688 335.863281 35.839844 C 334.535156 35.941406 333.277344 36.683594 332.128906 38.03125 C 328.378906 42.4375 326.519531 52.203125 327.390625 62.910156 C 328.523438 76.871094 334.167969 88.347656 339.8125 88.347656 C 339.921875 88.347656 340.03125 88.34375 340.136719 88.335938 C 345.332031 87.929688 349.136719 77.574219 348.796875 64.761719 C 348.789062 64.398438 349.070312 64.101562 349.429688 64.089844 C 349.792969 64.066406 350.089844 64.363281 350.101562 64.726562 C 350.46875 78.6875 346.320312 89.164062 340.238281 89.636719 C 340.09375 89.648438 339.953125 89.652344 339.808594 89.652344 " fill-opacity="1" fill-rule="nonzero"/><path fill="#99b9ff" d="M 337.113281 62.175781 C 337.429688 66.066406 336.363281 69.324219 334.734375 69.453125 C 333.105469 69.578125 331.527344 66.527344 331.214844 62.632812 C 330.898438 58.742188 331.960938 55.484375 333.589844 55.359375 C 335.21875 55.230469 336.796875 58.285156 337.113281 62.175781 " fill-opacity="1" fill-rule="nonzero"/><path fill="#000000" d="M 333.683594 56.007812 C 333.671875 56.007812 333.652344 56.007812 333.640625 56.007812 C 333.421875 56.023438 333.203125 56.160156 332.988281 56.414062 C 332.25 57.285156 331.617188 59.53125 331.863281 62.582031 C 332.183594 66.546875 333.734375 68.859375 334.6875 68.800781 C 334.902344 68.785156 335.121094 68.648438 335.335938 68.394531 C 336.074219 67.527344 336.710938 65.28125 336.460938 62.226562 C 336.144531 58.324219 334.652344 56.007812 333.683594 56.007812 Z M 334.636719 70.105469 C 332.648438 70.105469 330.914062 66.96875 330.5625 62.6875 C 330.316406 59.628906 330.863281 56.902344 332 55.570312 C 332.441406 55.050781 332.972656 54.75 333.539062 54.707031 C 335.605469 54.542969 337.40625 57.738281 337.761719 62.125 C 338.011719 65.183594 337.460938 67.90625 336.328125 69.242188 C 335.886719 69.757812 335.351562 70.058594 334.785156 70.101562 C 334.738281 70.105469 334.6875 70.105469 334.636719 70.105469 " fill-opacity="1" fill-rule="nonzero"/><path fill="#000000" d="M 290.273438 76.535156 L 313.171875 77.757812 C 313.285156 77.765625 313.390625 77.800781 313.484375 77.859375 L 331.90625 89.59375 C 327.78125 83.828125 324.71875 74.09375 323.828125 63.195312 C 322.949219 52.359375 324.378906 42.324219 327.480469 35.984375 L 311.410156 50.394531 C 311.328125 50.46875 311.226562 50.519531 311.121094 50.542969 L 288.957031 55.578125 L 279.527344 59.652344 L 275.042969 63.140625 C 275.019531 63.160156 275 63.175781 274.980469 63.191406 C 274.414062 63.578125 273.9375 65.277344 274.117188 67.445312 C 274.289062 69.578125 275.042969 71.183594 275.671875 71.507812 C 275.722656 71.535156 275.773438 71.570312 275.8125 71.609375 L 280.378906 74.128906 Z M 336.34375 93.816406 C 336.253906 93.816406 336.160156 93.796875 336.074219 93.757812 L 335.902344 93.679688 C 335.871094 93.667969 335.847656 93.652344 335.824219 93.632812 L 312.933594 79.050781 L 290.140625 77.835938 C 290.101562 77.835938 290.0625 77.828125 290.023438 77.820312 L 279.984375 75.378906 C 279.929688 75.363281 279.878906 75.34375 279.824219 75.3125 L 275.023438 72.664062 C 274.96875 72.628906 274.917969 72.59375 274.875 72.550781 C 273.804688 71.835938 273.007812 69.917969 272.816406 67.554688 C 272.613281 65.019531 273.15625 62.902344 274.203125 62.140625 L 274.210938 62.136719 L 278.796875 58.570312 C 278.839844 58.535156 278.886719 58.511719 278.9375 58.488281 L 288.5 54.359375 C 288.535156 54.339844 288.574219 54.328125 288.609375 54.320312 L 310.667969 49.308594 L 330.886719 31.183594 C 331.152344 30.945312 331.5625 30.964844 331.804688 31.230469 C 331.917969 31.359375 331.984375 31.53125 331.976562 31.703125 C 331.964844 31.875 331.890625 32.039062 331.761719 32.15625 C 326.667969 36.796875 324 49.226562 325.128906 63.085938 C 326.238281 76.753906 331 88.894531 336.699219 92.617188 C 336.984375 92.804688 337.078125 93.179688 336.914062 93.476562 C 336.796875 93.691406 336.574219 93.816406 336.34375 93.816406 " fill-opacity="1" fill-rule="nonzero"/><path fill="#99b9ff" d="M 311.035156 49.851562 L 331.320312 31.667969 L 331.328125 31.675781 C 326.246094 36.300781 323.3125 48.777344 324.480469 63.140625 C 325.648438 77.515625 330.570312 89.394531 336.34375 93.164062 L 336.171875 93.085938 L 313.171875 78.433594 L 312.640625 78.097656 C 309.976562 76.378906 307.699219 71.007812 307.183594 64.503906 C 306.65625 57.832031 308.449219 52.148438 310.785156 50.070312 L 311.035156 49.851562 " fill-opacity="1" fill-rule="nonzero"/><path fill="#000000" d="M 311.035156 49.851562 L 311.042969 49.851562 Z M 327.480469 35.984375 L 311.472656 50.335938 C 311.46875 50.339844 311.464844 50.34375 311.464844 50.34375 L 311.210938 50.5625 C 309.136719 52.410156 307.300781 57.773438 307.832031 64.457031 C 308.3125 70.515625 310.433594 75.898438 312.992188 77.550781 L 313.523438 77.882812 L 331.90625 89.59375 C 327.78125 83.828125 324.71875 74.09375 323.828125 63.195312 C 322.949219 52.359375 324.378906 42.324219 327.480469 35.984375 Z M 336.34375 93.816406 C 336.253906 93.816406 336.160156 93.796875 336.074219 93.757812 L 335.902344 93.679688 C 335.871094 93.667969 335.847656 93.652344 335.824219 93.632812 L 312.292969 78.648438 C 309.363281 76.761719 307.050781 71.101562 306.535156 64.558594 C 306.03125 58.1875 307.601562 52.027344 310.351562 49.582031 L 310.605469 49.363281 L 330.886719 31.183594 C 331.152344 30.945312 331.5625 30.964844 331.804688 31.230469 C 331.917969 31.359375 331.984375 31.53125 331.976562 31.703125 C 331.964844 31.875 331.890625 32.039062 331.761719 32.15625 C 326.667969 36.796875 324 49.226562 325.128906 63.085938 C 326.238281 76.753906 331 88.894531 336.699219 92.617188 C 336.984375 92.804688 337.078125 93.179688 336.914062 93.476562 C 336.796875 93.691406 336.574219 93.816406 336.34375 93.816406 " fill-opacity="1" fill-rule="nonzero"/><path fill="#000000" d="M 279.882812 75.253906 C 279.773438 75.253906 279.664062 75.226562 279.566406 75.171875 L 275.023438 72.664062 C 274.96875 72.632812 274.917969 72.597656 274.875 72.550781 C 273.804688 71.835938 273.007812 69.917969 272.816406 67.554688 C 272.609375 65.019531 273.15625 62.90625 274.203125 62.140625 L 274.210938 62.136719 L 278.792969 58.570312 C 279.078125 58.351562 279.488281 58.402344 279.707031 58.6875 C 279.929688 58.972656 279.878906 59.382812 279.589844 59.601562 L 275.039062 63.140625 C 275.019531 63.160156 275 63.175781 274.976562 63.191406 C 274.414062 63.578125 273.9375 65.277344 274.117188 67.449219 C 274.285156 69.578125 275.039062 71.1875 275.671875 71.507812 C 275.722656 71.535156 275.769531 71.570312 275.8125 71.609375 L 280.195312 74.03125 C 280.507812 74.203125 280.625 74.601562 280.453125 74.917969 C 280.332031 75.128906 280.109375 75.253906 279.882812 75.253906 " fill-opacity="1" fill-rule="nonzero"/><path fill="#5479f7" d="M 280.195312 74.734375 C 278.691406 73.972656 277.449219 70.871094 277.152344 67.183594 C 276.835938 63.273438 277.835938 59.785156 279.34375 59.027344 L 274.640625 62.621094 L 274.609375 62.652344 C 273.761719 63.238281 273.28125 65.210938 273.464844 67.5 C 273.652344 69.761719 274.453125 71.613281 275.371094 72.089844 L 275.335938 72.089844 L 280.195312 74.734375 " fill-opacity="1" fill-rule="nonzero"/><path fill="#000000" d="M 275.8125 71.605469 L 277.785156 72.679688 C 277.136719 71.230469 276.671875 69.332031 276.503906 67.234375 C 276.335938 65.171875 276.511719 63.230469 276.949219 61.679688 L 275.042969 63.140625 C 275.023438 63.160156 275 63.175781 274.976562 63.191406 C 274.414062 63.578125 273.9375 65.277344 274.117188 67.445312 C 274.289062 69.578125 275.042969 71.183594 275.667969 71.507812 C 275.722656 71.535156 275.769531 71.566406 275.8125 71.605469 Z M 280.195312 75.386719 C 280.097656 75.386719 279.996094 75.363281 279.902344 75.316406 C 279.859375 75.292969 279.820312 75.273438 279.78125 75.25 L 275.027344 72.664062 C 274.96875 72.632812 274.917969 72.59375 274.875 72.550781 C 273.804688 71.835938 273.007812 69.914062 272.816406 67.554688 C 272.613281 65.019531 273.15625 62.902344 274.207031 62.140625 L 274.210938 62.136719 C 274.222656 62.125 274.234375 62.113281 274.25 62.105469 L 278.355469 58.960938 C 278.574219 58.742188 278.808594 58.566406 279.054688 58.445312 C 279.355469 58.292969 279.722656 58.394531 279.898438 58.679688 C 280.078125 58.96875 280.007812 59.34375 279.742188 59.542969 L 279.207031 59.953125 C 278.265625 60.996094 277.53125 63.820312 277.800781 67.128906 C 278.109375 70.910156 279.332031 73.46875 280.410156 74.105469 L 280.507812 74.160156 C 280.820312 74.332031 280.941406 74.71875 280.773438 75.035156 C 280.65625 75.257812 280.429688 75.386719 280.195312 75.386719 " fill-opacity="1" fill-rule="nonzero"/><path fill="#99b9ff" d="M 289.808594 77.09375 L 290.242188 77.183594 C 287.886719 76.726562 285.839844 72.023438 285.378906 66.351562 C 284.90625 60.570312 286.425781 55.625 288.753906 54.957031 L 288.433594 55.09375 L 279.367188 59.015625 C 277.847656 59.742188 276.832031 63.25 277.152344 67.183594 C 277.460938 70.976562 278.8125 74.152344 280.363281 74.792969 L 289.808594 77.09375 " fill-opacity="1" fill-rule="nonzero"/><path fill="#000000" d="M 280.574219 74.171875 L 287.542969 75.871094 C 286.113281 73.847656 285.058594 70.449219 284.730469 66.40625 C 284.417969 62.558594 284.957031 59.074219 286.070312 56.828125 L 279.628906 59.617188 C 278.503906 60.152344 277.488281 63.304688 277.800781 67.128906 C 278.105469 70.90625 279.445312 73.652344 280.574219 74.171875 Z M 290.242188 77.835938 C 290.199219 77.835938 290.160156 77.832031 290.117188 77.824219 C 290.105469 77.820312 290.09375 77.820312 290.078125 77.816406 L 289.679688 77.734375 C 289.667969 77.734375 289.664062 77.734375 289.65625 77.730469 L 280.210938 75.425781 C 280.179688 75.417969 280.148438 75.410156 280.117188 75.394531 C 278.289062 74.640625 276.835938 71.363281 276.5 67.238281 C 276.160156 63.011719 277.246094 59.308594 279.089844 58.425781 L 287.980469 54.582031 C 288.171875 54.472656 288.371094 54.386719 288.574219 54.332031 C 288.90625 54.234375 289.253906 54.414062 289.367188 54.738281 C 289.484375 55.0625 289.328125 55.421875 289.011719 55.558594 L 288.550781 55.753906 C 286.929688 56.742188 285.59375 60.941406 286.027344 66.296875 C 286.511719 72.25 288.597656 76.167969 290.339844 76.539062 L 290.371094 76.542969 C 290.722656 76.617188 290.949219 76.957031 290.878906 77.3125 C 290.816406 77.621094 290.546875 77.835938 290.242188 77.835938 " fill-opacity="1" fill-rule="nonzero"/><path fill="#000000" d="M 333.585938 55.359375 C 331.960938 55.488281 330.824219 58.75 331.210938 62.636719 C 331.859375 69.148438 334.402344 69.480469 334.710938 69.496094 C 334.714844 69.496094 334.714844 69.503906 334.710938 69.503906 L 328.125 71.410156 C 327.53125 68.769531 327.09375 65.929688 326.855469 62.957031 C 326.621094 60.105469 326.585938 57.347656 326.722656 54.75 L 333.585938 55.359375 " fill-opacity="1" fill-rule="nonzero"/><path fill="#000000" d="M 327.34375 55.457031 C 327.246094 57.875 327.300781 60.375 327.503906 62.902344 C 327.71875 65.535156 328.09375 68.121094 328.613281 70.585938 L 332.984375 69.324219 C 332.011719 68.429688 330.949219 66.570312 330.566406 62.699219 C 330.289062 59.917969 330.761719 57.28125 331.769531 55.851562 Z M 327.644531 72.226562 L 327.492188 71.550781 C 326.878906 68.820312 326.445312 65.945312 326.207031 63.007812 C 325.976562 60.1875 325.933594 57.394531 326.074219 54.714844 L 326.113281 54.039062 L 333.648438 54.707031 L 333.640625 56.007812 C 333.414062 56.023438 333.183594 56.171875 332.953125 56.445312 C 332.199219 57.351562 331.566406 59.597656 331.863281 62.570312 C 332.46875 68.65625 334.722656 68.84375 334.746094 68.84375 L 335.296875 68.871094 L 335.429688 70 L 334.859375 70.140625 L 327.644531 72.226562 " fill-opacity="1" fill-rule="nonzero"/><path fill="#ffffff" d="M 255.4375 57.949219 C 255.726562 58.089844 256.070312 57.949219 256.171875 57.636719 C 256.636719 56.160156 258.199219 53.824219 260.074219 53.230469 C 262.46875 52.472656 265.332031 53.011719 266.09375 54.839844 C 266.757812 56.433594 266.316406 57.460938 268.261719 59.4375 C 268.449219 59.625 268.328125 59.964844 268.128906 60.140625 L 267.082031 61.175781 C 266.859375 61.375 266.707031 61.992188 266.703125 62.292969 C 266.683594 63.21875 266.722656 65.183594 266.425781 65.464844 C 265.84375 66.003906 262.742188 66.058594 262.742188 66.058594 L 260.9375 74.78125 C 260.871094 75.109375 261.085938 75.433594 261.417969 75.492188 L 264.667969 77.433594 C 264.667969 77.433594 262.335938 79.769531 254.90625 79.851562 C 250.160156 79.90625 246.707031 76.453125 246.707031 76.453125 C 246.707031 76.453125 255.519531 74.8125 255.902344 63.835938 C 255.914062 63.597656 255.792969 63.367188 255.589844 63.242188 C 254.8125 62.746094 252.710938 61.277344 252.925781 59.601562 C 253.15625 57.828125 254.441406 57.457031 255.4375 57.949219 " fill-opacity="1" fill-rule="nonzero"/><path fill="#000000" d="M 255.726562 57.359375 Z M 265.902344 65.089844 Z M 248.050781 76.726562 C 249.300781 77.675781 251.78125 79.195312 254.804688 79.195312 C 254.835938 79.195312 254.867188 79.195312 254.902344 79.195312 C 259.726562 79.144531 262.3125 78.113281 263.464844 77.46875 L 261.171875 76.097656 C 260.898438 76.019531 260.65625 75.847656 260.492188 75.605469 C 260.304688 75.328125 260.234375 74.976562 260.304688 74.648438 L 262.109375 65.921875 C 262.171875 65.621094 262.429688 65.410156 262.734375 65.402344 C 264.097656 65.378906 265.519531 65.203125 265.925781 65.015625 C 266.03125 64.601562 266.042969 63.34375 266.046875 62.785156 C 266.046875 62.597656 266.050781 62.425781 266.050781 62.277344 C 266.058594 61.941406 266.214844 61.070312 266.652344 60.6875 L 267.632812 59.71875 C 266.308594 58.3125 266.082031 57.3125 265.863281 56.34375 C 265.765625 55.925781 265.679688 55.53125 265.492188 55.085938 C 264.917969 53.703125 262.527344 53.140625 260.269531 53.851562 C 258.664062 54.359375 257.21875 56.488281 256.792969 57.832031 C 256.691406 58.160156 256.449219 58.425781 256.132812 58.558594 C 255.816406 58.695312 255.457031 58.683594 255.148438 58.527344 C 254.816406 58.367188 254.46875 58.355469 254.199219 58.5 C 253.867188 58.679688 253.652344 59.085938 253.574219 59.683594 C 253.464844 60.550781 254.347656 61.675781 255.941406 62.6875 C 256.335938 62.9375 256.570312 63.386719 256.558594 63.855469 C 256.246094 72.699219 250.589844 75.785156 248.050781 76.726562 Z M 254.796875 80.503906 C 249.894531 80.503906 246.398438 77.0625 246.25 76.914062 C 246.078125 76.746094 246.019531 76.492188 246.089844 76.261719 C 246.160156 76.03125 246.351562 75.859375 246.59375 75.8125 C 246.929688 75.75 254.898438 74.105469 255.257812 63.8125 C 254.03125 63.015625 252.035156 61.4375 252.285156 59.515625 C 252.414062 58.5 252.875 57.730469 253.585938 57.347656 C 254.191406 57.023438 254.914062 57.007812 255.597656 57.300781 C 256.152344 55.695312 257.792969 53.261719 259.878906 52.609375 C 262.421875 51.800781 265.753906 52.332031 266.699219 54.585938 C 266.921875 55.132812 267.03125 55.601562 267.132812 56.058594 C 267.339844 56.964844 267.515625 57.742188 268.726562 58.976562 C 268.921875 59.167969 269.015625 59.429688 269.007812 59.710938 C 269 60.046875 268.828125 60.390625 268.566406 60.625 L 267.542969 61.636719 C 267.464844 61.738281 267.355469 62.117188 267.355469 62.304688 C 267.351562 62.445312 267.347656 62.613281 267.347656 62.792969 C 267.332031 64.835938 267.265625 65.574219 266.871094 65.9375 C 266.292969 66.476562 264.546875 66.644531 263.28125 66.691406 L 261.585938 74.859375 C 261.644531 74.875 261.703125 74.898438 261.753906 74.929688 L 265.003906 76.871094 C 265.175781 76.976562 265.292969 77.152344 265.316406 77.351562 C 265.34375 77.550781 265.273438 77.75 265.132812 77.894531 C 265.03125 77.996094 262.527344 80.417969 254.917969 80.5 C 254.878906 80.503906 254.839844 80.503906 254.796875 80.503906 " fill-opacity="1" fill-rule="nonzero"/><path fill="#ffffff" d="M 242.800781 27.71875 C 242.648438 21.8125 237.792969 17.261719 232.015625 17.6875 C 226.382812 18.105469 222.101562 23.027344 222.339844 28.816406 C 222.453125 31.609375 223.597656 34.085938 225.414062 35.863281 C 226.8125 37.226562 227.632812 39.097656 227.683594 41.089844 L 227.714844 42.273438 C 227.742188 43.253906 228.535156 44.011719 229.488281 43.96875 L 236.441406 43.652344 C 237.398438 43.609375 238.144531 42.777344 238.121094 41.800781 L 238.089844 40.621094 C 238.039062 38.65625 238.710938 36.710938 240.027344 35.257812 C 241.824219 33.273438 242.875 30.605469 242.800781 27.71875 " fill-opacity="1" fill-rule="nonzero"/><path fill="#000000" d="M 232.765625 18.3125 C 232.53125 18.3125 232.296875 18.324219 232.0625 18.339844 C 226.753906 18.730469 222.765625 23.320312 222.988281 28.789062 C 223.09375 31.335938 224.117188 33.683594 225.871094 35.394531 C 227.40625 36.894531 228.277344 38.910156 228.335938 41.074219 L 228.367188 42.257812 C 228.375 42.5625 228.496094 42.839844 228.714844 43.039062 C 228.917969 43.230469 229.1875 43.324219 229.457031 43.316406 L 236.414062 43 C 237.011719 42.972656 237.488281 42.441406 237.472656 41.816406 L 237.4375 40.640625 C 237.382812 38.480469 238.152344 36.359375 239.546875 34.816406 C 241.292969 32.890625 242.21875 30.375 242.152344 27.730469 C 242.082031 25 240.953125 22.507812 238.976562 20.71875 C 237.25 19.152344 235.070312 18.3125 232.765625 18.3125 Z M 229.40625 44.621094 C 228.820312 44.621094 228.257812 44.402344 227.824219 43.996094 C 227.351562 43.554688 227.082031 42.949219 227.066406 42.292969 L 227.03125 41.105469 C 226.988281 39.285156 226.25 37.585938 224.960938 36.328125 C 222.96875 34.382812 221.808594 31.722656 221.691406 28.84375 C 221.4375 22.664062 225.949219 17.480469 231.96875 17.039062 C 234.890625 16.824219 237.683594 17.785156 239.851562 19.75 C 242.09375 21.78125 243.371094 24.605469 243.453125 27.699219 C 243.53125 30.675781 242.484375 33.515625 240.511719 35.695312 C 239.339844 36.988281 238.695312 38.777344 238.742188 40.605469 L 238.773438 41.78125 C 238.808594 43.113281 237.773438 44.242188 236.472656 44.300781 L 229.515625 44.621094 C 229.476562 44.621094 229.441406 44.621094 229.40625 44.621094 " fill-opacity="1" fill-rule="nonzero"/><path fill="#ffffff" d="M 233.160156 50.976562 C 230.789062 51.085938 228.8125 49.195312 228.75 46.757812 L 228.675781 43.890625 L 237.269531 43.5 L 237.347656 46.367188 C 237.40625 48.804688 235.535156 50.871094 233.160156 50.976562 " fill-opacity="1" fill-rule="nonzero"/><path fill="#000000" d="M 229.34375 44.515625 L 229.402344 46.742188 C 229.425781 47.761719 229.84375 48.703125 230.574219 49.382812 C 231.273438 50.03125 232.1875 50.367188 233.132812 50.324219 C 235.148438 50.234375 236.75 48.464844 236.695312 46.382812 L 236.636719 44.179688 Z M 232.96875 51.632812 C 231.746094 51.632812 230.585938 51.175781 229.683594 50.335938 C 228.699219 49.417969 228.136719 48.152344 228.101562 46.777344 L 228.007812 43.269531 L 237.90625 42.816406 L 237.996094 46.351562 C 238.070312 49.136719 235.914062 51.503906 233.191406 51.628906 C 233.117188 51.632812 233.042969 51.632812 232.96875 51.632812 " fill-opacity="1" fill-rule="nonzero"/><path fill="#99b9ff" d="M 232.265625 10.730469 C 231.914062 10.730469 231.625 10.449219 231.617188 10.09375 L 231.433594 3.375 C 231.417969 3.015625 231.703125 2.714844 232.0625 2.703125 C 232.070312 2.703125 232.078125 2.703125 232.082031 2.703125 C 232.433594 2.703125 232.722656 2.984375 232.730469 3.339844 L 232.917969 10.058594 C 232.929688 10.417969 232.644531 10.71875 232.285156 10.730469 C 232.277344 10.730469 232.273438 10.730469 232.265625 10.730469 " fill-opacity="1" fill-rule="nonzero"/><path fill="#99b9ff" d="M 207.585938 32.039062 C 207.234375 32.039062 206.945312 31.753906 206.9375 31.402344 C 206.925781 31.039062 207.210938 30.742188 207.566406 30.730469 L 214.882812 30.53125 C 215.238281 30.511719 215.546875 30.804688 215.550781 31.167969 C 215.5625 31.527344 215.28125 31.828125 214.921875 31.835938 L 207.605469 32.035156 C 207.597656 32.039062 207.59375 32.039062 207.585938 32.039062 " fill-opacity="1" fill-rule="nonzero"/><path fill="#99b9ff" d="M 249.691406 31.167969 C 249.335938 31.167969 249.046875 30.882812 249.039062 30.527344 C 249.03125 30.167969 249.320312 29.871094 249.679688 29.867188 L 256.488281 29.753906 C 256.839844 29.75 257.140625 30.039062 257.148438 30.398438 C 257.15625 30.757812 256.867188 31.054688 256.507812 31.0625 L 249.699219 31.167969 C 249.699219 31.167969 249.691406 31.167969 249.691406 31.167969 " fill-opacity="1" fill-rule="nonzero"/><path fill="#99b9ff" d="M 218.457031 17.984375 C 218.296875 17.984375 218.132812 17.921875 218.007812 17.800781 L 212.769531 12.738281 C 212.511719 12.488281 212.503906 12.074219 212.75 11.816406 C 213.003906 11.558594 213.414062 11.550781 213.671875 11.800781 L 218.910156 16.863281 C 219.167969 17.113281 219.175781 17.523438 218.925781 17.785156 C 218.796875 17.917969 218.628906 17.984375 218.457031 17.984375 " fill-opacity="1" fill-rule="nonzero"/><path fill="#99b9ff" d="M 245.683594 17.90625 C 245.519531 17.90625 245.359375 17.84375 245.234375 17.722656 C 244.972656 17.476562 244.960938 17.0625 245.210938 16.800781 L 250.246094 11.519531 C 250.492188 11.261719 250.90625 11.25 251.164062 11.5 C 251.425781 11.746094 251.4375 12.160156 251.1875 12.421875 L 246.152344 17.703125 C 246.023438 17.835938 245.855469 17.90625 245.683594 17.90625 " fill-opacity="1" fill-rule="nonzero"/></svg>