<svg xmlns="http://www.w3.org/2000/svg" xmlns:xlink="http://www.w3.org/1999/xlink" width="500" zoomAndPan="magnify" viewBox="0 0 375 374.999991" height="500" preserveAspectRatio="xMidYMid meet" version="1.0"><defs><clipPath id="55d7eb37ab"><path d="M 12 6.75 L 370 6.75 L 370 365 L 12 365 Z M 12 6.75 " clip-rule="nonzero"/></clipPath></defs><g clip-path="url(#55d7eb37ab)"><path fill="#caddff" d="M 362.875 245.402344 C 357.15625 263.015625 348.140625 280.628906 336.40625 296.652344 C 331.597656 303.222656 326.324219 309.53125 320.640625 315.457031 C 310.085938 326.457031 298.09375 336.148438 284.925781 343.832031 C 209.683594 387.75 117.917969 355.667969 67.6875 305.226562 C 64.914062 302.445312 62.246094 299.582031 59.691406 296.652344 C 46.167969 281.175781 35.621094 263.773438 27.957031 245.402344 C 2.644531 184.742188 8.742188 113.519531 42.910156 66.191406 C 60.105469 42.371094 93.945312 10.382812 131.542969 7.15625 C 136.195312 6.753906 140.898438 6.792969 145.636719 7.34375 C 182.140625 11.582031 187.007812 42.066406 247.785156 89.835938 C 316.699219 144.003906 346.480469 133.136719 362.566406 167.308594 C 372.742188 188.933594 372.042969 217.164062 362.875 245.402344 " fill-opacity="1" fill-rule="nonzero"/></g><path fill="#99b9ff" d="M 336.40625 296.652344 C 331.597656 303.222656 326.324219 309.53125 320.640625 315.457031 C 310.085938 326.457031 298.09375 336.148438 284.925781 343.832031 C 209.683594 387.75 117.917969 355.667969 67.6875 305.226562 C 64.914062 302.445312 62.246094 299.582031 59.691406 296.652344 L 336.40625 296.652344 " fill-opacity="1" fill-rule="nonzero"/><path fill="#ffffff" d="M 326.964844 161.214844 C 327.042969 166.757812 322.292969 170.746094 316.382812 170.125 L 205.214844 158.40625 C 199.988281 157.855469 195.757812 153.21875 195.742188 148.050781 L 195.335938 19.175781 C 195.316406 14.132812 199.464844 10.148438 204.625 10.277344 L 314.21875 13.042969 C 320.042969 13.1875 324.851562 17.683594 324.929688 23.085938 L 326.964844 161.214844 " fill-opacity="1" fill-rule="nonzero"/><path fill="#5479f7" d="M 324.929688 23.085938 L 324.992188 27.300781 L 195.347656 23.113281 L 195.335938 19.175781 C 195.316406 14.128906 199.625 10.152344 204.78125 10.28125 L 314.398438 13.046875 C 320.222656 13.191406 324.851562 17.683594 324.929688 23.085938 " fill-opacity="1" fill-rule="nonzero"/><path fill="#caddff" d="M 312.484375 38.171875 L 206.578125 34.140625 C 205.488281 34.097656 204.605469 34.933594 204.609375 36 L 204.730469 65.785156 C 204.734375 66.859375 205.625 67.78125 206.71875 67.84375 L 312.96875 73.828125 C 314.195312 73.894531 315.171875 73.027344 315.15625 71.890625 L 314.722656 40.308594 C 314.707031 39.175781 313.707031 38.222656 312.484375 38.171875 " fill-opacity="1" fill-rule="nonzero"/><path fill="#caddff" d="M 252.777344 77.886719 L 206.746094 75.113281 C 205.652344 75.046875 204.769531 75.863281 204.773438 76.941406 L 205.050781 146.488281 C 205.054688 147.578125 205.953125 148.550781 207.050781 148.660156 L 253.398438 153.296875 C 254.558594 153.414062 255.492188 152.597656 255.480469 151.480469 L 254.878906 80.011719 C 254.871094 78.910156 253.929688 77.957031 252.777344 77.886719 " fill-opacity="1" fill-rule="nonzero"/><path fill="#caddff" d="M 313.074219 81.519531 L 264.105469 78.570312 C 262.941406 78.5 262.007812 79.339844 262.015625 80.453125 L 262.664062 152.1875 C 262.675781 153.316406 263.632812 154.320312 264.804688 154.4375 L 314.128906 159.371094 C 315.363281 159.496094 316.351562 158.65625 316.335938 157.5 L 315.320312 83.71875 C 315.304688 82.578125 314.296875 81.59375 313.074219 81.519531 " fill-opacity="1" fill-rule="nonzero"/><path fill="#000000" d="M 317.386719 170.984375 C 316.972656 170.984375 316.554688 170.960938 316.132812 170.917969 L 204.988281 159.191406 C 199.460938 158.609375 194.949219 153.675781 194.9375 148.195312 C 194.933594 147.839844 195.222656 147.550781 195.578125 147.546875 C 195.9375 147.546875 196.226562 147.835938 196.226562 148.191406 C 196.242188 153.03125 200.230469 157.390625 205.121094 157.90625 L 316.269531 169.632812 C 319.050781 169.929688 321.710938 169.121094 323.570312 167.417969 C 325.257812 165.878906 326.171875 163.734375 326.136719 161.378906 C 326.128906 161.019531 326.414062 160.726562 326.773438 160.722656 C 326.773438 160.722656 326.777344 160.722656 326.78125 160.722656 C 327.136719 160.722656 327.421875 161.003906 327.429688 161.359375 C 327.46875 164.089844 326.40625 166.578125 324.445312 168.375 C 322.597656 170.0625 320.078125 170.984375 317.386719 170.984375 " fill-opacity="1" fill-rule="nonzero"/><path fill="#000000" d="M 326.125 117.335938 C 325.773438 117.335938 325.484375 117.054688 325.480469 116.699219 L 324.105469 23.257812 C 324.03125 18.207031 319.507812 13.988281 314.027344 13.847656 L 204.449219 11.078125 C 202.105469 11.011719 199.902344 11.867188 198.265625 13.464844 C 196.683594 15.011719 195.816406 17.09375 195.824219 19.324219 L 195.839844 24.582031 C 195.839844 24.941406 195.554688 25.230469 195.195312 25.230469 C 195.191406 25.230469 195.191406 25.230469 195.191406 25.230469 C 194.839844 25.230469 194.546875 24.945312 194.546875 24.585938 L 194.53125 19.328125 C 194.523438 16.746094 195.527344 14.335938 197.363281 12.539062 C 199.25 10.695312 201.777344 9.707031 204.480469 9.785156 L 314.058594 12.554688 C 320.226562 12.710938 325.3125 17.503906 325.398438 23.238281 L 326.773438 116.679688 C 326.773438 117.039062 326.492188 117.332031 326.136719 117.335938 C 326.128906 117.335938 326.128906 117.335938 326.125 117.335938 " fill-opacity="1" fill-rule="nonzero"/><path fill="#5479f7" d="M 223 64.726562 L 166.394531 61.507812 C 162.855469 61.308594 159.996094 64.230469 159.996094 68.042969 L 159.996094 134.511719 C 159.996094 138.367188 162.875 141.800781 166.441406 142.179688 L 223.472656 148.199219 C 227.304688 148.605469 230.40625 145.667969 230.378906 141.644531 L 229.941406 72.3125 C 229.917969 68.335938 226.800781 64.941406 223 64.726562 " fill-opacity="1" fill-rule="nonzero"/><path fill="#ffffff" d="M 223.292969 74.949219 L 165.898438 71.34375 C 164.804688 71.273438 163.921875 72.175781 163.921875 73.351562 L 163.941406 134.382812 C 163.941406 135.574219 164.832031 136.632812 165.933594 136.742188 L 223.679688 142.652344 C 224.859375 142.773438 225.808594 141.867188 225.800781 140.632812 L 225.429688 77.296875 C 225.421875 76.074219 224.464844 75.023438 223.292969 74.949219 " fill-opacity="1" fill-rule="nonzero"/><path fill="#caddff" d="M 221.496094 102.300781 L 167.175781 98.015625 L 167.160156 75.527344 L 221.367188 79.070312 L 221.496094 102.300781 " fill-opacity="1" fill-rule="nonzero"/><path fill="#caddff" d="M 192 135.351562 L 167.199219 132.875 L 167.175781 101.757812 L 191.90625 103.765625 L 192 135.351562 " fill-opacity="1" fill-rule="nonzero"/><path fill="#caddff" d="M 221.738281 138.324219 L 196.058594 135.757812 L 195.957031 104.09375 L 221.558594 106.171875 L 221.738281 138.324219 " fill-opacity="1" fill-rule="nonzero"/><path fill="#caddff" d="M 222.332031 67.984375 L 184.410156 65.753906 C 183.605469 65.707031 182.953125 66.367188 182.953125 67.226562 L 182.957031 68.402344 C 182.957031 69.261719 183.613281 70.003906 184.421875 70.050781 L 222.359375 72.378906 C 223.203125 72.429688 223.886719 71.757812 223.878906 70.875 L 223.875 69.667969 C 223.867188 68.789062 223.179688 68.03125 222.332031 67.984375 " fill-opacity="1" fill-rule="nonzero"/><path fill="#caddff" d="M 168.753906 67.011719 C 168.757812 68.046875 167.976562 68.839844 167.015625 68.78125 C 166.054688 68.722656 165.277344 67.835938 165.277344 66.800781 C 165.277344 65.769531 166.054688 64.976562 167.011719 65.035156 C 167.972656 65.089844 168.753906 65.976562 168.753906 67.011719 " fill-opacity="1" fill-rule="nonzero"/><path fill="#caddff" d="M 173.855469 67.320312 C 173.855469 68.355469 173.074219 69.152344 172.105469 69.089844 C 171.140625 69.03125 170.359375 68.144531 170.355469 67.105469 C 170.355469 66.070312 171.136719 65.277344 172.101562 65.332031 C 173.070312 65.390625 173.855469 66.28125 173.855469 67.320312 " fill-opacity="1" fill-rule="nonzero"/><path fill="#caddff" d="M 178.988281 67.628906 C 178.992188 68.667969 178.199219 69.464844 177.230469 69.40625 C 176.257812 69.347656 175.46875 68.457031 175.46875 67.417969 C 175.46875 66.375 176.253906 65.578125 177.222656 65.636719 C 178.195312 65.695312 178.984375 66.585938 178.988281 67.628906 " fill-opacity="1" fill-rule="nonzero"/><path fill="#99b9ff" d="M 360.78125 22.476562 L 297.070312 20.535156 C 293.09375 20.414062 289.917969 23.589844 289.957031 27.628906 L 290.679688 98.167969 C 290.71875 102.261719 293.988281 105.84375 297.996094 106.160156 L 362.257812 111.265625 C 366.585938 111.613281 370.050781 108.414062 369.976562 104.128906 L 368.695312 30.359375 C 368.625 26.136719 365.070312 22.605469 360.78125 22.476562 " fill-opacity="1" fill-rule="nonzero"/><path fill="#ffffff" d="M 361.230469 33.339844 L 296.617188 30.984375 C 295.390625 30.9375 294.410156 31.917969 294.421875 33.164062 L 295.105469 97.941406 C 295.121094 99.207031 296.128906 100.308594 297.367188 100.402344 L 362.425781 105.359375 C 363.757812 105.460938 364.820312 104.472656 364.796875 103.160156 L 363.664062 35.777344 C 363.640625 34.480469 362.550781 33.386719 361.230469 33.339844 " fill-opacity="1" fill-rule="nonzero"/><path fill="#caddff" d="M 326.351562 75.976562 L 298.503906 74.273438 L 298.082031 35.390625 L 325.820312 36.472656 L 326.351562 75.976562 " fill-opacity="1" fill-rule="nonzero"/><path fill="#caddff" d="M 326.648438 98.320312 L 298.746094 96.265625 L 298.539062 77.523438 L 326.398438 79.28125 L 326.648438 98.320312 " fill-opacity="1" fill-rule="nonzero"/><path fill="#caddff" d="M 359.339844 62.546875 L 330.210938 61.015625 L 329.875 36.628906 L 358.933594 37.761719 L 359.339844 62.546875 " fill-opacity="1" fill-rule="nonzero"/><path fill="#caddff" d="M 359.96875 100.78125 L 330.730469 98.621094 L 330.265625 64.976562 L 359.40625 66.578125 L 359.96875 100.78125 " fill-opacity="1" fill-rule="nonzero"/><path fill="#5479f7" d="M 360.070312 25.953125 L 317.355469 24.570312 C 316.445312 24.542969 315.71875 25.257812 315.730469 26.171875 L 315.746094 27.417969 C 315.757812 28.335938 316.5 29.101562 317.410156 29.132812 L 360.144531 30.628906 C 361.097656 30.660156 361.859375 29.929688 361.84375 28.988281 L 361.824219 27.710938 C 361.808594 26.769531 361.023438 25.984375 360.070312 25.953125 " fill-opacity="1" fill-rule="nonzero"/><path fill="#5479f7" d="M 299.777344 26.3125 C 299.789062 27.410156 298.925781 28.273438 297.84375 28.234375 C 296.765625 28.199219 295.882812 27.277344 295.871094 26.179688 C 295.859375 25.085938 296.722656 24.226562 297.800781 24.257812 C 298.878906 24.292969 299.765625 25.214844 299.777344 26.3125 " fill-opacity="1" fill-rule="nonzero"/><path fill="#5479f7" d="M 305.507812 26.507812 C 305.523438 27.609375 304.652344 28.472656 303.5625 28.433594 C 302.480469 28.394531 301.589844 27.472656 301.578125 26.375 C 301.566406 25.273438 302.433594 24.410156 303.519531 24.445312 C 304.605469 24.480469 305.496094 25.402344 305.507812 26.507812 " fill-opacity="1" fill-rule="nonzero"/><path fill="#5479f7" d="M 311.277344 26.699219 C 311.292969 27.808594 310.417969 28.671875 309.320312 28.632812 C 308.230469 28.597656 307.335938 27.667969 307.320312 26.566406 C 307.308594 25.460938 308.183594 24.597656 309.273438 24.632812 C 310.367188 24.667969 311.265625 25.59375 311.277344 26.699219 " fill-opacity="1" fill-rule="nonzero"/><path fill="#5479f7" d="M 302.222656 154.886719 C 288.386719 153.546875 275.65625 146.574219 267.210938 135.839844 C 265.777344 134.011719 266.066406 131.582031 267.855469 130.402344 C 269.648438 129.214844 272.277344 129.734375 273.71875 131.558594 C 280.59375 140.246094 290.925781 145.851562 302.121094 146.886719 C 319.105469 148.460938 333.878906 139.125 337.796875 124.136719 C 338.351562 122.007812 340.753906 120.871094 343.167969 121.59375 C 345.585938 122.320312 347.097656 124.640625 346.539062 126.777344 C 344.214844 135.652344 338.519531 143.363281 330.546875 148.460938 C 322.386719 153.679688 312.578125 155.890625 302.222656 154.886719 " fill-opacity="1" fill-rule="nonzero"/><path fill="#5479f7" d="M 356.765625 132.847656 L 343.238281 116.332031 L 326.539062 126.878906 Z M 356.765625 132.847656 " fill-opacity="1" fill-rule="nonzero"/><path fill="#5479f7" d="M 356.765625 132.847656 L 343.238281 116.332031 L 326.539062 126.878906 Z M 356.765625 132.847656 " fill-opacity="1" fill-rule="nonzero"/><path fill="#000000" d="M 305.929688 147.710938 C 304.648438 147.710938 303.355469 147.652344 302.0625 147.53125 C 290.726562 146.480469 280.214844 140.804688 273.214844 131.960938 C 271.976562 130.394531 269.730469 129.9375 268.210938 130.941406 C 267.546875 131.378906 267.109375 132.050781 266.984375 132.832031 C 266.839844 133.710938 267.109375 134.664062 267.71875 135.4375 C 269.777344 138.054688 272.121094 140.480469 274.6875 142.640625 C 274.960938 142.867188 274.996094 143.277344 274.765625 143.550781 C 274.535156 143.824219 274.128906 143.859375 273.855469 143.628906 C 271.222656 141.410156 268.816406 138.921875 266.703125 136.238281 C 265.871094 135.179688 265.507812 133.859375 265.707031 132.625 C 265.890625 131.484375 266.527344 130.5 267.5 129.859375 C 269.566406 128.5 272.582031 129.082031 274.226562 131.160156 C 281.007812 139.726562 291.199219 145.226562 302.179688 146.246094 C 305.21875 146.523438 308.238281 146.464844 311.164062 146.066406 C 311.515625 146.015625 311.84375 146.265625 311.890625 146.621094 C 311.9375 146.972656 311.691406 147.296875 311.339844 147.347656 C 309.5625 147.589844 307.757812 147.710938 305.929688 147.710938 " fill-opacity="1" fill-rule="nonzero"/><path fill="#000000" d="M 307.058594 155.769531 C 305.441406 155.769531 303.808594 155.691406 302.160156 155.53125 C 300.847656 155.402344 299.523438 155.222656 298.226562 154.992188 C 297.875 154.933594 297.640625 154.597656 297.703125 154.246094 C 297.765625 153.894531 298.105469 153.660156 298.449219 153.722656 C 299.714844 153.941406 301.003906 154.117188 302.285156 154.242188 C 312.523438 155.234375 322.175781 153.046875 330.199219 147.917969 C 336.9375 143.605469 341.964844 137.503906 344.738281 130.261719 C 344.867188 129.929688 345.242188 129.761719 345.574219 129.890625 C 345.910156 130.015625 346.074219 130.394531 345.945312 130.726562 C 343.070312 138.222656 337.867188 144.546875 330.894531 149.003906 C 323.921875 153.464844 315.757812 155.769531 307.058594 155.769531 " fill-opacity="1" fill-rule="nonzero"/><path fill="#000000" d="M 356.761719 133.492188 C 356.71875 133.492188 356.675781 133.488281 356.632812 133.480469 L 345.210938 131.125 C 344.863281 131.054688 344.636719 130.714844 344.710938 130.363281 C 344.78125 130.011719 345.125 129.789062 345.472656 129.859375 L 355.105469 131.84375 L 343.101562 117.183594 L 340.738281 118.675781 C 340.433594 118.867188 340.035156 118.777344 339.84375 118.476562 C 339.65625 118.175781 339.742188 117.773438 340.046875 117.582031 L 342.894531 115.785156 C 343.167969 115.609375 343.53125 115.671875 343.738281 115.925781 L 357.261719 132.4375 C 357.4375 132.648438 357.457031 132.949219 357.316406 133.179688 C 357.199219 133.378906 356.984375 133.492188 356.761719 133.492188 " fill-opacity="1" fill-rule="nonzero"/><path fill="#99b9ff" d="M 189.402344 53.722656 C 189.101562 53.710938 188.792969 53.660156 188.488281 53.574219 C 186.445312 52.984375 185.195312 50.925781 185.691406 48.960938 C 187.757812 40.796875 192.6875 33.511719 199.605469 28.425781 C 206.78125 23.144531 215.515625 20.480469 224.894531 20.746094 C 238.570312 21.132812 251.617188 27.953125 259.699219 39.070312 C 261.003906 40.867188 260.558594 43.246094 258.703125 44.378906 C 256.851562 45.507812 254.296875 44.96875 253.003906 43.171875 C 246.503906 34.179688 235.992188 28.628906 224.9375 28.273438 C 209.636719 27.777344 196.628906 37.160156 193.101562 51.070312 C 192.675781 52.742188 191.117188 53.804688 189.402344 53.722656 " fill-opacity="1" fill-rule="nonzero"/><path fill="#99b9ff" d="M 177.226562 43.859375 L 188.367188 58.386719 L 202.890625 48.136719 Z M 177.226562 43.859375 " fill-opacity="1" fill-rule="nonzero"/><path fill="#5479f7" d="M 177.226562 43.859375 L 188.367188 58.386719 L 202.890625 48.136719 Z M 177.226562 43.859375 " fill-opacity="1" fill-rule="nonzero"/><path fill="#99b9ff" d="M 177.226562 43.859375 L 188.367188 58.386719 L 202.890625 48.136719 Z M 177.226562 43.859375 " fill-opacity="1" fill-rule="nonzero"/><path fill="#000000" d="M 256.570312 45.609375 C 255.007812 45.609375 253.441406 44.882812 252.480469 43.550781 C 246.113281 34.742188 235.8125 29.269531 224.917969 28.917969 C 218.898438 28.71875 213.054688 30.089844 208.007812 32.871094 C 207.699219 33.046875 207.304688 32.933594 207.132812 32.621094 C 206.960938 32.308594 207.074219 31.914062 207.386719 31.738281 C 212.632812 28.84375 218.703125 27.421875 224.960938 27.625 C 236.25 27.992188 246.929688 33.660156 253.527344 42.792969 C 254.628906 44.320312 256.800781 44.785156 258.367188 43.824219 C 259.09375 43.382812 259.582031 42.695312 259.746094 41.886719 C 259.910156 41.050781 259.710938 40.183594 259.175781 39.453125 C 258.167969 38.0625 257.058594 36.71875 255.886719 35.457031 C 255.644531 35.199219 255.660156 34.789062 255.921875 34.546875 C 256.179688 34.300781 256.589844 34.316406 256.832031 34.578125 C 258.042969 35.875 259.179688 37.261719 260.222656 38.691406 C 260.972656 39.722656 261.25 40.945312 261.011719 42.140625 C 260.777344 43.304688 260.078125 44.296875 259.039062 44.929688 C 258.285156 45.390625 257.429688 45.609375 256.570312 45.609375 " fill-opacity="1" fill-rule="nonzero"/><path fill="#000000" d="M 186.769531 46.117188 C 186.695312 46.117188 186.621094 46.105469 186.546875 46.078125 C 186.210938 45.957031 186.039062 45.585938 186.160156 45.25 C 188.6875 38.328125 193.203125 32.332031 199.222656 27.90625 C 206.53125 22.527344 215.402344 19.824219 224.910156 20.097656 C 228.707031 20.207031 232.496094 20.804688 236.175781 21.875 C 236.515625 21.976562 236.714844 22.332031 236.613281 22.675781 C 236.515625 23.019531 236.15625 23.214844 235.8125 23.117188 C 232.238281 22.078125 228.558594 21.496094 224.875 21.390625 C 215.667969 21.136719 207.0625 23.742188 199.988281 28.945312 C 194.175781 33.21875 189.816406 39.011719 187.375 45.695312 C 187.277344 45.957031 187.03125 46.117188 186.769531 46.117188 " fill-opacity="1" fill-rule="nonzero"/><path fill="#000000" d="M 188.367188 59.03125 C 188.171875 59.03125 187.980469 58.945312 187.855469 58.777344 L 176.714844 44.253906 C 176.554688 44.042969 176.539062 43.753906 176.675781 43.527344 C 176.8125 43.300781 177.074219 43.179688 177.332031 43.222656 L 186.769531 44.796875 C 187.125 44.855469 187.359375 45.1875 187.300781 45.539062 C 187.242188 45.890625 186.910156 46.125 186.558594 46.070312 L 178.738281 44.769531 L 188.5 57.5 L 193.992188 53.625 C 194.285156 53.417969 194.6875 53.488281 194.890625 53.78125 C 195.097656 54.070312 195.027344 54.476562 194.738281 54.679688 L 188.738281 58.914062 C 188.628906 58.992188 188.496094 59.03125 188.367188 59.03125 " fill-opacity="1" fill-rule="nonzero"/><path fill="#ffffff" d="M 54.355469 363.996094 L 46.898438 339.949219 C 46.898438 339.949219 40.34375 339.148438 38.042969 338.902344 C -2.253906 334.625 17.96875 254 51.503906 235.148438 C 72.105469 223.566406 96.765625 221.996094 120.785156 223.023438 C 137.683594 223.746094 154.085938 223.242188 169.3125 232.355469 C 190.941406 245.300781 209.480469 267.609375 220.953125 301.828125 L 231.363281 363.996094 L 54.355469 363.996094 " fill-opacity="1" fill-rule="nonzero"/><path fill="#000000" d="M 54.832031 363.351562 L 230.597656 363.351562 L 220.324219 301.984375 C 209.640625 270.148438 192.367188 246.90625 168.980469 232.90625 C 155.597656 224.898438 141.414062 224.402344 126.398438 223.882812 C 124.523438 223.816406 122.644531 223.75 120.757812 223.671875 C 100.203125 222.792969 73.785156 223.367188 51.820312 235.714844 C 29.476562 248.273438 11.765625 290.324219 17.367188 317.523438 C 19.144531 326.167969 24.1875 336.78125 38.113281 338.261719 C 40.390625 338.503906 46.910156 339.296875 46.976562 339.304688 C 47.226562 339.335938 47.4375 339.511719 47.515625 339.753906 Z M 231.363281 364.640625 L 54.355469 364.640625 C 54.070312 364.640625 53.820312 364.457031 53.738281 364.1875 L 46.402344 340.539062 C 44.925781 340.359375 39.910156 339.753906 37.976562 339.546875 C 26.339844 338.3125 18.777344 330.785156 16.101562 317.785156 C 13.480469 305.058594 15.960938 287.632812 22.734375 271.171875 C 29.742188 254.144531 40.113281 240.808594 51.1875 234.585938 C 73.4375 222.078125 100.082031 221.496094 120.8125 222.378906 C 122.695312 222.457031 124.574219 222.523438 126.441406 222.589844 C 141.628906 223.117188 155.972656 223.617188 169.644531 231.800781 C 193.316406 245.96875 210.78125 269.460938 221.566406 301.621094 C 221.574219 301.652344 221.585938 301.6875 221.589844 301.71875 L 232 363.890625 C 232.03125 364.078125 231.980469 364.269531 231.859375 364.414062 C 231.734375 364.558594 231.550781 364.640625 231.363281 364.640625 " fill-opacity="1" fill-rule="nonzero"/><path fill="#000000" d="M 103.570312 186.71875 C 98.699219 189.171875 95.03125 189.523438 92.386719 189.375 C 82.832031 188.824219 76.707031 181.121094 75.480469 179.578125 C 69.144531 171.613281 66.09375 158.535156 71.460938 150.855469 C 75.328125 145.324219 80.195312 147.410156 84.644531 141.226562 C 89.699219 134.207031 84.519531 128.476562 89.179688 122.332031 C 94.546875 115.253906 106.375 115.796875 108.503906 115.894531 C 115.800781 116.226562 116.667969 119.847656 123.570312 119.664062 C 130.613281 119.46875 131.542969 115.929688 138.007812 115.894531 C 143.144531 115.863281 150.628906 118.050781 153.984375 123.992188 C 158.191406 131.449219 153.886719 141.273438 148.890625 146.457031 C 142.894531 152.679688 138.667969 149.34375 130.265625 154.414062 C 115.707031 163.199219 119.183594 178.847656 103.570312 186.71875 " fill-opacity="1" fill-rule="nonzero"/><path fill="#ffffff" d="M 130.683594 219.871094 L 126.742188 195.335938 C 127.613281 195.238281 134.871094 193.972656 135.703125 193.558594 C 142.425781 190.210938 140.558594 173.332031 140.558594 173.332031 L 144.292969 168.863281 L 133.144531 143.90625 C 121.304688 153.777344 117.082031 144.085938 105.367188 148.941406 C 93.648438 153.796875 100.003906 166.847656 100.003906 166.847656 C 100.003906 166.847656 90.429688 162.628906 92.476562 171.894531 C 94.019531 178.890625 99.117188 179.328125 102.472656 179.046875 L 96.226562 221.117188 C 96.226562 221.117188 76.121094 226.828125 72.234375 227.859375 C 77.292969 227.621094 112.277344 242.839844 151.953125 226.207031 L 130.683594 219.871094 " fill-opacity="1" fill-rule="nonzero"/><path fill="#000000" d="M 75.292969 227.691406 C 76.191406 227.902344 77.25 228.167969 78.472656 228.476562 C 90.640625 231.558594 118.84375 238.695312 150.011719 226.300781 L 130.5 220.488281 C 130.261719 220.417969 130.085938 220.21875 130.046875 219.972656 L 126.105469 195.4375 C 126.078125 195.265625 126.121094 195.085938 126.230469 194.945312 C 126.335938 194.804688 126.496094 194.714844 126.671875 194.695312 C 127.714844 194.574219 134.738281 193.316406 135.414062 192.980469 C 141.65625 189.871094 139.933594 173.566406 139.914062 173.402344 C 139.894531 173.226562 139.949219 173.050781 140.0625 172.914062 L 143.539062 168.757812 L 132.898438 144.941406 C 126.3125 150.160156 122.003906 149.441406 117.449219 148.675781 C 114.03125 148.105469 110.492188 147.515625 105.613281 149.539062 C 102.597656 150.789062 100.578125 152.714844 99.609375 155.269531 C 97.652344 160.417969 100.554688 166.503906 100.585938 166.566406 C 100.703125 166.808594 100.65625 167.101562 100.46875 167.296875 C 100.28125 167.492188 99.992188 167.546875 99.746094 167.441406 C 98.582031 166.929688 95.230469 165.878906 93.714844 167.125 C 92.800781 167.878906 92.59375 169.433594 93.105469 171.753906 C 94.191406 176.664062 97.234375 178.839844 102.417969 178.402344 C 102.613281 178.386719 102.808594 178.457031 102.941406 178.605469 C 103.078125 178.75 103.140625 178.945312 103.109375 179.140625 L 96.867188 221.210938 C 96.828125 221.460938 96.648438 221.667969 96.402344 221.738281 C 96.234375 221.785156 82.066406 225.8125 75.292969 227.691406 Z M 112.667969 234.628906 C 97.503906 234.628906 85.179688 231.507812 78.152344 229.730469 C 75.246094 228.996094 73.148438 228.46875 72.265625 228.503906 C 71.941406 228.511719 71.644531 228.285156 71.597656 227.957031 C 71.546875 227.632812 71.75 227.320312 72.070312 227.234375 C 75.605469 226.296875 92.792969 221.417969 95.648438 220.609375 L 101.714844 179.738281 C 96.34375 179.925781 93.019531 177.347656 91.84375 172.035156 C 91.21875 169.199219 91.574219 167.210938 92.898438 166.125 C 94.539062 164.777344 97.21875 165.261719 98.855469 165.75 C 98.039062 163.527344 96.820312 158.984375 98.398438 154.820312 C 99.5 151.914062 101.757812 149.738281 105.117188 148.34375 C 110.34375 146.179688 114.230469 146.828125 117.664062 147.402344 C 122.257812 148.171875 126.226562 148.832031 132.730469 143.410156 C 132.886719 143.28125 133.09375 143.230469 133.292969 143.277344 C 133.488281 143.324219 133.652344 143.457031 133.734375 143.644531 L 144.882812 168.601562 C 144.984375 168.828125 144.945312 169.089844 144.789062 169.277344 L 141.226562 173.535156 C 141.449219 175.847656 142.628906 190.828125 135.992188 194.136719 C 135.160156 194.550781 129.523438 195.554688 127.484375 195.878906 L 131.257812 219.367188 L 152.136719 225.589844 C 152.398438 225.667969 152.585938 225.898438 152.597656 226.171875 C 152.617188 226.445312 152.457031 226.699219 152.203125 226.804688 C 138.074219 232.726562 124.503906 234.628906 112.667969 234.628906 " fill-opacity="1" fill-rule="nonzero"/><path fill="#000000" d="M 124.078125 196.167969 C 114.210938 196.167969 109.597656 188.519531 109.546875 188.4375 C 109.367188 188.128906 109.46875 187.734375 109.777344 187.550781 C 110.085938 187.375 110.480469 187.472656 110.664062 187.78125 C 110.867188 188.128906 115.769531 196.179688 126.65625 194.695312 C 127.011719 194.644531 127.335938 194.894531 127.382812 195.25 C 127.433594 195.601562 127.183594 195.929688 126.832031 195.976562 C 125.871094 196.109375 124.953125 196.167969 124.078125 196.167969 " fill-opacity="1" fill-rule="nonzero"/><path fill="#5479f7" d="M 109.269531 192.421875 C 103.929688 192.421875 98.917969 189.402344 96.496094 184.363281 L 93.726562 178.601562 C 93.570312 178.28125 93.707031 177.894531 94.027344 177.738281 C 94.347656 177.585938 94.734375 177.71875 94.890625 178.042969 L 97.660156 183.804688 C 100.40625 189.515625 106.816406 192.378906 112.898438 190.613281 L 126.488281 186.667969 C 126.832031 186.566406 127.1875 186.765625 127.289062 187.109375 C 127.386719 187.453125 127.191406 187.8125 126.847656 187.910156 L 113.257812 191.855469 C 111.933594 192.238281 110.589844 192.421875 109.269531 192.421875 " fill-opacity="1" fill-rule="nonzero"/><path fill="#caddff" d="M 91.816406 167.488281 C 91.574219 167.488281 91.339844 167.351562 91.230469 167.117188 C 90.925781 166.460938 83.800781 150.941406 88.390625 138.84375 C 90.269531 133.882812 93.878906 130.222656 99.113281 127.957031 C 99.441406 127.8125 99.820312 127.964844 99.960938 128.292969 C 100.101562 128.621094 99.953125 129 99.625 129.144531 C 94.722656 131.265625 91.351562 134.683594 89.601562 139.300781 C 85.199219 150.894531 92.328125 166.414062 92.402344 166.570312 C 92.550781 166.890625 92.414062 167.277344 92.089844 167.425781 C 92 167.46875 91.90625 167.488281 91.816406 167.488281 " fill-opacity="1" fill-rule="nonzero"/><path fill="#5479f7" d="M 131.820312 187.230469 C 132.078125 185.199219 130.609375 183.34375 128.542969 183.082031 C 126.476562 182.820312 124.597656 184.253906 124.339844 186.28125 C 124.082031 188.3125 125.550781 190.167969 127.613281 190.429688 C 129.679688 190.691406 131.5625 189.261719 131.820312 187.230469 " fill-opacity="1" fill-rule="nonzero"/><path fill="#5479f7" d="M 104.589844 172.527344 C 105.3125 166.835938 101.664062 161.683594 96.445312 161.023438 C 95.875 160.949219 93.753906 160.898438 93.195312 160.933594 C 88.667969 161.238281 86.335938 165.066406 85.695312 170.136719 C 85.003906 175.601562 87.085938 180.710938 91.972656 181.679688 C 92.175781 181.71875 93.621094 181.835938 93.828125 181.835938 C 99.550781 181.855469 103.871094 178.21875 104.589844 172.527344 " fill-opacity="1" fill-rule="nonzero"/><path fill="#99b9ff" d="M 102.332031 172.34375 C 102.941406 166.636719 99.195312 161.558594 93.964844 161 C 88.734375 160.441406 84.003906 164.613281 83.394531 170.320312 C 82.785156 176.027344 86.53125 181.105469 91.761719 181.660156 C 96.992188 182.21875 101.726562 178.046875 102.332031 172.34375 " fill-opacity="1" fill-rule="nonzero"/><path fill="#ffffff" d="M 83.609375 179.386719 C 83.40625 179.363281 83.394531 179.082031 83.59375 179.042969 C 87.707031 178.234375 98.117188 175.703125 95.996094 171.046875 C 95.214844 169.328125 86.636719 170.546875 83.136719 171.007812 C 79.636719 171.472656 68.773438 180.824219 66.40625 188.160156 C 64.589844 193.789062 63.800781 202.804688 62.3125 208.519531 C 62.3125 208.519531 6.734375 281.738281 12.910156 311.234375 C 20.609375 347.988281 56.722656 334.554688 63.464844 317.417969 C 69.4375 302.234375 71.710938 232.792969 72.152344 217.164062 C 72.875 215.253906 74.75 210.570312 76.410156 208.828125 C 78.515625 206.621094 89.40625 201.921875 89.757812 197.171875 C 90.027344 193.574219 84.027344 189.484375 81.113281 187.722656 C 80.644531 187.4375 80.84375 186.714844 81.390625 186.714844 C 83.085938 186.714844 85.738281 187 88.328125 188.449219 C 92.613281 190.84375 97.191406 189.550781 95.898438 186.578125 C 94.734375 183.910156 88.53125 179.960938 83.609375 179.386719 " fill-opacity="1" fill-rule="nonzero"/><path fill="#000000" d="M 92.335938 170.804688 C 91.917969 170.804688 91.449219 170.816406 90.914062 170.839844 C 88.398438 170.960938 85.546875 171.339844 83.65625 171.59375 L 83.222656 171.648438 C 79.945312 172.082031 69.308594 181.265625 67.023438 188.359375 C 66.019531 191.46875 65.324219 195.675781 64.65625 199.746094 C 64.113281 203.035156 63.601562 206.144531 62.9375 208.683594 L 62.90625 208.808594 L 62.828125 208.910156 C 62.273438 209.640625 7.496094 282.230469 13.542969 311.101562 C 16.433594 324.90625 23.863281 333.003906 34.464844 333.898438 C 45.710938 334.851562 58.984375 327.035156 62.863281 317.179688 C 68.832031 302 71.109375 231.1875 71.507812 217.144531 L 71.507812 217.035156 L 71.546875 216.9375 C 72.46875 214.496094 74.269531 210.140625 75.941406 208.382812 C 76.652344 207.640625 78.117188 206.734375 79.972656 205.589844 C 83.738281 203.265625 88.894531 200.078125 89.113281 197.128906 C 89.285156 194.847656 86.167969 191.539062 80.78125 188.273438 C 80.316406 187.996094 80.105469 187.457031 80.25 186.933594 C 80.394531 186.414062 80.851562 186.066406 81.390625 186.066406 C 83.21875 186.066406 85.957031 186.382812 88.640625 187.882812 C 91.316406 189.378906 94.070312 189.308594 95.089844 188.382812 C 95.519531 187.996094 95.589844 187.488281 95.304688 186.835938 C 94.238281 184.386719 88.222656 180.578125 83.53125 180.03125 C 83.125 179.984375 82.820312 179.652344 82.804688 179.246094 C 82.789062 178.839844 83.066406 178.484375 83.46875 178.410156 C 89.90625 177.144531 94.367188 175.195312 95.394531 173.191406 C 95.707031 172.589844 95.710938 171.976562 95.410156 171.3125 C 95.40625 171.308594 95.128906 170.804688 92.335938 170.804688 Z M 36.429688 335.273438 C 35.730469 335.273438 35.039062 335.246094 34.355469 335.183594 C 27.859375 334.636719 16.351562 330.8125 12.28125 311.367188 C 9.683594 298.96875 17.238281 277.8125 34.742188 248.484375 C 47.222656 227.566406 60.570312 209.757812 61.71875 208.234375 C 62.351562 205.773438 62.851562 202.742188 63.378906 199.535156 C 64.058594 195.417969 64.757812 191.164062 65.792969 187.960938 C 68.253906 180.332031 79.445312 170.847656 83.050781 170.371094 L 83.484375 170.3125 C 91.179688 169.285156 95.789062 169.035156 96.585938 170.777344 C 97.054688 171.808594 97.042969 172.820312 96.546875 173.78125 C 95.144531 176.511719 89.976562 178.234375 85.9375 179.195312 C 90.632812 180.488281 95.429688 183.890625 96.488281 186.320312 C 96.992188 187.476562 96.800781 188.578125 95.957031 189.34375 C 94.359375 190.792969 90.941406 190.648438 88.011719 189.015625 C 85.75 187.75 83.429688 187.410156 81.769531 187.363281 C 85.261719 189.515625 90.679688 193.484375 90.402344 197.222656 C 90.132812 200.832031 84.875 204.082031 80.652344 206.691406 C 78.945312 207.742188 77.472656 208.652344 76.878906 209.273438 C 75.292969 210.9375 73.398438 215.703125 72.792969 217.292969 C 72.390625 231.625 70.097656 302.316406 64.066406 317.652344 C 62.160156 322.492188 57.90625 327.191406 52.390625 330.539062 C 47.308594 333.621094 41.714844 335.273438 36.429688 335.273438 " fill-opacity="1" fill-rule="nonzero"/><path fill="#99b9ff" d="M 43.640625 340.710938 C 41.375 340.710938 39.941406 340.550781 39.796875 340.535156 C 39.441406 340.492188 39.191406 340.171875 39.230469 339.816406 C 39.269531 339.460938 39.589844 339.210938 39.945312 339.25 C 40.035156 339.261719 49.011719 340.25 58.527344 337.085938 C 71.207031 332.875 78.796875 323.667969 81.082031 309.726562 C 81.140625 309.375 81.472656 309.136719 81.824219 309.191406 C 82.175781 309.25 82.414062 309.582031 82.355469 309.933594 C 79.402344 327.960938 67.964844 335.324219 58.890625 338.328125 C 52.898438 340.3125 47.222656 340.710938 43.640625 340.710938 " fill-opacity="1" fill-rule="nonzero"/><path fill="#ffffff" d="M 249.0625 292.785156 L 174.191406 292.785156 C 171.714844 292.785156 170.195312 290.074219 171.488281 287.960938 L 217.882812 212.0625 C 218.871094 210.445312 220.632812 209.457031 222.53125 209.457031 L 296.78125 209.457031 C 299.527344 209.457031 301.214844 212.464844 299.785156 214.8125 L 253.710938 290.179688 C 252.722656 291.796875 250.960938 292.785156 249.0625 292.785156 " fill-opacity="1" fill-rule="nonzero"/><path fill="#000000" d="M 222.53125 210.101562 C 220.871094 210.101562 219.300781 210.980469 218.433594 212.398438 L 172.039062 288.296875 C 171.554688 289.085938 171.539062 290.042969 171.992188 290.847656 C 172.445312 291.65625 173.265625 292.140625 174.191406 292.140625 L 249.0625 292.140625 C 250.722656 292.140625 252.292969 291.257812 253.160156 289.84375 L 299.230469 214.472656 C 299.78125 213.574219 299.800781 212.488281 299.285156 211.570312 C 298.769531 210.652344 297.835938 210.101562 296.78125 210.101562 Z M 249.0625 293.429688 L 174.191406 293.429688 C 172.792969 293.429688 171.546875 292.703125 170.863281 291.480469 C 170.179688 290.261719 170.207031 288.816406 170.9375 287.625 L 217.332031 211.726562 C 218.429688 209.925781 220.421875 208.808594 222.53125 208.808594 L 296.78125 208.808594 C 298.308594 208.808594 299.667969 209.605469 300.414062 210.9375 C 301.160156 212.269531 301.132812 213.84375 300.332031 215.148438 L 254.261719 290.515625 C 253.164062 292.316406 251.171875 293.429688 249.0625 293.429688 " fill-opacity="1" fill-rule="nonzero"/><path fill="#99b9ff" d="M 266.679688 244.390625 L 214.078125 244.390625 L 217.148438 239.355469 L 269.75 239.355469 L 266.679688 244.390625 " fill-opacity="1" fill-rule="nonzero"/><path fill="#99b9ff" d="M 272.6875 234.539062 L 220.085938 234.539062 L 229.46875 219.15625 L 282.066406 219.15625 L 272.6875 234.539062 " fill-opacity="1" fill-rule="nonzero"/><path fill="#000000" d="M 247.449219 356.144531 L 165 356.144531 L 226.121094 262.113281 C 228.035156 259.171875 231.359375 257.390625 234.9375 257.390625 L 301.847656 257.390625 C 306.097656 257.390625 308.679688 261.945312 306.410156 265.433594 L 247.449219 356.144531 " fill-opacity="1" fill-rule="nonzero"/><path fill="#caddff" d="M 265.035156 290.367188 C 262.355469 294.488281 256.59375 297.828125 252.167969 297.828125 C 247.742188 297.828125 246.320312 294.488281 249 290.367188 C 251.679688 286.242188 257.441406 282.902344 261.871094 282.902344 C 266.296875 282.902344 267.714844 286.242188 265.035156 290.367188 " fill-opacity="1" fill-rule="nonzero"/><path fill="#000000" d="M 239.753906 363.996094 L 101.433594 363.996094 C 97.019531 363.996094 93.441406 360.417969 93.441406 356 L 93.441406 355.472656 L 247.746094 355.472656 L 247.746094 356 C 247.746094 360.417969 244.167969 363.996094 239.753906 363.996094 " fill-opacity="1" fill-rule="nonzero"/><path fill="#ffffff" d="M 243.160156 356.878906 L 172.355469 356.878906 C 172 356.878906 171.710938 356.585938 171.710938 356.230469 C 171.710938 355.871094 172 355.582031 172.355469 355.582031 L 243.160156 355.582031 C 243.515625 355.582031 243.804688 355.871094 243.804688 356.230469 C 243.804688 356.585938 243.515625 356.878906 243.160156 356.878906 " fill-opacity="1" fill-rule="nonzero"/><path fill="#000000" d="M 269.75 201.660156 C 269.636719 201.660156 269.523438 201.632812 269.421875 201.570312 C 269.113281 201.390625 269.011719 200.992188 269.195312 200.683594 L 282.542969 178.128906 C 282.726562 177.820312 283.121094 177.722656 283.429688 177.902344 C 283.734375 178.082031 283.839844 178.480469 283.65625 178.789062 L 270.304688 201.34375 C 270.183594 201.546875 269.96875 201.660156 269.75 201.660156 " fill-opacity="1" fill-rule="nonzero"/><path fill="#000000" d="M 275.023438 201.660156 C 274.878906 201.660156 274.730469 201.609375 274.609375 201.511719 C 274.335938 201.28125 274.300781 200.875 274.527344 200.601562 L 286.640625 186.027344 C 286.867188 185.753906 287.277344 185.714844 287.550781 185.945312 C 287.824219 186.171875 287.863281 186.582031 287.636719 186.855469 L 275.519531 201.429688 C 275.390625 201.582031 275.207031 201.660156 275.023438 201.660156 " fill-opacity="1" fill-rule="nonzero"/><path fill="#ffffff" d="M 39.871094 170.015625 C 34.851562 170.015625 30.78125 165.945312 30.78125 160.921875 C 30.78125 155.898438 34.851562 151.824219 39.871094 151.824219 C 44.894531 151.824219 48.964844 155.898438 48.964844 160.921875 C 48.964844 165.945312 44.894531 170.015625 39.871094 170.015625 Z M 57.363281 157.070312 C 57.335938 156.855469 57.160156 156.695312 56.945312 156.675781 L 53.851562 156.425781 C 53.671875 156.410156 53.519531 156.289062 53.460938 156.117188 C 53.257812 155.539062 53.023438 154.984375 52.753906 154.445312 C 52.671875 154.285156 52.691406 154.09375 52.804688 153.953125 L 54.765625 151.546875 C 54.902344 151.382812 54.90625 151.140625 54.773438 150.972656 L 53.097656 148.832031 C 52.964844 148.660156 52.734375 148.605469 52.539062 148.699219 L 49.730469 150.03125 C 49.570312 150.109375 49.378906 150.082031 49.238281 149.960938 C 48.78125 149.570312 48.296875 149.207031 47.792969 148.875 C 47.644531 148.773438 47.5625 148.597656 47.589844 148.417969 L 48.089844 145.351562 C 48.125 145.136719 48.007812 144.929688 47.808594 144.851562 L 45.289062 143.832031 C 45.089844 143.753906 44.863281 143.820312 44.738281 143.996094 L 42.976562 146.550781 C 42.871094 146.699219 42.691406 146.769531 42.515625 146.738281 C 41.925781 146.628906 41.324219 146.558594 40.714844 146.523438 C 40.535156 146.511719 40.375 146.398438 40.3125 146.230469 L 39.210938 143.324219 C 39.136719 143.125 38.929688 143.003906 38.71875 143.03125 L 36.027344 143.414062 C 35.816406 143.445312 35.652344 143.617188 35.632812 143.832031 L 35.382812 146.929688 C 35.367188 147.109375 35.246094 147.261719 35.074219 147.324219 C 34.5 147.523438 33.941406 147.761719 33.40625 148.03125 C 33.246094 148.109375 33.054688 148.089844 32.914062 147.976562 L 30.511719 146.015625 C 30.34375 145.878906 30.105469 145.875 29.9375 146.007812 L 27.796875 147.6875 C 27.628906 147.816406 27.574219 148.050781 27.664062 148.242188 L 28.996094 151.054688 C 29.070312 151.21875 29.042969 151.410156 28.925781 151.546875 C 28.535156 152.007812 28.171875 152.488281 27.839844 152.996094 C 27.738281 153.144531 27.5625 153.226562 27.382812 153.195312 L 24.316406 152.699219 C 24.105469 152.664062 23.898438 152.78125 23.816406 152.980469 L 22.800781 155.503906 C 22.722656 155.703125 22.789062 155.933594 22.96875 156.054688 L 25.515625 157.820312 C 25.667969 157.921875 25.738281 158.101562 25.703125 158.28125 C 25.59375 158.871094 25.523438 159.46875 25.488281 160.082031 C 25.476562 160.261719 25.367188 160.417969 25.195312 160.484375 L 22.292969 161.585938 C 22.09375 161.664062 21.96875 161.867188 22 162.082031 L 22.382812 164.773438 C 22.410156 164.988281 22.585938 165.148438 22.796875 165.167969 L 25.894531 165.417969 C 26.074219 165.433594 26.226562 165.554688 26.285156 165.726562 C 26.488281 166.304688 26.722656 166.859375 26.992188 167.398438 C 27.074219 167.558594 27.054688 167.75 26.941406 167.890625 L 24.976562 170.296875 C 24.839844 170.464844 24.839844 170.703125 24.972656 170.871094 L 26.648438 173.011719 C 26.777344 173.183594 27.011719 173.238281 27.203125 173.144531 L 30.011719 171.8125 C 30.175781 171.734375 30.367188 171.761719 30.507812 171.882812 C 30.964844 172.273438 31.449219 172.636719 31.953125 172.96875 C 32.101562 173.070312 32.183594 173.246094 32.152344 173.425781 L 31.652344 176.492188 C 31.621094 176.707031 31.738281 176.914062 31.933594 176.996094 L 34.457031 178.011719 C 34.65625 178.089844 34.882812 178.023438 35.003906 177.847656 L 36.769531 175.292969 C 36.871094 175.144531 37.050781 175.074219 37.230469 175.105469 C 37.820312 175.214844 38.421875 175.285156 39.027344 175.320312 C 39.210938 175.332031 39.367188 175.445312 39.433594 175.613281 L 40.535156 178.519531 C 40.609375 178.722656 40.8125 178.84375 41.027344 178.8125 L 43.71875 178.429688 C 43.929688 178.398438 44.09375 178.226562 44.109375 178.011719 L 44.363281 174.914062 C 44.378906 174.734375 44.5 174.582031 44.671875 174.519531 C 45.246094 174.320312 45.800781 174.082031 46.339844 173.8125 C 46.5 173.734375 46.691406 173.75 46.832031 173.867188 L 49.234375 175.828125 C 49.402344 175.964844 49.640625 175.96875 49.808594 175.835938 L 51.949219 174.15625 C 52.117188 174.027344 52.171875 173.792969 52.082031 173.601562 L 50.75 170.789062 C 50.671875 170.625 50.703125 170.433594 50.820312 170.296875 C 51.210938 169.839844 51.574219 169.355469 51.90625 168.847656 C 52.007812 168.699219 52.183594 168.617188 52.363281 168.648438 L 55.429688 169.144531 C 55.640625 169.179688 55.847656 169.0625 55.925781 168.863281 L 56.941406 166.339844 C 57.023438 166.140625 56.957031 165.910156 56.777344 165.789062 L 54.226562 164.027344 C 54.078125 163.921875 54.007812 163.742188 54.039062 163.566406 C 54.148438 162.972656 54.222656 162.375 54.257812 161.765625 C 54.265625 161.582031 54.378906 161.421875 54.546875 161.363281 L 57.453125 160.257812 C 57.652344 160.183594 57.773438 159.976562 57.746094 159.765625 L 57.363281 157.070312 " fill-opacity="1" fill-rule="nonzero"/><path fill="#ffffff" d="M 58.742188 123.578125 C 51.410156 123.578125 45.464844 117.632812 45.464844 110.300781 C 45.464844 102.964844 51.410156 97.019531 58.742188 97.019531 C 66.074219 97.019531 72.019531 102.964844 72.019531 110.300781 C 72.019531 117.632812 66.074219 123.578125 58.742188 123.578125 Z M 84.28125 104.671875 C 84.238281 104.363281 83.984375 104.125 83.671875 104.101562 L 79.152344 103.730469 C 78.886719 103.710938 78.667969 103.535156 78.578125 103.285156 C 78.285156 102.441406 77.941406 101.628906 77.546875 100.847656 C 77.429688 100.609375 77.457031 100.328125 77.625 100.125 L 80.488281 96.613281 C 80.6875 96.367188 80.691406 96.019531 80.5 95.773438 L 78.050781 92.644531 C 77.859375 92.398438 77.519531 92.320312 77.238281 92.453125 L 73.136719 94.394531 C 72.898438 94.511719 72.617188 94.46875 72.417969 94.296875 C 71.746094 93.722656 71.042969 93.195312 70.308594 92.707031 C 70.085938 92.5625 69.96875 92.304688 70.011719 92.042969 L 70.742188 87.5625 C 70.792969 87.253906 70.621094 86.949219 70.332031 86.832031 L 66.648438 85.347656 C 66.359375 85.230469 66.027344 85.332031 65.847656 85.589844 L 63.273438 89.316406 C 63.121094 89.535156 62.859375 89.640625 62.601562 89.589844 C 61.738281 89.429688 60.863281 89.328125 59.972656 89.277344 C 59.710938 89.261719 59.476562 89.097656 59.382812 88.847656 L 57.777344 84.605469 C 57.667969 84.308594 57.367188 84.136719 57.058594 84.175781 L 53.128906 84.734375 C 52.816406 84.78125 52.578125 85.03125 52.554688 85.34375 L 52.183594 89.867188 C 52.164062 90.132812 51.988281 90.355469 51.738281 90.441406 C 50.898438 90.738281 50.085938 91.082031 49.300781 91.476562 C 49.066406 91.59375 48.785156 91.566406 48.578125 91.398438 L 45.074219 88.53125 C 44.832031 88.335938 44.480469 88.332031 44.234375 88.523438 L 41.109375 90.972656 C 40.863281 91.164062 40.785156 91.503906 40.917969 91.785156 L 42.859375 95.890625 C 42.972656 96.128906 42.929688 96.410156 42.757812 96.613281 C 42.1875 97.28125 41.65625 97.988281 41.171875 98.722656 C 41.027344 98.945312 40.769531 99.0625 40.507812 99.019531 L 36.03125 98.292969 C 35.722656 98.242188 35.417969 98.410156 35.300781 98.703125 L 33.816406 102.386719 C 33.699219 102.679688 33.800781 103.011719 34.058594 103.191406 L 37.78125 105.769531 C 38 105.917969 38.105469 106.179688 38.054688 106.441406 C 37.894531 107.300781 37.792969 108.179688 37.742188 109.070312 C 37.726562 109.332031 37.5625 109.5625 37.3125 109.660156 L 33.074219 111.269531 C 32.78125 111.382812 32.605469 111.679688 32.648438 111.988281 L 33.203125 115.925781 C 33.246094 116.234375 33.5 116.472656 33.8125 116.496094 L 38.332031 116.867188 C 38.59375 116.886719 38.816406 117.0625 38.90625 117.3125 C 39.199219 118.15625 39.542969 118.96875 39.9375 119.753906 C 40.054688 119.988281 40.027344 120.269531 39.859375 120.472656 L 36.996094 123.984375 C 36.796875 124.230469 36.792969 124.578125 36.984375 124.824219 L 39.433594 127.949219 C 39.625 128.199219 39.964844 128.277344 40.246094 128.144531 L 44.347656 126.203125 C 44.585938 126.085938 44.863281 126.128906 45.066406 126.300781 C 45.734375 126.875 46.441406 127.40625 47.175781 127.890625 C 47.398438 128.035156 47.515625 128.292969 47.472656 128.554688 L 46.742188 133.035156 C 46.691406 133.34375 46.863281 133.648438 47.152344 133.765625 L 50.835938 135.25 C 51.125 135.367188 51.457031 135.265625 51.636719 135.011719 L 54.210938 131.28125 C 54.363281 131.0625 54.625 130.960938 54.882812 131.007812 C 55.746094 131.167969 56.621094 131.273438 57.507812 131.320312 C 57.773438 131.335938 58.003906 131.5 58.097656 131.75 L 59.707031 135.992188 C 59.816406 136.285156 60.117188 136.460938 60.425781 136.417969 L 64.355469 135.863281 C 64.667969 135.820312 64.90625 135.566406 64.929688 135.253906 L 65.296875 130.730469 C 65.320312 130.464844 65.496094 130.242188 65.746094 130.152344 C 66.585938 129.859375 67.398438 129.515625 68.183594 129.121094 C 68.417969 129.003906 68.699219 129.03125 68.902344 129.199219 L 72.410156 132.066406 C 72.652344 132.261719 73 132.269531 73.246094 132.074219 L 76.375 129.625 C 76.621094 129.433594 76.699219 129.09375 76.566406 128.8125 L 74.625 124.707031 C 74.511719 124.46875 74.550781 124.1875 74.722656 123.984375 C 75.296875 123.316406 75.828125 122.609375 76.3125 121.871094 C 76.457031 121.652344 76.714844 121.535156 76.976562 121.578125 L 81.453125 122.308594 C 81.761719 122.355469 82.066406 122.1875 82.183594 121.894531 L 83.664062 118.210938 C 83.785156 117.917969 83.683594 117.585938 83.425781 117.40625 L 79.699219 114.828125 C 79.484375 114.679688 79.378906 114.417969 79.429688 114.15625 C 79.585938 113.296875 79.691406 112.417969 79.742188 111.527344 C 79.757812 111.261719 79.921875 111.03125 80.171875 110.9375 L 84.410156 109.328125 C 84.703125 109.21875 84.878906 108.917969 84.835938 108.609375 L 84.28125 104.671875 " fill-opacity="1" fill-rule="nonzero"/><path fill="#5479f7" d="M 35.5625 152.472656 C 30.90625 152.472656 27.113281 156.261719 27.113281 160.921875 C 27.113281 165.582031 30.90625 169.371094 35.5625 169.371094 C 40.21875 169.371094 44.011719 165.582031 44.011719 160.921875 C 44.011719 156.261719 40.21875 152.472656 35.5625 152.472656 Z M 35.5625 170.664062 C 30.191406 170.664062 25.824219 166.296875 25.824219 160.921875 C 25.824219 155.550781 30.191406 151.179688 35.5625 151.179688 C 40.933594 151.179688 45.300781 155.550781 45.300781 160.921875 C 45.300781 166.296875 40.933594 170.664062 35.5625 170.664062 Z M 30.425781 146.875 C 30.425781 146.878906 30.425781 146.878906 30.425781 146.878906 Z M 52.585938 157.320312 L 52.589844 157.320312 Z M 32.835938 174.449219 C 32.902344 174.449219 32.96875 174.457031 33.039062 174.46875 C 33.597656 174.574219 34.175781 174.644531 34.753906 174.675781 C 35.191406 174.699219 35.574219 174.980469 35.726562 175.386719 L 36.773438 178.148438 L 39.167969 177.8125 L 39.410156 174.863281 C 39.445312 174.429688 39.734375 174.054688 40.144531 173.910156 C 40.695312 173.71875 41.230469 173.492188 41.738281 173.238281 C 42.128906 173.042969 42.597656 173.09375 42.929688 173.367188 L 45.214844 175.234375 L 47.121094 173.742188 L 45.855469 171.066406 C 45.671875 170.675781 45.734375 170.207031 46.015625 169.875 C 46.390625 169.4375 46.742188 168.972656 47.054688 168.496094 C 47.296875 168.128906 47.726562 167.9375 48.152344 168.007812 L 51.074219 168.484375 L 51.976562 166.238281 L 49.550781 164.558594 C 49.195312 164.308594 49.015625 163.875 49.09375 163.445312 C 49.199219 162.890625 49.269531 162.3125 49.300781 161.726562 C 49.324219 161.289062 49.601562 160.910156 50.007812 160.753906 L 52.773438 159.707031 L 52.433594 157.308594 L 49.488281 157.066406 C 49.054688 157.03125 48.683594 156.742188 48.539062 156.332031 C 48.347656 155.78125 48.121094 155.242188 47.863281 154.734375 C 47.671875 154.347656 47.71875 153.882812 47.992188 153.546875 L 49.863281 151.253906 L 48.371094 149.347656 L 45.699219 150.613281 C 45.308594 150.800781 44.839844 150.738281 44.511719 150.453125 C 44.070312 150.078125 43.605469 149.730469 43.128906 149.414062 C 42.765625 149.171875 42.574219 148.742188 42.644531 148.316406 L 43.117188 145.394531 L 40.875 144.488281 L 39.195312 146.921875 C 38.949219 147.277344 38.515625 147.453125 38.085938 147.375 C 37.527344 147.269531 36.949219 147.199219 36.371094 147.167969 C 35.933594 147.144531 35.550781 146.867188 35.398438 146.460938 L 34.351562 143.691406 L 31.957031 144.03125 L 31.714844 146.984375 C 31.679688 147.414062 31.390625 147.789062 30.976562 147.933594 C 30.429688 148.125 29.890625 148.351562 29.386719 148.605469 C 28.996094 148.800781 28.527344 148.753906 28.191406 148.476562 L 25.90625 146.609375 L 24.003906 148.101562 L 25.269531 150.777344 C 25.453125 151.167969 25.390625 151.636719 25.109375 151.96875 C 24.734375 152.402344 24.382812 152.867188 24.066406 153.351562 C 23.828125 153.714844 23.398438 153.90625 22.96875 153.835938 L 20.050781 153.359375 L 19.148438 155.605469 L 21.574219 157.285156 C 21.929688 157.535156 22.109375 157.96875 22.03125 158.398438 C 21.925781 158.957031 21.855469 159.535156 21.824219 160.117188 C 21.800781 160.550781 21.519531 160.933594 21.113281 161.089844 L 18.351562 162.136719 L 18.691406 164.535156 L 21.636719 164.777344 C 22.066406 164.8125 22.441406 165.101562 22.585938 165.511719 C 22.777344 166.0625 23.003906 166.597656 23.261719 167.109375 C 23.453125 167.496094 23.402344 167.964844 23.128906 168.300781 L 21.261719 170.589844 L 22.753906 172.496094 L 25.425781 171.230469 C 25.816406 171.042969 26.285156 171.105469 26.617188 171.390625 C 27.054688 171.765625 27.515625 172.113281 27.996094 172.429688 C 28.359375 172.671875 28.550781 173.101562 28.480469 173.527344 L 28.007812 176.449219 L 30.25 177.355469 L 31.925781 174.925781 C 32.132812 174.625 32.476562 174.449219 32.835938 174.449219 Z M 36.648438 179.464844 C 36.195312 179.464844 35.785156 179.1875 35.617188 178.75 L 34.5625 175.957031 C 34.007812 175.921875 33.457031 175.855469 32.921875 175.761719 L 31.226562 178.214844 C 30.929688 178.640625 30.390625 178.804688 29.90625 178.613281 L 27.382812 177.59375 C 26.902344 177.398438 26.625 176.90625 26.707031 176.390625 L 27.183594 173.445312 C 26.730469 173.136719 26.289062 172.804688 25.867188 172.449219 L 23.171875 173.726562 C 22.699219 173.949219 22.148438 173.820312 21.828125 173.410156 L 20.152344 171.269531 C 19.832031 170.859375 19.839844 170.292969 20.164062 169.886719 L 22.050781 167.578125 C 21.808594 167.085938 21.59375 166.578125 21.40625 166.054688 L 18.433594 165.8125 C 17.917969 165.769531 17.503906 165.378906 17.429688 164.863281 L 17.050781 162.171875 C 16.976562 161.65625 17.265625 161.164062 17.753906 160.980469 L 20.539062 159.925781 C 20.574219 159.367188 20.640625 158.816406 20.738281 158.28125 L 18.289062 156.585938 C 17.859375 156.289062 17.699219 155.746094 17.894531 155.261719 L 18.90625 152.738281 C 19.101562 152.253906 19.597656 151.976562 20.109375 152.0625 L 23.054688 152.539062 C 23.359375 152.082031 23.695312 151.640625 24.046875 151.21875 L 22.769531 148.519531 C 22.546875 148.046875 22.679688 147.496094 23.089844 147.175781 L 25.230469 145.5 C 25.636719 145.179688 26.207031 145.183594 26.609375 145.511719 L 28.914062 147.398438 C 29.402344 147.160156 29.914062 146.941406 30.4375 146.753906 L 30.679688 143.777344 C 30.722656 143.257812 31.113281 142.847656 31.628906 142.773438 L 34.316406 142.390625 C 34.832031 142.316406 35.320312 142.605469 35.507812 143.09375 L 36.5625 145.886719 C 37.117188 145.921875 37.667969 145.988281 38.203125 146.082031 L 39.898438 143.628906 C 40.195312 143.203125 40.738281 143.039062 41.21875 143.234375 L 43.742188 144.25 C 44.222656 144.445312 44.5 144.941406 44.417969 145.453125 L 43.941406 148.402344 C 44.394531 148.707031 44.835938 149.039062 45.257812 149.394531 L 47.953125 148.117188 C 48.421875 147.894531 48.976562 148.023438 49.296875 148.433594 L 50.972656 150.574219 C 51.292969 150.988281 51.285156 151.554688 50.957031 151.957031 L 49.074219 154.265625 C 49.3125 154.753906 49.53125 155.265625 49.71875 155.789062 L 52.6875 156.03125 C 53.207031 156.074219 53.621094 156.464844 53.695312 156.976562 L 54.074219 159.671875 C 54.148438 160.191406 53.859375 160.675781 53.371094 160.863281 L 50.585938 161.921875 C 50.546875 162.480469 50.480469 163.03125 50.386719 163.566406 L 52.835938 165.257812 C 53.261719 165.554688 53.425781 166.097656 53.230469 166.582031 L 52.214844 169.105469 C 52.019531 169.589844 51.527344 169.871094 51.011719 169.78125 L 48.070312 169.304688 C 47.765625 169.761719 47.429688 170.203125 47.078125 170.625 L 48.355469 173.324219 C 48.578125 173.792969 48.445312 174.347656 48.035156 174.667969 L 45.894531 176.347656 C 45.484375 176.667969 44.917969 176.660156 44.515625 176.328125 L 42.210938 174.445312 C 41.722656 174.6875 41.210938 174.902344 40.6875 175.089844 L 40.445312 178.066406 C 40.402344 178.585938 40.011719 178.996094 39.5 179.070312 L 36.804688 179.453125 C 36.753906 179.460938 36.699219 179.464844 36.648438 179.464844 " fill-opacity="1" fill-rule="nonzero"/><path fill="#5479f7" d="M 54.433594 97.664062 C 47.46875 97.664062 41.800781 103.332031 41.800781 110.300781 C 41.800781 117.265625 47.46875 122.933594 54.433594 122.933594 C 61.394531 122.933594 67.0625 117.265625 67.0625 110.300781 C 67.0625 103.332031 61.394531 97.664062 54.433594 97.664062 Z M 54.433594 124.226562 C 46.753906 124.226562 40.507812 117.980469 40.507812 110.300781 C 40.507812 102.617188 46.753906 96.371094 54.433594 96.371094 C 62.109375 96.371094 68.355469 102.617188 68.355469 110.300781 C 68.355469 117.980469 62.109375 124.226562 54.433594 124.226562 Z M 50.449219 130.347656 C 50.53125 130.347656 50.609375 130.355469 50.691406 130.371094 C 51.519531 130.527344 52.375 130.628906 53.234375 130.675781 C 53.753906 130.707031 54.210938 131.039062 54.394531 131.519531 L 56 135.765625 L 59.953125 135.222656 L 60.34375 130.675781 C 60.386719 130.160156 60.730469 129.71875 61.222656 129.546875 C 62.035156 129.257812 62.828125 128.921875 63.582031 128.546875 C 64.042969 128.3125 64.601562 128.371094 65.003906 128.699219 L 68.507812 131.566406 L 71.664062 129.117188 L 69.730469 124.984375 C 69.511719 124.519531 69.585938 123.960938 69.921875 123.566406 C 70.476562 122.917969 70.996094 122.230469 71.460938 121.515625 C 71.746094 121.082031 72.261719 120.855469 72.769531 120.941406 L 77.246094 121.667969 L 78.757812 117.96875 L 75.023438 115.359375 C 74.601562 115.066406 74.386719 114.550781 74.480469 114.039062 C 74.636719 113.210938 74.738281 112.355469 74.789062 111.492188 C 74.816406 110.96875 75.148438 110.515625 75.628906 110.335938 L 79.871094 108.722656 L 79.332031 104.765625 C 79.328125 104.753906 79.320312 104.746094 79.308594 104.742188 L 74.789062 104.375 C 74.277344 104.335938 73.832031 103.988281 73.660156 103.5 C 73.375 102.683594 73.039062 101.890625 72.660156 101.136719 C 72.429688 100.671875 72.488281 100.113281 72.8125 99.714844 L 75.679688 96.203125 L 73.234375 93.042969 L 69.105469 94.980469 C 68.636719 95.203125 68.082031 95.125 67.6875 94.789062 C 67.039062 94.234375 66.351562 93.714844 65.640625 93.25 C 65.207031 92.964844 64.980469 92.449219 65.0625 91.941406 L 65.792969 87.457031 L 62.097656 85.945312 L 59.492188 89.683594 C 59.199219 90.105469 58.683594 90.320312 58.171875 90.226562 C 57.339844 90.070312 56.484375 89.96875 55.628906 89.921875 C 55.109375 89.890625 54.652344 89.5625 54.46875 89.078125 L 52.863281 84.832031 L 48.90625 85.375 L 48.519531 89.921875 C 48.476562 90.4375 48.132812 90.878906 47.640625 91.050781 C 46.828125 91.339844 46.03125 91.675781 45.28125 92.050781 C 44.816406 92.285156 44.261719 92.226562 43.859375 91.898438 L 40.355469 89.03125 L 37.199219 91.480469 L 39.132812 95.617188 C 39.351562 96.082031 39.277344 96.636719 38.941406 97.03125 C 38.386719 97.679688 37.867188 98.371094 37.398438 99.082031 C 37.113281 99.515625 36.601562 99.742188 36.09375 99.660156 L 31.617188 98.929688 L 30.105469 102.628906 L 33.839844 105.234375 C 34.261719 105.527344 34.476562 106.046875 34.378906 106.558594 C 34.226562 107.386719 34.125 108.242188 34.074219 109.105469 C 34.046875 109.628906 33.714844 110.082031 33.234375 110.265625 L 28.992188 111.875 L 29.53125 115.832031 L 34.074219 116.222656 C 34.589844 116.265625 35.03125 116.609375 35.203125 117.097656 C 35.488281 117.914062 35.824219 118.707031 36.203125 119.460938 C 36.433594 119.929688 36.375 120.484375 36.050781 120.882812 L 33.183594 124.394531 L 35.628906 127.554688 L 39.757812 125.617188 C 40.226562 125.394531 40.78125 125.472656 41.175781 125.808594 C 41.824219 126.367188 42.511719 126.882812 43.222656 127.351562 C 43.65625 127.636719 43.882812 128.148438 43.796875 128.65625 L 43.070312 133.140625 L 46.765625 134.648438 L 49.371094 130.914062 C 49.617188 130.558594 50.023438 130.347656 50.449219 130.347656 Z M 56.019531 137.074219 C 55.476562 137.074219 54.988281 136.742188 54.792969 136.222656 L 53.183594 131.976562 C 52.246094 131.914062 51.335938 131.804688 50.457031 131.640625 L 47.855469 135.378906 C 47.503906 135.886719 46.859375 136.082031 46.285156 135.847656 L 42.601562 134.363281 C 42.027344 134.132812 41.695312 133.542969 41.792969 132.933594 L 42.523438 128.449219 C 41.757812 127.933594 41.027344 127.382812 40.335938 126.792969 L 36.210938 128.730469 C 35.652344 128.996094 34.996094 128.839844 34.613281 128.347656 L 32.167969 125.222656 C 31.785156 124.734375 31.792969 124.058594 32.183594 123.578125 L 35.046875 120.066406 C 34.644531 119.238281 34.289062 118.390625 33.984375 117.53125 L 29.449219 117.140625 C 28.832031 117.089844 28.339844 116.628906 28.253906 116.015625 L 27.699219 112.078125 C 27.609375 111.464844 27.953125 110.882812 28.535156 110.664062 L 32.773438 109.054688 C 32.835938 108.117188 32.945312 107.203125 33.109375 106.320312 L 29.378906 103.722656 C 28.871094 103.371094 28.675781 102.71875 28.90625 102.148438 L 30.390625 98.460938 C 30.625 97.886719 31.210938 97.554688 31.824219 97.652344 L 36.300781 98.382812 C 36.816406 97.613281 37.367188 96.882812 37.957031 96.191406 L 36.023438 92.0625 C 35.757812 91.503906 35.914062 90.847656 36.402344 90.464844 L 39.527344 88.015625 C 40.015625 87.632812 40.691406 87.640625 41.171875 88.03125 L 44.679688 90.898438 C 45.5 90.496094 46.347656 90.136719 47.210938 89.832031 L 47.597656 85.292969 C 47.648438 84.675781 48.113281 84.179688 48.726562 84.097656 L 52.65625 83.539062 C 53.265625 83.453125 53.851562 83.796875 54.070312 84.375 L 55.679688 88.617188 C 56.613281 88.679688 57.523438 88.792969 58.40625 88.957031 L 61.003906 85.222656 C 61.355469 84.710938 62.003906 84.515625 62.582031 84.75 L 66.261719 86.234375 C 66.835938 86.464844 67.167969 87.054688 67.066406 87.664062 L 66.339844 92.148438 C 67.105469 92.667969 67.839844 93.214844 68.527344 93.804688 L 72.648438 91.867188 C 73.210938 91.601562 73.867188 91.757812 74.25 92.246094 L 76.695312 95.375 C 77.078125 95.863281 77.070312 96.542969 76.679688 97.019531 L 73.8125 100.53125 C 74.21875 101.359375 74.574219 102.207031 74.878906 103.070312 L 79.414062 103.457031 C 80.03125 103.507812 80.523438 103.96875 80.609375 104.582031 L 81.164062 108.519531 C 81.253906 109.132812 80.90625 109.714844 80.328125 109.933594 L 76.089844 111.542969 C 76.027344 112.484375 75.914062 113.394531 75.753906 114.277344 L 79.484375 116.875 C 79.992188 117.226562 80.1875 117.875 79.953125 118.453125 L 78.472656 122.136719 C 78.238281 122.710938 77.648438 123.042969 77.039062 122.945312 L 72.5625 122.214844 C 72.046875 122.984375 71.492188 123.714844 70.90625 124.40625 L 72.839844 128.535156 C 73.105469 129.09375 72.949219 129.75 72.460938 130.136719 L 69.335938 132.582031 C 68.847656 132.96875 68.171875 132.957031 67.691406 132.566406 L 64.183594 129.699219 C 63.359375 130.101562 62.515625 130.460938 61.648438 130.765625 L 61.265625 135.304688 C 61.214844 135.921875 60.75 136.414062 60.136719 136.503906 L 56.207031 137.058594 C 56.144531 137.070312 56.082031 137.074219 56.019531 137.074219 " fill-opacity="1" fill-rule="nonzero"/><path fill="#99b9ff" d="M 141.324219 23.652344 L 51.234375 23.652344 C 48.039062 23.652344 45.445312 25.785156 45.445312 28.414062 L 45.445312 59.304688 C 45.445312 61.9375 48.039062 64.070312 51.234375 64.070312 L 141.324219 64.070312 C 144.519531 64.070312 147.113281 61.9375 147.113281 59.304688 L 147.113281 28.414062 C 147.113281 25.785156 144.519531 23.652344 141.324219 23.652344 " fill-opacity="1" fill-rule="nonzero"/><path fill="#ffffff" d="M 53.097656 42.933594 C 53.097656 34.738281 59.867188 28.09375 68.21875 28.09375 C 76.570312 28.09375 83.34375 34.738281 83.34375 42.933594 C 83.34375 51.132812 76.570312 57.777344 68.21875 57.777344 C 59.867188 57.777344 53.097656 51.132812 53.097656 42.933594 " fill-opacity="1" fill-rule="nonzero"/><path fill="#000000" d="M 68.21875 58.421875 C 59.523438 58.421875 52.449219 51.472656 52.449219 42.933594 C 52.449219 41.105469 52.769531 39.316406 53.402344 37.617188 C 53.527344 37.28125 53.898438 37.113281 54.234375 37.238281 C 54.570312 37.359375 54.738281 37.734375 54.613281 38.066406 C 54.035156 39.625 53.742188 41.261719 53.742188 42.933594 C 53.742188 50.761719 60.238281 57.128906 68.21875 57.128906 C 76.203125 57.128906 82.695312 50.761719 82.695312 42.933594 C 82.695312 35.105469 76.203125 28.738281 68.21875 28.738281 C 63.871094 28.738281 59.792969 30.628906 57.03125 33.925781 C 56.800781 34.199219 56.394531 34.234375 56.121094 34.003906 C 55.847656 33.777344 55.808594 33.367188 56.039062 33.097656 C 59.050781 29.503906 63.488281 27.449219 68.21875 27.449219 C 76.914062 27.449219 83.988281 34.394531 83.988281 42.933594 C 83.988281 51.472656 76.914062 58.421875 68.21875 58.421875 " fill-opacity="1" fill-rule="nonzero"/><path fill="#99b9ff" d="M 57.84375 53.726562 C 60.554688 56.234375 64.203125 57.777344 68.21875 57.777344 C 72.238281 57.777344 75.886719 56.234375 78.59375 53.726562 C 75.460938 52.777344 71.941406 52.238281 68.21875 52.238281 C 64.496094 52.238281 60.976562 52.777344 57.84375 53.726562 " fill-opacity="1" fill-rule="nonzero"/><path fill="#ffffff" d="M 68.308594 54.746094 C 66.992188 54.746094 65.921875 53.699219 65.921875 52.40625 L 65.921875 40.460938 L 70.695312 40.460938 L 70.695312 52.40625 C 70.695312 53.699219 69.628906 54.746094 68.308594 54.746094 " fill-opacity="1" fill-rule="nonzero"/><path fill="#000000" d="M 77.550781 44.820312 C 77.25 41.109375 78.917969 38.792969 75.179688 34.601562 C 71.308594 30.261719 67.988281 33.171875 67.988281 33.171875 C 67.988281 33.171875 65.222656 30.914062 61.585938 35.628906 C 58.378906 39.792969 62.488281 43.523438 61.109375 46.113281 C 59.726562 48.707031 55.046875 50.117188 55.046875 50.117188 C 55.046875 50.117188 56.546875 53.066406 58.40625 54.359375 L 78.152344 54.359375 C 78.152344 54.359375 82.230469 50 82.230469 48.765625 C 82.230469 48.765625 77.851562 48.53125 77.550781 44.820312 " fill-opacity="1" fill-rule="nonzero"/><path fill="#99b9ff" d="M 57.84375 53.726562 C 60.554688 56.234375 64.203125 57.777344 68.21875 57.777344 C 72.238281 57.777344 75.886719 56.234375 78.59375 53.726562 C 75.460938 52.777344 71.941406 52.238281 68.21875 52.238281 C 64.496094 52.238281 60.976562 52.777344 57.84375 53.726562 " fill-opacity="1" fill-rule="nonzero"/><path fill="#000000" d="M 59.183594 54.019531 C 61.742188 56.03125 64.910156 57.128906 68.21875 57.128906 C 71.527344 57.128906 74.695312 56.03125 77.257812 54.019531 C 74.398438 53.265625 71.367188 52.882812 68.21875 52.882812 C 65.074219 52.882812 62.039062 53.265625 59.183594 54.019531 Z M 68.21875 58.421875 C 64.183594 58.421875 60.34375 56.921875 57.40625 54.203125 L 56.578125 53.4375 L 57.65625 53.109375 C 60.964844 52.101562 64.519531 51.59375 68.21875 51.59375 C 71.917969 51.59375 75.472656 52.101562 78.78125 53.109375 L 79.859375 53.4375 L 79.03125 54.203125 C 76.09375 56.921875 72.253906 58.421875 68.21875 58.421875 " fill-opacity="1" fill-rule="nonzero"/><path fill="#ffffff" d="M 68.542969 36.574219 L 68.375 36.574219 L 63.515625 41.367188 L 63.515625 43.992188 C 63.515625 45.75 64.484375 47.28125 65.921875 48.109375 L 65.921875 52.40625 C 65.921875 53.699219 66.992188 54.746094 68.308594 54.746094 C 69.628906 54.746094 70.695312 53.699219 70.695312 52.40625 L 70.695312 48.1875 C 72.210938 47.382812 73.238281 45.804688 73.238281 43.992188 L 73.238281 41.183594 C 73.238281 38.636719 71.136719 36.574219 68.542969 36.574219 " fill-opacity="1" fill-rule="nonzero"/><path fill="#000000" d="M 68.308594 55.394531 C 66.636719 55.394531 65.277344 54.054688 65.277344 52.40625 L 65.277344 48.238281 C 65.277344 47.882812 65.566406 47.59375 65.921875 47.59375 C 66.277344 47.59375 66.566406 47.882812 66.566406 48.238281 L 66.566406 52.40625 C 66.566406 53.339844 67.347656 54.101562 68.308594 54.101562 C 69.269531 54.101562 70.050781 53.339844 70.050781 52.40625 L 70.050781 48.308594 C 70.050781 47.953125 70.339844 47.664062 70.695312 47.664062 C 71.050781 47.664062 71.34375 47.953125 71.34375 48.308594 L 71.34375 52.40625 C 71.34375 54.054688 69.980469 55.394531 68.308594 55.394531 " fill-opacity="1" fill-rule="nonzero"/><path fill="#000000" d="M 68.378906 49.410156 C 68.023438 49.410156 67.730469 49.121094 67.730469 48.765625 C 67.730469 48.40625 68.023438 48.117188 68.378906 48.117188 C 70.703125 48.117188 72.59375 46.269531 72.59375 43.992188 L 72.59375 41.183594 C 72.59375 39.082031 70.929688 37.355469 68.796875 37.226562 L 64.164062 41.71875 L 64.164062 43.992188 C 64.164062 45.605469 65.132812 47.078125 66.628906 47.75 C 66.957031 47.894531 67.101562 48.273438 66.957031 48.601562 C 66.8125 48.929688 66.429688 49.074219 66.101562 48.929688 C 64.140625 48.050781 62.871094 46.113281 62.871094 43.992188 L 62.871094 41.445312 C 62.871094 41.273438 62.941406 41.105469 63.066406 40.984375 L 68.09375 36.109375 C 68.269531 35.9375 68.535156 35.921875 68.777344 35.929688 C 71.640625 36.054688 73.886719 38.363281 73.886719 41.183594 L 73.886719 43.992188 C 73.886719 46.980469 71.414062 49.410156 68.378906 49.410156 " fill-opacity="1" fill-rule="nonzero"/><path fill="#ffffff" d="M 138.375 51.773438 L 136.222656 48.671875 C 136.042969 48.410156 135.640625 48.1875 135.328125 48.167969 L 134.929688 48.148438 C 134.570312 48.128906 134.214844 48.191406 133.871094 48.304688 C 132.910156 48.617188 131.402344 48.523438 129.679688 44.964844 C 127.964844 41.425781 128.804688 40.175781 129.644531 39.613281 C 130.007812 39.371094 130.316406 39.046875 130.566406 38.6875 L 130.667969 38.546875 C 130.847656 38.289062 130.921875 37.832031 130.828125 37.53125 L 129.730469 33.917969 C 129.636719 33.617188 129.308594 33.398438 128.996094 33.433594 L 128.109375 33.53125 C 127.363281 33.613281 126.65625 33.929688 126.128906 34.464844 C 123.886719 36.726562 123.882812 41.589844 126.308594 46.601562 C 128.738281 51.617188 132.570312 54.632812 135.738281 54.257812 C 136.46875 54.171875 137.144531 53.824219 137.660156 53.300781 L 138.300781 52.648438 C 138.519531 52.425781 138.554688 52.03125 138.375 51.773438 " fill-opacity="1" fill-rule="nonzero"/><path fill="#000000" d="M 129.058594 34.074219 L 128.179688 34.171875 C 127.5625 34.242188 126.996094 34.507812 126.585938 34.917969 C 124.523438 37.003906 124.648438 41.691406 126.890625 46.316406 C 129.136719 50.960938 132.742188 53.957031 135.664062 53.617188 C 136.230469 53.550781 136.777344 53.277344 137.199219 52.847656 L 137.839844 52.195312 C 137.84375 52.1875 137.847656 52.15625 137.84375 52.140625 L 135.691406 49.039062 C 135.628906 48.945312 135.402344 48.820312 135.289062 48.8125 L 134.894531 48.792969 C 134.644531 48.777344 134.367188 48.820312 134.074219 48.917969 C 132.242188 49.519531 130.570312 48.285156 129.097656 45.246094 C 127.632812 42.21875 127.695312 40.144531 129.285156 39.078125 C 129.558594 38.894531 129.8125 38.636719 130.039062 38.316406 L 130.136719 38.171875 C 130.203125 38.078125 130.246094 37.828125 130.210938 37.71875 L 129.109375 34.105469 C 129.105469 34.097656 129.074219 34.078125 129.058594 34.074219 Z M 135.203125 54.9375 C 131.84375 54.9375 128.105469 51.792969 125.726562 46.878906 C 123.210938 41.6875 123.1875 36.515625 125.671875 34.007812 C 126.285156 33.386719 127.128906 32.988281 128.039062 32.890625 L 128.921875 32.792969 C 129.539062 32.726562 130.164062 33.136719 130.347656 33.726562 L 131.449219 37.34375 C 131.597656 37.835938 131.488281 38.5 131.195312 38.917969 L 131.097656 39.058594 C 130.777344 39.511719 130.410156 39.878906 130.003906 40.152344 C 129.644531 40.394531 128.542969 41.132812 130.261719 44.679688 C 131.984375 48.242188 133.253906 47.824219 133.667969 47.691406 C 134.117188 47.542969 134.550781 47.480469 134.964844 47.5 L 135.363281 47.523438 C 135.875 47.554688 136.460938 47.878906 136.753906 48.296875 L 138.90625 51.40625 C 139.261719 51.914062 139.199219 52.660156 138.761719 53.105469 L 138.121094 53.753906 C 137.492188 54.390625 136.675781 54.796875 135.816406 54.902344 C 135.613281 54.925781 135.410156 54.9375 135.203125 54.9375 " fill-opacity="1" fill-rule="nonzero"/><path fill="#ffffff" d="M 93.347656 42.933594 C 93.347656 41.566406 92.242188 40.460938 90.875 40.460938 C 89.507812 40.460938 88.402344 41.566406 88.402344 42.933594 C 88.402344 44.300781 89.507812 45.40625 90.875 45.40625 C 92.242188 45.40625 93.347656 44.300781 93.347656 42.933594 " fill-opacity="1" fill-rule="nonzero"/><path fill="#ffffff" d="M 101.96875 42.933594 C 101.96875 41.566406 100.863281 40.460938 99.496094 40.460938 C 98.128906 40.460938 97.023438 41.566406 97.023438 42.933594 C 97.023438 44.300781 98.128906 45.40625 99.496094 45.40625 C 100.863281 45.40625 101.96875 44.300781 101.96875 42.933594 " fill-opacity="1" fill-rule="nonzero"/><path fill="#ffffff" d="M 110.589844 42.933594 C 110.589844 41.566406 109.480469 40.460938 108.117188 40.460938 C 106.75 40.460938 105.644531 41.566406 105.644531 42.933594 C 105.644531 44.300781 106.75 45.40625 108.117188 45.40625 C 109.480469 45.40625 110.589844 44.300781 110.589844 42.933594 " fill-opacity="1" fill-rule="nonzero"/><path fill="#ffffff" d="M 119.210938 42.933594 C 119.210938 41.566406 118.101562 40.460938 116.738281 40.460938 C 115.371094 40.460938 114.265625 41.566406 114.265625 42.933594 C 114.265625 44.300781 115.371094 45.40625 116.738281 45.40625 C 118.101562 45.40625 119.210938 44.300781 119.210938 42.933594 " fill-opacity="1" fill-rule="nonzero"/><path fill="#000000" d="M 73.238281 64.714844 L 51.234375 64.714844 C 47.6875 64.714844 44.800781 62.289062 44.800781 59.304688 L 44.800781 28.414062 C 44.800781 25.429688 47.6875 23.003906 51.234375 23.003906 L 100.714844 23.003906 C 101.070312 23.003906 101.359375 23.292969 101.359375 23.652344 C 101.359375 24.007812 101.070312 24.296875 100.714844 24.296875 L 51.234375 24.296875 C 48.398438 24.296875 46.09375 26.144531 46.09375 28.414062 L 46.09375 59.304688 C 46.09375 61.578125 48.398438 63.421875 51.234375 63.421875 L 73.238281 63.421875 C 73.597656 63.421875 73.886719 63.714844 73.886719 64.070312 C 73.886719 64.425781 73.597656 64.714844 73.238281 64.714844 " fill-opacity="1" fill-rule="nonzero"/><path fill="#ffffff" d="M 346.652344 268.1875 C 346.554688 268.1875 346.453125 268.164062 346.363281 268.117188 C 346.042969 267.957031 345.914062 267.566406 346.078125 267.25 C 361.394531 236.921875 362.964844 212.359375 361.585938 197.097656 C 360.09375 180.605469 354.953125 171.175781 354.898438 171.082031 C 354.726562 170.773438 354.839844 170.378906 355.152344 170.207031 C 355.464844 170.03125 355.859375 170.144531 356.03125 170.457031 C 356.25 170.847656 361.355469 180.214844 362.875 196.980469 C 364.265625 212.414062 362.683594 237.230469 347.230469 267.832031 C 347.117188 268.058594 346.890625 268.1875 346.652344 268.1875 " fill-opacity="1" fill-rule="nonzero"/><path fill="#ffffff" d="M 347.179688 248.285156 C 347.109375 248.285156 347.039062 248.273438 346.96875 248.25 C 346.632812 248.132812 346.453125 247.761719 346.570312 247.425781 C 355.464844 222.050781 354.757812 201.925781 352.597656 189.515625 C 352.535156 189.164062 352.769531 188.824219 353.125 188.765625 C 353.476562 188.703125 353.808594 188.9375 353.871094 189.292969 C 356.058594 201.855469 356.773438 222.214844 347.792969 247.855469 C 347.699219 248.121094 347.449219 248.285156 347.179688 248.285156 " fill-opacity="1" fill-rule="nonzero"/></svg>