<svg xmlns="http://www.w3.org/2000/svg" xmlns:xlink="http://www.w3.org/1999/xlink" width="500" zoomAndPan="magnify" viewBox="0 0 375 374.999991" height="500" preserveAspectRatio="xMidYMid meet" version="1.0"><path fill="#caddff" d="M 275.546875 10.667969 C 267.894531 8.203125 227.59375 0.9375 182.652344 5.613281 C 171.765625 6.746094 127.765625 11.324219 93.488281 35.136719 C 35.152344 75.667969 0.0234375 175.375 44.425781 256.960938 C 96.140625 351.992188 230.042969 375.183594 298.152344 327.40625 C 328.359375 306.21875 362.125 259.496094 358.59375 210.386719 C 355.75 170.859375 329.058594 134.101562 347.140625 111.453125 C 355.847656 100.542969 366.550781 103.414062 369.273438 94.582031 C 375.722656 73.632812 329.621094 28.082031 275.546875 10.667969 " fill-opacity="1" fill-rule="nonzero"/><path fill="#99b9ff" d="M 138.984375 129.210938 L 106 159.546875 L 22.5625 68.644531 L 55.546875 38.308594 L 138.984375 129.210938 " fill-opacity="1" fill-rule="nonzero"/><path fill="#caddff" d="M 77.449219 71.164062 L 53.78125 92.929688 L 32.828125 70.105469 L 56.496094 48.339844 L 77.449219 71.164062 " fill-opacity="1" fill-rule="nonzero"/><path fill="#caddff" d="M 102.886719 98.886719 L 79.222656 120.648438 L 58.273438 97.824219 L 81.9375 76.058594 L 102.886719 98.886719 " fill-opacity="1" fill-rule="nonzero"/><path fill="#caddff" d="M 128.347656 126.210938 L 104.683594 147.976562 L 83.730469 125.148438 L 107.394531 103.386719 L 128.347656 126.210938 " fill-opacity="1" fill-rule="nonzero"/><path fill="#99b9ff" d="M 151.367188 125.054688 L 109.207031 140.203125 L 67.554688 24.015625 L 109.714844 8.871094 L 151.367188 125.054688 " fill-opacity="1" fill-rule="nonzero"/><path fill="#5479f7" d="M 117.15625 47.660156 L 86.910156 58.523438 L 76.449219 29.347656 L 106.695312 18.480469 L 117.15625 47.660156 " fill-opacity="1" fill-rule="nonzero"/><path fill="#5479f7" d="M 129.859375 83.089844 L 99.609375 93.953125 L 89.152344 64.777344 L 119.398438 53.910156 L 129.859375 83.089844 " fill-opacity="1" fill-rule="nonzero"/><path fill="#5479f7" d="M 142.726562 118.164062 L 112.480469 129.027344 L 102.019531 99.851562 L 132.265625 88.984375 L 142.726562 118.164062 " fill-opacity="1" fill-rule="nonzero"/><path fill="#99b9ff" d="M 154.242188 136.898438 L 109.945312 130.246094 L 128.242188 8.171875 L 172.539062 14.824219 L 154.242188 136.898438 " fill-opacity="1" fill-rule="nonzero"/><path fill="#5479f7" d="M 129.671875 47.210938 L 160.210938 51.796875 L 164.621094 22.382812 L 134.082031 17.796875 Z M 160.738281 53.140625 C 160.710938 53.140625 160.679688 53.136719 160.648438 53.132812 L 128.867188 48.359375 C 128.523438 48.308594 128.285156 47.988281 128.339844 47.644531 L 132.933594 16.988281 C 132.984375 16.644531 133.300781 16.40625 133.648438 16.460938 L 165.429688 21.234375 C 165.59375 21.257812 165.742188 21.347656 165.839844 21.480469 C 165.9375 21.617188 165.980469 21.785156 165.957031 21.949219 L 161.363281 52.605469 C 161.335938 52.769531 161.246094 52.917969 161.113281 53.019531 C 161.003906 53.09375 160.875 53.140625 160.738281 53.140625 " fill-opacity="1" fill-rule="nonzero"/><path fill="#5479f7" d="M 124.09375 84.433594 L 154.632812 89.019531 L 159.042969 59.609375 L 128.503906 55.023438 Z M 155.160156 90.363281 C 155.132812 90.363281 155.097656 90.363281 155.070312 90.355469 L 123.289062 85.582031 C 122.945312 85.535156 122.707031 85.214844 122.757812 84.867188 L 127.355469 54.214844 C 127.40625 53.871094 127.722656 53.632812 128.066406 53.683594 L 159.847656 58.457031 C 160.191406 58.507812 160.429688 58.828125 160.378906 59.171875 L 155.78125 89.828125 C 155.757812 89.992188 155.667969 90.140625 155.535156 90.242188 C 155.425781 90.320312 155.292969 90.363281 155.160156 90.363281 " fill-opacity="1" fill-rule="nonzero"/><path fill="#5479f7" d="M 118.828125 121.429688 L 149.367188 126.015625 L 153.777344 96.601562 L 123.238281 92.015625 Z M 149.898438 127.355469 C 149.867188 127.355469 149.835938 127.355469 149.800781 127.351562 L 118.023438 122.578125 C 117.679688 122.527344 117.441406 122.207031 117.496094 121.863281 L 122.089844 91.207031 C 122.113281 91.042969 122.203125 90.894531 122.335938 90.796875 C 122.472656 90.695312 122.636719 90.652344 122.804688 90.675781 L 154.585938 95.453125 C 154.925781 95.503906 155.164062 95.820312 155.113281 96.167969 L 150.519531 126.820312 C 150.472656 127.132812 150.203125 127.355469 149.898438 127.355469 " fill-opacity="1" fill-rule="nonzero"/><path fill="#99b9ff" d="M 255.289062 72.507812 C 250.792969 72.148438 247.4375 68.210938 247.792969 63.710938 C 248.152344 59.207031 252.085938 55.851562 256.582031 56.207031 C 261.082031 56.566406 264.433594 60.503906 264.078125 65.003906 C 263.71875 69.503906 259.785156 72.867188 255.289062 72.507812 Z M 272.171875 67.242188 L 272.421875 64.078125 L 269.113281 63.046875 C 269.039062 62.304688 268.90625 61.574219 268.714844 60.871094 L 271.4375 58.730469 L 270.074219 55.863281 L 266.691406 56.628906 C 266.261719 56.027344 265.78125 55.464844 265.261719 54.945312 L 266.550781 51.726562 L 263.9375 49.925781 L 261.394531 52.277344 C 260.730469 51.972656 260.03125 51.730469 259.3125 51.539062 L 258.816406 48.105469 L 255.65625 47.855469 L 254.625 51.167969 C 253.886719 51.238281 253.15625 51.371094 252.453125 51.5625 L 250.316406 48.839844 L 247.449219 50.207031 L 248.214844 53.589844 C 247.617188 54.019531 247.054688 54.5 246.535156 55.023438 L 243.316406 53.734375 L 241.519531 56.351562 L 243.863281 58.894531 C 243.566406 59.558594 243.320312 60.257812 243.128906 60.980469 L 239.703125 61.472656 L 239.449219 64.636719 L 242.757812 65.667969 C 242.832031 66.410156 242.964844 67.136719 243.15625 67.84375 L 240.433594 69.984375 L 241.796875 72.855469 L 245.179688 72.085938 C 245.609375 72.6875 246.085938 73.25 246.613281 73.769531 L 245.324219 76.992188 L 247.9375 78.792969 L 250.476562 76.4375 C 251.144531 76.738281 251.839844 76.984375 252.5625 77.175781 L 253.054688 80.609375 L 256.214844 80.859375 L 257.246094 77.550781 C 257.988281 77.476562 258.714844 77.34375 259.417969 77.152344 L 261.558594 79.875 L 264.421875 78.507812 L 263.65625 75.125 C 264.257812 74.695312 264.816406 74.214844 265.339844 73.691406 L 268.554688 74.980469 L 270.355469 72.367188 L 268.003906 69.820312 C 268.304688 69.15625 268.554688 68.457031 268.742188 67.734375 L 272.171875 67.242188 " fill-opacity="1" fill-rule="nonzero"/><path fill="#ffffff" d="M 255.929688 56.8125 C 252.042969 56.8125 248.730469 59.8125 248.417969 63.761719 C 248.09375 67.910156 251.195312 71.550781 255.339844 71.882812 C 259.480469 72.207031 263.121094 69.105469 263.453125 64.957031 C 263.78125 60.808594 260.675781 57.164062 256.53125 56.835938 C 256.328125 56.820312 256.128906 56.8125 255.929688 56.8125 Z M 255.941406 73.164062 C 255.710938 73.164062 255.472656 73.152344 255.238281 73.132812 C 250.402344 72.75 246.785156 68.5 247.167969 63.660156 C 247.550781 58.820312 251.796875 55.195312 256.632812 55.582031 C 261.46875 55.964844 265.085938 60.214844 264.703125 65.054688 C 264.335938 69.660156 260.476562 73.164062 255.941406 73.164062 Z M 272.171875 67.242188 L 272.175781 67.242188 Z M 253.605469 80.023438 L 255.765625 80.195312 L 256.644531 77.363281 C 256.71875 77.121094 256.929688 76.949219 257.183594 76.921875 C 257.890625 76.851562 258.589844 76.726562 259.253906 76.546875 C 259.496094 76.480469 259.757812 76.5625 259.914062 76.761719 L 261.742188 79.089844 L 263.699219 78.15625 L 263.042969 75.265625 C 262.988281 75.019531 263.085938 74.761719 263.292969 74.617188 C 263.859375 74.207031 264.398438 73.746094 264.890625 73.25 C 265.070312 73.070312 265.335938 73.015625 265.570312 73.109375 L 268.324219 74.214844 L 269.550781 72.425781 L 267.542969 70.25 C 267.371094 70.0625 267.328125 69.792969 267.433594 69.5625 C 267.71875 68.933594 267.953125 68.265625 268.132812 67.574219 C 268.195312 67.332031 268.402344 67.148438 268.652344 67.113281 L 271.585938 66.691406 L 271.753906 64.53125 L 268.925781 63.648438 C 268.683594 63.574219 268.511719 63.359375 268.488281 63.109375 C 268.417969 62.398438 268.292969 61.703125 268.109375 61.035156 C 268.042969 60.792969 268.128906 60.53125 268.328125 60.378906 L 270.652344 58.546875 L 269.722656 56.589844 L 266.832031 57.242188 C 266.585938 57.300781 266.328125 57.199219 266.183594 56.996094 C 265.773438 56.425781 265.316406 55.886719 264.816406 55.390625 C 264.636719 55.214844 264.582031 54.945312 264.679688 54.714844 L 265.777344 51.957031 L 263.992188 50.730469 L 261.820312 52.738281 C 261.632812 52.910156 261.367188 52.953125 261.136719 52.847656 C 260.503906 52.566406 259.835938 52.328125 259.152344 52.148438 C 258.90625 52.082031 258.722656 51.878906 258.6875 51.628906 L 258.265625 48.695312 L 256.105469 48.519531 L 255.226562 51.355469 C 255.152344 51.59375 254.9375 51.769531 254.6875 51.792969 C 253.980469 51.863281 253.285156 51.992188 252.617188 52.171875 C 252.375 52.238281 252.113281 52.152344 251.957031 51.953125 L 250.128906 49.625 L 248.171875 50.558594 L 248.824219 53.453125 C 248.882812 53.699219 248.78125 53.953125 248.578125 54.101562 C 248.007812 54.511719 247.472656 54.96875 246.976562 55.46875 C 246.800781 55.644531 246.535156 55.703125 246.300781 55.609375 L 243.546875 54.503906 L 242.320312 56.292969 L 244.324219 58.46875 C 244.5 58.652344 244.542969 58.921875 244.4375 59.152344 C 244.152344 59.78125 243.917969 60.449219 243.734375 61.140625 C 243.671875 61.386719 243.46875 61.566406 243.21875 61.605469 L 240.285156 62.023438 L 240.113281 64.1875 L 242.945312 65.070312 C 243.183594 65.144531 243.359375 65.355469 243.382812 65.609375 C 243.449219 66.316406 243.578125 67.011719 243.761719 67.679688 C 243.824219 67.925781 243.742188 68.183594 243.542969 68.339844 L 241.21875 70.167969 L 242.148438 72.128906 L 245.039062 71.476562 C 245.285156 71.417969 245.542969 71.515625 245.6875 71.722656 C 246.097656 72.292969 246.554688 72.828125 247.054688 73.324219 C 247.230469 73.5 247.285156 73.769531 247.191406 74.003906 L 246.089844 76.757812 L 247.878906 77.988281 L 250.050781 75.980469 C 250.234375 75.808594 250.503906 75.765625 250.734375 75.867188 C 251.363281 76.152344 252.03125 76.386719 252.722656 76.570312 C 252.964844 76.632812 253.148438 76.835938 253.183594 77.089844 Z M 256.214844 81.488281 C 256.199219 81.488281 256.183594 81.488281 256.167969 81.488281 L 253.003906 81.234375 C 252.710938 81.214844 252.476562 80.988281 252.433594 80.699219 L 252 77.671875 C 251.523438 77.53125 251.050781 77.367188 250.601562 77.179688 L 248.363281 79.253906 C 248.144531 79.453125 247.820312 79.476562 247.578125 79.308594 L 244.964844 77.507812 C 244.722656 77.34375 244.628906 77.03125 244.738281 76.757812 L 245.875 73.917969 C 245.539062 73.558594 245.21875 73.183594 244.917969 72.792969 L 241.9375 73.46875 C 241.648438 73.53125 241.359375 73.390625 241.230469 73.125 L 239.867188 70.257812 C 239.742188 69.992188 239.816406 69.675781 240.046875 69.492188 L 242.445312 67.601562 C 242.332031 67.128906 242.242188 66.640625 242.179688 66.148438 L 239.261719 65.238281 C 238.980469 65.152344 238.800781 64.882812 238.820312 64.589844 L 239.074219 61.421875 C 239.097656 61.132812 239.320312 60.894531 239.609375 60.851562 L 242.632812 60.417969 C 242.773438 59.941406 242.9375 59.472656 243.128906 59.019531 L 241.054688 56.777344 C 240.855469 56.5625 240.832031 56.234375 241 55.992188 L 242.796875 53.378906 C 242.964844 53.136719 243.273438 53.042969 243.550781 53.148438 L 246.386719 54.289062 C 246.742188 53.949219 247.121094 53.628906 247.511719 53.332031 L 246.835938 50.34375 C 246.769531 50.058594 246.914062 49.765625 247.179688 49.640625 L 250.042969 48.273438 C 250.308594 48.148438 250.625 48.222656 250.804688 48.453125 L 252.691406 50.855469 C 253.167969 50.738281 253.65625 50.652344 254.148438 50.589844 L 255.054688 47.667969 C 255.140625 47.386719 255.414062 47.207031 255.703125 47.226562 L 258.867188 47.480469 C 259.160156 47.503906 259.394531 47.726562 259.4375 48.019531 L 259.871094 51.046875 C 260.347656 51.1875 260.816406 51.351562 261.265625 51.539062 L 263.507812 49.464844 C 263.726562 49.265625 264.046875 49.242188 264.292969 49.40625 L 266.90625 51.207031 C 267.148438 51.375 267.238281 51.6875 267.128906 51.960938 L 265.996094 54.800781 C 266.332031 55.15625 266.652344 55.535156 266.953125 55.925781 L 269.9375 55.25 C 270.222656 55.183594 270.511719 55.328125 270.640625 55.59375 L 272.003906 58.460938 C 272.128906 58.726562 272.054688 59.042969 271.824219 59.226562 L 269.425781 61.109375 C 269.539062 61.589844 269.628906 62.074219 269.691406 62.570312 L 272.609375 63.476562 C 272.886719 63.5625 273.070312 63.835938 273.046875 64.125 L 272.796875 67.292969 C 272.773438 67.585938 272.550781 67.824219 272.257812 67.867188 L 269.234375 68.300781 C 269.09375 68.777344 268.929688 69.246094 268.742188 69.695312 L 270.8125 71.941406 C 271.015625 72.15625 271.039062 72.480469 270.871094 72.722656 L 269.074219 75.339844 C 268.90625 75.582031 268.59375 75.671875 268.320312 75.566406 L 265.480469 74.429688 C 265.128906 74.765625 264.75 75.089844 264.359375 75.386719 L 265.03125 78.371094 C 265.097656 78.65625 264.957031 78.953125 264.691406 79.078125 L 261.828125 80.441406 C 261.5625 80.570312 261.242188 80.496094 261.0625 80.265625 L 259.175781 77.863281 C 258.703125 77.976562 258.214844 78.066406 257.722656 78.128906 L 256.816406 81.046875 C 256.734375 81.3125 256.488281 81.488281 256.214844 81.488281 " fill-opacity="1" fill-rule="nonzero"/><path fill="#99b9ff" d="M 218.769531 56.398438 C 212.335938 56.609375 206.953125 51.566406 206.738281 45.128906 C 206.523438 38.691406 211.566406 33.304688 217.996094 33.089844 C 224.425781 32.875 229.808594 37.921875 230.027344 44.359375 C 230.238281 50.792969 225.199219 56.183594 218.769531 56.398438 Z M 241.855469 46.234375 L 241.703125 41.707031 L 236.847656 40.777344 C 236.628906 39.734375 236.324219 38.722656 235.9375 37.753906 L 239.453125 34.285156 L 237.058594 30.4375 L 232.390625 32.066406 C 231.6875 31.285156 230.917969 30.566406 230.089844 29.910156 L 231.402344 25.140625 L 227.414062 23.007812 L 224.1875 26.746094 C 223.195312 26.425781 222.167969 26.191406 221.113281 26.035156 L 219.867188 21.25 L 215.34375 21.398438 L 214.417969 26.257812 C 213.375 26.480469 212.367188 26.785156 211.402344 27.171875 L 207.933594 23.652344 L 204.09375 26.046875 L 205.714844 30.71875 C 204.9375 31.425781 204.21875 32.195312 203.566406 33.019531 L 198.796875 31.710938 L 196.667969 35.703125 L 200.402344 38.933594 C 200.082031 39.925781 199.84375 40.953125 199.695312 42.007812 L 194.910156 43.257812 L 195.058594 47.785156 L 199.914062 48.710938 C 200.136719 49.753906 200.441406 50.765625 200.828125 51.734375 L 197.3125 55.203125 L 199.703125 59.050781 L 204.375 57.421875 C 205.078125 58.203125 205.84375 58.925781 206.671875 59.578125 L 205.359375 64.347656 L 209.351562 66.480469 L 212.578125 62.742188 C 213.566406 63.0625 214.597656 63.300781 215.648438 63.449219 L 216.898438 68.238281 L 221.417969 68.089844 L 222.347656 63.230469 C 223.386719 63.007812 224.394531 62.703125 225.363281 62.316406 L 228.832031 65.835938 L 232.671875 63.441406 L 231.046875 58.769531 C 231.828125 58.0625 232.546875 57.292969 233.199219 56.464844 L 237.964844 57.78125 L 240.097656 53.785156 L 236.359375 50.554688 C 236.679688 49.5625 236.917969 48.535156 237.074219 47.476562 L 241.855469 46.234375 " fill-opacity="1" fill-rule="nonzero"/><path fill="#ffffff" d="M 218.386719 33.710938 C 218.265625 33.710938 218.140625 33.714844 218.015625 33.714844 C 215.074219 33.816406 212.347656 35.054688 210.335938 37.203125 C 208.324219 39.355469 207.269531 42.164062 207.367188 45.109375 C 207.464844 48.054688 208.699219 50.785156 210.851562 52.796875 C 213 54.8125 215.804688 55.871094 218.75 55.769531 C 221.691406 55.671875 224.417969 54.433594 226.429688 52.28125 C 228.441406 50.128906 229.496094 47.324219 229.398438 44.378906 C 229.203125 38.421875 224.296875 33.710938 218.386719 33.710938 Z M 218.375 57.03125 C 215.246094 57.03125 212.285156 55.863281 209.992188 53.71875 C 207.597656 51.472656 206.222656 48.429688 206.113281 45.152344 C 206.003906 41.871094 207.175781 38.742188 209.417969 36.347656 C 211.660156 33.949219 214.699219 32.570312 217.976562 32.460938 C 224.742188 32.234375 230.429688 37.566406 230.652344 44.335938 C 230.761719 47.617188 229.589844 50.746094 227.347656 53.140625 C 225.105469 55.535156 222.070312 56.917969 218.789062 57.027344 C 218.648438 57.03125 218.511719 57.03125 218.375 57.03125 Z M 212.578125 62.113281 C 212.640625 62.113281 212.707031 62.121094 212.769531 62.140625 C 213.71875 62.449219 214.71875 62.683594 215.738281 62.832031 C 215.992188 62.867188 216.195312 63.046875 216.257812 63.292969 L 217.375 67.59375 L 220.898438 67.476562 L 221.730469 63.113281 C 221.777344 62.863281 221.96875 62.667969 222.214844 62.613281 C 223.222656 62.398438 224.203125 62.101562 225.132812 61.730469 C 225.367188 61.640625 225.632812 61.695312 225.8125 61.875 L 228.925781 65.035156 L 231.914062 63.175781 L 230.457031 58.972656 C 230.375 58.738281 230.441406 58.472656 230.628906 58.300781 C 231.378906 57.621094 232.082031 56.871094 232.707031 56.074219 C 232.863281 55.878906 233.125 55.792969 233.367188 55.859375 L 237.648438 57.039062 L 239.308594 53.929688 L 235.953125 51.03125 C 235.761719 50.863281 235.6875 50.601562 235.765625 50.359375 C 236.074219 49.40625 236.300781 48.410156 236.449219 47.390625 C 236.488281 47.140625 236.667969 46.9375 236.914062 46.871094 L 241.210938 45.75 L 241.09375 42.226562 L 236.730469 41.394531 C 236.484375 41.347656 236.289062 41.15625 236.234375 40.90625 C 236.019531 39.898438 235.722656 38.914062 235.355469 37.988281 C 235.257812 37.75 235.316406 37.484375 235.496094 37.304688 L 238.65625 34.1875 L 236.792969 31.199219 L 232.597656 32.65625 C 232.359375 32.738281 232.097656 32.675781 231.925781 32.484375 C 231.246094 31.734375 230.5 31.035156 229.703125 30.402344 C 229.507812 30.25 229.421875 29.988281 229.488281 29.746094 L 230.664062 25.457031 L 227.558594 23.796875 L 224.660156 27.15625 C 224.496094 27.347656 224.234375 27.421875 223.992188 27.34375 C 223.042969 27.035156 222.042969 26.808594 221.023438 26.660156 C 220.773438 26.621094 220.570312 26.4375 220.507812 26.195312 L 219.386719 21.894531 L 215.871094 22.011719 L 215.035156 26.375 C 214.988281 26.625 214.792969 26.820312 214.546875 26.871094 C 213.542969 27.089844 212.558594 27.382812 211.632812 27.753906 C 211.398438 27.847656 211.132812 27.789062 210.953125 27.613281 L 207.839844 24.449219 L 204.847656 26.3125 L 206.308594 30.511719 C 206.394531 30.753906 206.324219 31.015625 206.136719 31.1875 C 205.386719 31.867188 204.6875 32.617188 204.058594 33.410156 C 203.902344 33.609375 203.640625 33.695312 203.398438 33.625 L 199.113281 32.445312 L 197.457031 35.558594 L 200.8125 38.457031 C 201.003906 38.621094 201.078125 38.886719 201 39.125 C 200.691406 40.078125 200.460938 41.078125 200.3125 42.097656 C 200.277344 42.351562 200.097656 42.554688 199.851562 42.617188 L 195.554688 43.738281 L 195.671875 47.261719 L 200.03125 48.09375 C 200.28125 48.140625 200.476562 48.335938 200.527344 48.582031 C 200.746094 49.589844 201.039062 50.570312 201.410156 51.5 C 201.503906 51.738281 201.445312 52.003906 201.265625 52.179688 L 198.109375 55.296875 L 199.972656 58.289062 L 204.164062 56.828125 C 204.40625 56.746094 204.667969 56.816406 204.839844 57 C 205.515625 57.753906 206.265625 58.453125 207.0625 59.082031 C 207.257812 59.242188 207.34375 59.5 207.277344 59.746094 L 206.101562 64.03125 L 209.203125 65.691406 L 212.101562 62.332031 C 212.222656 62.191406 212.398438 62.113281 212.578125 62.113281 Z M 216.894531 68.867188 C 216.609375 68.867188 216.359375 68.675781 216.289062 68.398438 L 215.144531 64.007812 C 214.339844 63.875 213.550781 63.691406 212.785156 63.464844 L 209.824219 66.890625 C 209.636719 67.117188 209.3125 67.171875 209.054688 67.035156 L 205.0625 64.902344 C 204.804688 64.765625 204.675781 64.464844 204.753906 64.179688 L 205.957031 59.804688 C 205.335938 59.292969 204.742188 58.738281 204.191406 58.152344 L 199.910156 59.644531 C 199.632812 59.738281 199.324219 59.632812 199.171875 59.382812 L 196.777344 55.535156 C 196.625 55.285156 196.664062 54.964844 196.871094 54.753906 L 200.09375 51.574219 C 199.816406 50.824219 199.582031 50.046875 199.390625 49.253906 L 194.941406 48.402344 C 194.652344 48.347656 194.441406 48.097656 194.433594 47.804688 L 194.28125 43.277344 C 194.273438 42.984375 194.46875 42.722656 194.753906 42.648438 L 199.136719 41.503906 C 199.269531 40.699219 199.453125 39.90625 199.679688 39.140625 L 196.253906 36.179688 C 196.035156 35.988281 195.972656 35.667969 196.113281 35.410156 L 198.246094 31.410156 C 198.382812 31.152344 198.679688 31.023438 198.964844 31.101562 L 203.335938 32.304688 C 203.847656 31.683594 204.402344 31.09375 204.988281 30.535156 L 203.5 26.253906 C 203.402344 25.976562 203.507812 25.667969 203.761719 25.511719 L 207.601562 23.117188 C 207.851562 22.964844 208.175781 23 208.378906 23.210938 L 211.558594 26.4375 C 212.304688 26.15625 213.085938 25.921875 213.878906 25.734375 L 214.730469 21.28125 C 214.78125 20.992188 215.03125 20.777344 215.324219 20.769531 L 219.847656 20.621094 C 220.140625 20.601562 220.402344 20.804688 220.476562 21.089844 L 221.617188 25.480469 C 222.421875 25.613281 223.214844 25.796875 223.980469 26.023438 L 226.9375 22.59375 C 227.128906 22.375 227.449219 22.3125 227.710938 22.453125 L 231.699219 24.585938 C 231.957031 24.726562 232.085938 25.023438 232.011719 25.304688 L 230.808594 29.679688 C 231.425781 30.195312 232.019531 30.75 232.574219 31.335938 L 236.855469 29.847656 C 237.132812 29.75 237.441406 29.859375 237.59375 30.105469 L 239.984375 33.953125 C 240.140625 34.203125 240.101562 34.527344 239.894531 34.730469 L 236.671875 37.910156 C 236.949219 38.660156 237.1875 39.4375 237.371094 40.238281 L 241.820312 41.085938 C 242.109375 41.140625 242.324219 41.390625 242.332031 41.683594 L 242.480469 46.210938 C 242.492188 46.503906 242.296875 46.765625 242.011719 46.839844 L 237.628906 47.984375 C 237.492188 48.789062 237.3125 49.578125 237.082031 50.347656 L 240.507812 53.308594 C 240.730469 53.5 240.789062 53.820312 240.652344 54.082031 L 238.519531 58.074219 C 238.382812 58.335938 238.082031 58.460938 237.800781 58.386719 L 233.429688 57.183594 C 232.914062 57.804688 232.363281 58.394531 231.777344 58.949219 L 233.265625 63.234375 C 233.363281 63.511719 233.253906 63.820312 233.003906 63.972656 L 229.164062 66.367188 C 228.914062 66.523438 228.589844 66.484375 228.386719 66.277344 L 225.207031 63.050781 C 224.457031 63.328125 223.679688 63.566406 222.886719 63.753906 L 222.035156 68.207031 C 221.980469 68.496094 221.734375 68.707031 221.4375 68.71875 L 216.917969 68.867188 C 216.910156 68.867188 216.902344 68.867188 216.894531 68.867188 " fill-opacity="1" fill-rule="nonzero"/><path fill="#000000" d="M 123.207031 202.492188 C 123.09375 202.492188 122.980469 202.460938 122.878906 202.398438 L 120.632812 201.023438 C 120.339844 200.839844 120.246094 200.453125 120.425781 200.15625 C 120.609375 199.863281 120.996094 199.769531 121.289062 199.949219 L 123.535156 201.328125 C 123.832031 201.507812 123.921875 201.894531 123.742188 202.191406 C 123.625 202.386719 123.417969 202.492188 123.207031 202.492188 " fill-opacity="1" fill-rule="nonzero"/><path fill="#000000" d="M 131.0625 207.3125 C 130.949219 207.3125 130.835938 207.285156 130.734375 207.21875 L 128.488281 205.84375 C 128.195312 205.660156 128.101562 205.273438 128.28125 204.980469 C 128.464844 204.679688 128.847656 204.589844 129.144531 204.773438 L 131.390625 206.148438 C 131.683594 206.332031 131.777344 206.71875 131.597656 207.011719 C 131.476562 207.207031 131.273438 207.3125 131.0625 207.3125 " fill-opacity="1" fill-rule="nonzero"/><path fill="#000000" d="M 122.945312 209.285156 C 122.835938 209.285156 122.722656 209.257812 122.621094 209.195312 C 122.324219 209.015625 122.230469 208.628906 122.410156 208.332031 L 123.769531 206.078125 C 123.949219 205.78125 124.335938 205.683594 124.632812 205.867188 C 124.929688 206.046875 125.027344 206.429688 124.847656 206.730469 L 123.484375 208.984375 C 123.367188 209.179688 123.160156 209.285156 122.945312 209.285156 " fill-opacity="1" fill-rule="nonzero"/><path fill="#000000" d="M 127.714844 201.394531 C 127.605469 201.394531 127.492188 201.367188 127.390625 201.304688 C 127.09375 201.125 127 200.738281 127.179688 200.441406 L 128.539062 198.1875 C 128.71875 197.890625 129.105469 197.792969 129.402344 197.976562 C 129.699219 198.152344 129.792969 198.539062 129.617188 198.835938 L 128.253906 201.09375 C 128.132812 201.289062 127.925781 201.394531 127.714844 201.394531 " fill-opacity="1" fill-rule="nonzero"/><path fill="#000000" d="M 311.089844 299.480469 C 310.761719 299.480469 310.488281 299.230469 310.460938 298.902344 L 310.210938 295.660156 C 310.183594 295.3125 310.441406 295.011719 310.789062 294.984375 C 311.136719 294.949219 311.4375 295.214844 311.460938 295.5625 L 311.714844 298.800781 C 311.742188 299.148438 311.484375 299.449219 311.136719 299.476562 C 311.121094 299.480469 311.105469 299.480469 311.089844 299.480469 " fill-opacity="1" fill-rule="nonzero"/><path fill="#000000" d="M 311.675781 307.03125 C 311.347656 307.03125 311.074219 306.777344 311.050781 306.449219 L 310.796875 303.207031 C 310.773438 302.863281 311.03125 302.558594 311.375 302.53125 C 311.722656 302.503906 312.023438 302.765625 312.050781 303.113281 L 312.304688 306.351562 C 312.328125 306.699219 312.070312 307 311.722656 307.027344 C 311.707031 307.027344 311.691406 307.03125 311.675781 307.03125 " fill-opacity="1" fill-rule="nonzero"/><path fill="#000000" d="M 305.867188 302.054688 C 305.542969 302.054688 305.265625 301.804688 305.238281 301.472656 C 305.214844 301.128906 305.472656 300.824219 305.820312 300.796875 L 309.058594 300.546875 C 309.40625 300.507812 309.703125 300.777344 309.730469 301.125 C 309.757812 301.472656 309.496094 301.773438 309.152344 301.800781 L 305.914062 302.050781 C 305.898438 302.050781 305.882812 302.054688 305.867188 302.054688 " fill-opacity="1" fill-rule="nonzero"/><path fill="#000000" d="M 313.40625 301.464844 C 313.082031 301.464844 312.808594 301.214844 312.785156 300.886719 C 312.757812 300.539062 313.015625 300.238281 313.359375 300.210938 L 316.597656 299.960938 C 316.949219 299.925781 317.246094 300.191406 317.273438 300.535156 C 317.300781 300.882812 317.042969 301.1875 316.695312 301.210938 L 313.457031 301.464844 C 313.441406 301.464844 313.425781 301.464844 313.40625 301.464844 " fill-opacity="1" fill-rule="nonzero"/><path fill="#000000" d="M 196.074219 9.484375 C 196.035156 9.484375 196 9.480469 195.960938 9.472656 C 195.621094 9.410156 195.394531 9.082031 195.457031 8.742188 L 196.039062 5.546875 C 196.101562 5.203125 196.429688 4.976562 196.769531 5.039062 C 197.113281 5.101562 197.335938 5.429688 197.273438 5.769531 L 196.691406 8.96875 C 196.636719 9.273438 196.371094 9.484375 196.074219 9.484375 " fill-opacity="1" fill-rule="nonzero"/><path fill="#000000" d="M 194.714844 16.933594 C 194.675781 16.933594 194.636719 16.929688 194.597656 16.921875 C 194.257812 16.859375 194.03125 16.53125 194.09375 16.191406 L 194.679688 12.992188 C 194.742188 12.652344 195.070312 12.425781 195.410156 12.488281 C 195.75 12.550781 195.976562 12.878906 195.914062 13.21875 L 195.328125 16.417969 C 195.273438 16.71875 195.011719 16.933594 194.714844 16.933594 " fill-opacity="1" fill-rule="nonzero"/><path fill="#000000" d="M 193.558594 11.222656 C 193.523438 11.222656 193.484375 11.21875 193.445312 11.210938 L 190.253906 10.625 C 189.910156 10.5625 189.6875 10.238281 189.746094 9.898438 C 189.8125 9.554688 190.140625 9.328125 190.476562 9.390625 L 193.671875 9.976562 C 194.015625 10.039062 194.238281 10.363281 194.175781 10.707031 C 194.121094 11.011719 193.859375 11.222656 193.558594 11.222656 " fill-opacity="1" fill-rule="nonzero"/><path fill="#000000" d="M 201.003906 12.585938 C 200.964844 12.585938 200.929688 12.582031 200.890625 12.574219 L 197.695312 11.988281 C 197.355469 11.925781 197.128906 11.597656 197.1875 11.257812 C 197.25 10.914062 197.578125 10.691406 197.921875 10.753906 L 201.117188 11.339844 C 201.457031 11.398438 201.683594 11.730469 201.621094 12.066406 C 201.566406 12.371094 201.300781 12.585938 201.003906 12.585938 " fill-opacity="1" fill-rule="nonzero"/><path fill="#000000" d="M 35.027344 214.035156 C 34.640625 214.035156 34.257812 214.140625 33.921875 214.351562 C 33.445312 214.648438 33.113281 215.113281 32.984375 215.660156 C 32.859375 216.207031 32.953125 216.769531 33.246094 217.246094 C 33.542969 217.722656 34.007812 218.054688 34.554688 218.183594 C 35.679688 218.445312 36.8125 217.742188 37.074219 216.617188 C 37.339844 215.488281 36.636719 214.355469 35.507812 214.089844 C 35.347656 214.050781 35.1875 214.035156 35.027344 214.035156 Z M 35.03125 219.496094 C 34.777344 219.496094 34.523438 219.46875 34.269531 219.410156 C 33.394531 219.207031 32.652344 218.671875 32.179688 217.910156 C 31.707031 217.148438 31.558594 216.246094 31.761719 215.375 C 31.964844 214.5 32.496094 213.757812 33.257812 213.28125 C 34.019531 212.8125 34.921875 212.664062 35.792969 212.867188 C 37.597656 213.285156 38.71875 215.097656 38.300781 216.898438 C 37.9375 218.449219 36.554688 219.496094 35.03125 219.496094 " fill-opacity="1" fill-rule="nonzero"/><path fill="#000000" d="M 209.597656 340.34375 C 207.75 340.34375 205.910156 340.300781 204.078125 340.214844 C 203.730469 340.195312 203.464844 339.902344 203.480469 339.554688 C 203.496094 339.210938 203.789062 338.9375 204.136719 338.957031 C 226.996094 340.039062 250.820312 334.265625 273.039062 322.25 C 273.34375 322.085938 273.722656 322.199219 273.890625 322.503906 C 274.054688 322.808594 273.941406 323.191406 273.636719 323.355469 C 253 334.519531 230.976562 340.34375 209.597656 340.34375 " fill-opacity="1" fill-rule="nonzero"/><path fill="#000000" d="M 210.800781 347.535156 C 207.769531 347.535156 204.75 347.417969 201.753906 347.1875 C 199.652344 347.027344 197.550781 346.804688 195.5 346.53125 C 195.15625 346.484375 194.914062 346.167969 194.960938 345.824219 C 195.007812 345.480469 195.324219 345.242188 195.664062 345.285156 C 197.691406 345.554688 199.773438 345.773438 201.851562 345.9375 C 230.925781 348.175781 261.929688 339.351562 289.152344 321.089844 C 289.441406 320.894531 289.832031 320.972656 290.027344 321.257812 C 290.21875 321.546875 290.140625 321.941406 289.855469 322.132812 C 265.199219 338.671875 237.453125 347.535156 210.800781 347.535156 " fill-opacity="1" fill-rule="nonzero"/><path fill="#000000" d="M 37.375 189.703125 C 37.054688 189.703125 36.777344 189.457031 36.75 189.128906 C 35.898438 178.777344 36.296875 168.570312 37.933594 158.792969 C 37.992188 158.449219 38.316406 158.21875 38.65625 158.273438 C 39 158.332031 39.230469 158.65625 39.171875 159 C 37.554688 168.679688 37.160156 178.777344 38.003906 189.023438 C 38.03125 189.371094 37.773438 189.675781 37.429688 189.703125 C 37.410156 189.703125 37.394531 189.703125 37.375 189.703125 " fill-opacity="1" fill-rule="nonzero"/><path fill="#000000" d="M 31.515625 202.179688 C 31.214844 202.179688 30.949219 201.960938 30.894531 201.65625 C 28.253906 185.8125 28.386719 170.335938 31.289062 155.65625 C 31.699219 153.589844 32.167969 151.523438 32.679688 149.515625 C 32.765625 149.179688 33.109375 148.980469 33.445312 149.066406 C 33.78125 149.152344 33.984375 149.496094 33.898438 149.832031 C 33.386719 151.816406 32.925781 153.855469 32.523438 155.902344 C 29.648438 170.429688 29.519531 185.753906 32.136719 201.449219 C 32.191406 201.789062 31.960938 202.113281 31.621094 202.171875 C 31.582031 202.175781 31.550781 202.179688 31.515625 202.179688 " fill-opacity="1" fill-rule="nonzero"/><path fill="#000000" d="M 33.023438 135.070312 C 32.742188 135.070312 32.484375 134.878906 32.414062 134.589844 C 32.332031 134.253906 32.542969 133.914062 32.878906 133.832031 L 35.4375 133.214844 C 35.777344 133.136719 36.113281 133.34375 36.195312 133.679688 C 36.277344 134.019531 36.070312 134.359375 35.730469 134.441406 L 33.171875 135.054688 C 33.121094 135.066406 33.074219 135.070312 33.023438 135.070312 " fill-opacity="1" fill-rule="nonzero"/><path fill="#000000" d="M 41.984375 132.921875 C 41.699219 132.921875 41.441406 132.726562 41.375 132.4375 C 41.292969 132.101562 41.5 131.761719 41.835938 131.679688 L 44.398438 131.066406 C 44.734375 130.984375 45.074219 131.191406 45.152344 131.53125 C 45.234375 131.867188 45.027344 132.207031 44.6875 132.289062 L 42.128906 132.902344 C 42.082031 132.914062 42.03125 132.921875 41.984375 132.921875 " fill-opacity="1" fill-rule="nonzero"/><path fill="#000000" d="M 40.199219 139.449219 C 39.914062 139.449219 39.660156 139.253906 39.589844 138.96875 L 38.960938 136.410156 C 38.878906 136.070312 39.082031 135.730469 39.421875 135.648438 C 39.757812 135.566406 40.097656 135.773438 40.179688 136.109375 L 40.808594 138.667969 C 40.890625 139.003906 40.6875 139.34375 40.347656 139.429688 C 40.300781 139.441406 40.25 139.449219 40.199219 139.449219 " fill-opacity="1" fill-rule="nonzero"/><path fill="#000000" d="M 37.996094 130.488281 C 37.714844 130.488281 37.457031 130.296875 37.386719 130.011719 L 36.757812 127.453125 C 36.675781 127.113281 36.882812 126.773438 37.21875 126.691406 C 37.558594 126.609375 37.894531 126.8125 37.980469 127.152344 L 38.609375 129.710938 C 38.691406 130.046875 38.484375 130.390625 38.148438 130.46875 C 38.097656 130.484375 38.046875 130.488281 37.996094 130.488281 " fill-opacity="1" fill-rule="nonzero"/><path fill="#000000" d="M 178.78125 342.003906 C 178.671875 343.21875 179.570312 344.296875 180.78125 344.40625 C 181.371094 344.457031 181.945312 344.28125 182.398438 343.902344 C 182.851562 343.523438 183.132812 342.988281 183.183594 342.402344 C 183.238281 341.8125 183.058594 341.238281 182.679688 340.785156 C 182.300781 340.332031 181.769531 340.050781 181.179688 340 C 179.972656 339.890625 178.890625 340.785156 178.78125 342.003906 Z M 180.988281 345.671875 C 180.882812 345.671875 180.777344 345.667969 180.667969 345.65625 C 178.765625 345.484375 177.359375 343.792969 177.53125 341.890625 C 177.703125 339.984375 179.394531 338.582031 181.296875 338.746094 C 182.21875 338.828125 183.050781 339.269531 183.644531 339.980469 C 184.238281 340.691406 184.519531 341.59375 184.433594 342.515625 C 184.351562 343.4375 183.914062 344.273438 183.203125 344.867188 C 182.574219 345.390625 181.796875 345.671875 180.988281 345.671875 " fill-opacity="1" fill-rule="nonzero"/><path fill="#000000" d="M 92.964844 267.375 C 92.621094 267.375 92.339844 267.09375 92.335938 266.75 C 92.335938 266.402344 92.617188 266.117188 92.960938 266.117188 L 205.996094 265.5625 C 206.34375 265.5625 206.625 265.84375 206.625 266.1875 C 206.628906 266.535156 206.347656 266.816406 206 266.816406 L 92.96875 267.375 C 92.96875 267.375 92.964844 267.375 92.964844 267.375 " fill-opacity="1" fill-rule="nonzero"/><path fill="#99b9ff" d="M 256.667969 244.835938 L 190.777344 245.246094 C 190.351562 245.246094 190.210938 245.648438 190.210938 246.027344 L 190.210938 302.140625 C 190.210938 307.511719 152.777344 321.472656 152.414062 320.761719 L 152.363281 326.699219 C 152.363281 327.804688 153.335938 328.789062 154.574219 328.789062 L 155.394531 328.789062 C 155.402344 328.789062 155.40625 328.789062 155.414062 328.789062 L 210.65625 328.789062 C 213.21875 328.789062 215.75 328.210938 218.070312 327.242188 L 248.445312 314.4375 C 253.914062 312.132812 257.363281 307.183594 257.363281 301.785156 L 257.363281 245.613281 C 257.363281 245.234375 257.09375 244.835938 256.667969 244.835938 " fill-opacity="1" fill-rule="nonzero"/><path fill="#ffffff" d="M 183.539062 241.980469 L 183.539062 298.105469 C 183.539062 303.640625 179.984375 308.679688 174.394531 311.066406 L 153.902344 319.824219 C 152.566406 320.394531 153.023438 322.1875 154.507812 322.1875 L 210.800781 322.1875 C 213.332031 322.1875 215.835938 321.6875 218.125 320.726562 L 240.824219 311.15625 C 246.457031 308.78125 250.046875 303.722656 250.046875 298.160156 L 250.046875 241.980469 C 250.046875 241.75 249.839844 241.566406 249.582031 241.566406 L 184.007812 241.566406 C 183.75 241.566406 183.539062 241.75 183.539062 241.980469 " fill-opacity="1" fill-rule="nonzero"/><path fill="#000000" d="M 208.691406 322.820312 L 154.507812 322.820312 C 153.519531 322.820312 152.703125 322.191406 152.519531 321.289062 C 152.34375 320.433594 152.800781 319.609375 153.65625 319.242188 L 174.148438 310.488281 C 179.472656 308.214844 182.910156 303.355469 182.910156 298.105469 L 182.910156 277.761719 C 182.910156 277.414062 183.191406 277.136719 183.539062 277.136719 C 183.886719 277.136719 184.167969 277.414062 184.167969 277.761719 L 184.167969 298.105469 C 184.167969 303.859375 180.429688 309.175781 174.640625 311.644531 L 154.148438 320.398438 C 153.710938 320.589844 153.722656 320.910156 153.75 321.039062 C 153.800781 321.277344 154.027344 321.558594 154.507812 321.558594 L 208.691406 321.558594 C 209.039062 321.558594 209.320312 321.84375 209.320312 322.191406 C 209.320312 322.535156 209.039062 322.820312 208.691406 322.820312 " fill-opacity="1" fill-rule="nonzero"/><path fill="#99b9ff" d="M 61.515625 273.785156 L 329.347656 274.375 L 334 274.386719 L 342.644531 274.40625 C 345.101562 274.40625 347.121094 272.460938 347.433594 269.988281 L 369.824219 92.785156 C 370.371094 88.472656 367.265625 84.402344 362.984375 84.402344 L 85.492188 84.65625 L 61.515625 273.785156 " fill-opacity="1" fill-rule="nonzero"/><path fill="#ffffff" d="M 352.574219 84.359375 C 357.402344 84.359375 361.332031 89.285156 360.714844 94.148438 L 338.160156 269.996094 C 337.84375 272.46875 335.769531 274.320312 333.316406 274.320312 L 331.199219 274.402344 L 57.804688 274.320312 C 54.859375 274.320312 52.582031 271.695312 52.960938 268.726562 L 75.96875 89.300781 C 76.285156 86.828125 78.160156 84.359375 80.617188 84.359375 L 352.574219 84.359375 " fill-opacity="1" fill-rule="nonzero"/><path fill="#99b9ff" d="M 343.015625 94.59375 C 347.503906 94.59375 351.15625 99.046875 350.582031 103.449219 L 329.605469 262.484375 C 329.316406 264.71875 327.386719 266.394531 325.101562 266.394531 L 323.136719 266.46875 L 68.910156 266.394531 C 66.171875 266.394531 64.054688 264.019531 64.40625 261.335938 L 85.800781 99.0625 C 86.09375 96.828125 87.839844 94.59375 90.125 94.59375 L 343.015625 94.59375 " fill-opacity="1" fill-rule="nonzero"/><path fill="#ffffff" d="M 143.203125 161.496094 L 85.519531 161.496094 L 91.695312 117.480469 L 149.378906 117.480469 L 143.203125 161.496094 " fill-opacity="1" fill-rule="nonzero"/><path fill="#ffffff" d="M 206.410156 161.796875 L 148.730469 161.796875 L 154.90625 117.78125 L 212.585938 117.78125 L 206.410156 161.796875 " fill-opacity="1" fill-rule="nonzero"/><path fill="#ffffff" d="M 270.03125 161.496094 L 212.351562 161.496094 L 218.527344 117.480469 L 276.207031 117.480469 L 270.03125 161.496094 " fill-opacity="1" fill-rule="nonzero"/><path fill="#caddff" d="M 332.128906 179.648438 L 82.941406 180.304688 L 84.84375 166.738281 L 333.59375 166.449219 L 332.128906 179.648438 " fill-opacity="1" fill-rule="nonzero"/><path fill="#ffffff" d="M 333.890625 161.1875 L 277.566406 161.394531 L 283.707031 116.746094 L 339.691406 116.746094 L 333.890625 161.1875 " fill-opacity="1" fill-rule="nonzero"/><path fill="#5479f7" d="M 349.363281 110.085938 L 350.394531 102.222656 C 350.96875 97.824219 347.316406 93.320312 342.824219 93.320312 L 89.9375 93.320312 C 87.652344 93.320312 85.90625 95.601562 85.613281 97.835938 L 84.007812 110.085938 L 349.363281 110.085938 " fill-opacity="1" fill-rule="nonzero"/><path fill="#caddff" d="M 135.222656 128.402344 L 102.847656 128.402344 L 103.5625 121.9375 L 135.9375 121.9375 L 135.222656 128.402344 " fill-opacity="1" fill-rule="nonzero"/><path fill="#caddff" d="M 198.644531 128.402344 L 166.269531 128.402344 L 166.988281 121.9375 L 199.363281 121.9375 L 198.644531 128.402344 " fill-opacity="1" fill-rule="nonzero"/><path fill="#caddff" d="M 262.066406 128.613281 L 229.691406 128.613281 L 230.410156 122.148438 L 262.785156 122.148438 L 262.066406 128.613281 " fill-opacity="1" fill-rule="nonzero"/><path fill="#caddff" d="M 325.980469 128.472656 L 293.605469 128.472656 L 294.324219 122.007812 L 326.699219 122.007812 L 325.980469 128.472656 " fill-opacity="1" fill-rule="nonzero"/><path fill="#caddff" d="M 97.066406 102.542969 C 97.066406 103.929688 95.941406 105.054688 94.554688 105.054688 C 93.164062 105.054688 92.039062 103.929688 92.039062 102.542969 C 92.039062 101.152344 93.164062 100.027344 94.554688 100.027344 C 95.941406 100.027344 97.066406 101.152344 97.066406 102.542969 " fill-opacity="1" fill-rule="nonzero"/><path fill="#caddff" d="M 104.703125 102.542969 C 104.703125 103.929688 103.582031 105.054688 102.191406 105.054688 C 100.804688 105.054688 99.679688 103.929688 99.679688 102.542969 C 99.679688 101.152344 100.804688 100.027344 102.191406 100.027344 C 103.582031 100.027344 104.703125 101.152344 104.703125 102.542969 " fill-opacity="1" fill-rule="nonzero"/><path fill="#caddff" d="M 111.824219 102.644531 C 111.824219 104.03125 110.699219 105.160156 109.3125 105.160156 C 107.921875 105.160156 106.800781 104.03125 106.800781 102.644531 C 106.800781 101.257812 107.921875 100.128906 109.3125 100.128906 C 110.699219 100.128906 111.824219 101.257812 111.824219 102.644531 " fill-opacity="1" fill-rule="nonzero"/><path fill="#caddff" d="M 263.375 258.429688 L 273.101562 185.097656 L 330.035156 184.953125 L 320.28125 258.429688 L 263.375 258.429688 " fill-opacity="1" fill-rule="nonzero"/><path fill="#caddff" d="M 266.683594 185.375 L 179.046875 185.234375 L 170.675781 258.988281 L 256.785156 258.273438 L 266.683594 185.375 " fill-opacity="1" fill-rule="nonzero"/><path fill="#caddff" d="M 172.070312 185.234375 L 81.644531 184.675781 L 73.273438 258.359375 L 163.417969 258.605469 L 172.070312 185.234375 " fill-opacity="1" fill-rule="nonzero"/><path fill="#000000" d="M 323.164062 267.097656 L 96.15625 267.03125 C 95.8125 267.03125 95.53125 266.75 95.53125 266.402344 C 95.53125 266.054688 95.8125 265.773438 96.160156 265.773438 L 323.140625 265.839844 L 325.082031 265.765625 C 327.066406 265.765625 328.738281 264.308594 328.988281 262.375 L 349.960938 102.304688 C 350.21875 100.316406 349.523438 98.15625 348.101562 96.535156 C 346.746094 94.992188 344.890625 94.105469 343.015625 94.105469 L 90.125 94.105469 C 88.15625 94.105469 86.671875 96.15625 86.425781 98.054688 L 81.652344 134.5 C 81.605469 134.84375 81.292969 135.085938 80.945312 135.042969 C 80.601562 134.996094 80.359375 134.679688 80.40625 134.335938 L 85.179688 97.890625 C 85.5 95.414062 87.4375 92.847656 90.125 92.847656 L 343.015625 92.847656 C 345.25 92.847656 347.449219 93.890625 349.042969 95.707031 C 350.726562 97.625 351.515625 100.089844 351.207031 102.464844 L 330.234375 262.539062 C 329.902344 265.09375 327.699219 267.023438 325.105469 267.023438 L 323.164062 267.097656 " fill-opacity="1" fill-rule="nonzero"/><path fill="#000000" d="M 291.597656 27.445312 C 294.46875 32.351562 301.203125 33.316406 302.714844 33.484375 C 308.859375 34.171875 313.390625 31.21875 314.617188 30.355469 C 316.742188 31.664062 321.898438 34.421875 328.625 33.902344 C 333.9375 33.496094 342.898438 30.839844 344.636719 24.617188 C 346.714844 17.164062 337.347656 8.511719 329.308594 5.457031 C 322.574219 2.894531 312.296875 2.566406 307.382812 7.753906 C 305.578125 9.660156 305.296875 11.460938 303.167969 12.082031 C 299.335938 13.199219 296.519531 8.484375 291.5625 8.722656 C 288.582031 8.867188 286.257812 10.722656 284.824219 12.167969 C 281.164062 13.378906 278.917969 15.8125 279.191406 17.769531 C 279.476562 19.808594 282.453125 21.046875 283.035156 21.289062 C 286.050781 22.539062 287.652344 21.277344 289.4375 22.585938 C 291.023438 23.75 290.378906 25.367188 291.597656 27.445312 " fill-opacity="1" fill-rule="nonzero"/><path fill="#ffffff" d="M 295.535156 32.488281 C 295.535156 32.488281 280.464844 37.308594 273.140625 32.488281 C 269.695312 30.222656 256.875 14.222656 254.097656 12.742188 C 252.402344 11.839844 249.773438 10.488281 247.976562 9.570312 C 246.722656 8.925781 245.253906 8.859375 243.945312 9.378906 L 236.453125 12.359375 C 236.453125 12.359375 238.636719 14.113281 242.183594 13.410156 C 244.472656 12.957031 246.84375 13.191406 248.953125 14.191406 L 249.097656 14.257812 L 242.371094 16.355469 C 242.371094 16.355469 243.390625 18.054688 246.996094 17.402344 C 248.902344 17.054688 251.195312 17.484375 252.9375 17.96875 L 253.058594 18.03125 C 253.058594 18.03125 259.492188 35.902344 268.921875 41.496094 C 282.644531 49.632812 297.066406 44.519531 297.066406 44.519531 L 295.535156 32.488281 " fill-opacity="1" fill-rule="nonzero"/><path fill="#000000" d="M 248.488281 16.648438 C 250.128906 16.648438 251.832031 17.007812 253.105469 17.363281 L 253.226562 17.410156 L 253.566406 17.585938 L 253.652344 17.816406 C 253.714844 17.992188 260.113281 35.542969 269.242188 40.957031 C 281.160156 48.027344 293.785156 44.847656 296.375 44.078125 L 295.007812 33.304688 C 291.855469 34.210938 279.441406 37.386719 272.792969 33.011719 C 271.015625 31.84375 267.109375 27.460938 262.976562 22.824219 C 259.28125 18.679688 255.097656 13.988281 253.796875 13.296875 C 252.019531 12.351562 249.207031 10.90625 247.691406 10.128906 C 246.597656 9.570312 245.316406 9.511719 244.175781 9.964844 L 237.917969 12.453125 C 238.808594 12.820312 240.230469 13.15625 242.0625 12.796875 C 244.5625 12.300781 247.039062 12.585938 249.222656 13.625 L 250.820312 14.382812 L 243.691406 16.605469 C 244.292969 16.871094 245.292969 17.070312 246.882812 16.785156 C 247.398438 16.6875 247.941406 16.648438 248.488281 16.648438 Z M 286.253906 46.707031 C 281.105469 46.707031 274.765625 45.695312 268.601562 42.035156 C 259.617188 36.710938 253.453125 20.890625 252.570312 18.519531 C 251.007812 18.101562 248.859375 17.703125 247.109375 18.023438 C 243.121094 18.746094 241.882812 16.765625 241.832031 16.679688 L 241.421875 15.992188 L 247.1875 14.199219 C 245.644531 13.757812 243.984375 13.695312 242.304688 14.03125 C 238.511719 14.777344 236.15625 12.929688 236.058594 12.851562 L 235.21875 12.175781 L 243.710938 8.796875 C 245.191406 8.207031 246.84375 8.285156 248.261719 9.011719 C 249.78125 9.789062 252.601562 11.234375 254.386719 12.1875 C 255.886719 12.980469 259.605469 17.15625 263.914062 21.984375 C 267.808594 26.359375 271.84375 30.882812 273.484375 31.960938 C 280.476562 36.558594 295.195312 31.933594 295.34375 31.890625 L 296.0625 31.660156 L 297.753906 44.945312 L 297.273438 45.109375 C 297.195312 45.140625 292.644531 46.707031 286.253906 46.707031 " fill-opacity="1" fill-rule="nonzero"/><path fill="#000000" d="M 327.351562 62.445312 C 327.351562 62.445312 314.242188 71.355469 295.957031 68.734375 C 295.957031 68.734375 298.425781 63.953125 302.652344 62.238281 C 306.878906 60.523438 327.351562 62.445312 327.351562 62.445312 " fill-opacity="1" fill-rule="nonzero"/><path fill="#000000" d="M 345.386719 84.921875 C 344.574219 64.941406 333.066406 57.574219 333.066406 57.574219 L 309.347656 63.496094 L 299.566406 84.921875 L 345.386719 84.921875 " fill-opacity="1" fill-rule="nonzero"/><path fill="#5479f7" d="M 296.046875 30.609375 L 308.515625 24.378906 C 311.675781 22.796875 315.503906 23.507812 317.875 26.132812 C 323.316406 32.144531 332.683594 43.761719 337.394531 56.992188 C 337.394531 56.992188 328.925781 67.808594 317.722656 67.058594 C 306.519531 66.304688 299.917969 65.582031 295.957031 68.734375 C 295.957031 68.734375 292.660156 52.148438 291.992188 37.5 C 291.863281 34.605469 293.457031 31.90625 296.046875 30.609375 " fill-opacity="1" fill-rule="nonzero"/><path fill="#000000" d="M 315.902344 64.675781 C 315.582031 64.675781 315.308594 64.429688 315.277344 64.105469 C 314.863281 59.65625 313.484375 56.5 311.175781 54.71875 C 309.421875 53.371094 307.546875 53.101562 305.558594 52.8125 C 303.40625 52.503906 301.175781 52.183594 298.890625 50.523438 C 296.492188 48.78125 294.785156 46.097656 293.816406 42.539062 C 293.726562 42.207031 293.925781 41.859375 294.257812 41.769531 C 294.589844 41.675781 294.9375 41.875 295.03125 42.210938 C 295.917969 45.480469 297.464844 47.9375 299.625 49.503906 C 301.664062 50.984375 303.734375 51.28125 305.742188 51.570312 C 307.800781 51.867188 309.925781 52.171875 311.941406 53.726562 C 314.539062 55.722656 316.078125 59.175781 316.527344 63.988281 C 316.5625 64.335938 316.308594 64.640625 315.960938 64.675781 C 315.941406 64.675781 315.921875 64.675781 315.902344 64.675781 " fill-opacity="1" fill-rule="nonzero"/><path fill="#ffffff" d="M 335.515625 84.238281 L 309.183594 30.351562 C 308.117188 28.171875 309.015625 25.542969 311.1875 24.46875 C 313.207031 23.46875 315.65625 24.160156 316.859375 26.066406 C 320.371094 31.636719 327.097656 42.855469 328.609375 49.320312 C 330.671875 58.171875 333.675781 62.550781 335.515625 65.371094 C 336.699219 67.191406 338.1875 73.65625 339.09375 78.007812 C 339.550781 80.214844 341.8125 81.542969 343.957031 80.867188 L 343.96875 80.863281 C 345.886719 80.257812 347.984375 80.609375 349.601562 81.8125 L 352.433594 83.921875 C 352.738281 84.148438 352.570312 84.636719 352.1875 84.628906 L 335.515625 84.238281 " fill-opacity="1" fill-rule="nonzero"/><path fill="#000000" d="M 335.910156 83.617188 L 351.460938 83.984375 L 349.226562 82.316406 C 347.777344 81.238281 345.878906 80.917969 344.152344 81.460938 C 342.957031 81.839844 341.65625 81.695312 340.578125 81.0625 C 339.496094 80.429688 338.730469 79.363281 338.476562 78.136719 C 337.089844 71.445312 335.847656 67.03125 334.988281 65.714844 L 334.789062 65.414062 C 332.890625 62.503906 330.015625 58.109375 327.996094 49.464844 C 326.523438 43.171875 320.054688 32.3125 316.324219 26.402344 C 315.292969 24.761719 313.203125 24.171875 311.464844 25.03125 C 309.609375 25.949219 308.835938 28.214844 309.746094 30.074219 Z M 352.199219 85.257812 C 352.191406 85.257812 352.183594 85.257812 352.175781 85.257812 L 335.117188 84.859375 L 308.617188 30.628906 C 307.40625 28.144531 308.433594 25.128906 310.910156 23.902344 C 313.222656 22.757812 316.007812 23.546875 317.386719 25.730469 C 321.15625 31.710938 327.707031 42.707031 329.21875 49.179688 C 331.1875 57.609375 333.988281 61.890625 335.839844 64.722656 L 336.039062 65.027344 C 337.246094 66.882812 338.703125 73.039062 339.707031 77.878906 C 339.890625 78.757812 340.4375 79.523438 341.210938 79.976562 C 341.992188 80.4375 342.902344 80.539062 343.769531 80.265625 C 345.882812 79.597656 348.203125 79.992188 349.972656 81.308594 L 352.808594 83.417969 C 353.164062 83.683594 353.308594 84.144531 353.164062 84.570312 C 353.019531 84.984375 352.636719 85.257812 352.199219 85.257812 " fill-opacity="1" fill-rule="nonzero"/><path fill="#ffffff" d="M 296.078125 20.183594 C 296.097656 20.164062 297.371094 18.699219 296.671875 17.632812 C 295.96875 16.554688 294.574219 17.980469 294.574219 17.980469 C 294.574219 17.980469 293.394531 15.933594 290.691406 16.003906 C 290.691406 16.003906 289.542969 18.625 286.597656 18.609375 C 286.597656 18.609375 287.273438 20.144531 288.265625 21.84375 L 288.585938 23.675781 C 288.632812 23.953125 288.945312 24.097656 289.183594 23.953125 C 289.367188 23.847656 289.597656 23.894531 289.726562 24.0625 C 290.453125 25.019531 291.242188 25.824219 292.015625 26.171875 C 293.101562 26.65625 294.070312 26.15625 294.800781 25.222656 C 296.519531 27.308594 299.058594 30.859375 297.875 32.394531 C 297.875 32.394531 301.746094 33.515625 305.566406 28.25 L 296.078125 20.183594 " fill-opacity="1" fill-rule="nonzero"/><path fill="#000000" d="M 298.765625 31.871094 C 299.914062 31.898438 302.253906 31.472656 304.710938 28.347656 L 295.179688 20.246094 L 295.605469 19.769531 C 295.859375 19.476562 296.503906 18.523438 296.148438 17.976562 C 296.074219 17.867188 296.027344 17.863281 296.003906 17.859375 C 295.746094 17.835938 295.261719 18.175781 295.019531 18.421875 L 294.441406 19.007812 L 294.027344 18.296875 C 293.992188 18.230469 293.089844 16.746094 291.070312 16.640625 C 290.648438 17.34375 289.5625 18.804688 287.550781 19.160156 C 287.839844 19.757812 288.277344 20.625 288.804688 21.53125 L 288.863281 21.628906 L 289.15625 23.296875 C 289.546875 23.203125 289.96875 23.347656 290.226562 23.683594 C 290.976562 24.671875 291.683594 25.335938 292.269531 25.597656 C 292.976562 25.917969 293.664062 25.660156 294.304688 24.835938 L 294.785156 24.21875 L 295.285156 24.824219 C 297.871094 27.964844 299.035156 30.328125 298.765625 31.871094 Z M 298.820312 33.125 C 298.164062 33.125 297.753906 33.015625 297.699219 33 L 296.8125 32.742188 L 297.378906 32.011719 C 297.863281 31.378906 297.410156 29.523438 294.765625 26.179688 C 293.863281 27.003906 292.796875 27.210938 291.757812 26.742188 C 290.984375 26.398438 290.191406 25.691406 289.328125 24.578125 C 289.074219 24.667969 288.792969 24.660156 288.550781 24.546875 C 288.242188 24.402344 288.023438 24.121094 287.964844 23.785156 L 287.667969 22.066406 C 286.699219 20.390625 286.054688 18.925781 286.023438 18.863281 L 285.636719 17.976562 L 286.605469 17.984375 C 286.609375 17.984375 286.617188 17.984375 286.625 17.984375 C 289.109375 17.984375 290.105469 15.773438 290.117188 15.753906 L 290.277344 15.386719 L 290.675781 15.375 C 292.765625 15.3125 294.058594 16.382812 294.675781 17.078125 C 295.054688 16.816406 295.578125 16.554688 296.125 16.609375 C 296.429688 16.636719 296.863281 16.78125 297.199219 17.289062 C 297.855469 18.292969 297.339844 19.433594 296.929688 20.082031 L 306.417969 28.148438 L 306.074219 28.621094 C 303.246094 32.515625 300.359375 33.125 298.820312 33.125 " fill-opacity="1" fill-rule="nonzero"/><path fill="#000000" d="M 294.800781 25.851562 C 294.65625 25.851562 294.511719 25.804688 294.394531 25.703125 C 294.128906 25.480469 294.097656 25.085938 294.320312 24.820312 C 294.726562 24.332031 295.105469 23.25 295.214844 22.875 C 295.3125 22.539062 295.65625 22.351562 295.992188 22.445312 C 296.324219 22.546875 296.515625 22.894531 296.417969 23.226562 C 296.371094 23.394531 295.929688 24.855469 295.28125 25.628906 C 295.152344 25.777344 294.976562 25.851562 294.800781 25.851562 " fill-opacity="1" fill-rule="nonzero"/><path fill="#5479f7" d="M 82.800781 226.34375 C 82.800781 226.34375 78.511719 234.425781 78.222656 240.96875 C 77.765625 251.199219 76.285156 260.121094 74.078125 284.652344 C 71.523438 312.996094 63.097656 334.914062 63.097656 334.914062 C 64.054688 336.464844 65.53125 337.628906 67.261719 338.066406 C 70.070312 338.777344 72.398438 337.585938 72.398438 337.585938 L 84.351562 311.253906 C 87.980469 304 90.808594 296.347656 92.78125 288.441406 L 98.738281 264.5625 L 102.355469 284.890625 C 103.726562 290.121094 104.480469 295.503906 104.597656 300.925781 L 106.695312 340.460938 L 108.914062 341.546875 C 110.753906 342.445312 112.902344 342.367188 114.679688 341.335938 L 115.804688 339.417969 L 122.917969 292.96875 C 123.234375 289.71875 123.148438 286.441406 122.660156 283.214844 L 114.019531 226.34375 L 82.800781 226.34375 " fill-opacity="1" fill-rule="nonzero"/><path fill="#000000" d="M 107.304688 340.058594 L 109.191406 340.980469 C 110.792969 341.761719 112.660156 341.722656 114.222656 340.871094 L 115.203125 339.203125 L 122.296875 292.871094 C 122.605469 289.710938 122.519531 286.484375 122.039062 283.3125 L 113.480469 226.976562 L 83.183594 226.976562 C 82.390625 228.554688 79.097656 235.410156 78.851562 240.996094 C 78.597656 246.65625 78.042969 251.804688 77.207031 259.597656 C 76.53125 265.882812 75.691406 273.707031 74.703125 284.707031 C 72.332031 311.03125 64.808594 332.09375 63.792969 334.839844 C 64.695312 336.167969 65.96875 337.09375 67.414062 337.457031 C 69.527344 337.988281 71.347656 337.351562 71.921875 337.109375 L 83.78125 310.992188 C 87.394531 303.769531 90.210938 296.140625 92.167969 288.289062 L 98.128906 264.410156 C 98.199219 264.121094 98.46875 263.921875 98.757812 263.933594 C 99.054688 263.945312 99.304688 264.15625 99.355469 264.449219 L 102.96875 284.753906 C 104.347656 290.019531 105.105469 295.457031 105.226562 300.910156 Z M 111.601562 342.796875 C 110.589844 342.796875 109.578125 342.570312 108.640625 342.109375 L 106.421875 341.027344 C 106.214844 340.925781 106.082031 340.722656 106.070312 340.496094 L 103.972656 300.957031 C 103.855469 295.574219 103.105469 290.226562 101.746094 285.050781 C 101.742188 285.035156 101.738281 285.019531 101.738281 285 L 98.632812 267.566406 L 93.386719 288.59375 C 91.40625 296.535156 88.558594 304.25 84.914062 311.535156 L 72.96875 337.847656 C 72.910156 337.976562 72.808594 338.078125 72.683594 338.144531 C 72.578125 338.195312 70.109375 339.433594 67.105469 338.675781 C 65.253906 338.207031 63.640625 336.988281 62.5625 335.246094 C 62.460938 335.078125 62.441406 334.871094 62.511719 334.6875 C 62.59375 334.46875 70.9375 312.519531 73.449219 284.59375 C 74.441406 273.582031 75.285156 265.753906 75.957031 259.460938 C 76.792969 251.695312 77.34375 246.558594 77.59375 240.941406 C 77.890625 234.332031 82.066406 226.386719 82.246094 226.050781 C 82.355469 225.847656 82.566406 225.71875 82.800781 225.71875 L 114.019531 225.71875 C 114.328125 225.71875 114.59375 225.945312 114.640625 226.253906 L 123.28125 283.121094 C 123.777344 286.394531 123.867188 289.730469 123.542969 293.027344 L 116.425781 339.511719 C 116.414062 339.589844 116.386719 339.664062 116.347656 339.734375 L 115.21875 341.65625 C 115.164062 341.746094 115.085938 341.824219 114.992188 341.878906 C 113.945312 342.488281 112.773438 342.796875 111.601562 342.796875 " fill-opacity="1" fill-rule="nonzero"/><path fill="#ffffff" d="M 62.9375 335.3125 C 62.320312 336.59375 60.84375 340.246094 60.09375 342.476562 C 59.628906 343.875 60.265625 345.40625 61.554688 346.050781 C 65.199219 347.871094 74.386719 349.628906 81.964844 351.476562 C 82.484375 351.605469 83.496094 351.53125 84.164062 350.320312 C 86.457031 346.15625 78.476562 343.195312 71.296875 337.019531 C 71.296875 337.019531 70.75 337.324219 69.976562 337.558594 C 68.683594 337.953125 66.785156 337.480469 65.777344 336.554688 L 64.15625 335.074219 C 63.773438 334.71875 63.167969 334.839844 62.9375 335.3125 " fill-opacity="1" fill-rule="nonzero"/><path fill="#000000" d="M 62.9375 335.3125 L 62.945312 335.3125 Z M 63.640625 335.496094 C 63.632812 335.496094 63.621094 335.496094 63.613281 335.496094 C 63.578125 335.503906 63.535156 335.527344 63.503906 335.585938 C 62.882812 336.878906 61.40625 340.546875 60.691406 342.675781 C 60.324219 343.769531 60.816406 344.980469 61.832031 345.488281 C 64.476562 346.808594 70.378906 348.15625 76.085938 349.460938 C 78.09375 349.917969 80.167969 350.394531 82.113281 350.867188 C 82.265625 350.902344 83.050781 351.039062 83.613281 350.015625 C 84.859375 347.753906 82.25 345.785156 77.535156 342.496094 C 75.570312 341.128906 73.359375 339.585938 71.203125 337.765625 C 70.949219 337.882812 70.585938 338.03125 70.160156 338.160156 C 68.660156 338.617188 66.550781 338.117188 65.351562 337.019531 L 63.734375 335.535156 C 63.707031 335.507812 63.671875 335.496094 63.640625 335.496094 Z M 82.355469 352.152344 C 82.164062 352.152344 81.980469 352.128906 81.816406 352.089844 C 79.878906 351.617188 77.808594 351.144531 75.804688 350.6875 C 69.761719 349.304688 64.050781 348 61.273438 346.613281 C 59.695312 345.828125 58.933594 343.960938 59.5 342.273438 C 60.246094 340.046875 61.730469 336.375 62.375 335.039062 C 62.570312 334.632812 62.9375 334.347656 63.375 334.261719 C 63.8125 334.183594 64.253906 334.304688 64.582031 334.609375 L 66.199219 336.089844 C 67.058594 336.875 68.734375 337.277344 69.792969 336.960938 C 70.488281 336.746094 70.992188 336.472656 70.996094 336.46875 C 71.222656 336.34375 71.507812 336.371094 71.707031 336.542969 C 73.914062 338.441406 76.21875 340.046875 78.25 341.464844 C 82.898438 344.703125 86.566406 347.257812 84.714844 350.621094 C 84.089844 351.761719 83.144531 352.152344 82.355469 352.152344 " fill-opacity="1" fill-rule="nonzero"/><path fill="#ffffff" d="M 59.671875 343.46875 C 59.660156 343.503906 59.648438 343.53125 59.644531 343.546875 C 59.175781 344.941406 60.214844 345.730469 61.378906 346.59375 C 64.894531 349.207031 81.015625 351.382812 81.015625 351.382812 C 81.015625 351.382812 83.117188 351.867188 83.945312 350.683594 C 84.066406 350.507812 84.191406 350.40625 84.261719 350.171875 C 84.332031 349.921875 84.503906 349 84.503906 349 C 76.34375 348.652344 71.179688 347.449219 64.230469 344.597656 C 63.363281 344.242188 60.824219 342.933594 60.121094 342.363281 C 60.121094 342.363281 59.980469 342.679688 59.671875 343.46875 " fill-opacity="1" fill-rule="nonzero"/><path fill="#000000" d="M 59.671875 343.46875 L 59.675781 343.46875 Z M 60.410156 343.316406 C 60.363281 343.425781 60.3125 343.554688 60.257812 343.699219 L 60.238281 343.746094 C 59.941406 344.628906 60.472656 345.140625 61.753906 346.089844 C 65.101562 348.578125 80.9375 350.738281 81.097656 350.757812 C 81.117188 350.761719 81.136719 350.765625 81.15625 350.769531 C 81.171875 350.773438 82.867188 351.125 83.429688 350.320312 C 83.472656 350.261719 83.511719 350.210938 83.554688 350.160156 C 83.628906 350.066406 83.644531 350.042969 83.65625 350 C 83.675781 349.929688 83.710938 349.773438 83.746094 349.597656 C 76.105469 349.210938 71.03125 348.066406 63.992188 345.179688 C 63.277344 344.882812 61.496094 343.984375 60.410156 343.316406 Z M 81.96875 352.105469 C 81.445312 352.105469 81.027344 352.027344 80.90625 352 C 79.949219 351.871094 64.574219 349.75 61.003906 347.097656 C 59.859375 346.246094 58.429688 345.1875 59.046875 343.34375 C 59.054688 343.328125 59.066406 343.292969 59.089844 343.238281 C 59.40625 342.429688 59.546875 342.109375 59.546875 342.109375 C 59.625 341.929688 59.785156 341.800781 59.972656 341.75 C 60.164062 341.707031 60.363281 341.75 60.515625 341.871094 C 61.164062 342.398438 63.636719 343.671875 64.46875 344.015625 C 71.578125 346.933594 76.640625 348.035156 84.53125 348.375 C 84.714844 348.382812 84.882812 348.46875 84.996094 348.609375 C 85.109375 348.753906 85.15625 348.941406 85.121094 349.117188 C 85.09375 349.277344 84.941406 350.082031 84.863281 350.347656 C 84.78125 350.636719 84.640625 350.8125 84.535156 350.941406 C 84.511719 350.976562 84.484375 351.007812 84.460938 351.042969 C 83.847656 351.917969 82.78125 352.105469 81.96875 352.105469 " fill-opacity="1" fill-rule="nonzero"/><path fill="#ffffff" d="M 74.074219 339.535156 L 71.421875 340.886719 L 74.074219 339.535156 " fill-opacity="1" fill-rule="nonzero"/><path fill="#000000" d="M 71.421875 341.515625 C 71.195312 341.515625 70.972656 341.390625 70.863281 341.171875 C 70.707031 340.859375 70.828125 340.484375 71.136719 340.324219 L 73.789062 338.976562 C 74.097656 338.816406 74.476562 338.9375 74.632812 339.25 C 74.789062 339.558594 74.667969 339.9375 74.359375 340.09375 L 71.707031 341.445312 C 71.617188 341.492188 71.519531 341.515625 71.421875 341.515625 " fill-opacity="1" fill-rule="nonzero"/><path fill="#ffffff" d="M 76.578125 341.625 L 74.265625 342.785156 L 76.578125 341.625 " fill-opacity="1" fill-rule="nonzero"/><path fill="#000000" d="M 74.265625 343.414062 C 74.035156 343.414062 73.8125 343.285156 73.703125 343.066406 C 73.546875 342.753906 73.671875 342.378906 73.984375 342.222656 L 76.296875 341.0625 C 76.609375 340.910156 76.984375 341.035156 77.140625 341.34375 C 77.296875 341.65625 77.167969 342.03125 76.859375 342.1875 L 74.542969 343.347656 C 74.453125 343.390625 74.359375 343.414062 74.265625 343.414062 " fill-opacity="1" fill-rule="nonzero"/><path fill="#000000" d="M 98.625 267.820312 C 98.585938 267.820312 98.542969 267.816406 98.5 267.808594 C 98.160156 267.738281 97.941406 267.40625 98.011719 267.0625 L 101.0625 252.222656 C 101.574219 249.226562 102.816406 245.097656 104.765625 242.5625 C 104.976562 242.285156 105.371094 242.234375 105.644531 242.449219 C 105.921875 242.660156 105.972656 243.054688 105.761719 243.328125 C 103.953125 245.679688 102.785156 249.585938 102.296875 252.453125 L 99.242188 267.316406 C 99.179688 267.617188 98.917969 267.820312 98.625 267.820312 " fill-opacity="1" fill-rule="nonzero"/><path fill="#000000" d="M 79.878906 245.511719 C 79.605469 245.511719 79.351562 245.328125 79.273438 245.050781 C 79.183594 244.714844 79.378906 244.367188 79.714844 244.277344 C 86.558594 242.390625 89.605469 236.121094 89.632812 236.054688 C 89.78125 235.742188 90.15625 235.609375 90.472656 235.757812 C 90.785156 235.90625 90.917969 236.28125 90.769531 236.597656 C 90.636719 236.875 87.4375 243.453125 80.046875 245.488281 C 79.992188 245.503906 79.933594 245.511719 79.878906 245.511719 " fill-opacity="1" fill-rule="nonzero"/><path fill="#ffffff" d="M 106.230469 340.28125 C 106 341.714844 105.617188 344.378906 105.535156 346.769531 C 105.480469 348.269531 106.542969 349.566406 107.980469 349.796875 C 112.042969 350.441406 121.277344 351.269531 129.175781 350.734375 C 129.714844 350.695312 130.679688 350.3125 130.980469 348.929688 C 132.003906 344.179688 123.804688 342.878906 115.050781 339.085938 L 113.472656 340.589844 C 112.632812 341.390625 111.414062 341.589844 110.378906 341.101562 L 107.34375 339.671875 C 106.867188 339.445312 106.316406 339.75 106.230469 340.28125 " fill-opacity="1" fill-rule="nonzero"/><path fill="#000000" d="M 106.851562 340.382812 C 106.628906 341.753906 106.242188 344.414062 106.160156 346.792969 C 106.121094 347.972656 106.945312 348.996094 108.078125 349.175781 C 112.265625 349.839844 121.324219 350.632812 129.132812 350.105469 C 129.292969 350.097656 130.109375 349.980469 130.363281 348.796875 C 130.988281 345.910156 127.457031 344.460938 121.167969 342.148438 C 119.328125 341.472656 117.261719 340.710938 115.183594 339.832031 L 113.90625 341.046875 C 112.875 342.023438 111.386719 342.269531 110.109375 341.671875 L 107.078125 340.242188 C 107.035156 340.21875 106.988281 340.21875 106.945312 340.242188 C 106.914062 340.257812 106.863281 340.296875 106.851562 340.382812 Z M 123.671875 351.535156 C 117.367188 351.535156 111.15625 350.9375 107.882812 350.417969 C 106.121094 350.136719 104.84375 348.558594 104.90625 346.75 C 104.992188 344.304688 105.382812 341.585938 105.609375 340.183594 C 105.683594 339.726562 105.957031 339.34375 106.359375 339.132812 C 106.753906 338.921875 107.210938 338.914062 107.613281 339.101562 L 110.644531 340.53125 C 111.449219 340.910156 112.390625 340.753906 113.039062 340.132812 L 114.617188 338.632812 C 114.800781 338.460938 115.070312 338.414062 115.300781 338.511719 C 117.472656 339.453125 119.664062 340.257812 121.597656 340.96875 C 127.675781 343.203125 132.476562 344.96875 131.59375 349.0625 C 131.246094 350.664062 130.097656 351.300781 129.21875 351.359375 C 127.410156 351.484375 125.535156 351.535156 123.671875 351.535156 " fill-opacity="1" fill-rule="nonzero"/><path fill="#ffffff" d="M 105.546875 346.410156 C 105.546875 346.410156 105.535156 346.652344 105.535156 346.769531 C 105.480469 348.269531 106.542969 349.566406 107.980469 349.796875 C 112.042969 350.441406 121.277344 351.269531 129.175781 350.734375 C 129.714844 350.695312 130.679688 350.3125 130.980469 348.929688 C 131.070312 348.503906 131.039062 347.734375 131.039062 347.734375 L 130.480469 347.75 C 122.507812 347.949219 114.535156 347.546875 106.621094 346.546875 L 105.546875 346.410156 " fill-opacity="1" fill-rule="nonzero"/><path fill="#000000" d="M 106.171875 347.121094 C 106.277344 348.15625 107.050781 349.011719 108.078125 349.175781 C 112.265625 349.839844 121.324219 350.632812 129.132812 350.105469 C 129.292969 350.097656 130.109375 349.980469 130.363281 348.796875 C 130.386719 348.691406 130.402344 348.539062 130.410156 348.378906 C 122.460938 348.574219 114.433594 348.167969 106.539062 347.171875 Z M 123.671875 351.535156 C 117.367188 351.535156 111.15625 350.9375 107.882812 350.417969 C 106.121094 350.136719 104.84375 348.558594 104.90625 346.75 L 104.921875 346.382812 C 104.929688 346.207031 105.007812 346.042969 105.144531 345.929688 C 105.277344 345.816406 105.453125 345.765625 105.625 345.785156 L 106.699219 345.921875 C 114.554688 346.917969 122.554688 347.320312 130.460938 347.121094 L 131.023438 347.105469 C 131.382812 347.109375 131.652344 347.367188 131.667969 347.710938 C 131.667969 347.796875 131.699219 348.574219 131.59375 349.0625 C 131.246094 350.664062 130.097656 351.300781 129.21875 351.359375 C 127.410156 351.484375 125.535156 351.535156 123.671875 351.535156 " fill-opacity="1" fill-rule="nonzero"/><path fill="#000000" d="M 117.011719 345.03125 C 116.851562 345.03125 116.695312 344.972656 116.570312 344.851562 C 116.324219 344.609375 116.320312 344.210938 116.566406 343.964844 L 119.457031 341.023438 C 119.703125 340.777344 120.097656 340.773438 120.347656 341.019531 C 120.59375 341.261719 120.59375 341.660156 120.351562 341.90625 L 117.460938 344.84375 C 117.335938 344.96875 117.175781 345.03125 117.011719 345.03125 " fill-opacity="1" fill-rule="nonzero"/><path fill="#000000" d="M 120.320312 346.003906 C 120.179688 346.003906 120.035156 345.953125 119.917969 345.855469 C 119.652344 345.632812 119.617188 345.234375 119.839844 344.96875 L 122.421875 341.882812 C 122.644531 341.617188 123.039062 341.582031 123.304688 341.804688 C 123.570312 342.027344 123.605469 342.421875 123.382812 342.6875 L 120.800781 345.777344 C 120.679688 345.925781 120.5 346.003906 120.320312 346.003906 " fill-opacity="1" fill-rule="nonzero"/><path fill="#ffffff" d="M 154.203125 204.371094 C 154.203125 204.371094 157.324219 205.328125 158.535156 205.324219 C 159.75 205.316406 163.03125 205.582031 163.675781 204.914062 C 164.394531 204.171875 164.632812 202.496094 161.367188 202.535156 C 160.054688 202.546875 158.996094 202.324219 158.789062 201.511719 C 158.492188 200.367188 160.925781 200.679688 162.039062 200.703125 C 163.570312 200.738281 167.972656 202.257812 168.332031 200.5 C 168.65625 198.90625 165.804688 197.429688 161.488281 196.929688 C 160.652344 196.832031 159.808594 196.902344 158.992188 197.109375 C 157.714844 197.433594 155.652344 197.902344 154.53125 197.875 L 154.203125 204.371094 " fill-opacity="1" fill-rule="nonzero"/><path fill="#000000" d="M 158.589844 204.695312 C 158.835938 204.695312 159.148438 204.703125 159.5 204.710938 C 160.40625 204.738281 162.824219 204.808594 163.230469 204.472656 C 163.417969 204.277344 163.5625 203.960938 163.46875 203.738281 C 163.34375 203.449219 162.722656 203.152344 161.375 203.164062 C 160.679688 203.167969 158.570312 203.195312 158.179688 201.667969 C 158.078125 201.28125 158.152344 200.910156 158.382812 200.628906 C 158.917969 199.972656 160.070312 199.976562 161.527344 200.050781 C 161.71875 200.0625 161.898438 200.070312 162.050781 200.074219 C 162.523438 200.085938 163.160156 200.207031 163.90625 200.347656 C 165.003906 200.558594 167.578125 201.042969 167.714844 200.371094 C 167.730469 200.304688 167.773438 200.089844 167.542969 199.769531 C 166.996094 199.011719 165.058594 197.976562 161.417969 197.554688 C 160.683594 197.46875 159.917969 197.523438 159.144531 197.71875 C 157.910156 198.03125 156.296875 198.394531 155.125 198.480469 L 154.859375 203.910156 C 155.902344 204.210938 157.734375 204.695312 158.519531 204.695312 C 158.542969 204.695312 158.566406 204.695312 158.589844 204.695312 Z M 160.949219 205.996094 C 160.484375 205.996094 159.984375 205.984375 159.460938 205.96875 C 159.097656 205.957031 158.78125 205.953125 158.539062 205.953125 C 157.261719 205.957031 154.347656 205.070312 154.019531 204.972656 C 153.746094 204.886719 153.5625 204.628906 153.578125 204.339844 L 153.902344 197.84375 C 153.917969 197.507812 154.195312 197.246094 154.53125 197.246094 C 154.53125 197.246094 154.539062 197.246094 154.542969 197.246094 C 155.347656 197.277344 156.863281 197 158.839844 196.5 C 159.761719 196.269531 160.675781 196.203125 161.5625 196.304688 C 164.996094 196.703125 167.613281 197.722656 168.5625 199.035156 C 168.921875 199.535156 169.054688 200.085938 168.945312 200.625 C 168.5625 202.511719 165.847656 201.996094 163.667969 201.585938 C 163.011719 201.460938 162.390625 201.339844 162.023438 201.332031 C 161.859375 201.328125 161.667969 201.320312 161.460938 201.308594 C 160.988281 201.285156 159.78125 201.222656 159.410156 201.390625 C 159.566406 201.738281 160.265625 201.914062 161.363281 201.90625 C 163.136719 201.878906 164.230469 202.335938 164.621094 203.242188 C 164.972656 204.058594 164.574219 204.890625 164.125 205.351562 C 163.625 205.875 162.46875 205.996094 160.949219 205.996094 " fill-opacity="1" fill-rule="nonzero"/><path fill="#000000" d="M 115.929688 220.9375 C 115.746094 222.214844 116.890625 227.925781 115.738281 228.460938 C 113.199219 229.648438 107.726562 231.179688 100.820312 231.097656 C 97.648438 231.058594 91.21875 230.171875 88.097656 229.558594 L 77.347656 226.707031 L 78.628906 219.238281 C 79.660156 213.691406 79.640625 204.402344 79.59375 201.039062 C 79.582031 200.238281 79.394531 199.457031 79.046875 198.746094 C 75.5625 191.582031 74.578125 182.910156 76.898438 173.25 C 77.542969 170.578125 79.304688 168.324219 81.742188 167.199219 C 81.773438 167.183594 81.808594 167.171875 81.835938 167.160156 C 90.339844 163.441406 99.839844 161.769531 108.773438 164.179688 C 117.339844 166.492188 121.613281 170.382812 121.613281 170.382812 C 126.644531 174.792969 130.539062 184.503906 138.089844 189.183594 C 146.871094 194.632812 154.429688 197.195312 154.429688 197.195312 L 154.339844 204.980469 C 154.339844 204.980469 141.738281 207.652344 129.117188 202.015625 C 123.425781 199.476562 118.6875 193.53125 118.6875 193.53125 C 117.851562 197.988281 117.277344 203.007812 117.0625 207.265625 L 117.140625 207.535156 C 120.375 208.921875 123.695312 210.082031 127.078125 211.007812 L 134.234375 212.964844 L 130.722656 221.574219 C 124.582031 221.476562 119.871094 221.289062 115.921875 220.894531 L 115.929688 220.9375 " fill-opacity="1" fill-rule="nonzero"/><path fill="#caddff" d="M 103.773438 196.347656 C 103.660156 196.347656 103.542969 196.316406 103.4375 196.25 C 103.144531 196.0625 103.058594 195.675781 103.246094 195.382812 L 103.414062 195.121094 C 105.148438 192.390625 106.246094 189.234375 106.585938 185.988281 C 106.621094 185.644531 106.929688 185.402344 107.273438 185.429688 C 107.621094 185.46875 107.871094 185.773438 107.832031 186.121094 C 107.472656 189.558594 106.3125 192.902344 104.472656 195.796875 L 104.304688 196.058594 C 104.183594 196.246094 103.984375 196.347656 103.773438 196.347656 " fill-opacity="1" fill-rule="nonzero"/><path fill="#ffffff" d="M 141.339844 243.972656 L 241.441406 243.574219 C 243.761719 243.566406 246.199219 241.421875 246.527344 239.105469 L 258.152344 157.035156 C 258.40625 155.25 257.289062 153.957031 255.5 153.964844 L 155.394531 154.359375 C 153.078125 154.371094 150.640625 156.515625 150.3125 158.828125 L 138.6875 240.898438 C 138.433594 242.6875 139.550781 243.980469 141.339844 243.972656 " fill-opacity="1" fill-rule="nonzero"/><path fill="#5479f7" d="M 141.796875 219.730469 L 167.269531 188.492188 C 169.144531 186.296875 172.617188 185.914062 175.042969 187.632812 L 191.085938 199.023438 C 193.417969 200.679688 196.742188 200.394531 198.667969 198.375 L 199.589844 197.410156 C 201.578125 195.324219 205.046875 195.101562 207.371094 196.910156 L 239.71875 222.113281 C 240.882812 223.023438 246.816406 226.996094 246.898438 228.390625 C 247.476562 233.046875 246.574219 243.332031 244.164062 243.320312 L 142.550781 244.265625 C 139.632812 244.253906 139.167969 242.460938 138.78125 239.546875 C 138.78125 239.546875 141.027344 220.636719 141.796875 219.730469 " fill-opacity="1" fill-rule="nonzero"/><path fill="#000000" d="M 255.515625 154.59375 C 255.511719 154.59375 255.507812 154.59375 255.503906 154.59375 L 155.398438 154.988281 C 153.386719 154.996094 151.21875 156.90625 150.933594 158.917969 L 139.308594 240.988281 C 139.210938 241.675781 139.359375 242.28125 139.726562 242.703125 C 140.09375 243.125 140.640625 243.335938 141.335938 243.34375 L 241.441406 242.949219 C 243.453125 242.9375 245.621094 241.03125 245.910156 239.019531 L 257.53125 156.949219 C 257.628906 156.261719 257.476562 155.652344 257.113281 155.230469 C 256.746094 154.8125 256.195312 154.59375 255.515625 154.59375 Z M 141.339844 243.972656 L 141.34375 243.972656 Z M 141.324219 244.601562 C 140.285156 244.601562 139.382812 244.222656 138.78125 243.53125 C 138.171875 242.828125 137.917969 241.863281 138.066406 240.8125 L 149.6875 158.742188 C 150.058594 156.128906 152.777344 153.742188 155.394531 153.730469 L 255.5 153.335938 C 256.550781 153.339844 257.453125 153.710938 258.058594 154.40625 C 258.667969 155.105469 258.921875 156.070312 258.773438 157.125 L 247.148438 239.195312 C 246.78125 241.804688 244.0625 244.195312 241.445312 244.207031 L 141.339844 244.601562 C 141.335938 244.601562 141.328125 244.601562 141.324219 244.601562 " fill-opacity="1" fill-rule="nonzero"/><path fill="#99b9ff" d="M 236.058594 178.214844 C 236.058594 182.277344 232.765625 185.574219 228.703125 185.574219 C 224.644531 185.574219 221.355469 182.277344 221.355469 178.214844 C 221.355469 174.152344 224.644531 170.855469 228.703125 170.855469 C 232.765625 170.855469 236.058594 174.152344 236.058594 178.214844 " fill-opacity="1" fill-rule="nonzero"/><path fill="#ffffff" d="M 134.085938 213.367188 C 134.085938 213.367188 137.636719 213.867188 138.84375 214.453125 C 140.046875 215.035156 143.609375 216.714844 143.914062 217.511719 C 144.21875 218.3125 143.054688 219.15625 140.683594 218.097656 C 139.359375 217.503906 138.5 217.199219 138 217.050781 C 137.828125 217 137.703125 217.210938 137.824219 217.339844 C 138.480469 218.039062 139.832031 219.390625 140.957031 219.894531 C 142.5 220.582031 146.875 222.054688 146.4375 224.015625 C 146.039062 225.792969 142.523438 225.949219 137.988281 224.410156 C 137.113281 224.113281 136.300781 223.640625 135.578125 223.042969 C 134.449219 222.105469 132.601562 220.652344 131.46875 220.144531 L 134.085938 213.367188 " fill-opacity="1" fill-rule="nonzero"/><path fill="#000000" d="M 137.816406 217.652344 C 137.816406 217.652344 137.820312 217.652344 137.820312 217.652344 C 137.820312 217.652344 137.816406 217.652344 137.816406 217.652344 Z M 132.257812 219.84375 C 133.390625 220.480469 134.867188 221.636719 135.980469 222.558594 C 136.667969 223.128906 137.414062 223.550781 138.191406 223.816406 C 141.335938 224.882812 144.140625 225.136719 145.335938 224.464844 C 145.609375 224.3125 145.769531 224.117188 145.824219 223.878906 C 146.085938 222.699219 142.859375 221.367188 141.480469 220.796875 C 141.179688 220.671875 140.914062 220.5625 140.699219 220.464844 C 139.488281 219.925781 138.09375 218.542969 137.367188 217.769531 C 137.117188 217.503906 137.078125 217.101562 137.269531 216.792969 C 137.464844 216.480469 137.828125 216.339844 138.179688 216.449219 C 138.683594 216.601562 139.570312 216.910156 140.941406 217.519531 C 142.082031 218.03125 142.859375 218.035156 143.207031 217.863281 C 143.300781 217.816406 143.332031 217.773438 143.335938 217.765625 C 143.175781 217.476562 142.257812 216.792969 138.777344 215.117188 L 138.570312 215.015625 C 137.78125 214.636719 135.671875 214.25 134.492188 214.0625 Z M 143.375 226.089844 C 141.835938 226.089844 139.902344 225.722656 137.789062 225.007812 C 136.863281 224.695312 135.984375 224.195312 135.179688 223.527344 C 133.425781 222.074219 132.019531 221.078125 131.210938 220.71875 C 130.90625 220.582031 130.761719 220.230469 130.882812 219.917969 L 133.5 213.140625 C 133.605469 212.867188 133.886719 212.703125 134.175781 212.742188 C 134.546875 212.796875 137.859375 213.277344 139.113281 213.886719 L 139.324219 213.984375 C 142.820312 215.671875 144.222656 216.566406 144.5 217.289062 C 144.691406 217.789062 144.566406 218.335938 144.171875 218.710938 C 143.441406 219.40625 142.039062 219.390625 140.429688 218.667969 C 140.234375 218.582031 140.050781 218.503906 139.878906 218.429688 C 140.382812 218.84375 140.839844 219.152344 141.210938 219.316406 C 141.417969 219.410156 141.671875 219.515625 141.960938 219.632812 C 144.046875 220.496094 147.542969 221.9375 147.050781 224.152344 C 146.917969 224.746094 146.539062 225.230469 145.953125 225.5625 C 145.324219 225.914062 144.441406 226.089844 143.375 226.089844 " fill-opacity="1" fill-rule="nonzero"/><path fill="#000000" d="M 91.042969 183.296875 L 79.734375 173.476562 C 73.585938 199.25 79.847656 221.988281 130.503906 221.179688 L 134.085938 213.367188 C 113.269531 208.714844 98.488281 199.054688 91.042969 183.296875 " fill-opacity="1" fill-rule="nonzero"/><path fill="#caddff" d="M 131.140625 222.207031 L 130.714844 222.203125 C 112.625 221.921875 106.804688 220.851562 96.109375 215.863281 C 88.4375 212.285156 81.011719 204.359375 77.199219 195.675781 C 77.058594 195.359375 77.203125 194.988281 77.519531 194.847656 C 77.835938 194.707031 78.207031 194.851562 78.347656 195.171875 C 82.046875 203.589844 89.226562 211.265625 96.636719 214.722656 C 107.050781 219.578125 112.777344 220.648438 130.304688 220.9375 L 133.382812 213.382812 L 126.910156 211.613281 C 122.902344 210.515625 118.972656 209.089844 115.222656 207.371094 C 108.441406 204.265625 105.382812 202.195312 99.65625 196.828125 C 95.539062 192.96875 91.460938 184.578125 91.289062 184.222656 C 91.136719 183.910156 91.269531 183.53125 91.582031 183.382812 C 91.894531 183.230469 92.269531 183.363281 92.417969 183.675781 C 92.460938 183.757812 96.570312 192.210938 100.515625 195.910156 C 106.121094 201.164062 109.113281 203.191406 115.746094 206.226562 C 119.433594 207.917969 123.300781 209.320312 127.242188 210.398438 L 135.082031 212.542969 L 131.140625 222.207031 " fill-opacity="1" fill-rule="nonzero"/><path fill="#ffffff" d="M 95.59375 149.28125 L 94 161.492188 C 93.804688 162.746094 92.855469 163.757812 91.605469 164.035156 L 90.113281 164.371094 C 89.328125 164.546875 89.160156 165.578125 89.847656 165.996094 C 93.066406 167.949219 100.476562 171.140625 108.816406 165.867188 C 109.535156 165.359375 109.332031 164.253906 108.476562 164.035156 L 106.40625 163.503906 C 105.191406 163.191406 104.28125 162.1875 104.097656 160.957031 L 104.054688 147.386719 L 95.59375 149.28125 " fill-opacity="1" fill-rule="nonzero"/><path fill="#000000" d="M 96.160156 149.796875 L 94.625 161.574219 C 94.382812 163.109375 93.253906 164.3125 91.746094 164.648438 L 90.25 164.984375 C 90.101562 165.015625 90.058594 165.128906 90.050781 165.195312 C 90.039062 165.257812 90.042969 165.375 90.175781 165.457031 C 93.625 167.554688 100.589844 170.324219 108.480469 165.335938 C 108.644531 165.21875 108.632812 165.03125 108.621094 164.957031 C 108.605469 164.882812 108.550781 164.699219 108.320312 164.640625 L 106.25 164.113281 C 104.789062 163.738281 103.699219 162.535156 103.476562 161.050781 C 103.472656 161.019531 103.46875 160.988281 103.46875 160.957031 L 103.429688 148.167969 Z M 99.351562 169.359375 C 94.878906 169.359375 91.316406 167.621094 89.523438 166.53125 C 88.988281 166.207031 88.710938 165.605469 88.808594 164.992188 C 88.910156 164.378906 89.367188 163.894531 89.976562 163.757812 L 91.46875 163.421875 C 92.472656 163.195312 93.222656 162.402344 93.378906 161.394531 L 94.96875 149.199219 C 95.003906 148.9375 95.199219 148.726562 95.457031 148.667969 L 103.917969 146.773438 C 104.101562 146.730469 104.296875 146.777344 104.445312 146.894531 C 104.59375 147.011719 104.679688 147.195312 104.683594 147.382812 L 104.726562 160.90625 C 104.886719 161.871094 105.605469 162.648438 106.5625 162.894531 L 108.632812 163.425781 C 109.269531 163.585938 109.738281 164.089844 109.855469 164.734375 C 109.972656 165.371094 109.714844 166.003906 109.179688 166.378906 C 105.671875 168.597656 102.3125 169.359375 99.351562 169.359375 " fill-opacity="1" fill-rule="nonzero"/><path fill="#000000" d="M 111.917969 134.859375 C 109.238281 134.152344 112.089844 137.605469 102.652344 132.667969 C 98.890625 130.699219 99.980469 135.722656 99.003906 135.21875 C 95.398438 133.339844 94.40625 132.867188 92.441406 132.972656 C 91.140625 133.042969 88.035156 134.933594 88.109375 136.667969 C 88.359375 142.335938 91.066406 141.402344 91.761719 146.441406 C 92.25 149.984375 92.984375 151.179688 94.222656 151.9375 C 95.476562 152.699219 96.839844 151.105469 98.269531 151.835938 C 100.125 152.78125 99.058594 156.070312 100.6875 157.859375 C 101.71875 158.984375 104.441406 159.964844 109.371094 158.714844 C 110.171875 158.511719 110.710938 157.769531 110.652344 156.949219 C 110.574219 155.898438 110.472656 154.566406 110.265625 153.308594 C 109.292969 147.296875 107.539062 145.625 108.558594 144.328125 C 110.117188 142.335938 114.09375 144.472656 115.160156 142.792969 C 116.269531 141.050781 115.585938 135.828125 111.917969 134.859375 " fill-opacity="1" fill-rule="nonzero"/><path fill="#ffffff" d="M 100.523438 142.542969 L 101.011719 144.136719 C 101.238281 144.886719 101.417969 145.648438 101.539062 146.425781 C 101.769531 147.875 102.265625 150.351562 102.527344 151.746094 C 103.371094 156.234375 109.433594 152.726562 109.433594 152.726562 L 110.019531 151.660156 L 110.769531 151.523438 C 110.914062 151.496094 111.054688 151.4375 111.164062 151.34375 C 111.445312 151.105469 111.519531 150.730469 111.386719 150.414062 C 110.660156 148.691406 109.1875 144.855469 109.023438 141.648438 C 109.023438 141.648438 104.835938 139.621094 100.523438 142.542969 " fill-opacity="1" fill-rule="nonzero"/><path fill="#000000" d="M 101.261719 142.816406 L 101.609375 143.953125 C 101.847656 144.726562 102.03125 145.523438 102.160156 146.324219 C 102.324219 147.367188 102.636719 148.980469 102.886719 150.273438 C 102.984375 150.78125 103.074219 151.246094 103.144531 151.628906 C 103.296875 152.4375 103.636719 152.949219 104.1875 153.203125 C 105.550781 153.832031 107.972656 152.808594 108.96875 152.265625 L 109.46875 151.355469 C 109.5625 151.191406 109.722656 151.078125 109.90625 151.042969 L 110.652344 150.902344 C 110.710938 150.894531 110.742188 150.875 110.757812 150.867188 C 110.832031 150.800781 110.832031 150.71875 110.808594 150.660156 C 110.011719 148.773438 108.675781 145.222656 108.421875 142.082031 C 107.445312 141.714844 104.449219 140.878906 101.261719 142.816406 Z M 105.21875 154.65625 C 104.671875 154.65625 104.140625 154.566406 103.664062 154.347656 C 102.730469 153.917969 102.140625 153.082031 101.910156 151.863281 C 101.839844 151.480469 101.75 151.015625 101.652344 150.515625 C 101.402344 149.210938 101.089844 147.585938 100.917969 146.523438 C 100.800781 145.777344 100.628906 145.039062 100.410156 144.320312 L 99.921875 142.726562 C 99.84375 142.464844 99.941406 142.179688 100.171875 142.023438 C 104.730469 138.933594 109.113281 140.996094 109.296875 141.085938 C 109.503906 141.183594 109.640625 141.386719 109.652344 141.617188 C 109.808594 144.773438 111.324219 148.648438 111.964844 150.171875 C 112.210938 150.746094 112.050781 151.414062 111.570312 151.824219 C 111.386719 151.980469 111.148438 152.089844 110.882812 152.140625 L 110.425781 152.222656 L 109.980469 153.03125 C 109.925781 153.132812 109.847656 153.214844 109.746094 153.269531 C 109.625 153.339844 107.324219 154.65625 105.21875 154.65625 " fill-opacity="1" fill-rule="nonzero"/><path fill="#ffffff" d="M 100.609375 147.773438 C 100.609375 147.773438 99.445312 143.941406 97.8125 144.832031 C 96.175781 145.722656 97.566406 149.90625 100.609375 147.773438 " fill-opacity="1" fill-rule="nonzero"/><path fill="#000000" d="M 107.460938 148.910156 C 107.730469 148.980469 107.871094 148.917969 107.957031 148.863281 C 108.148438 148.742188 108.5 148.339844 108.679688 147.054688 C 108.761719 146.480469 108.714844 146.082031 108.546875 145.96875 C 108.21875 145.742188 107.957031 145.863281 107.914062 145.914062 C 106.960938 147.402344 107.230469 148.660156 107.460938 148.910156 Z M 107.679688 150.199219 C 107.476562 150.199219 107.269531 150.167969 107.054688 150.105469 C 106.675781 149.992188 106.363281 149.644531 106.171875 149.132812 C 105.851562 148.265625 105.863281 146.785156 106.859375 145.230469 C 107.0625 144.921875 107.414062 144.691406 107.820312 144.613281 C 108.308594 144.515625 108.820312 144.628906 109.261719 144.929688 C 110.160156 145.554688 109.984375 146.816406 109.925781 147.234375 C 109.730469 148.609375 109.308594 149.492188 108.636719 149.921875 C 108.351562 150.105469 108.027344 150.199219 107.679688 150.199219 " fill-opacity="1" fill-rule="nonzero"/><path fill="#000000" d="M 108.171875 145.8125 C 108.15625 145.8125 108.140625 145.8125 108.125 145.8125 L 99.4375 145.152344 C 99.089844 145.125 98.832031 144.820312 98.855469 144.476562 C 98.882812 144.128906 99.183594 143.867188 99.53125 143.898438 L 108.21875 144.558594 C 108.566406 144.585938 108.824219 144.886719 108.796875 145.230469 C 108.773438 145.5625 108.496094 145.8125 108.171875 145.8125 " fill-opacity="1" fill-rule="nonzero"/><path fill="#000000" d="M 111.128906 148.8125 Z M 110.992188 148.871094 Z M 111.273438 150.050781 C 110.988281 150.050781 110.730469 149.855469 110.660156 149.566406 C 110.589844 149.269531 110.746094 148.96875 111.011719 148.847656 C 111.253906 148.613281 111.925781 147.371094 111.566406 146.324219 C 111.523438 146.195312 111.46875 146.167969 111.421875 146.144531 C 111.140625 146.03125 110.542969 146.207031 110.226562 146.363281 C 109.914062 146.515625 109.539062 146.390625 109.382812 146.082031 C 109.230469 145.769531 109.355469 145.394531 109.664062 145.238281 C 109.796875 145.171875 110.976562 144.605469 111.894531 144.980469 C 112.304688 145.148438 112.601562 145.472656 112.753906 145.914062 C 113.238281 147.324219 112.570312 148.710938 112.355469 149.101562 C 112.058594 149.644531 111.742188 149.957031 111.417969 150.035156 C 111.367188 150.046875 111.320312 150.050781 111.273438 150.050781 " fill-opacity="1" fill-rule="nonzero"/></svg>